<?xml version="1.0" encoding="UTF-8"?>
<svg width="295px" height="42px" viewBox="0 0 295 42" version="1.1" xmlns="http://www.w3.org/2000/svg" xmlns:xlink="http://www.w3.org/1999/xlink">
    <!-- Generator: sketchtool 61.2 (101010) - https://sketch.com -->
    <title>3D150609-D1EC-487C-AF01-2DBB023D0281</title>
    <desc>Created with sketchtool.</desc>
    <g id="00.-Splash" stroke="none" stroke-width="1" fill="none" fill-rule="evenodd">
        <g id="App-Splash" transform="translate(-40.000000, -66.000000)" fill="#FFFFFF">
            <path d="M59.1842356,94.9177519 L65.046425,99.5211158 L60.2440187,106.719867 L60.1909117,106.796497 C59.9191739,107.174028 59.555326,107.466771 59.1412945,107.652413 L59.0577449,107.688125 C58.749397,107.813776 58.415594,107.88102 58.0728897,107.88102 L50.5359234,107.88102 L59.1842356,94.9177519 Z M204.043034,79.4478975 C210.311458,79.4478975 212.079957,86.3316286 212.079957,92.2543143 C212.079957,102.022122 208.619128,105.982909 203.696669,105.982909 C197.812852,105.982909 195.505528,99.7530394 195.505528,92.6386071 C195.505528,85.5624161 198.313122,79.4478975 204.043034,79.4478975 Z M329.275755,79.5249441 C330.968085,79.5249441 332.583306,79.9863462 333.352205,80.4480618 L332.544751,84.7937678 C331.814093,84.3320522 330.698829,83.9092047 329.237514,83.9092047 C327.083781,83.9092047 326.04594,85.2166153 326.04594,86.6011351 C326.04594,88.1392467 326.814839,88.9470139 329.62212,90.6387173 C333.044708,92.7156538 334.313564,95.3307883 334.313564,98.0609599 C334.313564,102.790959 330.813866,105.90605 325.737816,105.90605 C323.661506,105.90605 321.623125,105.367539 320.777116,104.867582 L321.507774,100.522189 C322.546242,101.098942 324.315055,101.521789 325.776371,101.521789 C328.160804,101.521789 329.314309,100.291175 329.314309,98.5991579 C329.314309,96.7149947 328.160804,95.7921904 325.968517,94.3691159 C322.430578,92.215697 321.084613,89.4852119 321.084613,87.1396466 C321.084613,82.9864005 323.853339,79.5249441 329.275755,79.5249441 Z M167.60098,79.5249441 C169.293623,79.5249441 170.908531,79.9863462 171.67743,80.4480618 L170.869976,84.7937678 C170.139318,84.3320522 169.024054,83.9092047 167.562739,83.9092047 C165.40932,83.9092047 164.371165,85.2166153 164.371165,86.6011351 C164.371165,88.1392467 165.140064,88.9470139 167.947345,90.6387173 C171.369933,92.7156538 172.639102,95.3307883 172.639102,98.0609599 C172.639102,102.790959 169.139405,105.90605 164.063354,105.90605 C161.986731,105.90605 159.948349,105.367539 159.102341,104.867582 L159.833312,100.522189 C160.871467,101.098942 162.64028,101.521789 164.101909,101.521789 C166.486029,101.521789 167.639534,100.291175 167.639534,98.5991579 C167.639534,96.7149947 166.486029,95.7921904 164.293742,94.3691159 C160.756117,92.215697 159.409838,89.4852119 159.409838,87.1396466 C159.409838,82.9864005 162.178878,79.5249441 167.60098,79.5249441 Z M191.636708,79.5250695 C193.405834,79.5250695 194.636449,79.8714345 195.136092,80.2171727 L194.290084,84.4472147 C193.713331,84.1782724 193.059469,83.9475713 191.944519,83.9475713 C189.098683,83.9475713 186.522103,86.4088007 186.522103,92.8311297 C186.522103,99.0224442 188.867982,101.445119 191.944519,101.445119 C192.790527,101.445119 193.751886,101.252972 194.367193,101.060513 L194.86715,105.290555 C194.136492,105.63692 192.713418,105.905862 190.944605,105.905862 C184.33013,105.905862 181.176797,100.445205 181.176797,93.100072 C181.176797,83.332264 186.598899,79.5250695 191.636708,79.5250695 Z M152.522251,79.7558646 L157.560061,105.675568 L152.676157,105.675568 L151.560892,99.7528826 L146.90769,99.7528826 L145.753871,105.675568 L140.869967,105.675568 L146.484529,79.7558646 L152.522251,79.7558646 Z M220.367705,79.64042 C223.136431,79.64042 225.597661,80.0250263 227.289678,81.5634513 C228.866344,82.9862124 229.328059,84.7167839 229.328059,86.9469987 C229.328059,89.7160384 227.981781,92.2158224 225.328405,93.446437 L225.328405,93.5229194 C227.097218,94.2153361 227.981781,95.8691117 228.481738,98.6378379 L228.617462,99.4021979 C229.101393,102.064734 229.714585,104.798159 230.135513,105.675474 L224.866689,105.675474 L224.832734,105.590054 C224.518241,104.757727 223.968693,102.228056 223.59752,99.4841598 L223.557718,99.216602 C223.096997,96.2458527 222.304386,95.3566175 220.707616,95.3314665 L219.90599,95.3309137 L219.90599,105.675474 L214.868494,105.675474 L214.868494,80.1403768 C216.44516,79.8328799 218.444674,79.64042 220.367705,79.64042 Z M107.035712,79.7558019 L107.035712,84.1400625 L100.805843,84.1400625 L100.805843,90.1003625 L106.728215,90.1003625 L106.728215,94.2921633 L100.805843,94.2921633 L100.805843,101.291558 L107.497427,101.291558 L107.497427,105.675506 L95.768347,105.675506 L95.768347,79.7558019 L107.035712,79.7558019 Z M142.142835,79.7560213 L142.142835,84.4089108 L137.528187,84.4089108 L137.528187,105.675412 L132.490691,105.675412 L132.490691,84.4089108 L127.91397,84.4089108 L127.91397,79.7560213 L142.142835,79.7560213 Z M237.88033,79.64042 C240.64937,79.64042 243.110285,80.0250263 244.802302,81.5634513 C246.378968,82.9862124 246.840684,84.7167839 246.840684,86.9469987 C246.840684,89.7160384 245.494719,92.2158224 242.841343,93.446437 L242.841343,93.5229194 C244.610156,94.2153361 245.494719,95.8691117 245.994362,98.6378379 L246.10237,99.2486824 C246.590634,101.958916 247.219115,104.781288 247.648138,105.675474 L242.379628,105.675474 L242.345671,105.590054 C242.031157,104.757727 241.481329,102.228056 241.110458,99.4841598 L241.070655,99.216602 C240.609918,96.2458527 239.817027,95.3566175 238.220542,95.3314665 L237.418614,95.3309137 L237.418614,105.675474 L232.381118,105.675474 L232.381118,80.1403768 C233.957785,79.8328799 235.957612,79.64042 237.88033,79.64042 Z M254.989572,79.7560527 L254.989572,105.675443 L249.952077,105.675443 L249.952077,79.7560527 L254.989572,79.7560527 Z M305.159594,79.7560213 L305.159594,84.4089108 L300.544946,84.4089108 L300.544946,105.675412 L295.50745,105.675412 L295.50745,84.4089108 L290.931043,84.4089108 L290.931043,79.7560213 L305.159594,79.7560213 Z M270.05244,79.7558019 L270.05244,84.1400625 L263.822257,84.1400625 L263.822257,90.1003625 L269.744943,90.1003625 L269.744943,94.2921633 L263.822257,94.2921633 L263.822257,101.291558 L270.514156,101.291558 L270.514156,105.675506 L258.784762,105.675506 L258.784762,79.7558019 L270.05244,79.7558019 Z M83.6739376,79.64042 C86.4426638,79.64042 88.9038931,80.0250263 90.5959099,81.5634513 C92.1725762,82.9862124 92.6342918,84.7167839 92.6342918,86.9469987 C92.6342918,89.7160384 91.2883266,92.2158224 88.6346374,93.446437 L88.6346374,93.5229194 C90.4034501,94.2153361 91.2883266,95.8691117 91.7879699,98.6378379 L91.9236944,99.4021979 C92.4076257,102.064734 93.0208172,104.798159 93.4417455,105.675474 L88.1729218,105.675474 L88.1389664,105.590054 C87.8244733,104.757727 87.2749363,102.228056 86.9040659,99.4841598 C86.4491624,96.2989081 85.6575819,95.3573572 84.0138488,95.3314665 L83.212222,95.3309137 L83.212222,105.675474 L78.1747262,105.675474 L78.1747262,80.1403768 C79.7513925,79.8328799 81.7509062,79.64042 83.6739376,79.64042 Z M278.059522,79.756084 L282.058863,89.9081848 L282.368712,90.7164044 C283.13688,92.7270292 284.188264,95.5325812 284.82759,97.4840191 L284.904699,97.4840191 L284.848168,96.5292121 C284.67941,93.7687294 284.404742,89.734344 284.404742,85.4859964 L284.404742,79.756084 L288.827244,79.756084 L288.827244,105.675474 L284.212596,105.675474 L280.251496,95.830557 L280.077961,95.3783439 C279.24924,93.2065859 278.174664,90.2134875 277.636361,88.0237081 L277.559252,88.0237081 L277.656094,90.2416444 C277.758843,92.713154 277.866749,95.9363472 277.866749,99.8298979 L277.866749,105.675474 L273.444561,105.675474 L273.444561,79.756084 L278.059522,79.756084 Z M115.043076,79.756084 L119.042104,89.9081848 L119.520787,91.1588188 C120.26853,93.1234646 121.217484,95.6719696 121.811144,97.4840191 L121.888253,97.4840191 L121.82117,96.3586202 C121.651629,93.6039715 121.388296,89.647643 121.388296,85.4859964 L121.388296,79.756084 L125.810484,79.756084 L125.810484,105.675474 L121.19615,105.675474 L117.23505,95.830557 L117.061515,95.3783439 C116.232795,93.2065859 115.158218,90.2134875 114.619915,88.0237081 L114.542806,88.0237081 L114.64686,90.4194581 C114.744856,92.8073228 114.84528,95.8752304 114.850121,99.5529283 L114.850303,105.675474 L110.428115,105.675474 L110.428115,79.756084 L115.043076,79.756084 Z M318.492204,79.7558019 L318.492204,84.1400625 L312.262335,84.1400625 L312.262335,90.1003625 L318.184707,90.1003625 L318.184707,94.2921633 L312.262335,94.2921633 L312.262335,101.291558 L318.95392,101.291558 L318.95392,105.675506 L307.224839,105.675506 L307.224839,79.7558019 L318.492204,79.7558019 Z M45.7248971,94.9177519 L51.5873999,99.5211158 L49.708252,102.348458 L49.6551138,102.425123 C49.1832038,103.08072 48.4343059,103.481117 47.6269069,103.508881 L47.537123,103.510238 L40,103.510426 L45.7248971,94.9177519 Z M203.850888,83.8321581 C201.851061,83.8321581 200.735797,87.1393958 200.735797,92.7157165 L200.737133,93.0652649 C200.780776,98.7179979 201.891822,101.598648 203.889129,101.598648 C206.004307,101.598648 206.811761,97.7535256 206.811761,92.4847019 L206.809867,92.077564 C206.768797,87.7039662 206.05129,83.8321581 203.850888,83.8321581 Z M58.0732031,77.739111 C58.3847525,77.739111 58.6889454,77.7947248 58.9733448,77.8992842 L59.0580568,77.9321946 C59.5028334,78.113437 59.8946054,78.4162001 60.1839219,78.8139617 L60.2443321,78.9006407 L69.5231541,92.810097 L65.0462682,99.5206143 L50.5669552,77.739111 L58.0732031,77.739111 Z M47.5504447,82.1386054 L47.6436128,82.1402671 C47.7055634,82.1424784 47.7671747,82.1468875 47.8283465,82.1534411 L47.9197051,82.1649813 C48.6292483,82.2664056 49.2716533,82.6568804 49.6881488,83.2516426 L49.7211035,83.3002605 L56.0641291,92.810097 L51.5875567,99.5206143 L40.0435699,82.1386054 L47.5504447,82.1386054 Z M149.407474,84.524418 L149.292123,84.524418 L149.112106,85.7028254 C148.879054,87.2474437 148.607335,89.089133 148.39726,90.2871841 L147.40796,95.830651 L151.09949,95.830651 L150.253482,90.4085491 C149.983913,88.8312559 149.638175,86.254676 149.407474,84.524418 Z M84.4045954,83.5632785 C83.9814345,83.5632785 83.4811642,83.6015197 83.212222,83.7165568 L83.212222,91.4466098 L84.0964716,91.4466098 C86.2884452,91.4466098 87.5576145,89.6774837 87.5576145,87.4084008 C87.5576145,85.2167407 86.6733649,83.6400744 84.4045954,83.5632785 Z M221.098363,83.5632785 C220.675202,83.5632785 220.174932,83.6015197 219.90599,83.7165568 L219.90599,91.4466098 L220.790239,91.4466098 C222.982213,91.4466098 224.251382,89.6774837 224.251382,87.4084008 C224.251382,85.2167407 223.367133,83.6400744 221.098363,83.5632785 Z M238.610988,83.5632785 C238.187827,83.5632785 237.68787,83.6015197 237.418614,83.7165568 L237.418614,91.4466098 L238.303177,91.4466098 C240.495151,91.4466098 241.76432,89.6774837 241.76432,87.4084008 C241.76432,85.2167407 240.879757,83.6400744 238.610988,83.5632785 Z M171.276305,67.6647464 C171.810428,67.6647464 172.283428,67.7929485 172.695931,68.0493527 C173.108121,68.3057569 173.427216,68.675004 173.651962,69.1561536 C173.876707,69.6376167 173.991117,70.1980698 173.993938,70.8368861 L173.993938,71.2011179 C173.993938,71.8430687 173.882976,72.406343 173.661052,72.8906271 C173.439127,73.3752247 173.1216,73.7472929 172.70941,74.0065182 C172.296906,74.2660569 171.822339,74.3958262 171.285395,74.3958262 C170.754406,74.3958262 170.281406,74.2660569 169.865768,74.0065182 C169.45013,73.7472929 169.129468,73.3774189 168.902842,72.8975231 C168.676529,72.4176272 168.561492,71.8640701 168.558985,71.237165 L168.558985,70.8682314 C168.558985,70.2294151 168.671828,69.6652005 168.898454,69.176528 C169.124767,68.6875421 169.444488,68.3132797 169.856678,68.0540545 C170.269182,67.7945158 170.742495,67.6647464 171.276305,67.6647464 Z M146.662319,67.6647151 C147.384827,67.6647151 147.966908,67.8606229 148.407936,68.2518117 C148.84865,68.6433139 149.105368,69.197498 149.177149,69.9143639 L148.043391,69.9143639 C147.989477,69.4435582 147.852185,69.1037757 147.631514,68.8953297 C147.411157,68.6868838 147.087987,68.5825041 146.662319,68.5825041 C146.167064,68.5825041 145.787159,68.7636797 145.521665,69.1250904 C145.256171,69.4871281 145.120446,70.0178033 145.114177,70.7174293 L145.114177,71.2982569 C145.114177,72.0069731 145.240812,72.5470518 145.494708,72.9194334 C145.748291,73.291815 146.119106,73.4780058 146.608092,73.4780058 C147.055075,73.4780058 147.391096,73.3773876 147.616155,73.1764645 C147.8409,72.9755414 147.983208,72.6410876 148.043391,72.1731029 L149.177149,72.1731029 C149.111324,72.8721021 148.853352,73.417196 148.403234,73.8086983 C147.95343,74.2002005 147.355049,74.3957949 146.608092,74.3957949 C146.086193,74.3957949 145.626672,74.2719811 145.2289,74.0246671 C144.831756,73.7770396 144.524886,73.4256593 144.308917,72.9695858 C144.092948,72.5135124 143.980419,71.984091 143.971642,71.3813218 L143.971642,70.769149 C143.971642,70.1513341 144.081037,69.606867 144.299827,69.1360613 C144.51893,68.6652556 144.833323,68.3019641 145.242379,68.0471272 C145.652061,67.7922903 146.125375,67.6647151 146.662319,67.6647151 Z M132.649987,67.6647151 C133.372809,67.6647151 133.95489,67.8606229 134.395918,68.2518117 C134.836632,68.6433139 135.09335,69.197498 135.165131,69.9143639 L134.031373,69.9143639 C133.977459,69.4435582 133.839853,69.1037757 133.619496,68.8953297 C133.399139,68.6868838 133.075969,68.5825041 132.649987,68.5825041 C132.155046,68.5825041 131.775141,68.7636797 131.509334,69.1250904 C131.243839,69.4871281 131.108428,70.0178033 131.102159,70.7174293 L131.102159,71.2982569 C131.102159,72.0069731 131.228794,72.5470518 131.482377,72.9194334 C131.73596,73.291815 132.107088,73.4780058 132.596074,73.4780058 C133.042743,73.4780058 133.379078,73.3773876 133.604137,73.1764645 C133.828569,72.9755414 133.97119,72.6410876 134.031373,72.1731029 L135.165131,72.1731029 C135.099306,72.8721021 134.841334,73.417196 134.391216,73.8086983 C133.941412,74.2002005 133.343031,74.3957949 132.596074,74.3957949 C132.074175,74.3957949 131.614654,74.2719811 131.216882,74.0246671 C130.819425,73.7770396 130.512868,73.4256593 130.296899,72.9695858 C130.080617,72.5135124 129.968401,71.984091 129.959624,71.3813218 L129.959624,70.769149 C129.959624,70.1513341 130.068706,69.606867 130.287809,69.1360613 C130.506912,68.6652556 130.820992,68.3019641 131.230361,68.0471272 C131.640043,67.7922903 132.113043,67.6647151 132.649987,67.6647151 Z M210.585823,67.6646524 C211.3146,67.6646524 211.893234,67.8455145 212.322664,68.2069253 C212.751467,68.5683361 213.009125,69.0880404 213.096265,69.7657247 L211.980687,69.7657247 C211.854366,68.9770782 211.397038,68.5827549 210.608392,68.5827549 C210.098091,68.5827549 209.710664,68.7661246 209.445169,69.1331775 C209.179675,69.5005439 209.042383,70.0390554 209.033293,70.7493388 L209.033293,71.2527436 C209.033293,71.9598925 209.182496,72.5090613 209.480903,72.9002501 C209.779623,73.2914389 210.194321,73.4870333 210.72531,73.4870333 C211.307078,73.4870333 211.721148,73.3547563 211.967209,73.0908293 L211.967209,71.8088084 L210.617168,71.8088084 L210.617168,70.9449332 L213.100966,70.9449332 L213.100966,73.4553746 C212.863996,73.7641253 212.535498,73.9982744 212.115472,74.1571948 C211.695445,74.3164287 211.21837,74.3957322 210.684561,74.3957322 C210.135705,74.3957322 209.649854,74.271605 209.227006,74.0224102 C208.803846,73.7732154 208.477855,73.4171333 208.248408,72.9538505 C208.018647,72.4902542 207.899535,71.949862 207.890445,71.3317336 L207.890445,70.8186118 C207.890445,69.8290422 208.127415,69.0557547 208.601669,68.4993765 C209.075295,67.9429982 209.736994,67.6646524 210.585823,67.6646524 Z M333.235444,67.754864 L333.235444,68.6726531 L330.12192,68.6726531 L330.12192,70.4812742 L332.812283,70.4812742 L332.812283,71.3811964 L330.12192,71.3811964 L330.12192,73.3970097 L333.266789,73.3970097 L333.266789,74.3057086 L328.98346,74.3057086 L328.98346,67.754864 L333.235444,67.754864 Z M254.379468,67.754864 L254.379468,68.6726531 L251.265631,68.6726531 L251.265631,70.4812742 L253.956307,70.4812742 L253.956307,71.3811964 L251.265631,71.3811964 L251.265631,73.3970097 L254.410814,73.3970097 L254.410814,74.3057086 L250.127485,74.3057086 L250.127485,67.754864 L254.379468,67.754864 Z M121.374567,67.754864 L121.374567,68.6726531 L118.261043,68.6726531 L118.261043,70.4812742 L120.951719,70.4812742 L120.951719,71.3811964 L118.261043,71.3811964 L118.261043,73.3970097 L121.405912,73.3970097 L121.405912,74.3057086 L117.122583,74.3057086 L117.122583,67.754864 L121.374567,67.754864 Z M316.92259,67.7548327 C317.501537,67.7548327 318.015286,67.8836617 318.463836,68.1416331 C318.912074,68.3996046 319.259379,68.7654037 319.505126,69.2396574 C319.751186,69.7135976 319.874373,70.2564974 319.874373,70.8683567 L319.874373,71.196855 C319.874373,71.8178045 319.750559,72.3635253 319.502932,72.8346445 C319.255618,73.3054502 318.902983,73.6684282 318.445656,73.9232652 C317.988329,74.1781021 317.464236,74.3056773 316.873378,74.3056773 L314.987961,74.3056773 L314.987961,67.7548327 L316.92259,67.7548327 Z M292.739006,67.75477 L292.739006,73.3969157 L295.713044,73.3969157 L295.713044,74.3056146 L291.600547,74.3056146 L291.600547,67.75477 L292.739006,67.75477 Z M280.319358,67.7548954 L282.798455,74.3057399 L281.610469,74.3057399 L281.075092,72.7804799 L278.537381,72.7804799 L278.006392,74.3057399 L276.823422,74.3057399 L279.297817,67.7548954 L280.319358,67.7548954 Z M184.273802,67.7548954 L187.202703,72.4206364 L187.202703,67.7548954 L188.332072,67.7548954 L188.332072,74.3057399 L187.193613,74.3057399 L184.273802,69.6578657 L184.273802,74.3057399 L183.135343,74.3057399 L183.135343,67.7548954 L184.273802,67.7548954 Z M265.62881,67.7548013 C266.384544,67.7548013 266.967879,67.9243792 267.378815,68.2635348 C267.789751,68.6026905 267.995376,69.0938706 267.995376,69.7361348 C267.995376,70.1746549 267.889743,70.5413944 267.678162,70.8372936 C267.466582,71.1328793 267.171937,71.3601324 266.794226,71.5193663 L268.265259,74.2473437 L268.265259,74.3056459 L267.045929,74.3056459 L265.732249,71.7861144 L264.463393,71.7861144 L264.463393,74.3056459 L263.324934,74.3056459 L263.324934,67.7548013 L265.62881,67.7548013 Z M159.391877,67.7548954 L159.391877,74.3057399 L158.258119,74.3057399 L158.258119,67.7548954 L159.391877,67.7548954 Z M236.701497,67.7548954 L239.630398,72.4206364 L239.630398,67.7548954 L240.760081,67.7548954 L240.760081,74.3057399 L239.621621,74.3057399 L236.701497,69.6578657 L236.701497,74.3057399 L235.563351,74.3057399 L235.563351,67.7548954 L236.701497,67.7548954 Z M80.7171398,67.7548327 C81.2960866,67.7548327 81.8098353,67.8836617 82.2583859,68.1416331 C82.706623,68.3996046 83.0539284,68.7654037 83.2996752,69.2396574 C83.5457355,69.7135976 83.6689223,70.2564974 83.6689223,70.8683567 L83.6689223,71.196855 C83.6689223,71.8178045 83.5451086,72.3635253 83.2974811,72.8346445 C83.050167,73.3054502 82.6975329,73.6684282 82.2402056,73.9232652 C81.7828784,74.1781021 81.2587858,74.3056773 80.6679277,74.3056773 L78.7825107,74.3056773 L78.7825107,67.7548327 L80.7171398,67.7548327 Z M93.9570928,67.7548954 L93.9570928,74.3057399 L92.823335,74.3057399 L92.823335,67.7548954 L93.9570928,67.7548954 Z M105.652007,67.7548013 C106.408055,67.7548013 106.991076,67.9243792 107.402326,68.2635348 C107.813262,68.6026905 108.018887,69.0938706 108.018887,69.7361348 C108.018887,70.1746549 107.91294,70.5413944 107.701673,70.8372936 C107.490093,71.1328793 107.195447,71.3601324 106.817424,71.5193663 L108.28877,74.2473437 L108.28877,74.3056459 L107.069126,74.3056459 L105.755446,71.7861144 L104.48659,71.7861144 L104.48659,74.3056459 L103.348444,74.3056459 L103.348444,67.7548013 L105.652007,67.7548013 Z M226.617479,67.754864 L226.617479,68.6726531 L223.503641,68.6726531 L223.503641,70.4812742 L226.194318,70.4812742 L226.194318,71.3811964 L223.503641,71.3811964 L223.503641,73.3970097 L226.648824,73.3970097 L226.648824,74.3057086 L222.365495,74.3057086 L222.365495,67.754864 L226.617479,67.754864 Z M171.276305,68.6094924 C170.784184,68.6094924 170.399891,68.8022657 170.122173,69.1878123 C169.844767,69.5730455 169.703086,70.1184529 169.696817,70.8234076 L169.696817,71.2011179 C169.696817,71.9211184 169.837244,72.4774967 170.117784,72.8705662 C170.398324,73.2636356 170.787632,73.4598569 171.285395,73.4598569 C171.789113,73.4598569 172.177167,73.268024 172.448617,72.8840446 C172.720067,72.5000653 172.855792,71.9389852 172.855792,71.2011179 L172.855792,70.8591412 C172.855792,70.1334986 172.7185,69.5771204 172.443915,69.1900065 C172.169331,68.8028926 171.780336,68.6094924 171.276305,68.6094924 Z M316.92259,68.6726217 L316.126421,68.6726217 L316.126421,73.3969784 L316.868677,73.3969784 C317.46549,73.3969784 317.923758,73.2101606 318.243166,72.8368387 C318.562574,72.4632032 318.725256,71.9271994 318.731525,71.2282002 L318.731525,70.8636549 C318.731525,70.153058 318.576679,69.6101583 318.267929,69.2349556 C317.959178,68.8600663 317.510627,68.6726217 316.92259,68.6726217 Z M80.7171398,68.6726217 L79.9209703,68.6726217 L79.9209703,73.3969784 L80.6632259,73.3969784 C81.2600396,73.3969784 81.7183072,73.2101606 82.0377153,72.8368387 C82.3571234,72.4632032 82.5198053,71.9271994 82.5260744,71.2282002 L82.5260744,70.8636549 C82.5260744,70.153058 82.3712288,69.6101583 82.0624781,69.2349556 C81.7537273,68.8600663 81.3051767,68.6726217 80.7171398,68.6726217 Z M279.806237,69.1450574 L278.857102,71.8626909 L280.755684,71.8626909 L279.806237,69.1450574 Z M105.688054,68.6725904 L104.48659,68.6725904 L104.48659,70.8683254 L105.656395,70.8683254 C106.040688,70.8683254 106.340349,70.7714686 106.556631,70.5780683 C106.772286,70.3846681 106.880427,70.1198007 106.880427,69.7840931 C106.880427,69.4330262 106.780436,69.1615763 106.581394,68.9694299 C106.381724,68.777597 106.083945,68.6788594 105.688054,68.6725904 Z M265.664543,68.6725904 L264.463393,68.6725904 L264.463393,70.8683254 L265.632885,70.8683254 C266.017177,70.8683254 266.317151,70.7714686 266.53312,70.5780683 C266.749089,70.3846681 266.856917,70.1198007 266.856917,69.7840931 C266.856917,69.4330262 266.757239,69.1615763 266.557883,68.9694299 C266.358214,68.777597 266.060747,68.6788594 265.664543,68.6725904 Z M172.855792,66 L171.609191,67.3632051 L170.731838,67.3610109 L171.609191,66 L172.855792,66 Z" id="Logo"></path>
        </g>
    </g>
</svg>