<?xml version="1.0" encoding="utf-8"?>
<!-- Generator: Adobe Illustrator 16.0.0, SVG Export Plug-In . SVG Version: 6.00 Build 0)  -->
<!DOCTYPE svg PUBLIC "-//W3C//DTD SVG 1.1//EN" "http://www.w3.org/Graphics/SVG/1.1/DTD/svg11.dtd">
<svg version="1.1" id="Capa_1" xmlns="http://www.w3.org/2000/svg" xmlns:xlink="http://www.w3.org/1999/xlink" x="0px" y="0px"
	 width="783px" height="117px" viewBox="0 0 783 117" enable-background="new 0 0 783 117" xml:space="preserve">
<path fill="#FFFFFF" d="M111.047,40.691c4.13-0.806,9.366-1.309,14.402-1.309c7.251,0,13.697,1.007,18.128,5.036
	c4.129,3.727,5.338,8.258,5.338,14.099c0,7.252-3.526,13.799-10.475,17.022v0.2c4.632,1.813,6.949,6.144,8.258,13.394
	c1.31,7.554,3.123,15.913,4.331,18.432h-13.797c-0.806-1.914-2.317-8.762-3.324-16.214c-1.208-8.462-3.323-10.877-7.755-10.877
	h-1.913v27.091h-13.193V40.691z M124.241,70.302h2.316c5.741,0,9.065-4.635,9.065-10.576c0-5.74-2.317-9.87-8.258-10.071
	c-1.108,0-2.417,0.101-3.123,0.402V70.302z"/>
<polygon fill="#FFFFFF" points="185.827,77.753 170.316,77.753 170.316,96.084 187.841,96.084 187.841,107.564 157.124,107.564 
	157.124,39.684 186.632,39.684 186.632,51.166 170.316,51.166 170.316,66.776 185.827,66.776 "/>
<path fill="#FFFFFF" d="M195.516,107.564v-67.88h12.086l10.474,26.587c2.014,5.237,5.337,14,7.251,19.841h0.202
	c-0.403-7.151-1.311-18.933-1.311-31.422V39.684h11.583v67.88h-12.086l-10.373-25.782c-2.216-5.741-5.338-14.302-6.849-20.445
	h-0.202c0.303,6.849,0.805,17.323,0.805,30.919v15.309H195.516z"/>
<polygon fill="#FFFFFF" points="253.295,51.87 241.31,51.87 241.31,39.684 278.573,39.684 278.573,51.87 266.488,51.87 
	266.488,107.564 253.295,107.564 "/>
<path fill="#FFFFFF" d="M291.052,92.054l-3.022,15.511h-12.79l14.704-67.88h15.812l13.193,67.88h-12.791l-2.921-15.511H291.052z
	 M302.03,81.783l-2.217-14.2c-0.704-4.132-1.611-10.879-2.215-15.411h-0.302c-0.705,4.531-1.712,11.583-2.417,15.508l-2.519,14.103
	H302.03z"/>
<path fill="#FFFFFF" d="M324.902,94.069c2.719,1.509,7.353,2.617,11.179,2.617c6.244,0,9.265-3.223,9.265-7.654
	c0-4.935-3.021-7.351-8.762-11.078c-9.265-5.639-12.79-12.79-12.79-18.933c0-10.876,7.251-19.942,21.452-19.942
	c4.432,0,8.661,1.208,10.676,2.417l-2.115,11.381c-1.914-1.208-4.833-2.316-8.661-2.316c-5.64,0-8.359,3.424-8.359,7.05
	c0,4.028,2.014,6.144,9.366,10.575c8.963,5.438,12.287,12.288,12.287,19.438c0,12.386-9.165,20.544-22.458,20.544
	c-5.438,0-10.777-1.41-12.992-2.719L324.902,94.069z"/>
<path fill="#FFFFFF" d="M416.652,106.557c-1.914,0.906-5.641,1.611-10.273,1.611c-17.322,0-25.58-14.301-25.58-33.537
	c0-25.581,14.2-35.551,27.394-35.551c4.633,0,7.855,0.907,9.164,1.813l-2.215,11.078c-1.511-0.705-3.224-1.308-6.144-1.308
	c-7.452,0-14.2,6.445-14.2,23.265c0,16.215,6.144,22.559,14.2,22.559c2.215,0,4.733-0.502,6.346-1.007L416.652,106.557z"/>
<path fill="#FFFFFF" d="M461.73,72.415c0,25.582-9.064,35.954-21.955,35.954c-15.409,0-21.451-16.315-21.451-34.946
	c0-18.532,7.352-34.545,22.358-34.545C457.099,38.877,461.73,56.905,461.73,72.415 M432.021,73.625
	c0,15.407,2.921,23.263,8.26,23.263c5.539,0,7.653-10.07,7.653-23.867c0-11.884-1.813-22.661-7.755-22.661
	C434.941,50.359,432.021,59.021,432.021,73.625"/>
<path fill="#FFFFFF" d="M469.034,40.691c4.129-0.806,9.365-1.309,14.401-1.309c7.251,0,13.695,1.007,18.128,5.036
	c4.129,3.727,5.338,8.258,5.338,14.099c0,7.252-3.525,13.799-10.475,17.022v0.2c4.633,1.813,6.949,6.144,8.259,13.394
	c1.309,7.554,3.122,15.913,4.331,18.432h-13.799c-0.806-1.914-2.315-8.762-3.324-16.214c-1.207-8.462-3.322-10.877-7.754-10.877
	h-1.914v27.091h-13.191V40.691z M482.226,70.302h2.316c5.741,0,9.064-4.635,9.064-10.576c0-5.74-2.315-9.87-8.258-10.071
	c-1.107,0-2.418,0.101-3.123,0.402V70.302z"/>
<path fill="#FFFFFF" d="M514.897,40.691c4.129-0.806,9.365-1.309,14.402-1.309c7.252,0,13.696,1.007,18.127,5.036
	c4.129,3.727,5.339,8.258,5.339,14.099c0,7.252-3.525,13.799-10.474,17.022v0.2c4.631,1.813,6.948,6.144,8.257,13.394
	c1.31,7.554,3.123,15.913,4.331,18.432h-13.798c-0.805-1.914-2.316-8.762-3.323-16.214c-1.207-8.462-3.324-10.877-7.755-10.877
	h-1.913v27.091h-13.193V40.691z M528.091,70.302h2.315c5.741,0,9.064-4.635,9.064-10.576c0-5.74-2.316-9.87-8.258-10.071
	c-1.108,0-2.419,0.101-3.122,0.402V70.302z"/>
<rect x="560.914" y="39.684" fill="#FFFFFF" width="13.192" height="67.881"/>
<polygon fill="#FFFFFF" points="612.749,77.753 597.238,77.753 597.238,96.084 614.763,96.084 614.763,107.564 584.046,107.564 
	584.046,39.684 613.555,39.684 613.555,51.166 597.238,51.166 597.238,66.776 612.749,66.776 "/>
<path fill="#FFFFFF" d="M622.438,107.564v-67.88h12.085l10.475,26.587c2.014,5.237,5.338,14,7.251,19.841h0.201
	c-0.403-7.151-1.309-18.933-1.309-31.422V39.684h11.582v67.88h-12.085l-10.375-25.782c-2.214-5.741-5.338-14.302-6.848-20.445
	h-0.202c0.303,6.849,0.805,17.323,0.805,30.919v15.309H622.438z"/>
<polygon fill="#FFFFFF" points="680.218,51.87 668.233,51.87 668.233,39.684 705.496,39.684 705.496,51.87 693.41,51.87 
	693.41,107.564 680.218,107.564 "/>
<polygon fill="#FFFFFF" points="739.607,77.753 724.098,77.753 724.098,96.084 741.622,96.084 741.622,107.564 710.905,107.564 
	710.905,39.684 740.413,39.684 740.413,51.166 724.098,51.166 724.098,66.776 739.607,66.776 "/>
<path fill="#FFFFFF" d="M748.311,94.069c2.72,1.509,7.352,2.617,11.179,2.617c6.245,0,9.266-3.223,9.266-7.654
	c0-4.935-3.021-7.351-8.762-11.078c-9.267-5.639-12.792-12.79-12.792-18.933c0-10.876,7.252-19.942,21.452-19.942
	c4.432,0,8.663,1.208,10.676,2.417l-2.114,11.381c-1.914-1.208-4.835-2.316-8.661-2.316c-5.641,0-8.358,3.424-8.358,7.05
	c0,4.028,2.013,6.144,9.365,10.575c8.964,5.438,12.287,12.288,12.287,19.438c0,12.386-9.166,20.544-22.459,20.544
	c-5.438,0-10.776-1.41-12.992-2.719L748.311,94.069z"/>
<path fill-rule="evenodd" clip-rule="evenodd" fill="#FFFFFF" d="M38.746,34.403h19.658c2.285,0,4.418,1.141,5.686,3.042
	l24.301,36.427L76.666,91.446L38.746,34.403z M38.665,113.341l22.648-33.949l15.353,12.056L64.09,110.3
	c-1.269,1.9-3.401,3.041-5.687,3.041H38.665z M3.498,34.403h19.659c2.285,0,4.417,1.141,5.686,3.042l24.3,36.427L41.418,91.446
	L3.498,34.403z M3.417,113.341l22.648-33.949l15.353,12.056L28.842,110.3c-1.268,1.9-3.401,3.041-5.686,3.041H3.417z"/>
<path fill="#FFFFFF" d="M3.417,113.341h19.738c2.285,0,4.418-1.141,5.686-3.041l12.577-18.854L26.065,79.392L3.417,113.341z
	 M38.665,113.341h19.739c2.285,0,4.417-1.141,5.686-3.041l12.577-18.854v-0.001l-0.001,0.001l-0.001-0.002L61.313,79.392
	L38.665,113.341z M3.498,34.404l37.92,57.042l11.724-17.575l-24.3-36.427c-1.268-1.9-3.401-3.041-5.686-3.041H3.498z M38.746,34.404
	l37.918,57.041l0.002,0.001l11.724-17.574l-24.3-36.427c-1.268-1.9-3.401-3.041-5.686-3.041H38.746z"/>
<g>
	<defs>
		<path id="SVGID_1_" d="M3.498,34.404l37.92,57.042L26.065,79.392L3.417,113.341h19.738c2.285,0,4.418-1.141,5.686-3.041
			l12.577-18.854l11.724-17.575l-24.3-36.427c-1.268-1.9-3.401-3.041-5.686-3.041H3.498z M76.664,91.444l0.001,0.001v0.001
			L76.664,91.444z M38.746,34.404l37.918,57.041L61.313,79.392l-22.647,33.949h19.739c2.285,0,4.417-1.141,5.686-3.041
			l12.577-18.854l-0.001-0.001l11.725-17.574l-24.3-36.427c-1.268-1.9-3.401-3.041-5.686-3.041H38.746z"/>
	</defs>
	<use xlink:href="#SVGID_1_"  overflow="visible" fill="#FFFFFF"/>
	<clipPath id="SVGID_2_">
		<use xlink:href="#SVGID_1_"  overflow="visible"/>
	</clipPath>
	<rect y="30.985" clip-path="url(#SVGID_2_)" fill="#FFFFFF" width="91.808" height="85.772"/>
</g>
<path fill="#FFFFFF" d="M112.64,25.411V8.254h5.066c1.516,0,2.861,0.337,4.036,1.013c1.175,0.676,2.084,1.634,2.728,2.875
	c0.644,1.241,0.966,2.663,0.966,4.266v0.86c0,1.627-0.324,3.056-0.972,4.289c-0.649,1.233-1.572,2.185-2.77,2.852
	c-1.197,0.667-2.57,1.001-4.118,1.001H112.64z M115.621,10.659V23.03h1.945c1.562,0,2.762-0.489,3.6-1.466
	c0.836-0.979,1.262-2.382,1.278-4.213v-0.955c0-1.86-0.405-3.283-1.213-4.265c-0.809-0.982-1.984-1.472-3.523-1.472H115.621z"/>
<rect x="149.412" y="8.254" fill="#FFFFFF" width="2.969" height="17.156"/>
<path fill="#FFFFFF" d="M183.279,18.812h-3.323v6.599h-2.981V8.254h6.032c1.98,0,3.508,0.444,4.584,1.332
	c1.077,0.889,1.615,2.174,1.615,3.857c0,1.149-0.277,2.109-0.831,2.883c-0.554,0.775-1.326,1.37-2.316,1.788l3.854,7.144v0.153
	h-3.194L183.279,18.812z M179.956,16.409h3.063c1.006,0,1.791-0.254,2.357-0.761c0.565-0.506,0.848-1.2,0.848-2.079
	c0-0.919-0.261-1.63-0.783-2.133c-0.523-0.502-1.302-0.761-2.339-0.777h-3.146V16.409z"/>
<polygon fill="#FFFFFF" points="223.076,17.751 216.03,17.751 216.03,23.031 224.266,23.031 224.266,25.411 213.048,25.411 
	213.048,8.255 224.184,8.255 224.184,10.659 216.03,10.659 216.03,15.395 223.076,15.395 "/>
<path fill="#FFFFFF" d="M260.299,19.825c-0.172,1.832-0.849,3.258-2.026,4.283c-1.178,1.025-2.746,1.538-4.701,1.538
	c-1.367,0-2.572-0.324-3.612-0.971c-1.041-0.649-1.844-1.569-2.409-2.764c-0.566-1.194-0.86-2.581-0.884-4.159v-1.603
	c0-1.619,0.288-3.044,0.86-4.276c0.573-1.233,1.396-2.185,2.469-2.853c1.071-0.667,2.311-1.001,3.718-1.001
	c1.893,0,3.417,0.513,4.571,1.538c1.155,1.025,1.826,2.477,2.015,4.354h-2.969c-0.142-1.232-0.501-2.123-1.079-2.668
	c-0.577-0.546-1.424-0.819-2.539-0.819c-1.296,0-2.292,0.475-2.988,1.421c-0.695,0.949-1.05,2.338-1.066,4.17v1.521
	c0,1.855,0.332,3.271,0.996,4.245c0.664,0.976,1.636,1.463,2.917,1.463c1.17,0,2.049-0.264,2.639-0.79
	c0.589-0.526,0.962-1.402,1.119-2.628H260.299z"/>
<path fill="#FFFFFF" d="M296.996,19.825c-0.172,1.832-0.849,3.258-2.027,4.283c-1.178,1.025-2.745,1.538-4.701,1.538
	c-1.367,0-2.571-0.324-3.612-0.971c-1.041-0.649-1.844-1.569-2.409-2.764c-0.566-1.194-0.861-2.581-0.884-4.159v-1.603
	c0-1.619,0.287-3.044,0.86-4.276c0.573-1.233,1.396-2.185,2.468-2.853c1.072-0.667,2.312-1.001,3.718-1.001
	c1.893,0,3.418,0.513,4.572,1.538c1.155,1.025,1.827,2.477,2.015,4.354h-2.969c-0.142-1.232-0.501-2.123-1.079-2.668
	c-0.577-0.546-1.424-0.819-2.539-0.819c-1.296,0-2.292,0.475-2.987,1.421c-0.695,0.949-1.05,2.338-1.066,4.17v1.521
	c0,1.855,0.332,3.271,0.996,4.245c0.664,0.976,1.636,1.463,2.917,1.463c1.17,0,2.05-0.264,2.639-0.79s0.962-1.402,1.12-2.628
	H296.996z"/>
<rect x="320.777" y="8.254" fill="#FFFFFF" width="2.97" height="17.156"/>
<path fill="#FFFFFF" d="M361.988,17.28c0,1.681-0.291,3.156-0.872,4.424c-0.583,1.269-1.413,2.244-2.493,2.923
	c-1.08,0.68-2.323,1.02-3.729,1.02c-1.392,0-2.629-0.34-3.718-1.02c-1.088-0.679-1.929-1.647-2.521-2.904
	c-0.593-1.257-0.895-2.707-0.902-4.348v-0.967c0-1.672,0.296-3.15,0.89-4.43c0.593-1.28,1.43-2.261,2.51-2.939
	c1.08-0.68,2.319-1.02,3.717-1.02c1.399,0,2.637,0.336,3.718,1.008c1.08,0.671,1.915,1.638,2.504,2.898
	c0.588,1.261,0.888,2.729,0.896,4.402V17.28z M359.007,16.385c0-1.901-0.36-3.357-1.079-4.371c-0.719-1.015-1.738-1.52-3.058-1.52
	c-1.289,0-2.296,0.504-3.023,1.514c-0.726,1.009-1.097,2.438-1.113,4.283v0.99c0,1.885,0.368,3.343,1.103,4.372
	c0.734,1.029,1.754,1.543,3.058,1.543c1.319,0,2.334-0.503,3.046-1.508c0.71-1.006,1.066-2.476,1.066-4.407V16.385z M355.742,3.659
	h3.265l-3.265,3.569l-2.297-0.005L355.742,3.659z"/>
<polygon fill="#FFFFFF" points="399.538,25.411 396.557,25.411 388.91,13.238 388.91,25.411 385.928,25.411 385.928,8.255 
	388.91,8.255 396.58,20.474 396.58,8.255 399.538,8.255 "/>
<path fill="#FFFFFF" d="M464.405,23.184c-0.621,0.809-1.481,1.422-2.582,1.838c-1.1,0.417-2.349,0.624-3.746,0.624
	c-1.438,0-2.71-0.324-3.818-0.977c-1.107-0.652-1.962-1.585-2.563-2.799c-0.602-1.214-0.914-2.63-0.938-4.248v-1.344
	c0-2.591,0.62-4.617,1.862-6.074c1.24-1.458,2.974-2.186,5.196-2.186c1.909,0,3.425,0.474,4.549,1.42
	c1.123,0.946,1.798,2.308,2.026,4.083h-2.922c-0.331-2.065-1.528-3.098-3.595-3.098c-1.336,0-2.35,0.48-3.045,1.441
	c-0.695,0.962-1.056,2.373-1.079,4.233v1.319c0,1.852,0.391,3.29,1.173,4.314c0.781,1.025,1.868,1.537,3.258,1.537
	c1.523,0,2.609-0.346,3.252-1.039v-3.357h-3.535v-2.262h6.506V23.184z"/>
<polygon fill="#FFFFFF" points="498.695,17.751 491.648,17.751 491.648,23.031 499.886,23.031 499.886,25.411 488.667,25.411 
	488.667,8.255 499.804,8.255 499.804,10.659 491.648,10.659 491.648,15.395 498.695,15.395 "/>
<polygon fill="#FFFFFF" points="536.841,25.411 533.859,25.411 526.212,13.238 526.212,25.411 523.231,25.411 523.231,8.255 
	526.212,8.255 533.882,20.474 533.882,8.255 536.841,8.255 "/>
<polygon fill="#FFFFFF" points="571.4,17.751 564.354,17.751 564.354,23.031 572.591,23.031 572.591,25.411 561.373,25.411 
	561.373,8.255 572.509,8.255 572.509,10.659 564.354,10.659 564.354,15.395 571.4,15.395 "/>
<path fill="#FFFFFF" d="M602.24,18.812h-3.323v6.599h-2.981V8.254h6.033c1.98,0,3.508,0.444,4.584,1.332
	c1.076,0.889,1.614,2.174,1.614,3.857c0,1.149-0.277,2.109-0.831,2.883c-0.554,0.775-1.326,1.37-2.315,1.788l3.854,7.144v0.153
	h-3.193L602.24,18.812z M598.917,16.409h3.063c1.008,0,1.792-0.254,2.358-0.761c0.564-0.506,0.848-1.2,0.848-2.079
	c0-0.919-0.261-1.63-0.783-2.133c-0.522-0.502-1.303-0.761-2.34-0.777h-3.146V16.409z"/>
<path fill="#FFFFFF" d="M642.421,21.417h-6.646l-1.391,3.994h-3.098l6.48-17.155h2.675l6.492,17.155h-3.111L642.421,21.417z
	 M636.612,19.012h4.972l-2.486-7.117L636.612,19.012z"/>
<polygon fill="#FFFFFF" points="672.968,23.03 680.757,23.03 680.757,25.411 669.986,25.411 669.986,8.254 672.968,8.254 "/>
<path fill="#FFFFFF" d="M731.235,25.411V8.254h5.067c1.516,0,2.861,0.337,4.035,1.013c1.175,0.676,2.085,1.634,2.728,2.875
	c0.645,1.241,0.967,2.663,0.967,4.266v0.86c0,1.627-0.324,3.056-0.972,4.289c-0.65,1.233-1.572,2.185-2.77,2.852
	c-1.198,0.667-2.57,1.001-4.118,1.001H731.235z M734.217,10.659V23.03h1.944c1.563,0,2.763-0.489,3.6-1.466
	c0.837-0.979,1.263-2.382,1.279-4.213v-0.955c0-1.86-0.405-3.283-1.214-4.265c-0.809-0.982-1.984-1.472-3.523-1.472H734.217z"/>
<polygon fill="#FFFFFF" points="777.916,17.751 770.87,17.751 770.87,23.031 779.105,23.031 779.105,25.411 767.888,25.411 
	767.888,8.255 779.023,8.255 779.023,10.659 770.87,10.659 770.87,15.395 777.916,15.395 "/>
</svg>
