<svg id="Capa_1" data-name="Capa 1" xmlns="http://www.w3.org/2000/svg" viewBox="0 0 100 100"><defs><style>.cls-1{fill:#406da8;}.cls-2{fill:#989898;}.cls-3{fill:#363636;}</style></defs><title>Card - Pagos</title><path class="cls-1" d="M81.54,45.77H19.83V35.65H81.54Zm-61.71-2H81.54V37.65H19.83Z"/><path class="cls-2" d="M78.25,81.27h-.1a1,1,0,0,1,0-2,1,1,0,0,1,1,1A1,1,0,0,1,78.25,81.27Zm-4.1,0h-.1a1,1,0,0,1,0-2h.1a1,1,0,0,1,0,2Zm-4.1,0H70a1,1,0,0,1,0-2,1,1,0,0,1,1,1A1,1,0,0,1,70.05,81.27Zm-4.1,0h-.11a1,1,0,0,1,0-2H66a1,1,0,0,1,0,2Zm-4.11,0h-.09a1,1,0,1,1,0-2,1,1,0,0,1,1,1A1,1,0,0,1,61.84,81.27Zm-4.09,0h-.1a1,1,0,1,1,0-2,1,1,0,0,1,1.05,1A1,1,0,0,1,57.75,81.27Zm-4.1,0h-.1a1,1,0,0,1,0-2h.1a1,1,0,0,1,0,2Zm-4.1,0h-.1a1,1,0,0,1,0-2,1,1,0,0,1,1,1A1,1,0,0,1,49.55,81.27Zm-4.1,0h-.11a1,1,0,0,1,0-2h.11a1,1,0,0,1,0,2Zm-4.11,0h-.09a1,1,0,0,1,0-2,1,1,0,0,1,1,1A1,1,0,0,1,41.34,81.27Zm-4.09,0h-.1a1,1,0,1,1,0-2,1,1,0,0,1,1.05,1A1,1,0,0,1,37.25,81.27Zm-4.1,0h-.1a1,1,0,0,1,0-2h.1a1,1,0,0,1,0,2Zm-4.1,0H29a1,1,0,0,1,0-2,1,1,0,0,1,1.05,1A1,1,0,0,1,29.05,81.27Zm53.15-.42a1,1,0,0,1-.29-1.95l.1,0a1,1,0,1,1,.58,1.91l-.09,0A1,1,0,0,1,82.2,80.85Zm3.59-1.93a1,1,0,0,1-.67-1.75l.1-.08a1,1,0,0,1,1.41.12,1,1,0,0,1-.12,1.41l-.06,0A1,1,0,0,1,85.79,78.92Zm2.51-3.2a1.06,1.06,0,0,1-.45-.11,1,1,0,0,1-.44-1.34,1,1,0,0,1,1.35-.5,1,1,0,0,1,.49,1.29l0,.1A1,1,0,0,1,88.3,75.72Zm1-3.94h-.09a1,1,0,0,1-.91-1.08,1.06,1.06,0,0,1,1.06-1,1,1,0,0,1,.94,1s0,.14,0,.16A1,1,0,0,1,89.33,71.78Zm0-4.1a1,1,0,0,1-1-1v-.1a1,1,0,0,1,2,0v.1A1,1,0,0,1,89.34,67.68Zm0-4.1a1,1,0,0,1-1-1,1,1,0,0,1,1-1,1,1,0,0,1,1,.95v.1A1,1,0,0,1,89.34,63.58Zm0-4.1a1,1,0,0,1-1-1,1,1,0,0,1,1-1,1,1,0,0,1,1,1v.1A1,1,0,0,1,89.34,59.48Zm0-4.1a1,1,0,0,1-1-1v-.1a1,1,0,0,1,2,0v.1A1,1,0,0,1,89.34,55.38Zm0-4.1a1,1,0,0,1-1-1,1,1,0,0,1,1-1.05,1,1,0,0,1,1,1v.1A1,1,0,0,1,89.34,51.28Zm0-4.1a1,1,0,0,1-1-1v-.1a1,1,0,0,1,2,0v.1A1,1,0,0,1,89.34,47.18Zm0-4.1a1,1,0,0,1-1-1,1,1,0,0,1,1-1,1,1,0,0,1,1,.95v.1A1,1,0,0,1,89.34,43.08Z"/><path class="cls-2" d="M75.73,76.87h-.1a1,1,0,0,1,0-2h.1a1,1,0,1,1,0,2Zm-4.1,0h-.1a1,1,0,0,1,0-2,1,1,0,0,1,1,1A1,1,0,0,1,71.63,76.87Zm-4.1,0h-.1a1,1,0,0,1,0-2h.1a1,1,0,0,1,0,2Zm-4.1,0h-.1a1,1,0,1,1,0-2,1,1,0,0,1,1,1A1,1,0,0,1,63.43,76.87Zm-4.1,0h-.1a1,1,0,1,1,0-2,1,1,0,0,1,1.05,1A1,1,0,0,1,59.33,76.87Zm-4.1,0h-.1a1,1,0,1,1,0-2h.1a1,1,0,0,1,0,2Zm-4.1,0H51a1,1,0,0,1,0-2,1,1,0,0,1,1,1A1,1,0,0,1,51.13,76.87Zm-4.1,0h-.1a1,1,0,0,1,0-2H47a1,1,0,0,1,0,2Zm-4.1,0h-.1a1,1,0,0,1,0-2,1,1,0,0,1,1.05,1A1,1,0,0,1,42.93,76.87Zm-4.1,0h-.1a1,1,0,1,1,0-2,1,1,0,0,1,1.05,1A1,1,0,0,1,38.83,76.87Zm-4.1,0h-.1a1,1,0,1,1,0-2h.1a1,1,0,0,1,0,2Zm-4.1,0h-.1a1,1,0,0,1,0-2,1,1,0,0,1,1,1A1,1,0,0,1,30.63,76.87Zm-4.1,0h-.1a1,1,0,0,1,0-2h.1a1,1,0,0,1,0,2Zm53.2,0a1,1,0,0,1-1-.94,1,1,0,0,1,.94-1,1.07,1.07,0,0,1,1.11.92,1,1,0,0,1-.86,1.06h-.19Zm3.64-1.68a1,1,0,0,1-.71-1.71,1,1,0,0,1,1.43-.08,1,1,0,0,1,.08,1.39l-.1.1A1,1,0,0,1,83.37,75.17Zm1.57-3.69h0a1,1,0,0,1-1-1v-.1a1,1,0,0,1,1-1h0a1,1,0,0,1,1,1v.1A1,1,0,0,1,84.94,71.48Zm0-4.1a1,1,0,0,1-1-1,1,1,0,0,1,1-1,1,1,0,0,1,1,1v.1A1,1,0,0,1,84.94,67.38Zm0-4.1a1,1,0,0,1-1-1v-.1a1,1,0,0,1,2,0v.1A1,1,0,0,1,84.94,63.28Zm0-4.1a1,1,0,0,1-1-1,1,1,0,0,1,1-1,1,1,0,0,1,1,.95v.1A1,1,0,0,1,84.94,59.18Zm0-4.1a1,1,0,0,1-1-1,1,1,0,0,1,1-1,1,1,0,0,1,1,.95v.1A1,1,0,0,1,84.94,55.08Zm0-4.1a1,1,0,0,1-1-1v-.1a1,1,0,1,1,2,0V50A1,1,0,0,1,84.94,51Zm0-4.1a1,1,0,0,1-1-1,1,1,0,0,1,1-1.05,1,1,0,0,1,1,1v.1A1,1,0,0,1,84.94,46.88Zm0-4.1a1,1,0,0,1-1-1v-.1a1,1,0,0,1,2,0v.1A1,1,0,0,1,84.94,42.78Zm0-4.1a1,1,0,0,1-1-1,1,1,0,0,1,1-1,1,1,0,0,1,1,.95v.1A1,1,0,0,1,84.94,38.68Z"/><path class="cls-3" d="M79.36,28.38H71.78l-.57-7.63a2.12,2.12,0,0,0-.75-1.49,2.15,2.15,0,0,0-1.58-.52L11.68,23a2.17,2.17,0,0,0-2,2.33l2.88,39.2A2.16,2.16,0,0,0,13.3,66a2.19,2.19,0,0,0,1.42.53h.16l4.95-.36v3.74A2.18,2.18,0,0,0,22,72.05H79.36a2.19,2.19,0,0,0,2.18-2.18V30.56A2.19,2.19,0,0,0,79.36,28.38ZM14.74,64.5a.19.19,0,0,1-.19-.17l-2.89-39.2a.18.18,0,0,1,.17-.19L69,20.73h0a.21.21,0,0,1,.18.17l.55,7.48H22a2.18,2.18,0,0,0-2.17,2.18V64.13Zm64.8,5.37a.18.18,0,0,1-.18.18H22a.18.18,0,0,1-.17-.18V30.56a.18.18,0,0,1,.17-.18H79.36a.18.18,0,0,1,.18.18Z"/><rect class="cls-3" x="27.78" y="58.83" width="19.97" height="2"/><rect class="cls-3" x="27.78" y="64.35" width="19.97" height="2"/><path class="cls-1" d="M69.65,57.88a4.38,4.38,0,0,0-3.19,1.38,3.34,3.34,0,0,1,1.44,1.37,2.43,2.43,0,1,1,0,3.35,3.34,3.34,0,0,1-1.44,1.37,4.42,4.42,0,1,0,3.19-7.47Z"/><path class="cls-3" d="M64.93,66.73a4.43,4.43,0,1,1,4.43-4.43A4.44,4.44,0,0,1,64.93,66.73Zm0-6.85a2.43,2.43,0,1,0,2.43,2.42A2.43,2.43,0,0,0,64.93,59.88Z"/></svg>