<svg id="Capa_1" data-name="Capa 1" xmlns="http://www.w3.org/2000/svg" viewBox="0 0 100 100"><defs><style>.cls-1{fill:#fff;}.cls-2{fill:#363636;}.cls-3{fill:#989898;}.cls-4{fill:#406da8;}</style></defs><title>Card - Puntos</title><polygon class="cls-1" points="77.38 27.07 77.38 68.93 56.08 71.98 34.78 68.93 13.48 71.98 13.48 30.12 34.78 27.07 56.08 30.12 77.38 27.07"/><path class="cls-2" d="M12.48,73.13V29.26l22.3-3.2.14,0,21.16,3,22.3-3.19V69.8L56.08,73l-.14,0-21.16-3Zm22.3-5.21.14,0,21.16,3,20.3-2.91V28.22l-20.3,2.91-.14,0-21.16-3L14.48,31V70.83Z"/><path class="cls-3" d="M16.59,77.52a1,1,0,0,1-.16-2l.09,0a1,1,0,1,1,.34,2l-.1,0Zm40.55-.08H57l-.1,0a1,1,0,1,1,.32-2,1,1,0,0,1,.88,1.15A1,1,0,0,1,57.14,77.44Zm4-.19a1,1,0,0,1-1-.85A1,1,0,0,1,61,75.26h.09a1,1,0,0,1,.3,2H61.1Zm-40.46-.39a1,1,0,0,1-.16-2,1,1,0,0,1,1.2.82,1,1,0,0,1-.79,1.14h-.1Zm32.46-.08-.15,0h-.1a1,1,0,0,1,.31-2A1,1,0,0,1,54,75.92,1,1,0,0,1,53.1,76.78Zm12.06-.13a1,1,0,0,1-.15-2,1.06,1.06,0,0,1,1.19.84,1,1,0,0,1-.8,1.13h-.24Zm-40.48-.46a1,1,0,0,1-.16-2l.1,0a1,1,0,1,1,.33,2l-.1,0Zm24.37-.08H48.9l-.1,0a1,1,0,0,1,.31-2A1,1,0,0,1,50,75.26,1,1,0,0,1,49.05,76.11Zm20.16-.06a1,1,0,0,1-.14-2,1,1,0,0,1,1.18.84A1,1,0,0,1,69.46,76l-.1,0Zm-40.48-.52a1,1,0,0,1-.17-2l.1,0a1,1,0,0,1,.33,2h-.1Zm44.54-.08a1,1,0,0,1-.15-2,1,1,0,0,1,1.19.83,1,1,0,0,1-.8,1.13l-.09,0ZM45,75.45l-.15,0h-.1a1,1,0,1,1,.31-2l.1,0a1,1,0,0,1-.16,2Zm-12.24-.59a1,1,0,0,1-.15-2,1,1,0,0,1,1.19.83A1,1,0,0,1,33,74.83l-.1,0Zm44.55,0a1,1,0,0,1-1-.86,1,1,0,0,1,.84-1.13,1,1,0,0,1,1.18.83,1,1,0,0,1-.79,1.13l-.1,0ZM41,74.78H40.8l-.1,0a1,1,0,1,1,.33-2l.1,0a1,1,0,0,1-.16,2Zm40.41-.53a1,1,0,0,1-.15-2,1,1,0,0,1,1.19.83,1,1,0,0,1-.79,1.13l-.1,0Zm-44.56,0a1,1,0,0,1-1-.84,1,1,0,0,1,.82-1.15l.1,0a1,1,0,1,1,.34,2H37Zm45.23-3.48a1,1,0,0,1-1-1,1,1,0,0,1,1-1,1,1,0,0,1,1,1v.1A1,1,0,0,1,82.05,70.72Zm0-4.1a1,1,0,0,1-1-1,1,1,0,0,1,1-1.05,1,1,0,0,1,1,1v.1A1,1,0,0,1,82.05,66.62Zm0-4.1a1,1,0,0,1-1-1v-.1a1,1,0,0,1,2,0v.1A1,1,0,0,1,82.05,62.52Zm0-4.1a1,1,0,0,1-1-1,1,1,0,0,1,1-1.05,1,1,0,0,1,1,1v.1A1,1,0,0,1,82.05,58.42Zm0-4.1a1,1,0,0,1-1-1v-.1a1,1,0,1,1,2,0v.1A1,1,0,0,1,82.05,54.32Zm0-4.1a1,1,0,0,1-1-1,1,1,0,0,1,1-1,1,1,0,0,1,1,.95v.1A1,1,0,0,1,82.05,50.22Zm0-4.1a1,1,0,0,1-1-1,1,1,0,0,1,1-1,1,1,0,0,1,1,1v.1A1,1,0,0,1,82.05,46.12Zm0-4.1a1,1,0,0,1-1-1v-.1a1,1,0,0,1,2,0V41A1,1,0,0,1,82.05,42Zm0-4.1a1,1,0,0,1-1-1,1,1,0,0,1,1-1.05,1,1,0,0,1,1,1v.1A1,1,0,0,1,82.05,37.92Zm0-4.1a1,1,0,0,1-1-1v-.1a1,1,0,0,1,2,0v.1A1,1,0,0,1,82.05,33.82Zm0-4.1a1,1,0,0,1-1-1,1,1,0,0,1,1-1,1,1,0,0,1,1,.95v.1A1,1,0,0,1,82.05,29.72Z"/><path class="cls-3" d="M63.22,82.26a1,1,0,0,1-.15-2,1.05,1.05,0,0,1,1.19.83,1,1,0,0,1-.78,1.13l-.1,0ZM59.27,82h-.15L59,82a1,1,0,0,1-.84-1.13A1,1,0,0,1,59.32,80a1.05,1.05,0,0,1,.89,1.15A1,1,0,0,1,59.27,82Zm8-.38a1,1,0,0,1-.17-2l.1,0a1,1,0,0,1,.33,2h-.1Zm-12.06-.23h-.15l-.1,0a1,1,0,0,1,.31-2,1,1,0,0,1,.88,1.15A1,1,0,0,1,55.21,81.37Zm-36.55-.15a1,1,0,0,1-.17-2h.1a1,1,0,1,1,.34,2l-.1,0Zm52.65-.29a1,1,0,0,1-.15-2,1,1,0,0,1,1.19.83,1,1,0,0,1-.78,1.13l-.1,0Zm-20.15-.17h-.25a1,1,0,0,1-.84-1.14,1,1,0,0,1,1.14-.84,1,1,0,0,1,.89,1.14A1,1,0,0,1,51.16,80.76Zm-28.45-.2a1,1,0,0,1-.17-2l.1,0a1,1,0,1,1,.33,2l-.1,0Zm52.65-.29a1,1,0,0,1-.16-2,1,1,0,0,1,1.2.82,1,1,0,0,1-.79,1.14h-.09ZM47.1,80.15h-.24a1,1,0,0,1,.29-2A1,1,0,0,1,48,79.29,1,1,0,0,1,47.1,80.15Zm-20.35-.26a1,1,0,0,1-.16-2h.09a1,1,0,1,1,.34,2l-.1,0ZM79.4,79.6a1,1,0,0,1-1-.83,1,1,0,0,1,.82-1.16h.1a1,1,0,0,1,1.15.82,1,1,0,0,1-.82,1.15l-.1,0Zm-36.35,0-.15,0h-.1a1,1,0,0,1,.3-2A1.05,1.05,0,0,1,44,78.69,1,1,0,0,1,43.05,79.55ZM30.8,79.22a1,1,0,0,1-.16-2,1,1,0,0,1,1.2.82,1,1,0,0,1-.79,1.14H30.8ZM39,78.94h-.14l-.1,0a1,1,0,0,1-.84-1.13A1,1,0,0,1,39,76.93a1,1,0,0,1,.89,1.15A1,1,0,0,1,39,78.94Zm44.46,0a1,1,0,0,1-1-.85A1,1,0,0,1,83.29,77a1,1,0,0,1,1.2.82,1,1,0,0,1-.78,1.14h-.1Zm-48.61-.38a1,1,0,0,1-.16-2h.1a1,1,0,0,1,1.15.82,1,1,0,0,1-.82,1.15l-.1,0Zm51.68-1.12a1,1,0,0,1-1-1v-.1a1,1,0,0,1,2,0v.1A1,1,0,0,1,86.52,77.44Zm0-4.1a1,1,0,0,1-1-1,1,1,0,0,1,1-1,1,1,0,0,1,1,.95v.1A1,1,0,0,1,86.52,73.34Zm0-4.1a1,1,0,0,1-1-1,1,1,0,0,1,1-1,1,1,0,0,1,1,1v.1A1,1,0,0,1,86.52,69.24Zm0-4.1a1,1,0,0,1-1-1V64a1,1,0,1,1,2,0v.1A1,1,0,0,1,86.52,65.14Zm0-4.1a1,1,0,0,1-1-1,1,1,0,0,1,1-1,1,1,0,0,1,1,.95V60A1,1,0,0,1,86.52,61Zm0-4.1a1,1,0,0,1-1-1v-.1a1,1,0,0,1,2,0v.1A1,1,0,0,1,86.52,56.94Zm0-4.1a1,1,0,0,1-1-1,1,1,0,0,1,1-1.05,1,1,0,0,1,1,1v.1A1,1,0,0,1,86.52,52.84Zm0-4.1a1,1,0,0,1-1-1,1,1,0,0,1,1-1.05,1,1,0,0,1,1,1v.1A1,1,0,0,1,86.52,48.74Zm0-4.1a1,1,0,0,1-1-1v-.1a1,1,0,0,1,2,0v.1A1,1,0,0,1,86.52,44.64Zm0-4.1a1,1,0,0,1-1-1,1,1,0,0,1,1-1,1,1,0,0,1,1,.95v.1A1,1,0,0,1,86.52,40.54Zm0-4.1a1,1,0,0,1-1-1v-.1a1,1,0,0,1,2,0v.1A1,1,0,0,1,86.52,36.44Zm0-4.1a1,1,0,0,1-1-1,1,1,0,0,1,1-1.05,1,1,0,0,1,1,.95v.1A1,1,0,0,1,86.52,32.34Z"/><rect class="cls-2" x="33.78" y="27.74" width="2" height="41.19"/><rect class="cls-2" x="54.79" y="30.12" width="2" height="41.86"/><path class="cls-1" d="M55,28.42c0,5.43-9.84,14.16-9.84,14.16s-9.84-8.73-9.84-14.16a9.84,9.84,0,0,1,19.68,0Z"/><path class="cls-4" d="M45.19,43.58a1,1,0,0,1-.67-.25c-.41-.37-10.17-9.1-10.17-14.91a10.84,10.84,0,0,1,21.68,0C56,34.23,46.26,43,45.85,43.33A1,1,0,0,1,45.19,43.58Zm0-24a8.84,8.84,0,0,0-8.84,8.84c0,3.77,5.86,10,8.84,12.81,3-2.78,8.84-9,8.84-12.81A8.85,8.85,0,0,0,45.19,19.58Z"/><circle class="cls-1" cx="45.19" cy="28.9" r="4.08"/><path class="cls-4" d="M45.19,34a5.09,5.09,0,1,1,5.08-5.08A5.09,5.09,0,0,1,45.19,34Zm0-8.17a3.09,3.09,0,1,0,3.08,3.09A3.1,3.1,0,0,0,45.19,25.81Z"/><rect class="cls-4" x="40.27" y="47.36" width="9.83" height="2"/></svg>