<svg id="Capa_1" data-name="Capa 1" xmlns="http://www.w3.org/2000/svg" viewBox="0 0 100 100"><defs><style>.cls-1{fill:#fff;}.cls-2{fill:#406da8;}.cls-3{fill:#363636;}.cls-4{fill:#989898;}</style></defs><title>Card - Servicios</title><polyline class="cls-1" points="27.76 70.33 21.76 70.33 21.76 15.67 64.24 15.67 64.24 21.67"/><path class="cls-2" d="M27.76,71.33H22.68a1.92,1.92,0,0,1-1.92-1.93V16.6a1.92,1.92,0,0,1,1.92-1.93H63.32a1.92,1.92,0,0,1,1.92,1.93v5.07h-2v-5H22.76V69.33h5Z"/><path class="cls-1" d="M59.55,76.33H28.76a1,1,0,0,1-1-1V22.67a1,1,0,0,1,1-1H69.24a1,1,0,0,1,1,1v43a1.05,1.05,0,0,1-.29.71L60.26,76A1,1,0,0,1,59.55,76.33Z"/><path class="cls-3" d="M59.55,77.33H28.76a2,2,0,0,1-2-2V22.67a2,2,0,0,1,2-2H69.24a2,2,0,0,1,2,2v43a2,2,0,0,1-.59,1.41L61,76.74A2,2,0,0,1,59.55,77.33ZM28.76,22.67V75.33H59.55l9.69-9.69v-43Z"/><path class="cls-3" d="M60,77.33a1.09,1.09,0,0,1-.39-.08,1,1,0,0,1-.61-.92V66.05a1,1,0,0,1,1-1H70.24A1,1,0,0,1,71,66.76L60.67,77A1,1,0,0,1,60,77.33Zm1-10.28v6.86l6.86-6.86Z"/><rect class="cls-1" x="35.22" y="34.29" width="12.5" height="7.96"/><path class="cls-3" d="M48.73,43.25H34.23v-10h14.5Zm-12.5-2h10.5v-6H36.23Z"/><rect class="cls-3" x="53.25" y="33.29" width="9.52" height="2"/><rect class="cls-3" x="53.25" y="37.27" width="9.52" height="2"/><rect class="cls-3" x="53.25" y="41.25" width="9.52" height="2"/><rect class="cls-3" x="44.3" y="51.65" width="18.48" height="2"/><rect class="cls-3" x="44.3" y="55.97" width="18.48" height="2"/><rect class="cls-3" x="44.3" y="60.29" width="18.48" height="2"/><path class="cls-4" d="M48.16,83.33h-.1a1,1,0,1,0,0,2h.1a1,1,0,1,0,0-2Z"/><path class="cls-4" d="M66.87,81l-.07.07a1,1,0,0,0,.72,1.65,1.12,1.12,0,0,0,.77-.31A1,1,0,0,0,66.87,81Z"/><path class="cls-4" d="M69.77,78.11l-.07.07a1,1,0,0,0,0,1.38.92.92,0,0,0,.68.27,1.08,1.08,0,0,0,.77-.31,1,1,0,0,0-1.42-1.41Z"/><path class="cls-4" d="M35.86,83.33h-.1a1,1,0,0,0-.95,1,1,1,0,0,0,1,1,1,1,0,0,0,0-2Z"/><path class="cls-4" d="M64.56,83.33h-.1a1,1,0,0,0-.95,1,1,1,0,0,0,1.05,1,1,1,0,0,0,0-2Z"/><path class="cls-4" d="M40,83.33h-.1a1,1,0,0,0,0,2H40a1,1,0,0,0,0-2Z"/><path class="cls-4" d="M60.46,83.33h-.1a1,1,0,0,0,0,2h.1a1,1,0,0,0,0-2Z"/><path class="cls-4" d="M56.36,83.33h-.1a1,1,0,0,0-.95,1,1,1,0,0,0,1,1,1,1,0,0,0,0-2Z"/><path class="cls-4" d="M52.26,83.33h-.1a1,1,0,0,0-.95,1,1,1,0,0,0,1,1,1,1,0,1,0,0-2Z"/><path class="cls-4" d="M44.06,83.33H44a1,1,0,0,0-1,1,1,1,0,0,0,1.05,1,1,1,0,0,0,0-2Z"/><path class="cls-4" d="M72.67,75.21l-.07.07a1,1,0,0,0,.72,1.65,1,1,0,0,0,.76-.31,1,1,0,1,0-1.41-1.41Z"/><path class="cls-4" d="M78.24,48.23a1,1,0,0,0-1,1v.1a1,1,0,0,0,2,0v-.1A1,1,0,0,0,78.24,48.23Z"/><path class="cls-4" d="M78.24,52.33a1,1,0,0,0-1,1v.1a1,1,0,0,0,1,1,1,1,0,0,0,1-1.05A1,1,0,0,0,78.24,52.33Z"/><path class="cls-4" d="M78.24,44.13a1,1,0,0,0-1,1v.1a1,1,0,1,0,2,0v-.1A1,1,0,0,0,78.24,44.13Z"/><path class="cls-4" d="M78.24,56.43a1,1,0,0,0-1,1v.1a1,1,0,0,0,2,0v-.1A1,1,0,0,0,78.24,56.43Z"/><path class="cls-4" d="M78.24,40a1,1,0,0,0-1,1v.1a1,1,0,1,0,2,0V41A1,1,0,0,0,78.24,40Z"/><path class="cls-4" d="M78.24,35.93a1,1,0,0,0-1,1V37a1,1,0,0,0,2,0v-.1A1,1,0,0,0,78.24,35.93Z"/><path class="cls-4" d="M78.24,60.53a1,1,0,0,0-1,1v.1a1,1,0,1,0,2,0v-.1A1,1,0,0,0,78.24,60.53Z"/><path class="cls-4" d="M75.57,72.31l-.07.07a1,1,0,0,0,.7,1.71,1,1,0,0,0,.71-.29l.07-.07a1,1,0,1,0-1.41-1.42Z"/><path class="cls-4" d="M78.24,68.73a1,1,0,0,0-1,1v.1a1,1,0,0,0,2,0v-.1A1,1,0,0,0,78.24,68.73Z"/><path class="cls-4" d="M78.24,33.88a1,1,0,0,0,1-1.05,1,1,0,0,0-2,0v.1A1,1,0,0,0,78.24,33.88Z"/><path class="cls-4" d="M78.24,64.63a1,1,0,0,0-1,1v.1a1,1,0,0,0,2,0v-.1A1,1,0,0,0,78.24,64.63Z"/><path class="cls-4" d="M74.24,59.8a1,1,0,0,0,1-1v-.1a1,1,0,0,0-2,0v.1A1,1,0,0,0,74.24,59.8Z"/><path class="cls-4" d="M31.86,79.33h-.1a1,1,0,0,0-1,1,1,1,0,0,0,1.05,1,1,1,0,0,0,0-2Z"/><path class="cls-4" d="M74.24,63.9a1,1,0,0,0,1-1v-.1a1,1,0,0,0-2,0v.1A1,1,0,0,0,74.24,63.9Z"/><path class="cls-4" d="M74.24,35.15a1,1,0,0,0,1-1,1,1,0,0,0-2,0v.1A1,1,0,0,0,74.24,35.15Z"/><path class="cls-4" d="M74.24,39.3a1,1,0,0,0,1-1v-.1a1,1,0,0,0-2,0v.1A1,1,0,0,0,74.24,39.3Z"/><path class="cls-4" d="M74.24,55.65a1,1,0,0,0,1-1,1,1,0,0,0-2,0v.1A1,1,0,0,0,74.24,55.65Z"/><path class="cls-4" d="M74.24,43.4a1,1,0,0,0,1-1v-.1a1,1,0,0,0-2,0v.1A1,1,0,0,0,74.24,43.4Z"/><path class="cls-4" d="M74.24,31.1a1,1,0,0,0,1-1V30a1,1,0,0,0-2,0v.1A1,1,0,0,0,74.24,31.1Z"/><path class="cls-4" d="M74.24,51.6a1,1,0,0,0,1-1v-.1a1,1,0,0,0-2,0v.1A1,1,0,0,0,74.24,51.6Z"/><path class="cls-4" d="M74.24,47.5a1,1,0,0,0,1-1v-.1a1,1,0,1,0-2,0v.1A1,1,0,0,0,74.24,47.5Z"/><path class="cls-4" d="M64.87,79.84a1,1,0,0,0,0-1.42,1,1,0,0,0-1.41,0l-.07.07a1,1,0,0,0,.72,1.66A1.08,1.08,0,0,0,64.87,79.84Z"/><path class="cls-4" d="M70.6,74.11l.07-.07a1,1,0,0,0-1.41-1.42l-.07.07a1,1,0,0,0,0,1.42,1,1,0,0,0,1.42,0Z"/><path class="cls-4" d="M67.77,76.93a1,1,0,1,0-1.42-1.4l-.07.07a1,1,0,0,0,0,1.37,1,1,0,0,0,.69.28A1.05,1.05,0,0,0,67.77,76.93Z"/><path class="cls-4" d="M60.56,79.33h-.1a1,1,0,0,0-1,1,1,1,0,0,0,1.05,1,1,1,0,0,0,0-2Z"/><path class="cls-4" d="M36,79.33h-.1a1,1,0,0,0,0,2H36a1,1,0,0,0,0-2Z"/><path class="cls-4" d="M73.49,71.21l.07-.07a1,1,0,0,0-1.4-1.42l-.07.07a1,1,0,0,0,0,1.41,1,1,0,0,0,.71.3A1,1,0,0,0,73.49,71.21Z"/><path class="cls-4" d="M75.24,66.9a1,1,0,0,0-2,0V67a1,1,0,0,0,2,0Z"/><path class="cls-4" d="M44.16,79.33h-.1a1,1,0,0,0,0,2h.1a1,1,0,0,0,0-2Z"/><path class="cls-4" d="M40.06,79.33H40a1,1,0,0,0-1,1,1,1,0,0,0,1.05,1,1,1,0,0,0,0-2Z"/><path class="cls-4" d="M52.36,79.33h-.1a1,1,0,0,0-.95,1,1,1,0,0,0,1,1,1,1,0,0,0,0-2Z"/><path class="cls-4" d="M56.46,79.33h-.1a1,1,0,0,0,0,2h.1a1,1,0,0,0,0-2Z"/><path class="cls-4" d="M48.26,79.33h-.1a1,1,0,0,0-.95,1,1,1,0,0,0,1,1,1,1,0,1,0,0-2Z"/><path class="cls-3" d="M36.27,51.64h1.64v1.52a4.16,4.16,0,0,1,1.11.25,3.6,3.6,0,0,1,.6.3l-.69,1.34a3.58,3.58,0,0,0-.64-.3,2.59,2.59,0,0,0-1-.17c-.71,0-1.06.21-1.06.63a.43.43,0,0,0,.14.31,1.25,1.25,0,0,0,.36.24,3,3,0,0,0,.51.21l.58.21c.27.11.53.23.78.35a2.85,2.85,0,0,1,.65.44,1.75,1.75,0,0,1,.45.59,1.64,1.64,0,0,1,.17.79,2.09,2.09,0,0,1-.51,1.47,2.69,2.69,0,0,1-1.45.75v1.72H36.27V60.63a5,5,0,0,1-1.21-.29A3.79,3.79,0,0,1,34.3,60L35,58.58l.29.17a3.47,3.47,0,0,0,.43.21,2.74,2.74,0,0,0,.53.17,3.22,3.22,0,0,0,.64.07A1.87,1.87,0,0,0,37.8,59a.55.55,0,0,0,.29-.47.44.44,0,0,0-.17-.35,1.84,1.84,0,0,0-.45-.26,6.48,6.48,0,0,0-.63-.23c-.23-.08-.46-.18-.7-.29a4.08,4.08,0,0,1-1.2-.81,1.72,1.72,0,0,1-.48-1.3A2,2,0,0,1,34.93,54a2.38,2.38,0,0,1,1.34-.74Z"/></svg>