<svg id="Capa_1" data-name="Capa 1" xmlns="http://www.w3.org/2000/svg" viewBox="0 0 100 100"><defs><style>.cls-1{fill:#363636;}.cls-2{fill:#406da8;}.cls-3{fill:#989898;}</style></defs><title>Card - Vencimientos</title><path class="cls-1" d="M28.37,52.12A4.13,4.13,0,1,1,32.49,48,4.14,4.14,0,0,1,28.37,52.12Zm0-6.25A2.13,2.13,0,1,0,30.49,48,2.14,2.14,0,0,0,28.37,45.87Z"/><path class="cls-1" d="M46,52.12A4.13,4.13,0,1,1,50.12,48,4.14,4.14,0,0,1,46,52.12Zm0-6.25A2.13,2.13,0,1,0,48.12,48,2.14,2.14,0,0,0,46,45.87Z"/><path class="cls-1" d="M28.37,66.12A4.13,4.13,0,1,1,32.49,62,4.14,4.14,0,0,1,28.37,66.12Zm0-6.25A2.13,2.13,0,1,0,30.49,62,2.14,2.14,0,0,0,28.37,59.87Z"/><path class="cls-1" d="M46,66.12A4.13,4.13,0,1,1,50.12,62,4.14,4.14,0,0,1,46,66.12Zm0-6.25A2.13,2.13,0,1,0,48.12,62,2.14,2.14,0,0,0,46,59.87Z"/><path class="cls-1" d="M63.63,66.12A4.13,4.13,0,1,1,67.76,62,4.13,4.13,0,0,1,63.63,66.12Zm0-6.25A2.13,2.13,0,1,0,65.76,62,2.13,2.13,0,0,0,63.63,59.87Z"/><rect class="cls-2" x="66.12" y="16.24" width="4.14" height="2"/><rect class="cls-2" x="32.62" y="16.24" width="27.19" height="2"/><rect class="cls-2" x="21.74" y="16.24" width="3.88" height="2"/><path class="cls-1" d="M73.26,21.24H63.92v-4h-2v4H30.08v-4h-2v4H18.74a2,2,0,0,0-2,2V73.76a2,2,0,0,0,2,2H73.26a2,2,0,0,0,2-2V23.24A2,2,0,0,0,73.26,21.24Zm-45.18,2v1h2v-1H61.92v1h2v-1h9.34V34.05H18.74V23.24ZM18.74,73.76V36.05H73.26V73.76Z"/><path class="cls-3" d="M71.43,83.76h-.1a1,1,0,0,1,0-2,1,1,0,0,1,1,1A1,1,0,0,1,71.43,83.76Zm-4.1,0h-.1a1,1,0,0,1,0-2h.1a1,1,0,0,1,0,2Zm-4.1,0h-.1a1,1,0,0,1,0-2,1,1,0,0,1,1.05,1A1,1,0,0,1,63.23,83.76Zm-4.1,0H59a1,1,0,0,1,0-2,1,1,0,0,1,1,1A1,1,0,0,1,59.13,83.76Zm-4.1,0h-.1a1,1,0,1,1,0-2H55a1,1,0,1,1,0,2Zm-4.1,0h-.1a1,1,0,0,1,0-2,1,1,0,0,1,1.05,1A1,1,0,0,1,50.93,83.76Zm-4.1,0h-.1a1,1,0,0,1,0-2,1,1,0,0,1,1.05,1A1,1,0,0,1,46.83,83.76Zm-4.1,0h-.1a1,1,0,0,1,0-2h.1a1,1,0,1,1,0,2Zm-4.1,0h-.1a1,1,0,0,1,0-2,1,1,0,0,1,1,1A1,1,0,0,1,38.63,83.76Zm-4.1,0h-.1a1,1,0,1,1,0-2h.1a1,1,0,0,1,0,2Zm-4.1,0h-.1a1,1,0,0,1,0-2,1,1,0,0,1,1.05,1A1,1,0,0,1,30.43,83.76Zm-4.1,0h-.1a1,1,0,0,1,0-2,1,1,0,0,1,1.05,1A1,1,0,0,1,26.33,83.76ZM75.4,83.5a1,1,0,0,1-.23-2,1.05,1.05,0,0,1,1.26.73,1,1,0,0,1-.69,1.19l-.1,0ZM79,81.67a1,1,0,0,1-.76-.36,1,1,0,0,1,.11-1.41,1.05,1.05,0,0,1,1.45.09,1,1,0,0,1-.08,1.38l-.08.06A1,1,0,0,1,79,81.67Zm2.45-3.24a1,1,0,0,1-.4-.09A1,1,0,0,1,80.56,77l0-.11a1,1,0,1,1,1.82.83l0,.08A1,1,0,0,1,81.48,78.43Zm.78-4a1,1,0,0,1-1-1v-.1a1,1,0,0,1,2,0v.1A1,1,0,0,1,82.26,74.44Zm0-4.1a1,1,0,0,1-1-1,1,1,0,0,1,1-1,1,1,0,0,1,1,.95v.1A1,1,0,0,1,82.26,70.34Zm0-4.1a1,1,0,0,1-1-1,1,1,0,0,1,1-1,1,1,0,0,1,1,1v.1A1,1,0,0,1,82.26,66.24Zm0-4.1a1,1,0,0,1-1-1V61a1,1,0,0,1,2,0v.1A1,1,0,0,1,82.26,62.14Zm0-4.1a1,1,0,0,1-1-1,1,1,0,0,1,1-1,1,1,0,0,1,1,.95V57A1,1,0,0,1,82.26,58Zm0-4.1a1,1,0,0,1-1-1v-.1a1,1,0,0,1,2,0v.1A1,1,0,0,1,82.26,53.94Zm0-4.1a1,1,0,0,1-1-1,1,1,0,0,1,1-1.05,1,1,0,0,1,1,1v.1A1,1,0,0,1,82.26,49.84Zm0-4.1a1,1,0,0,1-1-1,1,1,0,0,1,1-1.05,1,1,0,0,1,1,1v.1A1,1,0,0,1,82.26,45.74Zm0-4.1a1,1,0,0,1-1-1v-.1a1,1,0,0,1,2,0v.1A1,1,0,0,1,82.26,41.64Zm0-4.1a1,1,0,0,1-1-1,1,1,0,0,1,1-1,1,1,0,0,1,1,.95v.1A1,1,0,0,1,82.26,37.54Zm0-4.1a1,1,0,0,1-1-1v-.1a1,1,0,1,1,2,0v.1A1,1,0,0,1,82.26,33.44Zm0-4.1a1,1,0,0,1-1-1,1,1,0,0,1,1-1.05,1,1,0,0,1,1,.95v.1A1,1,0,0,1,82.26,29.34Z"/><path class="cls-3" d="M71.24,79.76h-.1a1,1,0,0,1,0-2h.1a1,1,0,0,1,0,2Zm-4.1,0H67a1,1,0,0,1,0-2,1,1,0,0,1,1,1A1,1,0,0,1,67.14,79.76Zm-4.1,0h-.1a1,1,0,1,1,0-2,1,1,0,0,1,1.05,1A1,1,0,0,1,63,79.76Zm-4.1,0h-.1a1,1,0,0,1,0-2h.1a1,1,0,0,1,0,2Zm-4.1,0h-.1a1,1,0,1,1,0-2,1,1,0,0,1,1,1A1,1,0,0,1,54.84,79.76Zm-4.1,0h-.1a1,1,0,0,1,0-2h.1a1,1,0,0,1,0,2Zm-4.1,0h-.1a1,1,0,0,1,0-2,1,1,0,0,1,1.05,1A1,1,0,0,1,46.64,79.76Zm-4.1,0h-.1a1,1,0,0,1,0-2,1,1,0,0,1,1.05,1A1,1,0,0,1,42.54,79.76Zm-4.1,0h-.1a1,1,0,0,1,0-2h.1a1,1,0,0,1,0,2Zm-4.1,0h-.1a1,1,0,1,1,0-2,1,1,0,0,1,1,1A1,1,0,0,1,34.34,79.76Zm-4.1,0h-.1a1,1,0,0,1,0-2h.1a1,1,0,0,1,0,2Zm-4.1,0H26a1,1,0,0,1,0-2,1,1,0,0,1,1.05,1A1,1,0,0,1,26.14,79.76Zm-4.1,0h-.1a1,1,0,1,1,0-2,1,1,0,0,1,1,1A1,1,0,0,1,22,79.76Zm53.15-.38a1,1,0,0,1-.39-1.93,1,1,0,0,1,1.35.51,1,1,0,0,1-.46,1.29l-.11,0A1.09,1.09,0,0,1,75.19,79.38ZM78,76.49a1,1,0,0,1-.34-.06,1,1,0,0,1-.6-1.27,1,1,0,0,1,1.29-.65,1,1,0,0,1,.63,1.22l0,.09A1,1,0,0,1,78,76.49Zm.31-4a1,1,0,0,1-1-1v-.1a1,1,0,0,1,2,0v.1A1,1,0,0,1,78.26,72.44Zm0-4.1a1,1,0,0,1-1-1,1,1,0,0,1,1-1,1,1,0,0,1,1,.95v.1A1,1,0,0,1,78.26,68.34Zm0-4.1a1,1,0,0,1-1-1,1,1,0,0,1,1-1.05,1,1,0,0,1,1,1v.1A1,1,0,0,1,78.26,64.24Zm0-4.1a1,1,0,0,1-1-1V59a1,1,0,0,1,2,0v.1A1,1,0,0,1,78.26,60.14Zm0-4.1a1,1,0,0,1-1-1,1,1,0,0,1,1-1,1,1,0,0,1,1,.95V55A1,1,0,0,1,78.26,56Zm0-4.1a1,1,0,0,1-1-1v-.1a1,1,0,0,1,2,0v.1A1,1,0,0,1,78.26,51.94Zm0-4.1a1,1,0,0,1-1-1,1,1,0,0,1,1-1.05,1,1,0,0,1,1,1v.1A1,1,0,0,1,78.26,47.84Zm0-4.1a1,1,0,0,1-1-1,1,1,0,0,1,1-1.05,1,1,0,0,1,1,1v.1A1,1,0,0,1,78.26,43.74Zm0-4.1a1,1,0,0,1-1-1v-.1a1,1,0,0,1,2,0v.1A1,1,0,0,1,78.26,39.64Zm0-4.1a1,1,0,0,1-1-1,1,1,0,0,1,1-1,1,1,0,0,1,1,.95v.1A1,1,0,0,1,78.26,35.54Zm0-4.1a1,1,0,0,1-1-1v-.1a1,1,0,0,1,2,0v.1A1,1,0,0,1,78.26,31.44Zm0-4.1a1,1,0,0,1-1-1,1,1,0,0,1,1-1.05,1,1,0,0,1,1,.95v.1A1,1,0,0,1,78.26,27.34Z"/><path class="cls-2" d="M63.63,53.62A5.63,5.63,0,1,1,69.26,48,5.62,5.62,0,0,1,63.63,53.62Zm0-9.25A3.63,3.63,0,1,0,67.26,48,3.63,3.63,0,0,0,63.63,44.37Z"/><path class="cls-2" d="M63.63,50.57A2.57,2.57,0,1,1,66.2,48,2.57,2.57,0,0,1,63.63,50.57Zm0-3.14a.57.57,0,1,0,.57.57A.58.58,0,0,0,63.63,47.43Z"/></svg>