<svg width="72" height="72" viewBox="0 0 72 72" fill="none" xmlns="http://www.w3.org/2000/svg">
<path d="M58.6296 52.0631L49.248 42.8399C52.2389 38.9153 53.7022 34.0378 53.3658 29.1149C53.0294 24.1919 50.9162 19.5588 47.4192 16.0775C43.6429 12.3347 38.5377 10.2403 33.2208 10.2527H33.0696C29.9267 10.2789 26.833 11.0362 24.0334 12.4646C21.2337 13.8931 18.805 15.9535 16.9392 18.4828C15.0735 21.0121 13.822 23.9409 13.2838 27.0375C12.7456 30.1341 12.9355 33.3134 13.8384 36.3239H8.97119C8.86825 36.3141 8.76438 36.3251 8.66577 36.3562C8.56716 36.3873 8.47582 36.438 8.39721 36.5052C8.3186 36.5724 8.25432 36.6547 8.20821 36.7473C8.16209 36.8398 8.13508 36.9407 8.12879 37.0439L8.07119 40.4999C7.81169 40.5366 7.57438 40.6664 7.40349 40.8651C7.23261 41.0638 7.13981 41.3179 7.14239 41.5799L7.82639 58.5719C7.83359 58.7042 7.86735 58.8336 7.92564 58.9525C7.98393 59.0714 8.06557 59.1773 8.16568 59.264C8.2658 59.3507 8.38233 59.4163 8.50835 59.457C8.63437 59.4977 8.76729 59.5125 8.89919 59.5007H32.8968C33.0264 59.5126 33.1571 59.4987 33.2813 59.4598C33.4056 59.4209 33.5209 59.3578 33.6206 59.2741C33.7203 59.1905 33.8025 59.0879 33.8624 58.9723C33.9223 58.8568 33.9587 58.7305 33.9696 58.6007L34.2936 50.6807C38.4883 50.4682 42.5135 48.9588 45.8136 46.3607L55.1736 55.5839C55.506 55.9097 55.9538 56.0909 56.4192 56.0879C56.8928 56.0823 57.3452 55.891 57.6792 55.5551L58.608 54.6119C58.777 54.4462 58.9117 54.2487 59.0043 54.0308C59.0969 53.8128 59.1456 53.5788 59.1476 53.342C59.1496 53.1053 59.1049 52.8704 59.016 52.651C58.9271 52.4315 58.7958 52.2318 58.6296 52.0631ZM19.44 37.7639L19.6632 38.6135C19.695 38.8751 19.8219 39.1157 20.0198 39.2897C20.2176 39.4636 20.4726 39.5587 20.736 39.5567H32.2632V40.4999H9.51119L9.55439 37.7639H19.44ZM32.5512 58.0823H9.24479L8.59679 41.9399H33.1992L32.5512 58.0823ZM57.636 53.5895L56.7 54.5255C56.6678 54.5601 56.6288 54.5876 56.5854 54.6062C56.542 54.6248 56.4952 54.6341 56.448 54.6335C56.4028 54.6373 56.3573 54.6308 56.3149 54.6146C56.2725 54.5984 56.2344 54.5729 56.2032 54.5399L45.8784 44.4023L45.3744 44.8271C42.2713 47.4462 38.4046 48.9919 34.3512 49.2335L34.6608 41.5727C34.6577 41.3122 34.5605 41.0616 34.3872 40.8671C34.2138 40.6726 33.976 40.5473 33.7176 40.5143V38.9159C33.7176 38.7863 33.6672 38.1167 32.652 38.1167H20.9952L20.6712 36.8999C20.6231 36.7233 20.5147 36.569 20.3648 36.4638C20.2149 36.3586 20.0329 36.3091 19.8504 36.3239H15.3504C14.4331 33.5133 14.1917 30.526 14.6457 27.6045C15.0997 24.6831 16.2364 21.9099 17.9633 19.5102C19.6903 17.1105 21.959 15.152 24.585 13.7937C27.211 12.4354 30.1204 11.7156 33.0768 11.6927H33.2208C38.1606 11.6822 42.9034 13.629 46.4112 17.1071C49.7414 20.4182 51.7208 24.8496 51.9644 29.5394C52.2079 34.2291 50.6981 38.8418 47.7288 42.4799L47.304 42.9839L57.6 53.0855C57.671 53.148 57.7145 53.2359 57.7213 53.3302C57.728 53.4245 57.6974 53.5176 57.636 53.5895Z" fill="#343434"/>
<path d="M31.3488 46.4616H29.9088V45.2304H28.6128V43.7904H30.3408C30.6107 43.7942 30.8682 43.9046 31.057 44.0975C31.2458 44.2903 31.3507 44.5501 31.3488 44.82V46.4616Z" fill="#343434"/>
<path d="M57.7152 29.52C57.7152 29.52 57.7152 29.6065 57.7152 29.6137C57.7262 29.797 57.8069 29.9692 57.9408 30.0951C58.0746 30.2209 58.2515 30.2908 58.4352 30.2904C58.6186 30.2794 58.7908 30.1987 58.9166 30.0649C59.0424 29.931 59.1123 29.7542 59.112 29.5704V29.52C59.112 29.3291 59.0361 29.146 58.9011 29.0109C58.7661 28.8759 58.583 28.8 58.392 28.8C58.2086 28.8111 58.0364 28.8918 57.9106 29.0256C57.7848 29.1595 57.7149 29.3363 57.7152 29.52Z" fill="#999A9A"/>
<path d="M55.9152 21.1824V21.2616C55.9708 21.3929 56.0641 21.5047 56.1833 21.5829C56.3025 21.6611 56.4423 21.7021 56.5848 21.7008C56.6793 21.7033 56.773 21.6835 56.8584 21.6432C56.946 21.607 57.0255 21.5538 57.0925 21.4867C57.1595 21.4196 57.2126 21.34 57.2487 21.2524C57.2848 21.1647 57.3033 21.0708 57.303 20.976C57.3028 20.8813 57.2838 20.7875 57.2472 20.7V20.6424C57.2116 20.5542 57.1589 20.4739 57.0922 20.4062C57.0254 20.3384 56.9459 20.2846 56.8582 20.2478C56.7705 20.211 56.6763 20.1919 56.5812 20.1917C56.4861 20.1914 56.3919 20.21 56.304 20.2464C56.1289 20.3197 55.9898 20.4591 55.917 20.6344C55.8442 20.8097 55.8436 21.0067 55.9152 21.1824Z" fill="#999A9A"/>
<path d="M57.4416 26.6975C57.4416 26.6975 57.4416 26.7839 57.4416 26.7911C57.4723 26.9589 57.5615 27.1103 57.6933 27.2184C57.8252 27.3265 57.9911 27.3843 58.1616 27.3815H58.32C58.4139 27.3651 58.5035 27.3301 58.5838 27.2787C58.6641 27.2274 58.7334 27.1606 58.7876 27.0822C58.8419 27.0038 58.88 26.9155 58.8998 26.8223C58.9197 26.729 58.9208 26.6328 58.9032 26.5391V26.4959C58.8755 26.305 58.7731 26.1328 58.6185 26.0174C58.4639 25.902 58.2697 25.8526 58.0788 25.8803C57.8878 25.908 57.7157 26.0104 57.6003 26.165C57.4848 26.3196 57.4355 26.5138 57.4632 26.7047L57.4416 26.6975Z" fill="#999A9A"/>
<path d="M56.8368 23.8969V23.9689C56.8804 24.1246 56.9751 24.2611 57.1057 24.3565C57.2363 24.4518 57.3952 24.5004 57.5568 24.4945H57.7512C57.8425 24.4695 57.9279 24.4267 58.0027 24.3687C58.0774 24.3106 58.14 24.2384 58.1868 24.1562C58.2336 24.0739 58.2637 23.9832 58.2755 23.8893C58.2872 23.7954 58.2803 23.7001 58.2552 23.6089V23.5441C58.2333 23.45 58.1926 23.3612 58.1357 23.2831C58.0787 23.2051 58.0067 23.1393 57.9238 23.0896C57.8409 23.04 57.7488 23.0076 57.6531 22.9943C57.5574 22.981 57.46 22.9871 57.3667 23.0122C57.2734 23.0374 57.1861 23.081 57.11 23.1406C57.0339 23.2002 56.9706 23.2745 56.9239 23.359C56.8771 23.4436 56.8479 23.5367 56.8379 23.6328C56.8278 23.7289 56.8373 23.8261 56.8656 23.9185L56.8368 23.8969Z" fill="#999A9A"/>
<path d="M42.9264 53.0424C42.7547 53.121 42.6207 53.2639 42.5534 53.4403C42.486 53.6167 42.4907 53.8126 42.5664 53.9856C42.6046 54.073 42.6598 54.152 42.7288 54.2179C42.7978 54.2838 42.8792 54.3354 42.9683 54.3695C43.0575 54.4037 43.1525 54.4198 43.2478 54.4169C43.3432 54.4141 43.4371 54.3922 43.524 54.3528H43.5744C43.7392 54.2691 43.8655 54.1252 43.9271 53.951C43.9888 53.7767 43.9811 53.5855 43.9056 53.4168C43.8224 53.2399 43.674 53.1021 43.4914 53.0323C43.3088 52.9625 43.1063 52.9661 42.9264 53.0424Z" fill="#999A9A"/>
<path d="M46.2312 52.8192C46.1643 52.7517 46.0847 52.6981 45.9969 52.6616C45.9092 52.625 45.8151 52.6062 45.72 52.6062C45.625 52.6062 45.5309 52.625 45.4431 52.6616C45.3554 52.6981 45.2758 52.7517 45.2088 52.8192C45.0747 52.9541 44.9995 53.1366 44.9995 53.3268C44.9995 53.517 45.0747 53.6995 45.2088 53.8344L45.2592 53.8848C45.3933 54.0178 45.5743 54.0928 45.7632 54.0936C45.9062 54.0944 46.0463 54.0526 46.1654 53.9736C46.2846 53.8945 46.3775 53.7818 46.4324 53.6497C46.4872 53.5176 46.5015 53.3722 46.4733 53.232C46.4452 53.0917 46.376 52.9631 46.2744 52.8624L46.2312 52.8192Z" fill="#999A9A"/>
<path d="M54.72 18.6696C54.7825 18.7808 54.8735 18.8734 54.9835 18.938C55.0936 19.0025 55.2188 19.0366 55.3464 19.0368C55.4696 19.033 55.5903 19.001 55.6992 18.9432C55.7823 18.8968 55.8554 18.8343 55.9142 18.7595C55.973 18.6846 56.0164 18.5988 56.0418 18.5071C56.0673 18.4154 56.0743 18.3195 56.0624 18.2251C56.0506 18.1306 56.0201 18.0394 55.9728 17.9568V17.9136C55.876 17.759 55.7242 17.6469 55.5479 17.5999C55.3717 17.5529 55.1842 17.5745 55.0233 17.6605C54.8624 17.7464 54.7401 17.8902 54.6811 18.0628C54.6221 18.2354 54.6309 18.424 54.7056 18.5904L54.72 18.6696Z" fill="#999A9A"/>
<path d="M48.3336 54.8856C48.266 54.8194 48.186 54.7672 48.0982 54.7319C48.0104 54.6966 47.9165 54.679 47.8219 54.68C47.6309 54.682 47.4484 54.7598 47.3148 54.8964C47.1811 55.0329 47.1071 55.2169 47.1092 55.408C47.1112 55.5991 47.189 55.7815 47.3256 55.9152L47.376 55.9656C47.5125 56.0992 47.6965 56.1732 47.8876 56.1712C48.0787 56.1691 48.2611 56.0913 48.3948 55.9548C48.5284 55.8182 48.6024 55.6342 48.6004 55.4431C48.5983 55.2521 48.5205 55.0696 48.384 54.936L48.3336 54.8856Z" fill="#999A9A"/>
<path d="M40.2408 54C40.0498 54.0258 39.8769 54.1264 39.7601 54.2796C39.6433 54.4329 39.5922 54.6263 39.618 54.8172C39.6438 55.0082 39.7443 55.1811 39.8976 55.2979C40.0509 55.4147 40.2442 55.4658 40.4352 55.44C40.4996 55.4505 40.5652 55.4505 40.6296 55.44H40.716C40.8897 55.3778 41.0329 55.2511 41.116 55.0863C41.199 54.9215 41.2157 54.7311 41.1624 54.5544C41.1388 54.4572 41.0962 54.3656 41.037 54.285C40.9777 54.2044 40.9031 54.1363 40.8174 54.0847C40.7316 54.0332 40.6365 53.9991 40.5376 53.9846C40.4386 53.97 40.3377 53.9753 40.2408 54Z" fill="#999A9A"/>
<path d="M61.2 48.24C61.3424 48.2394 61.4814 48.1966 61.5995 48.117C61.7176 48.0374 61.8094 47.9245 61.8633 47.7928C61.9173 47.661 61.9309 47.5161 61.9026 47.3766C61.8742 47.2371 61.8051 47.1091 61.704 47.0088L61.6536 46.9584C61.5197 46.8307 61.3418 46.7595 61.1568 46.7595C60.9718 46.7595 60.7939 46.8307 60.66 46.9584C60.5892 47.0256 60.5328 47.1066 60.4943 47.1963C60.4558 47.2861 60.4359 47.3827 60.4359 47.4804C60.4359 47.578 60.4558 47.6747 60.4943 47.7644C60.5328 47.8542 60.5892 47.9351 60.66 48.0024C60.7281 48.0779 60.8115 48.1381 60.9046 48.179C60.9976 48.22 61.0983 48.2408 61.2 48.24Z" fill="#999A9A"/>
<path d="M58.5144 44.8848C58.3803 45.0197 58.3051 45.2022 58.3051 45.3924C58.3051 45.5826 58.3803 45.7651 58.5144 45.9L58.5648 45.9504C58.6321 46.0171 58.7119 46.0699 58.7996 46.1058C58.8873 46.1416 58.9813 46.1598 59.076 46.1592C59.1713 46.1588 59.2655 46.1395 59.3533 46.1025C59.441 46.0654 59.5205 46.0112 59.5872 45.9432C59.7213 45.8083 59.7966 45.6258 59.7966 45.4356C59.7966 45.2454 59.7213 45.0629 59.5872 44.928L59.5368 44.8776C59.4694 44.8106 59.3894 44.7576 59.3014 44.7217C59.2134 44.6857 59.1192 44.6676 59.0241 44.6682C58.9291 44.6689 58.8351 44.6884 58.7476 44.7256C58.6601 44.7627 58.5809 44.8169 58.5144 44.8848Z" fill="#999A9A"/>
<path d="M62.5536 50.1048C62.6197 50.2025 62.7087 50.2825 62.8129 50.3377C62.9171 50.3929 63.0333 50.4217 63.1512 50.4216C63.2948 50.4219 63.4352 50.3792 63.5544 50.2992C63.7119 50.1913 63.8202 50.0252 63.8553 49.8375C63.8904 49.6498 63.8495 49.4559 63.7416 49.2984C63.6321 49.1679 63.48 49.0806 63.3122 49.0517C63.1444 49.0228 62.9718 49.0543 62.8251 49.1407C62.6783 49.227 62.5669 49.3625 62.5106 49.5232C62.4544 49.6839 62.4568 49.8593 62.5176 50.0184L62.5536 50.1048Z" fill="#999A9A"/>
<path d="M56.8152 41.3712V41.3064C56.8808 41.1341 56.8777 40.9433 56.8067 40.7732C56.7357 40.603 56.6022 40.4666 56.4336 40.392C56.345 40.352 56.2493 40.3304 56.1521 40.3284C56.0549 40.3264 55.9583 40.3441 55.8682 40.3804C55.778 40.4168 55.6962 40.471 55.6275 40.5398C55.5589 40.6086 55.5049 40.6906 55.4688 40.7808C55.3909 40.9547 55.385 41.1523 55.4525 41.3304C55.52 41.5085 55.6553 41.6527 55.8288 41.7312C55.9215 41.7735 56.0221 41.7956 56.124 41.796C56.2686 41.8029 56.4118 41.766 56.5351 41.6903C56.6584 41.6145 56.756 41.5033 56.8152 41.3712Z" fill="#999A9A"/>
<path d="M58.4424 31.7592C58.2525 31.7433 58.0639 31.8033 57.9182 31.9261C57.7724 32.0489 57.6813 32.2245 57.6648 32.4144V32.508C57.6528 32.6956 57.7146 32.8804 57.837 33.023C57.9595 33.1656 58.1328 33.2547 58.32 33.2712H58.3632C58.5469 33.2716 58.7238 33.2017 58.8576 33.0759C58.9915 32.95 59.0722 32.7778 59.0832 32.5944V32.544C59.1013 32.3552 59.0442 32.1668 58.9242 32.0199C58.8042 31.8729 58.6311 31.7792 58.4424 31.7592Z" fill="#999A9A"/>
<path d="M57.2328 39.0456C57.3898 39.0538 57.5452 39.0104 57.6752 38.9219C57.8052 38.8335 57.9027 38.705 57.9528 38.556V38.4768C57.9984 38.2993 57.9746 38.1112 57.8863 37.9507C57.798 37.7901 57.6518 37.6693 57.4776 37.6128C57.3854 37.583 57.2882 37.5721 57.1918 37.5808C57.0953 37.5894 57.0016 37.6174 56.9163 37.6631C56.8309 37.7089 56.7556 37.7713 56.695 37.8468C56.6343 37.9223 56.5895 38.0092 56.5632 38.1024C56.5038 38.2829 56.5181 38.4795 56.6031 38.6494C56.6881 38.8193 56.8368 38.9488 57.0168 39.0096C57.0863 39.0334 57.1593 39.0455 57.2328 39.0456Z" fill="#999A9A"/>
<path d="M57.2832 35.2799V35.3807C57.2519 35.5688 57.2965 35.7616 57.4072 35.9168C57.5179 36.072 57.6856 36.177 57.8736 36.2087H57.996C58.1675 36.2112 58.3343 36.1524 58.4663 36.0428C58.5983 35.9333 58.6868 35.7802 58.716 35.6111V35.5679C58.7358 35.4734 58.7369 35.3758 58.719 35.2809C58.7012 35.1859 58.6648 35.0954 58.612 35.0145C58.5592 34.9336 58.491 34.8639 58.4112 34.8094C58.3315 34.7549 58.2417 34.7166 58.1472 34.6967C58.0526 34.6769 57.9551 34.6758 57.8601 34.6937C57.7652 34.7115 57.6747 34.7479 57.5938 34.8007C57.5129 34.8535 57.4432 34.9218 57.3887 35.0015C57.3341 35.0813 57.2958 35.171 57.276 35.2655L57.2832 35.2799Z" fill="#999A9A"/>
<path d="M59.9328 59.3064L59.8752 59.3496C59.7572 59.4411 59.6706 59.5671 59.6274 59.71C59.5842 59.8529 59.5864 60.0057 59.6339 60.1473C59.6813 60.2889 59.7716 60.4122 59.8923 60.5002C60.0129 60.5882 60.1579 60.6365 60.3072 60.6384C60.4597 60.639 60.6085 60.5911 60.732 60.5016H60.768C60.9236 60.3909 61.0289 60.2228 61.0606 60.0345C61.0923 59.8461 61.048 59.6528 60.9372 59.4972C60.8264 59.3416 60.6584 59.2363 60.47 59.2046C60.2817 59.1729 60.0884 59.2173 59.9328 59.328V59.3064Z" fill="#999A9A"/>
<path d="M61.956 57.3984L61.8984 57.4632C61.8171 57.5686 61.7667 57.6946 61.7528 57.827C61.7388 57.9594 61.7618 58.0931 61.8192 58.2132C61.8767 58.3333 61.9663 58.4351 62.0782 58.5074C62.19 58.5796 62.3197 58.6194 62.4528 58.6224C62.5592 58.6245 62.6648 58.603 62.7619 58.5594C62.859 58.5158 62.9452 58.4513 63.0144 58.3704C63.1308 58.2259 63.1869 58.0421 63.171 57.8572C63.1552 57.6724 63.0686 57.5008 62.9293 57.3782C62.79 57.2557 62.6088 57.1916 62.4235 57.1994C62.2381 57.2071 62.0629 57.2862 61.9344 57.42L61.956 57.3984Z" fill="#999A9A"/>
<path d="M57.492 43.8696C57.6261 43.7347 57.7014 43.5522 57.7014 43.362C57.7014 43.1717 57.6261 42.9893 57.492 42.8544L57.4416 42.804C57.3077 42.6763 57.1298 42.6051 56.9448 42.6051C56.7598 42.6051 56.5819 42.6763 56.448 42.804C56.3669 42.8736 56.3023 42.9604 56.2589 43.0581C56.2156 43.1558 56.1945 43.2619 56.1973 43.3688C56.2 43.4757 56.2265 43.5806 56.2749 43.6759C56.3232 43.7712 56.3922 43.8546 56.4768 43.92C56.6091 44.0512 56.7872 44.1261 56.9736 44.1288C57.0732 44.1238 57.1708 44.0982 57.26 44.0536C57.3493 44.009 57.4283 43.9463 57.492 43.8696Z" fill="#999A9A"/>
<path d="M54.9072 60.2064H54.8352C54.6519 60.1578 54.4569 60.1835 54.2924 60.2779C54.128 60.3722 54.0074 60.5277 53.9568 60.7104C53.9317 60.8016 53.9248 60.8969 53.9365 60.9909C53.9483 61.0848 53.9784 61.1754 54.0252 61.2577C54.072 61.3399 54.1346 61.4122 54.2093 61.4702C54.2841 61.5283 54.3695 61.571 54.4608 61.596H54.5328C54.595 61.6035 54.6578 61.6035 54.72 61.596C54.911 61.6208 55.104 61.5688 55.2565 61.4513C55.4091 61.3338 55.5088 61.1606 55.5336 60.9696C55.5584 60.7786 55.5064 60.5856 55.3889 60.4331C55.2714 60.2805 55.0982 60.1808 54.9072 60.156V60.2064Z" fill="#999A9A"/>
<path d="M64.116 54.6552C64.0229 54.6269 63.925 54.6177 63.8283 54.6283C63.7315 54.6389 63.6379 54.669 63.5531 54.7168C63.4683 54.7645 63.3941 54.829 63.3349 54.9063C63.2757 54.9836 63.2328 55.072 63.2088 55.1664C63.1523 55.3478 63.1697 55.5442 63.2574 55.7128C63.3451 55.8814 63.4958 56.0085 63.6768 56.0664C63.7484 56.0772 63.8212 56.0772 63.8928 56.0664C64.0526 56.0732 64.21 56.0267 64.3404 55.9341C64.4707 55.8415 64.5666 55.7082 64.6128 55.5552V55.4832C64.6473 55.3081 64.6156 55.1265 64.5238 54.9735C64.432 54.8206 64.2867 54.7071 64.116 54.6552Z" fill="#999A9A"/>
<path d="M64.8432 52.2864C64.8082 52.1082 64.7071 51.9498 64.5602 51.843C64.4134 51.7362 64.2315 51.6888 64.0512 51.7104C63.9521 51.7207 63.8562 51.7513 63.7696 51.8005C63.683 51.8497 63.6075 51.9163 63.548 51.9962C63.4884 52.076 63.4461 52.1674 63.4237 52.2644C63.4012 52.3615 63.3992 52.4621 63.4176 52.56C63.4338 52.7395 63.5168 52.9064 63.6501 53.0277C63.7834 53.1491 63.9574 53.216 64.1376 53.2152H64.2024C64.2971 53.2071 64.3893 53.1803 64.4735 53.1364C64.5578 53.0924 64.6326 53.0323 64.6935 52.9593C64.7544 52.8863 64.8003 52.802 64.8284 52.7113C64.8566 52.6205 64.8665 52.525 64.8576 52.4304C64.8465 52.3833 64.8417 52.3348 64.8432 52.2864Z" fill="#999A9A"/>
<path d="M50.4432 56.9519C50.3756 56.8853 50.2955 56.8326 50.2076 56.7969C50.1196 56.7612 50.0255 56.7431 49.9305 56.7438C49.8356 56.7445 49.7417 56.7638 49.6542 56.8008C49.5668 56.8377 49.4875 56.8915 49.4208 56.9591C49.3542 57.0267 49.3015 57.1068 49.2658 57.1948C49.23 57.2828 49.212 57.3769 49.2127 57.4718C49.2133 57.5668 49.2327 57.6606 49.2696 57.7481C49.3066 57.8356 49.3604 57.9149 49.428 57.9815L49.4784 58.0319C49.5457 58.0987 49.6255 58.1515 49.7132 58.1873C49.8009 58.2231 49.8949 58.2413 49.9896 58.2407C50.132 58.2401 50.271 58.1973 50.3891 58.1177C50.5072 58.0381 50.599 57.9253 50.6529 57.7935C50.7069 57.6617 50.7205 57.5169 50.6922 57.3774C50.6638 57.2378 50.5947 57.1098 50.4936 57.0095L50.4432 56.9519Z" fill="#999A9A"/>
<path d="M57.4632 60.3144C57.2722 60.3287 57.0948 60.4183 56.9699 60.5635C56.845 60.7086 56.7829 60.8974 56.7972 61.0884C56.8115 61.2794 56.9011 61.4568 57.0463 61.5817C57.1914 61.7066 57.3802 61.7687 57.5712 61.7544H57.6792H57.7728C57.8657 61.734 57.9536 61.6954 58.0314 61.6408C58.1093 61.5862 58.1756 61.5168 58.2264 61.4364C58.2773 61.3561 58.3118 61.2665 58.3278 61.1728C58.3439 61.0791 58.3412 60.9831 58.32 60.8904C58.3028 60.7957 58.2668 60.7054 58.2141 60.6248C58.1614 60.5443 58.0931 60.4751 58.0133 60.4214C57.9334 60.3677 57.8435 60.3306 57.7491 60.3122C57.6546 60.2938 57.5574 60.2946 57.4632 60.3144Z" fill="#999A9A"/>
<path d="M52.4952 58.9536C52.3451 58.8367 52.1548 58.784 51.966 58.8069C51.7771 58.8298 51.605 58.9266 51.4872 59.076C51.4282 59.1506 51.3845 59.2361 51.3587 59.3276C51.3329 59.4191 51.3255 59.5148 51.3369 59.6091C51.3483 59.7035 51.3782 59.7947 51.425 59.8775C51.4719 59.9602 51.5346 60.0329 51.6096 60.0912C51.7392 60.1986 51.9022 60.2572 52.0704 60.2568C52.1756 60.2579 52.2798 60.2359 52.3756 60.1923C52.4714 60.1488 52.5564 60.0848 52.6248 60.0048C52.7357 59.8647 52.7905 59.6883 52.7785 59.5099C52.7665 59.3316 52.6886 59.1641 52.56 59.04L52.4952 58.9536Z" fill="#999A9A"/>
<path d="M55.4904 24.48C55.4339 24.3058 55.313 24.1596 55.1525 24.0713C54.992 23.983 54.8038 23.9592 54.6264 24.0048C54.5329 24.0289 54.4452 24.0716 54.3685 24.1303C54.2918 24.189 54.2277 24.2625 54.18 24.3464C54.1323 24.4304 54.102 24.5231 54.0909 24.619C54.0797 24.715 54.088 24.8122 54.1152 24.9048C54.1532 25.0659 54.2456 25.209 54.3767 25.31C54.5078 25.4109 54.6698 25.4636 54.8352 25.4592C54.8926 25.4662 54.9506 25.4662 55.008 25.4592C55.1932 25.4133 55.3525 25.2957 55.451 25.1324C55.5496 24.969 55.5793 24.7732 55.5336 24.588L55.4904 24.48Z" fill="#999A9A"/>
<path d="M55.6416 46.8C55.784 46.7994 55.923 46.7566 56.0411 46.677C56.1592 46.5974 56.251 46.4846 56.3049 46.3528C56.3589 46.221 56.3725 46.0762 56.3442 45.9367C56.3158 45.7971 56.2467 45.6691 56.1456 45.5688L56.0952 45.5184C55.9613 45.3908 55.7834 45.3196 55.5984 45.3196C55.4134 45.3196 55.2355 45.3908 55.1016 45.5184C55.0308 45.5857 54.9744 45.6667 54.9359 45.7564C54.8974 45.8461 54.8775 45.9428 54.8775 46.0404C54.8775 46.1381 54.8974 46.2347 54.9359 46.3245C54.9744 46.4142 55.0308 46.4952 55.1016 46.5624C55.1697 46.6379 55.2531 46.6981 55.3462 46.7391C55.4392 46.78 55.5399 46.8008 55.6416 46.8Z" fill="#999A9A"/>
<path d="M61.0848 54.9072C61.006 54.8545 60.9174 54.8178 60.8244 54.7994C60.7313 54.781 60.6355 54.7812 60.5425 54.7999C60.4495 54.8187 60.3611 54.8556 60.2824 54.9086C60.2038 54.9616 60.1363 55.0296 60.084 55.1088V55.1736C59.9799 55.3291 59.9405 55.5191 59.9741 55.7033C60.0077 55.8874 60.1117 56.0512 60.264 56.16C60.3768 56.2358 60.5097 56.276 60.6456 56.2752C60.7685 56.2774 60.8899 56.2482 60.9983 56.1902C61.1067 56.1322 61.1985 56.0475 61.2648 55.944C61.3243 55.8653 61.3671 55.7752 61.3903 55.6793C61.4136 55.5834 61.4168 55.4837 61.4 55.3865C61.3831 55.2893 61.3464 55.1966 61.2922 55.1141C61.238 55.0317 61.1674 54.9612 61.0848 54.9072Z" fill="#999A9A"/>
<path d="M55.44 32.7384C55.3442 32.7275 55.2472 32.7359 55.1548 32.7631C55.0623 32.7903 54.9763 32.8359 54.9018 32.897C54.8272 32.9581 54.7657 33.0335 54.7209 33.1188C54.6761 33.2041 54.6488 33.2976 54.6408 33.3936C54.6139 33.5816 54.6624 33.7725 54.7757 33.9249C54.889 34.0773 55.0579 34.1787 55.2456 34.2072H55.3536C55.5272 34.2092 55.6957 34.1483 55.828 34.0359C55.9603 33.9234 56.0475 33.7669 56.0736 33.5952V33.5016C56.0859 33.3174 56.0271 33.1355 55.9092 32.9935C55.7913 32.8515 55.6233 32.7602 55.44 32.7384Z" fill="#999A9A"/>
<path d="M54.5256 39.42C54.5665 39.2526 54.546 39.076 54.4677 38.9224C54.3895 38.7688 54.2587 38.6483 54.0992 38.583C53.9397 38.5176 53.762 38.5116 53.5985 38.5661C53.435 38.6206 53.2964 38.732 53.208 38.88V38.9448C53.1416 39.1207 53.1466 39.3155 53.222 39.4877C53.2973 39.6599 53.437 39.7958 53.6112 39.8664C53.6932 39.901 53.7815 39.9182 53.8704 39.9168C54.0173 39.9108 54.1588 39.86 54.2759 39.7711C54.393 39.6823 54.4802 39.5598 54.5256 39.42Z" fill="#999A9A"/>
<path d="M47.4264 49.9608C47.3588 49.8946 47.2788 49.8424 47.191 49.8071C47.1033 49.7718 47.0094 49.7542 46.9148 49.7552C46.7237 49.7572 46.5413 49.835 46.4076 49.9716C46.2739 50.1081 46.2 50.2921 46.202 50.4832C46.204 50.6743 46.2819 50.8567 46.4184 50.9904L46.4688 51.0408C46.5945 51.1617 46.7624 51.2289 46.9368 51.228C47.0355 51.2277 47.1331 51.207 47.2236 51.1674C47.314 51.1278 47.3953 51.07 47.4624 50.9976C47.5298 50.928 47.5825 50.8456 47.6173 50.7552C47.6521 50.6648 47.6683 50.5683 47.6649 50.4715C47.6616 50.3747 47.6387 50.2796 47.5977 50.1918C47.5567 50.1041 47.4985 50.0255 47.4264 49.9608Z" fill="#999A9A"/>
<path d="M55.2888 26.82C55.1947 26.8307 55.1036 26.8599 55.0208 26.9059C54.9379 26.9519 54.865 27.0138 54.8061 27.0881C54.7473 27.1623 54.7036 27.2475 54.6777 27.3386C54.6518 27.4297 54.6442 27.5251 54.6552 27.6192V27.7128C54.6797 27.8858 54.7662 28.044 54.8987 28.1579C55.0311 28.2718 55.2005 28.3337 55.3752 28.332H55.4832C55.5769 28.3179 55.6668 28.2855 55.748 28.2366C55.8291 28.1877 55.8997 28.1233 55.9559 28.0471C56.0121 27.9708 56.0527 27.8843 56.0754 27.7923C56.098 27.7003 56.1023 27.6048 56.088 27.5112V27.4608C56.0782 27.366 56.0496 27.2741 56.004 27.1905C55.9584 27.1068 55.8966 27.0331 55.8223 26.9735C55.7479 26.9138 55.6625 26.8696 55.5709 26.8432C55.4794 26.8169 55.3835 26.809 55.2888 26.82Z" fill="#999A9A"/>
<path d="M52.9704 43.4736C52.8363 43.6085 52.761 43.7909 52.761 43.9812C52.761 44.1714 52.8363 44.3539 52.9704 44.4888L53.0208 44.5392C53.0881 44.6059 53.1679 44.6587 53.2556 44.6945C53.3433 44.7303 53.4373 44.7485 53.532 44.748C53.6273 44.7476 53.7215 44.7283 53.8093 44.6912C53.897 44.6541 53.9765 44.6 54.0432 44.532C54.1773 44.3971 54.2526 44.2146 54.2526 44.0244C54.2526 43.8341 54.1773 43.6517 54.0432 43.5167L54 43.4663C53.9325 43.3982 53.852 43.3443 53.7634 43.3077C53.6747 43.2711 53.5796 43.2526 53.4837 43.2533C53.3878 43.254 53.293 43.2738 53.2048 43.3116C53.1167 43.3495 53.037 43.4045 52.9704 43.4736Z" fill="#999A9A"/>
<path d="M60.3648 50.7384C60.4989 50.6035 60.5742 50.4211 60.5742 50.2308C60.5742 50.0406 60.4989 49.8581 60.3648 49.7232L60.3 49.68C60.1615 49.5571 59.981 49.4923 59.796 49.499C59.611 49.5057 59.4356 49.5834 59.3064 49.716C59.2383 49.7862 59.1852 49.8695 59.1504 49.9608C59.1155 50.0522 59.0996 50.1496 59.1036 50.2473C59.1077 50.345 59.1316 50.4409 59.1739 50.529C59.2162 50.6171 59.276 50.6958 59.3496 50.76C59.4849 50.8904 59.6658 50.9628 59.8536 50.9616C59.9494 50.9603 60.0439 50.9399 60.1317 50.9016C60.2195 50.8632 60.2987 50.8078 60.3648 50.7384Z" fill="#999A9A"/>
<path d="M56.2896 30.4848C56.2896 30.2938 56.2138 30.1107 56.0787 29.9757C55.9437 29.8406 55.7606 29.7648 55.5696 29.7648C55.3787 29.7648 55.1955 29.8406 55.0605 29.9757C54.9255 30.1107 54.8496 30.2938 54.8496 30.4848C54.8496 30.6757 54.9255 30.8589 55.0605 30.9939C55.1955 31.1289 55.3787 31.2048 55.5696 31.2048C55.7606 31.2048 55.9437 31.1289 56.0787 30.9939C56.2138 30.8589 56.2896 30.6757 56.2896 30.4848Z" fill="#999A9A"/>
<path d="M54.7992 37.1088C54.9637 37.1136 55.1248 37.0619 55.2558 36.9623C55.3868 36.8628 55.4798 36.7213 55.5192 36.5616V36.5112C55.5442 36.4195 55.5508 36.3237 55.5386 36.2294C55.5264 36.1351 55.4956 36.0442 55.4481 35.9619C55.4006 35.8796 55.3372 35.8074 55.2617 35.7497C55.1861 35.692 55.0999 35.6498 55.008 35.6256C54.8247 35.577 54.6297 35.6027 54.4652 35.6971C54.3007 35.7914 54.1801 35.9468 54.1296 36.1296C54.1296 36.1296 54.1296 36.216 54.1296 36.2232C54.1042 36.3305 54.1038 36.4422 54.1284 36.5498C54.153 36.6573 54.202 36.7577 54.2716 36.8433C54.3411 36.9288 54.4294 36.9973 54.5297 37.0433C54.6299 37.0894 54.7393 37.1118 54.8496 37.1088H54.7992Z" fill="#999A9A"/>
<path d="M61.1568 52.0056C61.0616 52.0212 60.9704 52.0557 60.8888 52.1072C60.8071 52.1587 60.7367 52.2261 60.6816 52.3054C60.6265 52.3846 60.5879 52.4741 60.5682 52.5686C60.5484 52.6631 60.5478 52.7605 60.5664 52.8552C60.5924 53.0269 60.6796 53.1834 60.812 53.2959C60.9443 53.4084 61.1128 53.4692 61.2864 53.4672H61.3944C61.4888 53.4532 61.5794 53.4206 61.6611 53.3712C61.7427 53.3219 61.8137 53.2568 61.87 53.1798C61.9263 53.1027 61.9667 53.0153 61.9889 52.9225C62.011 52.8297 62.0146 52.7334 61.9992 52.6392C62.002 52.6129 62.002 52.5864 61.9992 52.56C61.9852 52.4659 61.9514 52.3758 61.9002 52.2956C61.849 52.2154 61.7814 52.1469 61.7019 52.0946C61.6224 52.0423 61.5328 52.0073 61.4388 51.992C61.3449 51.9767 61.2488 51.9813 61.1568 52.0056Z" fill="#999A9A"/>
<path d="M40.032 51.8401C39.9756 51.6578 39.8491 51.5053 39.6804 51.4162C39.5116 51.3271 39.3144 51.3086 39.132 51.3649H39.06C38.8985 51.4178 38.761 51.5262 38.6717 51.6708C38.5824 51.8153 38.5472 51.9869 38.5722 52.1549C38.5972 52.323 38.6808 52.4769 38.8083 52.5892C38.9358 52.7016 39.0989 52.7652 39.2688 52.7689C39.3404 52.7797 39.4132 52.7797 39.4848 52.7689H39.5496C39.6438 52.742 39.7316 52.6961 39.8074 52.6341C39.8833 52.5722 39.9458 52.4953 39.9909 52.4084C40.0361 52.3214 40.063 52.2262 40.0701 52.1285C40.0771 52.0307 40.0642 51.9326 40.032 51.8401Z" fill="#999A9A"/>
<path d="M36.5472 52.1495C36.3563 52.1495 36.1731 52.2254 36.0381 52.3604C35.9031 52.4955 35.8272 52.6786 35.8272 52.8695C35.8272 53.0605 35.9031 53.2436 36.0381 53.3787C36.1731 53.5137 36.3563 53.5895 36.5472 53.5895C36.7382 53.5895 36.9213 53.5137 37.0563 53.3787C37.1914 53.2436 37.2672 53.0605 37.2672 52.8695V52.7975C37.2493 52.6193 37.1656 52.4542 37.0325 52.3344C36.8993 52.2145 36.7263 52.1486 36.5472 52.1495Z" fill="#999A9A"/>
<path d="M50.4 17.28C50.4671 17.3671 50.5532 17.4377 50.6518 17.4864C50.7504 17.535 50.8589 17.5605 50.9688 17.5608C51.1031 17.5604 51.2347 17.5225 51.3486 17.4514C51.4626 17.3802 51.5543 17.2785 51.6135 17.1579C51.6726 17.0373 51.6969 16.9026 51.6835 16.7689C51.6701 16.6353 51.6196 16.508 51.5376 16.4016L51.4944 16.344C51.377 16.1931 51.2044 16.0951 51.0147 16.0714C50.825 16.0478 50.6337 16.1005 50.4828 16.218C50.332 16.3354 50.2339 16.508 50.2103 16.6977C50.1867 16.8874 50.2394 17.0787 50.3568 17.2296L50.4 17.28Z" fill="#999A9A"/>
<path d="M51.6384 54.0936C51.5708 54.0274 51.4908 53.9752 51.403 53.9399C51.3152 53.9046 51.2213 53.887 51.1267 53.888C51.0321 53.889 50.9387 53.9086 50.8516 53.9457C50.7646 53.9829 50.6858 54.0368 50.6196 54.1044C50.5534 54.172 50.5012 54.252 50.4659 54.3397C50.4306 54.4275 50.413 54.5214 50.414 54.616C50.415 54.7106 50.4346 54.8041 50.4717 54.8911C50.5089 54.9781 50.5628 55.057 50.6304 55.1232L50.6808 55.1736C50.8057 55.2965 50.9735 55.3662 51.1488 55.368C51.2475 55.3677 51.3451 55.347 51.4355 55.3074C51.5259 55.2678 51.6072 55.21 51.6744 55.1376C51.7429 55.0679 51.7966 54.985 51.832 54.8939C51.8675 54.8029 51.884 54.7055 51.8807 54.6078C51.8773 54.5102 51.8541 54.4142 51.8124 54.3258C51.7708 54.2374 51.7116 54.1584 51.6384 54.0936Z" fill="#999A9A"/>
<path d="M49.5864 52.0777L49.536 52.0273C49.4684 51.9606 49.3883 51.9079 49.3003 51.8722C49.2124 51.8365 49.1182 51.8184 49.0233 51.8191C48.9284 51.8198 48.8345 51.8391 48.747 51.8761C48.6596 51.913 48.5802 51.9668 48.5136 52.0345C48.4469 52.1021 48.3942 52.1821 48.3585 52.2701C48.3228 52.3581 48.3048 52.4522 48.3054 52.5471C48.3061 52.6421 48.3255 52.736 48.3624 52.8234C48.3994 52.9109 48.4532 52.9902 48.5208 53.0569L48.5712 53.1073C48.7082 53.2394 48.892 53.3119 49.0824 53.3089C49.1771 53.3094 49.2711 53.2912 49.3588 53.2554C49.4465 53.2196 49.5263 53.1668 49.5936 53.1001C49.6606 53.0326 49.7136 52.9526 49.7495 52.8646C49.7855 52.7766 49.8036 52.6824 49.803 52.5874C49.8023 52.4923 49.7828 52.3983 49.7456 52.3108C49.7085 52.2234 49.6543 52.1441 49.5864 52.0777Z" fill="#999A9A"/>
<path d="M42.7464 50.7672C42.7084 50.6761 42.6521 50.5937 42.581 50.5253C42.5099 50.4569 42.4254 50.4038 42.3329 50.3693C42.2404 50.3349 42.1418 50.3199 42.0433 50.3251C41.9447 50.3304 41.8483 50.3559 41.76 50.4C41.569 50.4372 41.4007 50.5488 41.292 50.7102C41.1833 50.8715 41.1431 51.0694 41.1804 51.2604C41.2176 51.4513 41.3292 51.6197 41.4905 51.7284C41.6519 51.8371 41.8498 51.8772 42.0408 51.84C42.1349 51.8389 42.2278 51.8193 42.3144 51.7824L42.4008 51.7464C42.4891 51.7063 42.5684 51.6488 42.6339 51.5773C42.6994 51.5058 42.7499 51.4219 42.7821 51.3304C42.8144 51.239 42.8279 51.1419 42.8217 51.0452C42.8156 50.9484 42.79 50.8538 42.7464 50.7672Z" fill="#999A9A"/>
<path d="M45.108 50.3136C45.2592 50.2097 45.3649 50.052 45.4037 49.8727C45.4425 49.6934 45.4114 49.506 45.3168 49.3488C45.2662 49.266 45.1994 49.1942 45.1203 49.1378C45.0413 49.0814 44.9516 49.0416 44.8568 49.0207C44.762 48.9999 44.6639 48.9984 44.5685 49.0164C44.473 49.0345 44.3823 49.0716 44.3016 49.1256C44.1418 49.2253 44.0274 49.3837 43.983 49.5668C43.9385 49.7498 43.9676 49.943 44.064 50.1048C44.1286 50.211 44.2196 50.2986 44.3281 50.3592C44.4366 50.4197 44.5589 50.4512 44.6832 50.4505C44.8145 50.4493 44.9434 50.4146 45.0576 50.3497L45.108 50.3136Z" fill="#999A9A"/>
<path d="M55.8504 57.4632C55.6594 57.4289 55.4626 57.4718 55.3033 57.5825C55.144 57.6932 55.0351 57.8627 55.0008 58.0536C54.9664 58.2446 55.0093 58.4414 55.12 58.6007C55.2307 58.76 55.4002 58.8689 55.5912 58.9032H55.6704H55.7928C55.9568 58.8957 56.1134 58.8324 56.2365 58.7237C56.3596 58.615 56.4418 58.4675 56.4696 58.3056C56.4948 58.1125 56.4444 57.9171 56.3291 57.7601C56.2137 57.6032 56.0422 57.4968 55.8504 57.4632Z" fill="#999A9A"/>
<path d="M58.1832 57.0168C58.0202 57.1154 57.903 57.2745 57.8571 57.4594C57.8112 57.6443 57.8404 57.8398 57.9384 58.0032C58.003 58.1093 58.094 58.1969 58.2025 58.2575C58.311 58.318 58.4334 58.3495 58.5576 58.3488C58.6887 58.3458 58.8172 58.3112 58.932 58.248C58.9571 58.227 58.9835 58.2077 59.0112 58.1904C59.1577 58.0821 59.2577 57.9224 59.2911 57.7434C59.3245 57.5644 59.2888 57.3793 59.1912 57.2256C59.1395 57.1448 59.0721 57.0753 58.9931 57.0209C58.9141 56.9666 58.825 56.9286 58.7311 56.9091C58.6373 56.8897 58.5404 56.8892 58.4463 56.9077C58.3522 56.9261 58.2628 56.9632 58.1832 57.0168Z" fill="#999A9A"/>
<path d="M53.7984 56.2176L53.748 56.16C53.6809 56.0934 53.6013 56.0406 53.5138 56.0047C53.4262 55.9688 53.3325 55.9505 53.2379 55.9508C53.1433 55.9511 53.0497 55.9701 52.9624 56.0066C52.8751 56.0431 52.7959 56.0965 52.7292 56.1636C52.6626 56.2307 52.6098 56.3103 52.5739 56.3979C52.538 56.4854 52.5197 56.5792 52.52 56.6738C52.5204 56.7684 52.5393 56.862 52.5758 56.9492C52.6123 57.0365 52.6657 57.1157 52.7328 57.1824L52.7832 57.2328C52.8505 57.2995 52.9303 57.3523 53.018 57.3882C53.1057 57.424 53.1997 57.4422 53.2944 57.4416C53.3897 57.4412 53.4839 57.4219 53.5717 57.3848C53.6594 57.3478 53.7389 57.2936 53.8056 57.2256C53.9366 57.0901 54.0092 56.9086 54.0078 56.7201C54.0065 56.5317 53.9313 56.3513 53.7984 56.2176Z" fill="#999A9A"/>
<path d="M57.1824 47.6135C57.0483 47.7484 56.973 47.9309 56.973 48.1211C56.973 48.3114 57.0483 48.4938 57.1824 48.6287L57.2328 48.6791C57.2997 48.7466 57.3794 48.8002 57.4671 48.8367C57.5548 48.8733 57.6489 48.8921 57.744 48.8921C57.839 48.8921 57.9332 48.8733 58.0209 48.8367C58.1086 48.8002 58.1883 48.7466 58.2552 48.6791C58.3893 48.5442 58.4646 48.3618 58.4646 48.1715C58.4646 47.9813 58.3893 47.7988 58.2552 47.6639L58.1976 47.6135C58.0627 47.4794 57.8802 47.4042 57.69 47.4042C57.4998 47.4042 57.3173 47.4794 57.1824 47.6135Z" fill="#999A9A"/>
<path d="M53.1864 22.1184V22.1976C53.2415 22.3277 53.3337 22.4387 53.4515 22.5168C53.5693 22.5949 53.7075 22.6367 53.8488 22.6368C53.9455 22.6385 54.0414 22.6189 54.1296 22.5792C54.3052 22.5046 54.444 22.3634 54.5155 22.1865C54.5871 22.0097 54.5855 21.8117 54.5112 21.636V21.5784C54.4393 21.402 54.3004 21.2613 54.125 21.187C53.9496 21.1128 53.7519 21.1111 53.5752 21.1824C53.4001 21.2556 53.261 21.3951 53.1882 21.5704C53.1154 21.7457 53.1147 21.9426 53.1864 22.1184Z" fill="#999A9A"/>
<path d="M52.1784 42.48C52.2866 42.5396 52.4077 42.5717 52.5312 42.5737C52.6588 42.5734 52.784 42.5393 52.8941 42.4748C53.0041 42.4103 53.0951 42.3177 53.1576 42.2064V42.156C53.231 41.9936 53.2415 41.8097 53.1872 41.64C53.1328 41.4702 53.0175 41.3267 52.8634 41.2371C52.7093 41.1475 52.5274 41.1182 52.353 41.155C52.1786 41.1918 52.024 41.2919 51.9192 41.4361L51.876 41.5081C51.7873 41.6771 51.7693 41.8744 51.826 42.0567C51.8827 42.2389 52.0094 42.3912 52.1784 42.48Z" fill="#999A9A"/>
<path d="M51.9624 19.6344C52.0261 19.7419 52.1167 19.8309 52.2253 19.8928C52.3339 19.9547 52.4567 19.9872 52.5816 19.9872C52.7108 19.9872 52.8377 19.9524 52.9488 19.8864C53.113 19.789 53.2318 19.6304 53.279 19.4454C53.3263 19.2604 53.2982 19.0642 53.2008 18.9V18.8496C53.107 18.6837 52.9513 18.5617 52.7677 18.5104C52.5842 18.4592 52.3878 18.4827 52.2216 18.576C52.1385 18.6224 52.0654 18.6849 52.0066 18.7598C51.9478 18.8346 51.9044 18.9204 51.879 19.0121C51.8535 19.1039 51.8465 19.1997 51.8584 19.2942C51.8702 19.3886 51.9007 19.4798 51.948 19.5624L51.9624 19.6344Z" fill="#999A9A"/>
<path d="M49.5288 30.3696C49.5383 26.0444 47.8293 21.8926 44.7777 18.8275C43.2667 17.3098 41.4716 16.1046 39.4948 15.2807C37.5181 14.4568 35.3984 14.0303 33.2568 14.0256C28.9316 14.016 24.7798 15.725 21.7147 18.7766C18.6496 21.8282 16.9223 25.9724 16.9128 30.2976C16.8854 30.4229 16.8709 30.5508 16.8696 30.6792C16.8692 30.8298 16.8886 30.9799 16.9272 31.1256V31.1616C16.9957 32.93 17.3583 34.6746 18 36.324H19.5552C19.2318 35.5866 18.9717 34.823 18.7776 34.0416C20.356 35.6803 22.1863 37.056 24.1992 38.1167H29.304C27.6622 37.2709 26.3464 35.9055 25.5618 34.2335C24.7773 32.5615 24.568 30.677 24.9666 28.8736C25.3653 27.0702 26.3495 25.4495 27.7657 24.264C29.1819 23.0785 30.9506 22.395 32.796 22.32C32.9904 22.32 33.1488 22.32 33.3648 22.32H33.6096C35.7512 22.4172 37.7736 23.3337 39.2587 24.8798C40.7439 26.4259 41.5782 28.4835 41.5893 30.6273C41.6004 32.7711 40.7874 34.8372 39.3183 36.3986C37.8493 37.96 35.8365 38.8973 33.696 39.0168V40.4567C39.7008 40.2624 44.9928 36.8568 47.6496 33.8976C46.9421 36.9401 45.2899 39.6808 42.9295 41.7269C40.5692 43.7729 37.6218 45.0195 34.5096 45.288L34.452 46.728C38.5721 46.4246 42.4226 44.5655 45.2225 41.5276C48.0223 38.4898 49.5619 34.5007 49.5288 30.3696ZM23.3712 30.7008C23.3595 33.2061 24.3136 35.6197 26.0352 37.44C21.7512 35.4888 18.8352 32.3424 18.3528 30.96C18.3528 30.8088 18.3528 30.6576 18.3528 30.5064C18.7776 29.0664 21.78 25.9848 25.9992 24.0264C24.3086 25.8375 23.3693 28.2232 23.3712 30.7008ZM33.624 20.88C33.4008 20.88 33.2064 20.88 32.9544 20.88H32.652C26.5464 21.0672 21.2616 24.5952 18.6336 27.4968C19.3179 24.1259 21.1492 21.0964 23.8158 18.9238C26.4824 16.7512 29.8196 15.5699 33.2592 15.581C36.6987 15.592 40.0282 16.7947 42.6809 18.9843C45.3335 21.1739 47.1453 24.2152 47.808 27.5904C45.1872 24.66 39.78 21.0888 33.624 20.88ZM40.32 37.44C42.0473 35.617 43.0101 33.2013 43.0101 30.69C43.0101 28.1786 42.0473 25.7629 40.32 23.94C44.9784 26.0352 48.0888 29.5704 48.0888 30.6936C48.0888 31.8168 44.9568 35.3448 40.32 37.44Z" fill="#1074B7"/>
<path d="M35.7768 32.0977C35.7782 31.374 35.5649 30.6661 35.1639 30.0637C34.7629 29.4612 34.1921 28.9913 33.5239 28.7134C32.8557 28.4354 32.12 28.362 31.4101 28.5023C30.7001 28.6426 30.0477 28.9904 29.5354 29.5016C29.0232 30.0128 28.6741 30.6645 28.5324 31.3742C28.3907 32.0839 28.4627 32.8197 28.7393 33.4885C29.016 34.1573 29.4848 34.7289 30.0864 35.1311C30.688 35.5334 31.3955 35.7481 32.1192 35.7481C33.0874 35.7462 34.0156 35.3612 34.7009 34.6772C35.3862 33.9933 35.773 33.0659 35.7768 32.0977ZM32.1192 34.3081C31.6803 34.3081 31.2513 34.1778 30.8864 33.9338C30.5216 33.6898 30.2374 33.3431 30.0697 32.9374C29.9021 32.5318 29.8586 32.0855 29.9448 31.6552C30.0309 31.2248 30.2428 30.8297 30.5537 30.5198C30.8645 30.21 31.2604 29.9994 31.691 29.9146C32.1216 29.8298 32.5678 29.8748 32.9728 30.0437C33.3779 30.2127 33.7238 30.498 33.9666 30.8637C34.2094 31.2293 34.3382 31.6588 34.3368 32.0977C34.3349 32.6846 34.1004 33.2468 33.6847 33.6611C33.2691 34.0754 32.7061 34.3081 32.1192 34.3081Z" fill="#1074B7"/>
</svg>
