<svg id="Capa_1" data-name="Capa 1" xmlns="http://www.w3.org/2000/svg" viewBox="0 0 100 100"><defs><style>.cls-1{fill:#fff;}.cls-2{fill:#363636;}.cls-3{fill:#406da8;}.cls-4{fill:#989898;}</style></defs><title>Card - Portal</title><rect class="cls-1" x="13.48" y="20.82" width="65" height="50" rx="1"/><path class="cls-2" d="M77.48,71.82h-63a2,2,0,0,1-2-2v-48a2,2,0,0,1,2-2h63a2,2,0,0,1,2,2v48A2,2,0,0,1,77.48,71.82Zm-63-50v48h63v-48Z"/><polygon class="cls-1" points="67.64 62.82 55.87 62.82 43.14 62.82 43.14 59.44 67.64 59.44 67.64 62.82"/><path class="cls-3" d="M68.64,63.82H42.14V58.44h26.5Zm-24.5-2h22.5V60.44H44.14Z"/><path class="cls-4" d="M21.53,80.18a1,1,0,0,1-1-1,1,1,0,0,1,1-1h.05a1,1,0,0,1,0,2Z"/><path class="cls-4" d="M83.12,80.18a1,1,0,0,1-1.05-1,1,1,0,0,1,1-1h.1a1,1,0,0,1,0,2Zm-4.1,0a1,1,0,0,1-1-1,1,1,0,0,1,1-1H79a1,1,0,0,1,0,2Zm-4.11,0h-.1a1,1,0,0,1,0-2h.1a1,1,0,0,1,0,2Zm-4.11,0h-.1a1,1,0,1,1,0-2h.1a1,1,0,1,1,0,2Zm-4.1,0h-.1a1,1,0,0,1,0-2h.1a1,1,0,0,1,0,2Zm-4.11,0h-.1a1,1,0,0,1,0-2h.1a1,1,0,0,1,0,2Zm-4.11,0h-.1a1,1,0,1,1,0-2h.1a1,1,0,0,1,0,2Zm-4.1,0h-.1a1,1,0,0,1,0-2h.1a1,1,0,0,1,0,2Zm-4.11,0h-.1a1,1,0,0,1,0-2h.1a1,1,0,1,1,0,2Zm-4.11,0a1,1,0,0,1-1-1,1,1,0,0,1,1-1h.1a1,1,0,0,1,0,2Zm-4.1,0a1,1,0,0,1-1.05-1,1,1,0,0,1,1-1h.1a1,1,0,0,1,0,2Zm-4.11,0a1,1,0,0,1-1.05-1,1,1,0,0,1,1-1H38a1,1,0,0,1,0,2Zm-4.1,0a1,1,0,0,1-1.05-1,1,1,0,0,1,1-1h.1a1,1,0,0,1,0,2Zm-4.11,0a1,1,0,0,1-1-1,1,1,0,0,1,.95-1h.1a1,1,0,0,1,0,2Zm-4.11,0h-.1a1,1,0,0,1,0-2h.1a1,1,0,0,1,0,2ZM86.52,79.1a1,1,0,0,1-1-.95v-.1a1,1,0,0,1,2,0A1,1,0,0,1,86.52,79.1Zm0-4.11a1,1,0,0,1-1-.95v-.1a1,1,0,0,1,2,0A1,1,0,0,1,86.52,75Zm0-4a1,1,0,0,1-1-1v-.1a1,1,0,0,1,2,0v.1A1,1,0,0,1,86.52,70.94Zm0-4.11a1,1,0,0,1-1-1v-.1a1,1,0,0,1,2,0v.1A1,1,0,0,1,86.52,66.83Zm0-4.11a1,1,0,0,1-1-1v-.1a1,1,0,1,1,2,0v.1A1,1,0,0,1,86.52,62.72Zm0-4.1a1,1,0,0,1-1-1v-.1a1,1,0,1,1,2,0v.1A1,1,0,0,1,86.52,58.62Zm0-4.11a1,1,0,0,1-1-1v-.1a1,1,0,0,1,2,0v.1A1,1,0,0,1,86.52,54.51Zm0-4.1a1,1,0,0,1-1-1V49.3a1,1,0,0,1,2,0v.11A1,1,0,0,1,86.52,50.41Zm0-4.16a1,1,0,0,1-1-1v-.1a1,1,0,0,1,2,0A1,1,0,0,1,86.52,46.25Zm0-4.11a1,1,0,0,1-1-1v-.1a1,1,0,0,1,2,0A1,1,0,0,1,86.52,42.14Zm0-4.1a1,1,0,0,1-1-.95V37a1,1,0,1,1,2,0A1,1,0,0,1,86.52,38Zm0-4.11a1,1,0,0,1-1-1v-.1a1,1,0,1,1,2,0A1,1,0,0,1,86.52,33.93Z"/><path class="cls-4" d="M86.52,29.84a1,1,0,0,1-1-1v-.05a1,1,0,0,1,2,0A1,1,0,0,1,86.52,29.84Z"/><path class="cls-4" d="M17.53,76.18a1,1,0,0,1-1-1,1,1,0,0,1,1-1h.05a1,1,0,0,1,0,2Z"/><path class="cls-4" d="M79.12,76.18a1,1,0,0,1-1.05-1,1,1,0,0,1,1-1h.1a1,1,0,0,1,0,2Zm-4.1,0a1,1,0,0,1-1-1,1,1,0,0,1,1-1H75a1,1,0,0,1,0,2Zm-4.11,0h-.1a1,1,0,0,1,0-2h.1a1,1,0,0,1,0,2Zm-4.11,0h-.1a1,1,0,1,1,0-2h.1a1,1,0,1,1,0,2Zm-4.1,0h-.1a1,1,0,1,1,0-2h.1a1,1,0,0,1,0,2Zm-4.11,0h-.1a1,1,0,0,1,0-2h.1a1,1,0,0,1,0,2Zm-4.11,0h-.1a1,1,0,1,1,0-2h.1a1,1,0,0,1,0,2Zm-4.1,0h-.1a1,1,0,0,1,0-2h.1a1,1,0,0,1,0,2Zm-4.11,0h-.1a1,1,0,0,1,0-2h.1a1,1,0,1,1,0,2Zm-4.11,0a1,1,0,0,1-1-1,1,1,0,0,1,1-1h.1a1,1,0,0,1,0,2Zm-4.1,0a1,1,0,0,1-1.05-1,1,1,0,0,1,1-1h.1a1,1,0,0,1,0,2Zm-4.11,0a1,1,0,0,1-1.05-1,1,1,0,0,1,1-1H34a1,1,0,0,1,0,2Zm-4.1,0a1,1,0,0,1-1.05-1,1,1,0,0,1,.95-1h.1a1,1,0,0,1,0,2Zm-4.11,0a1,1,0,0,1-1-1,1,1,0,0,1,.95-1h.1a1,1,0,0,1,0,2Zm-4.11,0h-.1a1,1,0,0,1,0-2h.1a1,1,0,0,1,0,2ZM82.52,75.1a1,1,0,0,1-1-.95v-.1a1,1,0,0,1,2,0A1,1,0,0,1,82.52,75.1Zm0-4.11a1,1,0,0,1-1-.95v-.1a1,1,0,0,1,2,0A1,1,0,0,1,82.52,71Zm0-4a1,1,0,0,1-1-1v-.1a1,1,0,0,1,2,0v.1A1,1,0,0,1,82.52,66.94Zm0-4.11a1,1,0,0,1-1-1v-.1a1,1,0,0,1,2,0v.1A1,1,0,0,1,82.52,62.83Zm0-4.11a1,1,0,0,1-1-1v-.1a1,1,0,1,1,2,0v.1A1,1,0,0,1,82.52,58.72Zm0-4.1a1,1,0,0,1-1-1v-.1a1,1,0,1,1,2,0v.1A1,1,0,0,1,82.52,54.62Zm0-4.11a1,1,0,0,1-1-1v-.1a1,1,0,0,1,2,0v.1A1,1,0,0,1,82.52,50.51Zm0-4.1a1,1,0,0,1-1-1V45.3a1,1,0,0,1,2,0v.11A1,1,0,0,1,82.52,46.41Zm0-4.16a1,1,0,0,1-1-1v-.1a1,1,0,0,1,2,0A1,1,0,0,1,82.52,42.25Zm0-4.11a1,1,0,0,1-1-1v-.1a1,1,0,0,1,2,0A1,1,0,0,1,82.52,38.14Zm0-4.1a1,1,0,0,1-1-.95V33a1,1,0,1,1,2,0A1,1,0,0,1,82.52,34Zm0-4.11a1,1,0,0,1-1-.95v-.1a1,1,0,1,1,2,0A1,1,0,0,1,82.52,29.93Z"/><path class="cls-4" d="M82.52,25.84a1,1,0,0,1-1-1v-.05a1,1,0,0,1,2,0A1,1,0,0,1,82.52,25.84Z"/><rect class="cls-2" x="13.48" y="25.82" width="64.25" height="2"/><rect class="cls-1" x="23.32" y="34.65" width="11.32" height="11.32"/><path class="cls-3" d="M35.64,47H22.31V33.66H35.64ZM24.31,45h9.33V35.66H24.31Z"/><rect class="cls-2" x="47.7" y="33.82" width="21.07" height="2"/><rect class="cls-2" x="42.02" y="38.82" width="26.75" height="2"/><rect class="cls-2" x="22.75" y="56.82" width="12.72" height="2"/><rect class="cls-2" x="22.56" y="61.82" width="12.91" height="2"/><rect class="cls-2" x="42.02" y="43.82" width="26.75" height="2"/><rect class="cls-2" x="42.02" y="48.82" width="26.75" height="2"/></svg>