<svg id="Capa_1" data-name="Capa 1" xmlns="http://www.w3.org/2000/svg" viewBox="0 0 100 100"><defs><style>.cls-1{fill:#989898;}.cls-2{fill:#363636;}.cls-3{fill:#406da8;}</style></defs><title>EC</title><path class="cls-1" d="M22.14,79.1a1,1,0,0,1-1-1,1,1,0,0,1,1-1h.11a1,1,0,0,1,0,2h-.11Zm4.1,0a1,1,0,0,1,0-2,1.07,1.07,0,0,1,1.06,1,1,1,0,0,1-.94,1h-.11Zm4.1,0a1,1,0,0,1,0-2h0a1,1,0,0,1,1.05,1,1,1,0,0,1-.94,1h-.11Zm4.1,0a1,1,0,0,1,0-2h.1a1,1,0,0,1,1,1,1,1,0,0,1-1,1h-.11Zm4.1,0a1,1,0,0,1,0-2h.11a1,1,0,0,1,0,2h-.11Zm4.1,0a1,1,0,0,1-1-1,1,1,0,0,1,1-1,1.05,1.05,0,0,1,1.06,1,1,1,0,0,1-.94,1h-.11Zm4.1,0a1,1,0,0,1,0-2h0a1,1,0,0,1,1,1,1,1,0,0,1-.94,1h-.11Zm4.1,0a1,1,0,0,1,0-2h.11a1,1,0,0,1,0,2h-.11Zm4.1,0a1,1,0,0,1,0-2H55a1,1,0,0,1,1,1,1,1,0,0,1-1,1h-.11Zm4.1,0a1,1,0,0,1,0-2h0a1,1,0,0,1,1.05,1,1,1,0,0,1-.94,1H59Zm4.1,0a1,1,0,0,1,0-2h0a1,1,0,0,1,1,1,1,1,0,0,1-.94,1h-.11Zm4.1,0a1,1,0,0,1,0-2h.11a1,1,0,0,1,0,2h-.11Zm4.1,0a1,1,0,0,1-1-1,1,1,0,0,1,1-1h.11a1,1,0,0,1,0,2h-.11Zm4.2,0h-.1a1,1,0,0,1,0-2,1,1,0,0,1,1,1A1,1,0,0,1,75.54,78.65Zm4.1,0h-.1a1,1,0,0,1,0-2,1,1,0,0,1,1,1A1,1,0,0,1,79.64,78.62Zm2.3-2.15h0a1,1,0,0,1-1-1,1,1,0,0,1,1-1,1,1,0,0,1,1,1v.1A1,1,0,0,1,81.94,76.47Zm.16-4.1h0a1,1,0,0,1-1-1,1,1,0,0,1,1-1,1,1,0,0,1,1,1v.1A1,1,0,0,1,82.1,72.37Zm.17-4.1h0a1,1,0,0,1-1-1,1,1,0,0,1,1-1,1,1,0,0,1,1,1v.1A1,1,0,0,1,82.27,68.27Zm.16-4.09h0a1,1,0,0,1-1-1,1.05,1.05,0,0,1,1-1,1,1,0,0,1,1,1v.1A1,1,0,0,1,82.43,64.18Zm.17-4.1h0a1,1,0,0,1-1-1,1.06,1.06,0,0,1,1-1,1,1,0,0,1,1,1v.1A1,1,0,0,1,82.6,60.08Zm.16-4.1h0a1,1,0,0,1-1-1,1,1,0,0,1,1-1h0a1,1,0,0,1,1,1V55A1,1,0,0,1,82.76,56Zm.17-4.09h0a1,1,0,0,1-1-1,1,1,0,0,1,1-1h0a1,1,0,0,1,1,1v.1A1,1,0,0,1,82.93,51.89Zm.16-4.1h0a1,1,0,0,1-1-1,1,1,0,0,1,1-1h0a1,1,0,0,1,1,1v.1A1,1,0,0,1,83.09,47.79Zm.17-4.1h0a1,1,0,0,1-1-1,1,1,0,0,1,1-1h0a1,1,0,0,1,1,1v.1A1,1,0,0,1,83.26,43.69Zm.16-4.09h0a1,1,0,0,1-1-1,1,1,0,0,1,1-1,1,1,0,0,1,1,1v.1A1,1,0,0,1,83.42,39.6Zm.17-4.1h0a1,1,0,0,1-1-1,1.05,1.05,0,0,1,1-1,1,1,0,0,1,1,1v.1A1,1,0,0,1,83.59,35.5Z"/><path class="cls-1" d="M25.74,82.7a1,1,0,0,1,0-2h.1a1,1,0,0,1,1,1,1,1,0,0,1-1,1h-.11Zm4.1,0a1,1,0,0,1,0-2h0a1,1,0,0,1,1.05,1,1,1,0,0,1-.94,1h-.11Zm4.1,0a1,1,0,0,1,0-2h0a1,1,0,0,1,1.05,1,1,1,0,0,1-.94,1h-.11Zm4.1,0a1,1,0,0,1-1-1,1,1,0,0,1,1-1h.11a1,1,0,0,1,1,1,1,1,0,0,1-1,1H38Zm4.1,0a1,1,0,0,1,0-2h.11a1,1,0,0,1,0,2h-.11Zm4.1,0a1,1,0,0,1,0-2h0a1,1,0,0,1,1,1,1,1,0,0,1-.94,1h-.11Zm4.1,0a1,1,0,0,1,0-2h0a1,1,0,0,1,1,1,1,1,0,0,1-.94,1h-.11Zm4.1,0a1,1,0,0,1,0-2h.1a1,1,0,0,1,1,1,1,1,0,0,1-1,1h-.11Zm4.1,0a1,1,0,0,1,0-2h.11a1,1,0,0,1,0,2h-.11Zm4.1,0a1,1,0,0,1,0-2,1,1,0,0,1,1.06,1,1,1,0,0,1-.94,1h-.11Zm4.1,0a1,1,0,0,1-1-1,1,1,0,0,1,1-1h0a1,1,0,0,1,1.05,1,1,1,0,0,1-.94,1h-.11Zm4.1,0a1,1,0,0,1,0-2h.11a1,1,0,0,1,0,2h-.11Zm4.1,0a1,1,0,0,1,0-2H75a1,1,0,0,1,1,1,1,1,0,0,1-1,1h-.11Zm4.2,0H79a1,1,0,0,1,0-2,1,1,0,0,1,1,1A1,1,0,0,1,79.14,82.25Zm4.1,0h-.1a1,1,0,0,1,0-2,1,1,0,0,1,1,1A1,1,0,0,1,83.24,82.22Zm2.3-2.15h-.05a1,1,0,0,1-.95-1,1,1,0,0,1,1-1,1,1,0,0,1,1,1v.1A1,1,0,0,1,85.54,80.07ZM85.7,76h0a1,1,0,0,1-1-1,1,1,0,0,1,1-1h0a1,1,0,0,1,1,1V75A1,1,0,0,1,85.7,76Zm.17-4.09h0a1,1,0,0,1-1-1,1,1,0,0,1,1-1,1,1,0,0,1,1,1v.1A1,1,0,0,1,85.87,71.88Zm.16-4.1h0a1,1,0,0,1-1-1,1.05,1.05,0,0,1,1-1,1,1,0,0,1,1,1v.1A1,1,0,0,1,86,67.78Zm.17-4.1h0a1,1,0,0,1-1-1,1.06,1.06,0,0,1,1-1,1,1,0,0,1,1,1v.1A1,1,0,0,1,86.2,63.68Zm.16-4.09h0a1,1,0,0,1-1-1,1.05,1.05,0,0,1,1-1,1,1,0,0,1,1,1v.1A1,1,0,0,1,86.36,59.59Zm.17-4.1h0a1,1,0,0,1-1-1,1.07,1.07,0,0,1,1-1,1,1,0,0,1,1,1v.1A1,1,0,0,1,86.53,55.49Zm.16-4.1h0a1,1,0,0,1-1-1,1,1,0,0,1,1-1h0a1,1,0,0,1,1,1v.1A1,1,0,0,1,86.69,51.39Zm.17-4.09h0a1,1,0,0,1-1-1,1,1,0,0,1,1-1h0a1,1,0,0,1,1,1v.1A1,1,0,0,1,86.86,47.3ZM87,43.2h0a1,1,0,0,1-1-1,1,1,0,0,1,1-1h0a1,1,0,0,1,1,1v.1A1,1,0,0,1,87,43.2Zm.17-4.1h0a1,1,0,0,1-1-1,1,1,0,0,1,1-1h0a1,1,0,0,1,1,1v.1A1,1,0,0,1,87.19,39.1Z"/><path class="cls-2" d="M78,27.9h-.42l-.08-4.84c0-.45-.25-1.21-1.88-1.21H45.5l-1-3.73h0a1.19,1.19,0,0,0-1.28-.82H15.63c-1,0-1.32.68-1.32,1.06l-.15,9.54h-.4a1.94,1.94,0,0,0-1.95,1.94L13.55,73a1.69,1.69,0,0,0,1.89,1.51H76.35c1.08,0,1.9-.65,1.9-1.47L80,29.8A1.94,1.94,0,0,0,78,27.9ZM16.3,19.3H42.75l.76,2.82a1.91,1.91,0,0,0,1.9,1.73H75.55l.07,4H16.16Zm60,53.21H15.53L13.81,29.9H78Z"/><path class="cls-2" d="M16.33,34.22l.25,6.2,2-.08-.24-5.91h5.77v-2h-6A1.77,1.77,0,0,0,16.33,34.22Z"/><path class="cls-3" d="M47.74,54.07A1.52,1.52,0,0,0,47.31,53a3.66,3.66,0,0,0-1.43-.79,12.14,12.14,0,0,1-1.55-.66,3.16,3.16,0,0,1-1.85-2.93,3.06,3.06,0,0,1,.8-2.17,3.49,3.49,0,0,1,2.18-1V44.3a.64.64,0,0,1,.63-.64h0a.64.64,0,0,1,.63.64v1.11a3.11,3.11,0,0,1,2.14,1.17A3.54,3.54,0,0,1,49.51,48a.87.87,0,0,1-.84,1.07h-.2a.89.89,0,0,1-.85-.74,2,2,0,0,0-.38-.84A1.44,1.44,0,0,0,46,47a1.61,1.61,0,0,0-1.19.41,1.54,1.54,0,0,0-.43,1.18,1.5,1.5,0,0,0,.42,1.11,4.15,4.15,0,0,0,1.44.79,12.78,12.78,0,0,1,1.6.69,4.08,4.08,0,0,1,1,.72,2.87,2.87,0,0,1,.61.94,3.21,3.21,0,0,1,.22,1.25,3,3,0,0,1-.82,2.17,3.6,3.6,0,0,1-2.29,1v.91a.63.63,0,0,1-.63.63h0a.63.63,0,0,1-.63-.63v-.9a3.66,3.66,0,0,1-2.42-1.13,3.41,3.41,0,0,1-.73-1.43A.87.87,0,0,1,43,53.57h.2a.88.88,0,0,1,.85.71,1.78,1.78,0,0,0,.43.83,1.81,1.81,0,0,0,1.42.55,1.94,1.94,0,0,0,1.38-.44A1.5,1.5,0,0,0,47.74,54.07Z"/><path class="cls-3" d="M45.9,64.06A12.85,12.85,0,1,1,58.74,51.21,12.87,12.87,0,0,1,45.9,64.06Zm0-23.7A10.85,10.85,0,1,0,56.74,51.21,10.87,10.87,0,0,0,45.9,40.36Z"/></svg>