<svg id="Capa_1" data-name="Capa 1" xmlns="http://www.w3.org/2000/svg" viewBox="0 0 100 100"><defs><style>.cls-1{fill:#363636;}.cls-2{fill:#989898;}.cls-3{fill:#fff;}.cls-4{fill:#406da8;}</style></defs><title>Card - Ayuda</title><path class="cls-1" d="M66.37,35.56,51.14,13.05a3.32,3.32,0,0,0-6.6,0L29.3,35.56,31,36.68,45.28,15.53a3.3,3.3,0,0,0,5.12,0L64.72,36.68ZM47.84,14.75a1.34,1.34,0,1,1,1.33-1.34A1.34,1.34,0,0,1,47.84,14.75Z"/><path class="cls-2" d="M53.14,89.92a1,1,0,0,1,0-2v1l.07-1h0a1,1,0,0,1,0,2Zm-4-.24H49l-.12,0a1,1,0,0,1-.85-1.13,1,1,0,0,1,1.14-.84l-.15,1,.22-1a1,1,0,0,1-.12,2Zm8.07-.08a1,1,0,0,1-.14-2l.14,1,0-1a1,1,0,1,1,.3,2l-.1,0Zm-12.08-.75a1,1,0,0,1-.3,0,1,1,0,0,1-.71-1.25,1,1,0,0,1,1.18-.7l.13,0a1,1,0,0,1-.3,1.95Zm16.07-.15a1,1,0,0,1-1-.71,1,1,0,0,1,.66-1.25l.09,0a1,1,0,0,1,1.25.66,1,1,0,0,1-.65,1.25l-.11,0A.93.93,0,0,1,61.21,88.7ZM41.29,87.46a1,1,0,0,1-.41-.09A1,1,0,0,1,40.33,86a1,1,0,0,1,1.28-.52l.09,0a1,1,0,0,1-.41,1.91Zm23.8-.26a1,1,0,0,1-.92-.56,1,1,0,0,1,.43-1.32l.12,0a1,1,0,1,1,.82,1.82A1,1,0,0,1,65.09,87.2ZM37.68,85.53a1,1,0,0,1-.56-.17A1,1,0,0,1,36.8,84a1,1,0,0,1,1.32-.33l.12.07a1,1,0,0,1-.56,1.83Zm31-.36a1,1,0,0,1-.85-.44,1,1,0,0,1,.25-1.35l.55.84-.52-.85s.07-.05.08-.06a1,1,0,0,1,1.38.33A1,1,0,0,1,69.22,85,1,1,0,0,1,68.66,85.17ZM34.38,83.1a1,1,0,0,1-.66-.25,1,1,0,0,1-.15-1.43A1,1,0,0,1,35,81.27l.1.08a1,1,0,0,1,.08,1.41A1,1,0,0,1,34.38,83.1Zm37.51-.43a1,1,0,0,1-.75-.32A1,1,0,0,1,71.2,81l.66.74L71.22,81l.72.7.64.76A1,1,0,0,1,71.89,82.67ZM30.71,79.89a.71.71,0,0,0-.07-.09,1,1,0,1,1,1.52-1.29l-.76.64.81-.59Zm44-.15A1,1,0,0,1,74,78.15l.06-.08a1,1,0,1,1,1.53,1.29A1.08,1.08,0,0,1,74.73,79.74ZM29,77a1,1,0,0,1-.85-.46,1,1,0,0,1,.27-1.42,1,1,0,0,1,1.36.25l.06.09a1,1,0,0,1-.3,1.38A1,1,0,0,1,29,77Zm23.92-.37h-.1a1,1,0,0,1,0-2,1,1,0,0,1,1,1A1,1,0,0,1,52.91,76.6Zm24.22-.17a.93.93,0,0,1-.5-.14A1,1,0,0,1,76.28,75l.06-.09a1,1,0,0,1,1.37-.32A1,1,0,0,1,78,75.93,1.11,1.11,0,0,1,77.13,76.43Zm-28.27-.38a1.24,1.24,0,0,1-.27,0l-.09,0A1,1,0,1,1,49,74.06l.1,0a1,1,0,0,1-.26,2Zm-3.76-1.6a1,1,0,0,1-.53-.15l0,0a1,1,0,0,1,1-1.74l.12.08a1,1,0,0,1-.52,1.85ZM27,73.39a1,1,0,0,1-.9-.57L26,72.71a1,1,0,0,1,1.83-.83l0,.07a1,1,0,0,1-.47,1.34A1.12,1.12,0,0,1,27,73.39Zm52.05-.52a1,1,0,0,1-.41-.09,1,1,0,0,1-.5-1.32l.91.41-.88-.48a1,1,0,1,1,1.84.77s-.05.11-.05.12A1,1,0,0,1,79.05,72.87Zm-37.2-1a1,1,0,0,1-.67-.29l-.07-.07a1,1,0,1,1,1.45-1.39,1,1,0,0,1,0,1.45A1,1,0,0,1,41.85,71.88ZM25.54,69.55a1,1,0,0,1-1-.73,1,1,0,0,1,.67-1.27,1,1,0,0,1,1.22.62l0,.11a1,1,0,0,1-.7,1.24A1.24,1.24,0,0,1,25.54,69.55ZM80.43,69a1.24,1.24,0,0,1-.27,0,1,1,0,0,1-.7-1.23l0-.1a1,1,0,0,1,1.22-.7,1,1,0,0,1,.71,1.23l0,.09A1,1,0,0,1,80.43,69Zm-41-.45a.94.94,0,0,1-.83-.5l0-.08a1,1,0,1,1,1.76-1,1,1,0,0,1-.39,1.4A1,1,0,0,1,39.44,68.56Zm-14.78-3a1,1,0,0,1-1-.85l0-.1a1,1,0,0,1,2-.29l-1,.15,1-.06a1,1,0,0,1-.84,1.14ZM81.23,65h-.11a1,1,0,0,1-.88-1.07v-.13a1,1,0,0,1,2,.29A1,1,0,0,1,81.23,65ZM38,64.72a.93.93,0,0,1-.93-.72l0-.07a1,1,0,0,1,.75-1.21,1,1,0,0,1,1.19.72,1,1,0,0,1-.73,1.25A1.15,1.15,0,0,1,38,64.72ZM24.35,61.47a1,1,0,0,1-1-1,1,1,0,0,1,1-1,1,1,0,0,1,1,.95v.1A1,1,0,0,1,24.35,61.47Zm57.1-.61a1,1,0,0,1-1-.92v-.13a1,1,0,1,1,2,0,1,1,0,0,1-1,1Zm-43.76-.21h0a1,1,0,0,1-1-1s0-.06,0-.07a1,1,0,0,1,1-1h0a1,1,0,0,1,1,1A1.06,1.06,0,0,1,37.69,60.65ZM68,59.37a1,1,0,0,1-1-.82l0-.11a1,1,0,0,1,2-.29v.06a1,1,0,0,1-.85,1.15ZM81.1,56.83a1,1,0,0,1-1-.86l1-.14-1,.08a1,1,0,0,1,.8-1.17,1,1,0,0,1,1.17.81s0,.12,0,.13a1,1,0,0,1-.85,1.14Zm-42.68-.15a1.19,1.19,0,0,1-.32,0,1,1,0,0,1-.63-1.27l0-.08a1,1,0,0,1,1.26-.65,1,1,0,0,1,.65,1.25l0,.11A1,1,0,0,1,38.42,56.68Zm28.52-1.23a1,1,0,0,1-.92-.6l0-.1A1,1,0,0,1,67.82,54l-.92.39.95-.31a1,1,0,0,1-.51,1.32A1,1,0,0,1,66.94,55.45ZM40.19,53a1,1,0,0,1-.54-.16,1,1,0,0,1-.3-1.37l0,0a1,1,0,0,1,1.39-.32,1,1,0,0,1,.33,1.34.56.56,0,0,0-.05.08A1,1,0,0,1,40.19,53Zm40-.14a1,1,0,0,1-1-.71l0-.06a1,1,0,1,1,1.89-.65l0,.13a1,1,0,0,1-.67,1.25A.92.92,0,0,1,80.16,52.84Zm-15.3-.9a1,1,0,0,1-.77-.36L64,51.47a1,1,0,1,1,1.57-1.23l0,0a1,1,0,0,1-.12,1.41A1,1,0,0,1,64.86,51.94Zm-22-2a1,1,0,0,1-.65-1.76l.65.76-.61-.8a1,1,0,0,1,1.36,1.48l-.11.09A1,1,0,0,1,42.88,49.91Zm19-.81a1,1,0,0,1-.86-1.62,1,1,0,0,1,1.36-.25l.1.06a1,1,0,0,1,.2,1.4A1,1,0,0,1,61.92,49.1Zm16.7-.1a.94.94,0,0,1-.86-.54l-.05-.11a1,1,0,0,1,1.82-.82,1,1,0,0,1-.45,1.37A1.09,1.09,0,0,1,78.62,49ZM46.35,47.62a1,1,0,0,1-.93-.56,1,1,0,0,1,.43-1.3l.1,0a1,1,0,1,1,.85,1.81A1,1,0,0,1,46.35,47.62Zm12-.48a1.07,1.07,0,0,1-.35-.06l-.09,0a1,1,0,1,1,.7-1.87l.09,0a1,1,0,0,1-.35,1.94Zm-8.16-.75a1,1,0,0,1-.18-2l.1,0a1,1,0,0,1,1.16.8,1,1,0,0,1-.81,1.17h-.1A.52.52,0,0,1,50.17,46.39Zm4.18-.18h-.09a1,1,0,0,1-1-1.09,1,1,0,0,1,1-.91h.1a1,1,0,0,1-.09,2Zm22.22-.77A.89.89,0,0,1,75.8,45a.55.55,0,0,0-.07-.09,1,1,0,1,1,1.68-1.1,1,1,0,0,1-.84,1.6Zm-2.51-3.21a.92.92,0,0,1-.69-.31l-.08-.09a1,1,0,0,1,.08-1.41,1,1,0,0,1,1.42.09,1,1,0,0,1-.73,1.72Zm-2.91-2.82a1,1,0,0,1-.65-.24l.65-.76-.69.72a1,1,0,0,1-.18-1.4,1,1,0,0,1,1.41-.18l.11.09a1,1,0,0,1,.11,1.41A1,1,0,0,1,71.15,39.41ZM67.82,37a1,1,0,0,1-.52-.15l.52-.85-.59.81a1,1,0,0,1-.35-1.37,1,1,0,0,1,1.36-.35l.11.06A1,1,0,0,1,67.82,37Zm-3.65-1.89a1,1,0,0,1-.37-.07L63.7,35a1,1,0,1,1,.8-1.83,1,1,0,0,1,.56,1.33A1,1,0,0,1,64.17,35.13Zm-3.85-1.34a1.15,1.15,0,0,1-.26,0l-.1,0a1,1,0,1,1,.53-1.93l.09,0a1,1,0,0,1-.26,2Zm-4-.77h-.22a1,1,0,0,1,.24-2h.1a1,1,0,0,1-.12,2Z"/><path class="cls-2" d="M50,86.78a1,1,0,0,1,0-2v1l.07-1h0a1,1,0,0,1,0,2Zm-4-.24h-.24a1,1,0,0,1-.85-1.14,1,1,0,0,1,1.14-.84l-.15,1,.22-1a1,1,0,0,1-.12,2Zm8.07-.08a1,1,0,0,1-.14-2l.14,1,0-1a1,1,0,1,1,.3,2l-.1,0ZM42,85.72a1.06,1.06,0,0,1-1-1.3,1,1,0,0,1,1.18-.7l.13,0a1,1,0,0,1-.3,2Zm16.08-.16a1,1,0,0,1-.29-2l.08,0a1,1,0,0,1,1.26.66,1,1,0,0,1-.66,1.25l-.1,0A1,1,0,0,1,58.08,85.56ZM38.15,84.32a1,1,0,0,1-.41-.09,1,1,0,0,1-.55-1.34,1,1,0,0,1,1.28-.52l.09,0a1,1,0,0,1-.41,1.91ZM62,84.06a1,1,0,0,1-.92-.55,1,1,0,0,1,.44-1.32l.11-.06A1,1,0,1,1,62.4,84,1,1,0,0,1,62,84.06ZM34.54,82.39a1,1,0,0,1-.56-.17,1,1,0,0,1-.32-1.4A1,1,0,0,1,35,80.49s.11.07.12.07a1,1,0,0,1-.56,1.83Zm31-.36a1,1,0,0,1-.85-.44,1,1,0,0,1,.26-1.35l.54.84L65,80.23l.08,0a1,1,0,0,1,1.06,1.7A1.16,1.16,0,0,1,65.52,82ZM31.24,80a1,1,0,0,1-.66-.25,1,1,0,0,1-.14-1.43,1,1,0,0,1,1.37-.15l.1.08A1,1,0,0,1,32,79.62,1,1,0,0,1,31.24,80Zm37.51-.43a1,1,0,0,1-.75-.32,1,1,0,0,1,.06-1.37l.66.75-.64-.77.72.7.64.76A1,1,0,0,1,68.75,79.53ZM27.58,76.75a.65.65,0,0,1-.08-.09A1,1,0,1,1,29,75.37l-.76.64.81-.59Zm44-.15A1,1,0,0,1,70.82,75l.06-.08a1,1,0,1,1,1.53,1.29A1.06,1.06,0,0,1,71.59,76.6ZM25.85,73.83a1,1,0,0,1-.84-.46A1,1,0,0,1,25.27,72a1,1,0,0,1,1.36.25l.06.09a1,1,0,0,1-.84,1.54Zm23.92-.37h-.1a1,1,0,0,1,0-2,1,1,0,0,1,1,1A1,1,0,0,1,49.77,73.46ZM74,73.29a.93.93,0,0,1-.5-.14.94.94,0,0,1-.34-1.33l0-.09a1,1,0,0,1,1.7,1.06A1.1,1.1,0,0,1,74,73.29Zm-28.27-.38a1.24,1.24,0,0,1-.27,0l-.09,0a1,1,0,0,1-.7-1.22,1,1,0,0,1,1.22-.71l.1,0a1,1,0,0,1-.26,2ZM42,71.31a1,1,0,0,1-.53-.15l0,0A1,1,0,0,1,41,69.76a1,1,0,0,1,1.37-.37l.12.07A1,1,0,0,1,42,71.31Zm-18.1-1.06a1,1,0,0,1-.9-.57l-.06-.11a1,1,0,0,1,1.83-.83l0,.07a1,1,0,0,1-.47,1.34A1.12,1.12,0,0,1,23.86,70.25Zm52.05-.52a1,1,0,0,1-.41-.09,1,1,0,0,1-.5-1.32l.91.41L75,68.25a1,1,0,0,1,1.84.77.61.61,0,0,1-.05.12A1,1,0,0,1,75.91,69.73Zm-37.2-1a.91.91,0,0,1-.67-.29L38,68.38A1,1,0,1,1,39.42,67a1,1,0,0,1,0,1.45A1,1,0,0,1,38.71,68.74ZM22.4,66.41a1,1,0,0,1-1-.72,1,1,0,0,1,.67-1.28,1,1,0,0,1,1.22.62l0,.11a1,1,0,0,1-.7,1.24A1.24,1.24,0,0,1,22.4,66.41Zm54.89-.54a1.24,1.24,0,0,1-.27,0,1,1,0,0,1-.7-1.23l0-.1a1,1,0,0,1,1.23-.7,1,1,0,0,1,.7,1.23l0,.1A1,1,0,0,1,77.29,65.87Zm-41-.45a.92.92,0,0,1-.82-.49l0-.09a1,1,0,1,1,1.76-.94,1,1,0,0,1-.38,1.39A1.07,1.07,0,0,1,36.3,65.42Zm-14.78-3a1,1,0,0,1-1-.86v-.1a1,1,0,0,1,2-.29l-1,.15,1,0a1,1,0,0,1-.84,1.13Zm56.57-.6H78a1,1,0,0,1-.88-1.07v-.13a1,1,0,0,1,2,.29A1,1,0,0,1,78.09,61.82Zm-43.21-.24a.94.94,0,0,1-.93-.71l0-.07a1,1,0,0,1,.75-1.22,1,1,0,0,1,1.19.72,1,1,0,0,1-.73,1.25A1.09,1.09,0,0,1,34.88,61.58ZM21.21,58.33a1,1,0,0,1-1-1,1,1,0,0,1,1-1,1,1,0,0,1,1,.95v.1A1,1,0,0,1,21.21,58.33Zm57.1-.61a1,1,0,0,1-1-.92v-.13a1,1,0,0,1,2,0,1,1,0,0,1-1,1Zm-43.75-.21h0a1,1,0,0,1-1-1v-.06a1,1,0,0,1,1-1h0a1,1,0,0,1,1,1A1,1,0,0,1,34.56,57.51Zm30.29-1.28a1,1,0,0,1-1-.82l0-.1a1,1,0,0,1,.85-1.14,1,1,0,0,1,1.13.84v.06A1,1,0,0,1,65,56.22ZM78,53.69a1,1,0,0,1-1-.86l1-.14-1,.08a1,1,0,0,1,2-.36s0,.12,0,.13a1,1,0,0,1-.85,1.14Zm-42.68-.15a1.19,1.19,0,0,1-.32,0,1,1,0,0,1-.63-1.27l0-.07a1,1,0,1,1,1.91.59l0,.12A1,1,0,0,1,35.28,53.54ZM63.8,52.31a1,1,0,0,1-.92-.59l0-.11a1,1,0,1,1,1.84-.77l-.92.38,1-.31a1,1,0,0,1-.52,1.32A.92.92,0,0,1,63.8,52.31ZM37.05,49.84a1,1,0,0,1-.54-.16,1,1,0,0,1-.3-1.37l0,0a1,1,0,0,1,1.4-.32A1,1,0,0,1,38,49.3a.35.35,0,0,1-.05.08A1,1,0,0,1,37.05,49.84Zm40-.14a1,1,0,0,1-1-.71l0-.06a1,1,0,1,1,1.89-.65l0,.13a1,1,0,0,1-.67,1.25A.92.92,0,0,1,77,49.7Zm-15.3-.9a1,1,0,0,1-.76-.36l-.09-.11a1,1,0,1,1,1.58-1.22l0,0a1,1,0,0,1-.12,1.41A1,1,0,0,1,61.72,48.8Zm-22-2a1,1,0,0,1-.77-.36A1,1,0,0,1,39.09,45l.65.77-.6-.81a1,1,0,0,1,1.35,1.48l-.11.09A1,1,0,0,1,39.74,46.78Zm19-.82a.92.92,0,0,1-.59-.2,1,1,0,0,1-.27-1.42,1,1,0,0,1,1.36-.25l.1.07a1,1,0,0,1,.2,1.4A1,1,0,0,1,58.78,46Zm16.7-.1a1,1,0,0,1-.86-.54l-.05-.11a1,1,0,0,1,1.82-.82,1,1,0,0,1-.45,1.37A1.06,1.06,0,0,1,75.48,45.86ZM43.21,44.48a1,1,0,0,1-.92-.55,1,1,0,0,1,.42-1.31l.1,0a1,1,0,1,1,.85,1.81A1,1,0,0,1,43.21,44.48Zm12-.48a1.12,1.12,0,0,1-.35-.06l-.09,0a1,1,0,1,1,.7-1.87l.09,0A1,1,0,0,1,55.19,44ZM47,43.25a1,1,0,0,1-.18-2l.1,0a1,1,0,0,1,.36,2l-.11,0Zm4.18-.18h-.09a1.05,1.05,0,0,1-1-1.09,1,1,0,0,1,1-.91h.1a1,1,0,0,1,.91,1.08A1,1,0,0,1,51.21,43.07Zm22.22-.76a.91.91,0,0,1-.77-.42.55.55,0,0,0-.07-.09,1,1,0,1,1,1.68-1.1A1,1,0,0,1,74,42.12,1.05,1.05,0,0,1,73.43,42.31Zm-2.51-3.22a.92.92,0,0,1-.69-.31l-.08-.09a1,1,0,0,1,.08-1.41,1,1,0,0,1,1.42.09,1,1,0,0,1-.73,1.72ZM68,36.27a1,1,0,0,1-.64-.24l.64-.76-.69.72a1,1,0,1,1,1.23-1.57l.11.09a1,1,0,0,1,.11,1.4A1,1,0,0,1,68,36.27Zm-3.33-2.39a1,1,0,0,1-.52-.15l.52-.85-.59.81a1,1,0,0,1,1-1.72l.11.06a1,1,0,0,1-.53,1.85ZM61,32a1,1,0,0,1-.37-.07l-.1-.05a1,1,0,1,1,.8-1.83,1,1,0,0,1,.56,1.33A1,1,0,0,1,61,32Zm-3.85-1.34-.26,0-.1,0a1,1,0,1,1,.53-1.93l.1,0a1,1,0,0,1-.27,2Zm-4-.77h-.22a1,1,0,0,1,.24-2l.1,0a1,1,0,0,1-.12,2Z"/><path class="cls-3" d="M47.84,27A27.29,27.29,0,1,0,75.13,54.3,27.29,27.29,0,0,0,47.84,27Zm0,41.84A14.55,14.55,0,1,1,62.39,54.3,14.55,14.55,0,0,1,47.84,68.85Z"/><path class="cls-1" d="M47.84,82.59A28.29,28.29,0,1,1,76.13,54.3,28.32,28.32,0,0,1,47.84,82.59Zm0-54.58A26.29,26.29,0,1,0,74.13,54.3,26.32,26.32,0,0,0,47.84,28Zm0,41.84A15.55,15.55,0,1,1,63.39,54.3,15.57,15.57,0,0,1,47.84,69.85Zm0-29.1A13.55,13.55,0,1,0,61.39,54.3,13.57,13.57,0,0,0,47.84,40.75Z"/><path class="cls-3" d="M39.54,26.22a29,29,0,0,1,16.59,0l-5.29,15.9a12.39,12.39,0,0,0-6,0Z"/><path class="cls-4" d="M44.83,43.12a1,1,0,0,1-.95-.68L38.59,26.53a1,1,0,0,1,.06-.77,1,1,0,0,1,.61-.5,30.19,30.19,0,0,1,17.16,0,1,1,0,0,1,.6.5.94.94,0,0,1,.06.77L51.79,42.44a1,1,0,0,1-1.19.65,11.45,11.45,0,0,0-5.52,0Zm-4-16.22L45.5,41a13.09,13.09,0,0,1,4.67,0L54.85,26.9A28.24,28.24,0,0,0,40.82,26.9Z"/><path class="cls-3" d="M75.92,46a29,29,0,0,1,0,16.59L60,57.3a12.35,12.35,0,0,0,0-6Z"/><path class="cls-4" d="M75.92,63.6a1.19,1.19,0,0,1-.32-.05l-15.9-5.3a1,1,0,0,1-.65-1.19,11.37,11.37,0,0,0,0-5.52,1,1,0,0,1,.65-1.19l15.91-5.29a.94.94,0,0,1,.77.06,1,1,0,0,1,.5.6,30.07,30.07,0,0,1,0,17.16,1,1,0,0,1-.5.6A.93.93,0,0,1,75.92,63.6Zm-14.74-7,14.06,4.68a28.09,28.09,0,0,0,0-14L61.18,52a13.14,13.14,0,0,1,0,4.68Z"/><path class="cls-3" d="M56.13,82.39a29.27,29.27,0,0,1-16.59,0l5.3-15.91a12.35,12.35,0,0,0,6,0Z"/><path class="cls-4" d="M47.84,84.59a30.33,30.33,0,0,1-8.58-1.24,1,1,0,0,1-.67-1.28l5.3-15.9a1,1,0,0,1,1.19-.66,11.21,11.21,0,0,0,5.52,0,1,1,0,0,1,1.19.66l5.29,15.9a1,1,0,0,1-.06.78,1,1,0,0,1-.6.5A30.44,30.44,0,0,1,47.84,84.59Zm-7-2.89a28.24,28.24,0,0,0,14,0l-4.68-14a13.56,13.56,0,0,1-4.67,0Z"/><path class="cls-3" d="M19.75,62.6a29.27,29.27,0,0,1,0-16.59l15.9,5.29a12.39,12.39,0,0,0,0,6Z"/><path class="cls-4" d="M19.75,63.6a.93.93,0,0,1-.46-.12,1,1,0,0,1-.5-.6,30.3,30.3,0,0,1,0-17.16,1,1,0,0,1,.5-.6,1,1,0,0,1,.78-.06L36,50.35a1,1,0,0,1,.65,1.19,11.78,11.78,0,0,0-.34,2.76,11.29,11.29,0,0,0,.35,2.76A1,1,0,0,1,36,58.25l-15.9,5.3A1.13,1.13,0,0,1,19.75,63.6Zm.69-16.31a28.09,28.09,0,0,0,0,14l14.05-4.68a13.22,13.22,0,0,1-.21-2.34A13,13,0,0,1,34.49,52Z"/></svg>