<svg width="57" height="53" viewBox="0 0 57 53" fill="none" xmlns="http://www.w3.org/2000/svg">
<g clip-path="url(#clip0)">
<path d="M14.4063 12.6156C14.7988 12.6675 15.1956 12.6802 15.5906 12.6536C15.6325 12.6577 15.6748 12.6535 15.7151 12.6414C15.7553 12.6293 15.7928 12.6095 15.8252 12.583C15.8577 12.5566 15.8845 12.524 15.9041 12.4873C15.9237 12.4506 15.9358 12.4103 15.9396 12.369C16.283 10.7998 16.6293 9.23335 16.9947 7.6696C17.1748 6.80659 17.6277 6.02213 18.2883 5.429C18.949 4.83588 19.7832 4.46463 20.6713 4.36864C20.8685 4.3497 21.0666 4.34156 21.2648 4.34425C26.6504 4.34425 32.0352 4.34425 37.419 4.34425C39.3424 4.34425 40.8372 5.33075 41.4995 7.0544C41.7348 7.77152 41.9139 8.50542 42.0353 9.24961C42.2468 10.2497 42.4832 11.2443 42.6975 12.2308C42.7041 12.2943 42.7238 12.3557 42.7555 12.4114C42.7872 12.4671 42.8301 12.5157 42.8817 12.5543C42.9332 12.5929 42.9922 12.6207 43.055 12.6359C43.1179 12.6511 43.1832 12.6534 43.247 12.6427C44.7125 12.6427 46.178 12.6427 47.6435 12.6427C48.2172 12.6194 48.7864 12.7513 49.2896 13.024C49.7928 13.2968 50.2108 13.7001 50.4984 14.1902C50.8193 14.7224 50.9821 15.3328 50.9683 15.9518C50.9683 20.6494 50.9683 25.347 50.9683 30.0446C50.9683 33.0257 50.9381 36.0069 50.9683 38.988C50.9832 39.436 50.9047 39.8823 50.7376 40.2992C50.5705 40.7161 50.3184 41.0946 49.997 41.4115C49.6755 41.7283 49.2914 41.9767 48.8686 42.1411C48.4458 42.3056 47.9933 42.3827 47.5391 42.3676C44.871 42.3242 42.2001 42.3676 39.5293 42.3513C39.3003 42.3485 39.0756 42.4126 38.8836 42.5356C37.5235 43.388 36.0493 44.0485 34.5036 44.4978C32.0923 45.2049 29.5576 45.4061 27.0626 45.0886C24.5178 44.7825 22.0728 43.9266 19.9019 42.5817C19.6555 42.4278 19.3691 42.3478 19.0775 42.3513C13.8458 42.3513 8.6149 42.3513 3.38496 42.3513C2.78358 42.3802 2.1862 42.2406 1.66197 41.9485C1.13775 41.6564 0.708129 41.2238 0.422849 40.7008C0.154176 40.2393 0.0156565 39.7153 0.0216723 39.1832C0.0216723 31.4032 0.0216723 23.6206 0.0216723 15.8353C0.0159808 15.0174 0.332572 14.2293 0.904672 13.6372C1.47677 13.0452 2.25965 12.6954 3.0882 12.6617C3.23108 12.6617 3.36298 12.6319 3.5141 12.6156H5.24795C5.41014 12.6382 5.57338 12.6527 5.73706 12.659H12.1861C12.3482 12.659 12.5103 12.6319 12.6752 12.6183L14.4063 12.6156ZM12.8263 27.5051C12.8209 30.7269 13.7843 33.878 15.5948 36.5597C17.4052 39.2413 19.9813 41.3332 22.9973 42.5708C26.0133 43.8083 29.3336 44.1358 32.5383 43.5119C35.743 42.888 38.6882 41.3408 41.0012 39.0659C43.3143 36.7909 44.8914 33.8905 45.533 30.7315C46.1746 27.5724 45.8519 24.2967 44.6057 21.3185C43.3596 18.3404 41.2459 15.7936 38.5321 14.0004C35.8183 12.2072 32.6263 11.248 29.3597 11.2443C24.9836 11.2464 20.7865 12.9588 17.6877 16.0065C14.5889 19.0543 12.8409 23.1889 12.8263 27.5051ZM1.4725 27.5051V39.0151C1.4725 40.1724 2.20891 40.8933 3.39595 40.896H5.40733C6.03107 40.896 6.06679 40.8635 6.06679 40.2645V30.4484C6.06679 30.2207 6.09702 29.9958 6.09977 29.7681C6.09945 29.6595 6.12989 29.553 6.18767 29.4606C6.24545 29.3682 6.32825 29.2935 6.42675 29.2451C6.97631 28.9388 7.52587 29.2938 7.52587 29.9497C7.52587 33.3934 7.52587 36.8398 7.52587 40.2889C7.52587 40.8526 7.56708 40.8933 8.14137 40.8933H16.5276C16.6044 40.9 16.6816 40.9 16.7584 40.8933C16.8986 40.8716 17.0497 40.8445 17.0936 40.6792C17.1146 40.6114 17.1096 40.5385 17.0798 40.4741C17.0499 40.4096 16.9972 40.3582 16.9315 40.3296C16.8509 40.2731 16.7779 40.2066 16.7145 40.1317C14.3011 37.7933 12.6082 34.8289 11.8316 31.5812C11.5684 30.4893 11.4138 29.3747 11.37 28.2531C11.3278 27.1189 11.3903 25.9831 11.5569 24.86C11.8031 23.1866 12.3014 21.5588 13.0352 20.0306C13.9697 18.044 15.2746 16.2485 16.8821 14.7377C17.0085 14.6184 17.1568 14.5046 17.0909 14.2986C17.025 14.0926 16.8161 14.1306 16.6403 14.1306H3.38771C3.13536 14.1263 2.88395 14.162 2.64306 14.2363C1.92314 14.4639 1.47525 15.1442 1.4725 16.0114V27.5051ZM29.3735 5.79418C26.6697 5.79418 23.9668 5.79418 21.2648 5.79418C20.8078 5.777 20.3537 5.87201 19.9432 6.07068C19.5326 6.26935 19.1785 6.56547 18.9127 6.93244C18.5472 7.41485 18.4401 7.98398 18.3164 8.55853C18.0416 9.75912 17.7669 10.9543 17.4921 12.1495C17.4096 12.5262 17.5086 12.6536 17.8987 12.659C18.3494 12.659 18.8 12.659 19.2507 12.659C19.4148 12.6601 19.5755 12.613 19.7123 12.5235C20.411 12.0971 21.1349 11.7125 21.8803 11.3717C25.6886 9.65723 29.9846 9.30925 34.0255 10.3879C35.6671 10.8187 37.2348 11.4872 38.6775 12.3717C38.8542 12.5166 39.0682 12.6104 39.2957 12.6427C39.8123 12.6427 40.3289 12.6427 40.8455 12.6427C41.1038 12.6427 41.2192 12.4855 41.1725 12.2335C41.1257 11.9814 41.079 11.8107 41.0323 11.602C40.7575 10.3716 40.502 9.1385 40.2245 7.9108C40.0762 7.29464 39.7182 6.74728 39.2101 6.36009C38.702 5.97291 38.0746 5.76933 37.4327 5.78334C34.7509 5.78695 32.0645 5.79057 29.3735 5.79418ZM49.4873 27.5214C49.4873 23.673 49.4873 19.8255 49.4873 15.9789C49.4873 14.8677 48.7508 14.1225 47.6517 14.1197H41.9776C41.8264 14.1197 41.6588 14.0954 41.5874 14.2824C41.5159 14.4694 41.6258 14.5534 41.7413 14.6753C42.1452 15.0737 42.5491 15.4694 42.9228 15.8976C44.8782 18.1101 46.2438 20.7683 46.8963 23.6319C47.5488 26.4956 47.4675 29.4745 46.6598 32.2994C46.4022 33.18 46.0789 34.0405 45.6926 34.874C44.761 36.8988 43.4471 38.73 41.8209 40.2699C41.6973 40.3865 41.5049 40.4651 41.5819 40.6819C41.6588 40.8987 41.8567 40.8987 42.0518 40.8987C43.9312 40.8987 45.8107 40.8987 47.6902 40.8987C48.033 40.9069 48.3702 40.8124 48.6574 40.6277C48.9248 40.4557 49.1417 40.2175 49.2864 39.9369C49.431 39.6563 49.4984 39.3431 49.4818 39.0287L49.4873 27.5214Z" fill="#363636"/>
<path d="M5.24832 12.6129H3.51447C3.60932 12.4852 3.65685 12.3292 3.64911 12.1711C3.64911 11.6291 3.64911 11.0654 3.64911 10.5152C3.64911 9.2848 4.38826 8.51241 5.63575 8.50428C7.85321 8.48531 10.0734 8.50428 12.2909 8.50428C12.5598 8.48901 12.8288 8.5304 13.0802 8.62571C13.3316 8.72102 13.5595 8.86807 13.7488 9.05704C13.938 9.24602 14.0843 9.4726 14.1779 9.72169C14.2714 9.97079 14.3101 10.2367 14.2913 10.5017C14.2583 11.0437 14.2913 11.6074 14.2913 12.1603C14.2824 12.3227 14.3299 12.4833 14.4259 12.6156H12.6948C12.7717 12.5094 12.8148 12.3829 12.8185 12.2524C12.8185 11.6453 12.8185 11.0383 12.8185 10.4312C12.8185 10.0897 12.6563 9.95692 12.2964 9.95692H5.64949C5.28679 9.95692 5.13291 10.0816 5.12741 10.4312C5.12741 11.0383 5.12741 11.6453 5.12741 12.2524C5.12997 12.3818 5.17211 12.5075 5.24832 12.6129Z" fill="#1074B7"/>
<path d="M53.5076 18.1335C53.5075 18.2953 53.4585 18.4534 53.3668 18.5876C53.2751 18.7218 53.1448 18.8259 52.9928 18.8867C52.8407 18.9474 52.6737 18.962 52.5131 18.9286C52.3526 18.8952 52.2058 18.8154 52.0916 18.6992C51.9773 18.583 51.9008 18.4359 51.8719 18.2766C51.8429 18.1173 51.8628 17.9531 51.929 17.8051C51.9952 17.657 52.1047 17.5318 52.2435 17.4454C52.3823 17.3591 52.544 17.3156 52.708 17.3204C52.9212 17.3301 53.1226 17.4196 53.2712 17.5706C53.4198 17.7217 53.5043 17.923 53.5076 18.1335Z" fill="#999999"/>
<path d="M56.8819 21.3856C56.8818 21.5476 56.8327 21.7058 56.7408 21.84C56.649 21.9743 56.5186 22.0784 56.3663 22.139C56.2141 22.1997 56.047 22.2141 55.8864 22.1805C55.7257 22.1469 55.579 22.0667 55.4649 21.9503C55.3507 21.8338 55.2745 21.6864 55.2458 21.527C55.2172 21.3675 55.2375 21.2033 55.3041 21.0553C55.3708 20.9073 55.4807 20.7822 55.6198 20.6962C55.7589 20.6103 55.9209 20.5672 56.085 20.5726C56.2977 20.5829 56.4985 20.6727 56.6465 20.8237C56.7945 20.9747 56.8786 21.1756 56.8819 21.3856Z" fill="#999999"/>
<path d="M52.6778 20.887C52.8408 20.887 53.0002 20.9346 53.1358 21.024C53.2713 21.1133 53.377 21.2403 53.4394 21.3889C53.5018 21.5374 53.5181 21.7009 53.4863 21.8586C53.4545 22.0163 53.376 22.1612 53.2607 22.2749C53.1454 22.3886 52.9985 22.4661 52.8386 22.4974C52.6787 22.5288 52.513 22.5127 52.3623 22.4512C52.2117 22.3896 52.083 22.2854 51.9924 22.1517C51.9018 22.018 51.8535 21.8608 51.8535 21.7C51.8535 21.4844 51.9403 21.2776 52.0949 21.1251C52.2495 20.9726 52.4592 20.887 52.6778 20.887Z" fill="#999999"/>
<path d="M56.0575 25.7002C55.8935 25.7001 55.7333 25.6518 55.5973 25.5615C55.4613 25.4712 55.3557 25.3429 55.294 25.1931C55.2323 25.0432 55.2174 24.8787 55.251 24.7204C55.2846 24.5621 55.3653 24.4173 55.4828 24.3045C55.6003 24.1917 55.7493 24.116 55.9106 24.0872C56.0719 24.0583 56.2383 24.0775 56.3885 24.1424C56.5387 24.2073 56.6659 24.3148 56.7537 24.4514C56.8416 24.5879 56.8862 24.7472 56.8818 24.9088C56.8761 25.1207 56.7867 25.322 56.6328 25.4698C56.4788 25.6176 56.2724 25.7003 56.0575 25.7002Z" fill="#999999"/>
<path d="M53.6395 25.3262C53.6427 25.4877 53.5972 25.6464 53.5086 25.7822C53.4201 25.9181 53.2925 26.0248 53.1422 26.0888C52.9919 26.1529 52.8256 26.1713 52.6647 26.1418C52.5037 26.1123 52.3553 26.0362 52.2383 25.9231C52.1214 25.8101 52.0412 25.6653 52.0081 25.5072C51.9749 25.349 51.9902 25.1847 52.0521 25.0352C52.114 24.8857 52.2196 24.7577 52.3555 24.6677C52.4914 24.5776 52.6514 24.5295 52.8151 24.5294C53.0309 24.5294 53.2381 24.6128 53.3923 24.7618C53.5464 24.9108 53.6352 25.1134 53.6395 25.3262Z" fill="#999999"/>
<path d="M56.8819 28.4076C56.8818 28.5695 56.8328 28.7276 56.7411 28.8618C56.6493 28.996 56.5191 29.1001 56.367 29.1609C56.215 29.2216 56.048 29.2362 55.8874 29.2028C55.7269 29.1694 55.5801 29.0895 55.4658 28.9734C55.3516 28.8572 55.2751 28.7101 55.2462 28.5508C55.2172 28.3915 55.2371 28.2273 55.3033 28.0792C55.3695 27.9312 55.479 27.8059 55.6178 27.7196C55.7565 27.6333 55.9183 27.5897 56.0823 27.5946C56.2966 27.6009 56.5 27.6894 56.6492 27.8412C56.7985 27.993 56.882 28.1962 56.8819 28.4076Z" fill="#999999"/>
<path d="M53.7714 29.1096C53.7714 29.2704 53.7231 29.4276 53.6325 29.5613C53.5419 29.695 53.4132 29.7992 53.2625 29.8607C53.1119 29.9222 52.9462 29.9383 52.7863 29.907C52.6264 29.8756 52.4795 29.7982 52.3642 29.6845C52.2489 29.5708 52.1704 29.4259 52.1386 29.2682C52.1068 29.1105 52.1231 28.947 52.1855 28.7984C52.2479 28.6499 52.3535 28.5229 52.4891 28.4335C52.6247 28.3442 52.784 28.2965 52.9471 28.2965C53.1657 28.2965 53.3754 28.3822 53.53 28.5346C53.6846 28.6871 53.7714 28.8939 53.7714 29.1096Z" fill="#999999"/>
<path d="M56.9368 31.7221C56.9368 31.8839 56.8878 32.0419 56.7962 32.176C56.7046 32.3102 56.5746 32.4143 56.4227 32.4752C56.2707 32.536 56.1039 32.5508 55.9434 32.5176C55.7829 32.4844 55.6361 32.4048 55.5218 32.2889C55.4074 32.1731 55.3307 32.0262 55.3014 31.8671C55.2721 31.7079 55.2916 31.5438 55.3574 31.3957C55.4232 31.2476 55.5322 31.1221 55.6707 31.0355C55.8091 30.9488 55.9706 30.9048 56.1345 30.9091C56.3481 30.9181 56.5502 31.0073 56.6994 31.1584C56.8486 31.3096 56.9335 31.5112 56.9368 31.7221Z" fill="#999999"/>
<path d="M53.8374 32.8306C53.8373 32.9925 53.7883 33.1506 53.6966 33.2848C53.6048 33.4189 53.4746 33.5231 53.3225 33.5838C53.1705 33.6446 53.0035 33.6592 52.8429 33.6258C52.6824 33.5924 52.5356 33.5125 52.4214 33.3963C52.3071 33.2802 52.2306 33.133 52.2017 32.9738C52.1727 32.8145 52.1926 32.6503 52.2588 32.5022C52.325 32.3541 52.4345 32.2289 52.5733 32.1426C52.712 32.0562 52.8738 32.0127 53.0378 32.0176C53.2521 32.0239 53.4555 32.1124 53.6048 32.2642C53.754 32.416 53.8375 32.6192 53.8374 32.8306Z" fill="#999999"/>
<path d="M57.0028 35.2345C57.0027 35.3962 56.9538 35.5542 56.8622 35.6884C56.7706 35.8225 56.6405 35.9266 56.4886 35.9875C56.3367 36.0483 56.1699 36.0631 56.0094 36.03C55.8489 35.9968 55.7021 35.9172 55.5877 35.8013C55.4734 35.6854 55.3967 35.5385 55.3674 35.3794C55.3381 35.2203 55.3576 35.0562 55.4234 34.908C55.4891 34.7599 55.5982 34.6345 55.7366 34.5478C55.8751 34.4611 56.0365 34.4171 56.2004 34.4214C56.4141 34.4304 56.6162 34.5196 56.7654 34.6707C56.9145 34.8219 56.9995 35.0236 57.0028 35.2345Z" fill="#999999"/>
<path d="M53.0955 35.7819C53.259 35.7852 53.4179 35.8365 53.5518 35.9292C53.6857 36.0218 53.7887 36.1517 53.8475 36.3022C53.9064 36.4528 53.9185 36.6172 53.8824 36.7745C53.8462 36.9319 53.7634 37.0751 53.6444 37.1859C53.5255 37.2967 53.3758 37.37 53.2145 37.3967C53.0531 37.4233 52.8874 37.402 52.7384 37.3354C52.5894 37.2689 52.4638 37.1601 52.3776 37.0229C52.2915 36.8857 52.2487 36.7264 52.2546 36.5651C52.2625 36.3519 52.3551 36.1502 52.5124 36.0037C52.6697 35.8572 52.8791 35.7775 53.0955 35.7819Z" fill="#999999"/>
<path d="M31.3495 50.433C31.3528 50.5945 31.3072 50.7532 31.2187 50.8891C31.1301 51.0249 31.0025 51.1316 30.8522 51.1957C30.7019 51.2597 30.5357 51.2781 30.3747 51.2486C30.2137 51.2191 30.0653 51.143 29.9484 51.03C29.8314 50.9169 29.7512 50.7721 29.7181 50.614C29.6849 50.4558 29.7002 50.2915 29.7621 50.142C29.824 49.9925 29.9296 49.8645 30.0655 49.7745C30.2014 49.6844 30.3614 49.6363 30.5252 49.6362C30.741 49.6362 30.9482 49.7196 31.1023 49.8686C31.2564 50.0176 31.3452 50.2202 31.3495 50.433Z" fill="#999999"/>
<path d="M56.096 39.2942C55.9323 39.2909 55.7734 39.2395 55.6394 39.1467C55.5055 39.054 55.4025 38.9239 55.3438 38.7732C55.285 38.6225 55.2731 38.458 55.3095 38.3006C55.3459 38.1431 55.429 38 55.5482 37.8893C55.6674 37.7787 55.8173 37.7055 55.9788 37.6792C56.1403 37.6529 56.3061 37.6746 56.4551 37.7416C56.604 37.8086 56.7294 37.9178 56.8152 38.0553C56.901 38.1928 56.9433 38.3524 56.9368 38.5137C56.9242 38.7251 56.8301 38.9237 56.6737 39.0688C56.5174 39.214 56.3107 39.2946 56.096 39.2942Z" fill="#999999"/>
<path d="M52.991 41.1155C52.8274 41.1111 52.6688 41.0586 52.5355 40.9649C52.4022 40.8712 52.3002 40.7405 52.2425 40.5895C52.1848 40.4384 52.174 40.2738 52.2115 40.1166C52.249 39.9594 52.333 39.8169 52.453 39.707C52.5729 39.5971 52.7233 39.525 52.885 39.4997C53.0467 39.4745 53.2123 39.4973 53.3608 39.5652C53.5093 39.6332 53.6339 39.7432 53.7188 39.8812C53.8037 40.0193 53.8449 40.1791 53.8374 40.3404C53.8274 40.5532 53.7331 40.7536 53.5748 40.8986C53.4166 41.0435 53.2069 41.1214 52.991 41.1155Z" fill="#999999"/>
<path d="M56.0575 41.1697C56.2213 41.1697 56.3813 41.2178 56.5172 41.3079C56.6531 41.398 56.7587 41.5259 56.8206 41.6755C56.8825 41.825 56.8978 41.9893 56.8646 42.1474C56.8315 42.3056 56.7513 42.4504 56.6343 42.5634C56.5174 42.6764 56.369 42.7526 56.208 42.7821C56.047 42.8116 55.8808 42.7931 55.7305 42.7291C55.5802 42.6651 55.4526 42.5583 55.364 42.4225C55.2755 42.2867 55.2299 42.1279 55.2332 41.9665C55.2375 41.7537 55.3263 41.551 55.4804 41.402C55.6345 41.2531 55.8417 41.1696 56.0575 41.1697Z" fill="#999999"/>
<path d="M51.3066 44.1075C51.1436 44.1075 50.9842 44.0599 50.8487 43.9705C50.7131 43.8812 50.6074 43.7542 50.545 43.6056C50.4827 43.4571 50.4663 43.2936 50.4981 43.1359C50.5299 42.9782 50.6085 42.8333 50.7237 42.7196C50.839 42.6059 50.9859 42.5284 51.1458 42.4971C51.3057 42.4657 51.4715 42.4818 51.6221 42.5433C51.7727 42.6049 51.9015 42.7091 51.992 42.8428C52.0826 42.9765 52.131 43.1337 52.131 43.2945C52.131 43.5101 52.0441 43.7169 51.8895 43.8694C51.7349 44.0219 51.5253 44.1075 51.3066 44.1075Z" fill="#999999"/>
<path d="M47.8554 43.5872C48.0184 43.5872 48.1778 43.6348 48.3134 43.7242C48.4489 43.8135 48.5546 43.9405 48.617 44.0891C48.6794 44.2376 48.6957 44.4011 48.6639 44.5588C48.6321 44.7165 48.5536 44.8614 48.4383 44.9751C48.323 45.0888 48.1761 45.1662 48.0162 45.1976C47.8563 45.229 47.6906 45.2129 47.5399 45.1514C47.3893 45.0898 47.2606 44.9856 47.17 44.8519C47.0794 44.7182 47.0311 44.561 47.0311 44.4002C47.0311 44.1846 47.1179 43.9778 47.2725 43.8253C47.4271 43.6728 47.6368 43.5872 47.8554 43.5872Z" fill="#999999"/>
<path d="M8.56483 45.3434C8.4011 45.3433 8.24108 45.2952 8.10519 45.2051C7.96929 45.1151 7.86367 44.9871 7.8018 44.8376C7.73992 44.6881 7.72458 44.5238 7.75775 44.3656C7.79092 44.2075 7.87108 44.0627 7.98802 43.9496C8.10496 43.8366 8.25338 43.7605 8.41436 43.731C8.57533 43.7015 8.74157 43.7199 8.89188 43.7839C9.04219 43.848 9.16976 43.9547 9.25833 44.0905C9.34689 44.2264 9.39244 44.3851 9.38917 44.5466C9.38485 44.7594 9.2961 44.962 9.14197 45.111C8.98785 45.26 8.78063 45.3434 8.56483 45.3434Z" fill="#999999"/>
<path d="M13.0163 44.5168C13.019 44.6781 12.973 44.8366 12.8841 44.9721C12.7952 45.1076 12.6674 45.2139 12.5171 45.2775C12.3667 45.3411 12.2005 45.3592 12.0397 45.3294C11.8789 45.2995 11.7308 45.2232 11.6141 45.1101C11.4974 44.9969 11.4175 44.8521 11.3846 44.694C11.3517 44.5359 11.3672 44.3718 11.4291 44.2224C11.4911 44.073 11.5967 43.9453 11.7326 43.8553C11.8684 43.7654 12.0283 43.7173 12.192 43.7173C12.4082 43.7173 12.6158 43.8011 12.77 43.9506C12.9242 44.1002 13.0127 44.3035 13.0163 44.5168Z" fill="#999999"/>
<path d="M5.77312 44.6034C5.77305 44.7653 5.72401 44.9234 5.63229 45.0576C5.54057 45.1918 5.41034 45.2959 5.25827 45.3567C5.10619 45.4174 4.9392 45.432 4.77865 45.3986C4.61811 45.3652 4.47132 45.2853 4.35709 45.1692C4.24285 45.053 4.16635 44.9059 4.13739 44.7466C4.10843 44.5873 4.12833 44.4231 4.19453 44.275C4.26073 44.127 4.37023 44.0017 4.509 43.9154C4.64777 43.8291 4.80951 43.7856 4.97352 43.7904C5.1867 43.8 5.38812 43.8895 5.53671 44.0406C5.68529 44.1917 5.76985 44.393 5.77312 44.6034Z" fill="#999999"/>
<path d="M45.0005 44.6008C45.0004 44.7625 44.9515 44.9205 44.8599 45.0547C44.7683 45.1888 44.6382 45.293 44.4863 45.3538C44.3344 45.4146 44.1675 45.4294 44.0071 45.3963C43.8466 45.3631 43.6998 45.2835 43.5854 45.1676C43.4711 45.0517 43.3943 44.9048 43.3651 44.7457C43.3358 44.5866 43.3553 44.4225 43.421 44.2743C43.4868 44.1262 43.5959 44.0008 43.7343 43.9141C43.8727 43.8274 44.0342 43.7835 44.1981 43.7878C44.4129 43.7934 44.617 43.8816 44.7669 44.0334C44.9167 44.1853 45.0006 44.3889 45.0005 44.6008Z" fill="#999999"/>
<path d="M15.7668 45.4734C15.6032 45.4761 15.4425 45.4307 15.3052 45.343C15.1678 45.2553 15.06 45.1293 14.9955 44.981C14.931 44.8327 14.9127 44.6688 14.943 44.5102C14.9732 44.3516 15.0506 44.2055 15.1653 44.0904C15.2801 43.9753 15.4269 43.8965 15.5872 43.8641C15.7474 43.8316 15.9139 43.8469 16.0653 43.908C16.2167 43.9691 16.3463 44.0733 16.4375 44.2073C16.5287 44.3412 16.5774 44.499 16.5774 44.6603C16.5775 44.8737 16.4925 45.0784 16.3409 45.2305C16.1892 45.3826 15.9831 45.4698 15.7668 45.4734Z" fill="#999999"/>
<path d="M55.486 44.7851C55.486 44.9459 55.4377 45.1031 55.3471 45.2368C55.2565 45.3705 55.1278 45.4747 54.9771 45.5362C54.8265 45.5978 54.6608 45.6139 54.5009 45.5825C54.3409 45.5511 54.1941 45.4737 54.0788 45.36C53.9635 45.2463 53.885 45.1014 53.8532 44.9437C53.8214 44.786 53.8377 44.6225 53.9001 44.474C53.9625 44.3254 54.0681 44.1984 54.2037 44.1091C54.3393 44.0197 54.4986 43.972 54.6617 43.972C54.8803 43.972 55.09 44.0577 55.2446 44.2102C55.3992 44.3627 55.486 44.5695 55.486 44.7851Z" fill="#999999"/>
<path d="M41.3734 44.8609C41.3733 45.0227 41.3244 45.1807 41.2328 45.3148C41.1412 45.449 41.0111 45.5531 40.8592 45.6139C40.7073 45.6748 40.5405 45.6896 40.38 45.6564C40.2195 45.6232 40.0727 45.5436 39.9583 45.4277C39.844 45.3119 39.7673 45.165 39.738 45.0059C39.7087 44.8467 39.7282 44.6826 39.794 44.5345C39.8597 44.3864 39.9688 44.2609 40.1072 44.1743C40.2457 44.0876 40.4071 44.0436 40.571 44.0479C40.7847 44.0569 40.9868 44.1461 41.136 44.2972C41.2851 44.4484 41.3701 44.65 41.3734 44.8609Z" fill="#999999"/>
<path d="M19.1988 46.1239C19.0351 46.1271 18.8741 46.0822 18.7364 45.9948C18.5987 45.9075 18.4905 45.7816 18.4256 45.6334C18.3606 45.4851 18.3419 45.3212 18.3719 45.1624C18.4018 45.0036 18.479 44.8572 18.5936 44.7419C18.7082 44.6266 18.855 44.5475 19.0153 44.5148C19.1757 44.4821 19.3422 44.4972 19.4938 44.5582C19.6454 44.6193 19.7752 44.7234 19.8665 44.8575C19.9578 44.9915 20.0066 45.1493 20.0066 45.3108C20.0067 45.5237 19.9221 45.728 19.7711 45.88C19.62 46.0321 19.4146 46.1196 19.1988 46.1239Z" fill="#999999"/>
<path d="M37.0401 46.4491C36.8765 46.4463 36.7173 46.3955 36.583 46.3031C36.4487 46.2108 36.3453 46.0811 36.2861 45.9306C36.2268 45.7801 36.2143 45.6156 36.2501 45.458C36.286 45.3005 36.3686 45.157 36.4874 45.046C36.6063 44.9349 36.756 44.8613 36.9174 44.8344C37.0788 44.8076 37.2447 44.8288 37.3939 44.8953C37.5431 44.9618 37.6688 45.0705 37.7551 45.2078C37.8413 45.345 37.8842 45.5045 37.8782 45.6659C37.8669 45.8775 37.7737 46.0768 37.6177 46.2225C37.4618 46.3683 37.255 46.4494 37.0401 46.4491Z" fill="#999999"/>
<path d="M23.5678 46.4084C23.5678 46.5692 23.5194 46.7264 23.4289 46.8601C23.3383 46.9938 23.2095 47.098 23.0589 47.1595C22.9083 47.2211 22.7425 47.2372 22.5826 47.2058C22.4227 47.1744 22.2759 47.097 22.1606 46.9833C22.0453 46.8696 21.9668 46.7247 21.935 46.567C21.9032 46.4093 21.9195 46.2458 21.9819 46.0972C22.0443 45.9487 22.1499 45.8217 22.2855 45.7324C22.421 45.643 22.5804 45.5953 22.7435 45.5953C22.9621 45.5953 23.1718 45.681 23.3264 45.8335C23.4809 45.9859 23.5678 46.1927 23.5678 46.4084Z" fill="#999999"/>
<path d="M52.5843 46.6117C52.5843 46.7732 52.5355 46.931 52.4442 47.065C52.3529 47.1991 52.2231 47.3032 52.0715 47.3643C51.9199 47.4253 51.7534 47.4404 51.593 47.4077C51.4327 47.375 51.2859 47.2959 51.1713 47.1806C51.0567 47.0652 50.9795 46.9189 50.9496 46.7601C50.9196 46.6013 50.9383 46.4374 51.0033 46.2891C51.0682 46.1408 51.1764 46.015 51.3141 45.9277C51.4518 45.8403 51.6128 45.7954 51.7765 45.7986C51.9922 45.8029 52.1977 45.8904 52.3488 46.0424C52.4998 46.1944 52.5844 46.3988 52.5843 46.6117Z" fill="#999999"/>
<path d="M33.817 45.9287C33.98 45.9287 34.1394 45.9764 34.275 46.0657C34.4106 46.1551 34.5162 46.2821 34.5786 46.4306C34.641 46.5792 34.6573 46.7426 34.6255 46.9004C34.5937 47.0581 34.5152 47.2029 34.3999 47.3167C34.2846 47.4304 34.1377 47.5078 33.9778 47.5392C33.8179 47.5705 33.6522 47.5544 33.5016 47.4929C33.3509 47.4314 33.2222 47.3272 33.1316 47.1935C33.041 47.0597 32.9927 46.9026 32.9927 46.7417C32.9927 46.5261 33.0795 46.3193 33.2341 46.1668C33.3887 46.0144 33.5984 45.9287 33.817 45.9287Z" fill="#999999"/>
<path d="M27.3267 47.1835C27.3294 47.3449 27.2834 47.5034 27.1945 47.6389C27.1056 47.7743 26.9778 47.8806 26.8275 47.9443C26.6771 48.0079 26.5109 48.0259 26.3501 47.9961C26.1893 47.9663 26.0412 47.8899 25.9245 47.7768C25.8079 47.6636 25.728 47.5188 25.695 47.3607C25.6621 47.2027 25.6776 47.0385 25.7396 46.8891C25.8015 46.7398 25.9072 46.612 26.043 46.5221C26.1789 46.4321 26.3388 46.3841 26.5024 46.384C26.7186 46.384 26.9263 46.4678 27.0805 46.6174C27.2347 46.7669 27.3231 46.9702 27.3267 47.1835Z" fill="#999999"/>
<path d="M29.3711 47.3272C29.3711 47.1657 29.4199 47.0079 29.5112 46.8738C29.6026 46.7398 29.7323 46.6356 29.8839 46.5746C30.0355 46.5135 30.2021 46.4984 30.3624 46.5311C30.5227 46.5639 30.6696 46.6429 30.7842 46.7583C30.8988 46.8736 30.976 47.02 31.0059 47.1788C31.0358 47.3375 31.0171 47.5015 30.9522 47.6497C30.8873 47.798 30.779 47.9238 30.6413 48.0112C30.5036 48.0985 30.3426 48.1434 30.1789 48.1402C29.9643 48.1326 29.7608 48.044 29.6105 47.8927C29.4602 47.7414 29.3745 47.539 29.3711 47.3272Z" fill="#999999"/>
<path d="M49.1551 47.4626C49.1551 47.6243 49.1061 47.7824 49.0145 47.9165C48.9229 48.0506 48.7929 48.1548 48.641 48.2156C48.4891 48.2765 48.3222 48.2913 48.1617 48.2581C48.0012 48.2249 47.8544 48.1453 47.7401 48.0294C47.6257 47.9135 47.549 47.7666 47.5197 47.6075C47.4904 47.4484 47.5099 47.2843 47.5757 47.1362C47.6415 46.988 47.7506 46.8626 47.889 46.7759C48.0274 46.6893 48.1889 46.6453 48.3528 46.6496C48.5665 46.6585 48.7686 46.7477 48.9177 46.8989C49.0669 47.05 49.1518 47.2517 49.1551 47.4626Z" fill="#999999"/>
<path d="M44.5554 48.4654C44.3921 48.4621 44.2336 48.4111 44.0998 48.3189C43.966 48.2266 43.863 48.0972 43.8038 47.9472C43.7447 47.7971 43.732 47.6331 43.7675 47.4759C43.803 47.3187 43.8849 47.1755 44.003 47.0643C44.1212 46.9532 44.2701 46.8791 44.4309 46.8515C44.5917 46.8239 44.7573 46.844 44.9065 46.9094C45.0557 46.9747 45.1819 47.0822 45.2691 47.2183C45.3563 47.3545 45.4005 47.5131 45.3962 47.674C45.3863 47.8873 45.2933 48.0886 45.1367 48.2361C44.9801 48.3835 44.7718 48.4656 44.5554 48.4654Z" fill="#999999"/>
<path d="M8.77924 48.7257C8.61554 48.7289 8.45457 48.684 8.31686 48.5966C8.17914 48.5093 8.07093 48.3834 8.006 48.2352C7.94107 48.0869 7.92238 47.923 7.9523 47.7642C7.98222 47.6054 8.0594 47.459 8.174 47.3437C8.2886 47.2284 8.43543 47.1493 8.59577 47.1166C8.75611 47.0839 8.92269 47.099 9.07428 47.16C9.22587 47.2211 9.3556 47.3252 9.44693 47.4593C9.53826 47.5933 9.58705 47.7511 9.58709 47.9126C9.58713 48.1255 9.50255 48.3298 9.3515 48.4819C9.20046 48.6339 8.99499 48.7214 8.77924 48.7257Z" fill="#999999"/>
<path d="M11.3676 47.9126C11.3676 47.7511 11.4164 47.5933 11.5078 47.4593C11.5991 47.3252 11.7288 47.2211 11.8804 47.16C12.032 47.099 12.1986 47.0839 12.3589 47.1166C12.5193 47.1493 12.6661 47.2284 12.7807 47.3437C12.8953 47.459 12.9725 47.6054 13.0024 47.7642C13.0323 47.923 13.0136 48.0869 12.9487 48.2352C12.8838 48.3834 12.7756 48.5093 12.6378 48.5966C12.5001 48.684 12.3392 48.7289 12.1755 48.7257C11.9608 48.718 11.7573 48.6294 11.607 48.4782C11.4567 48.3269 11.371 48.1244 11.3676 47.9126Z" fill="#999999"/>
<path d="M15.9537 48.7906C15.7906 48.7906 15.6313 48.743 15.4957 48.6536C15.3601 48.5643 15.2545 48.4373 15.1921 48.2887C15.1297 48.1402 15.1134 47.9767 15.1452 47.819C15.177 47.6613 15.2555 47.5164 15.3708 47.4027C15.4861 47.289 15.6329 47.2115 15.7928 47.1802C15.9528 47.1488 16.1185 47.1649 16.2691 47.2264C16.4198 47.288 16.5485 47.3922 16.6391 47.5259C16.7297 47.6596 16.778 47.8168 16.778 47.9776C16.778 48.1932 16.6912 48.4 16.5366 48.5525C16.382 48.705 16.1723 48.7906 15.9537 48.7906Z" fill="#999999"/>
<path d="M40.8623 47.2946C41.026 47.2914 41.187 47.3363 41.3247 47.4236C41.4624 47.511 41.5706 47.6368 41.6355 47.7851C41.7005 47.9333 41.7192 48.0973 41.6892 48.2561C41.6593 48.4148 41.5821 48.5612 41.4675 48.6766C41.3529 48.7919 41.2061 48.871 41.0458 48.9037C40.8854 48.9364 40.7188 48.9213 40.5672 48.8602C40.4157 48.7992 40.2859 48.695 40.1946 48.561C40.1033 48.427 40.0545 48.2691 40.0544 48.1076C40.0544 47.8948 40.139 47.6904 40.29 47.5384C40.4411 47.3864 40.6465 47.2989 40.8623 47.2946Z" fill="#999999"/>
<path d="M20.0616 48.8096C20.0643 48.971 20.0183 49.1295 19.9294 49.265C19.8405 49.4004 19.7127 49.5067 19.5623 49.5704C19.412 49.634 19.2458 49.652 19.085 49.6222C18.9242 49.5924 18.776 49.516 18.6594 49.4029C18.5427 49.2897 18.4628 49.1449 18.4299 48.9868C18.397 48.8288 18.4125 48.6646 18.4744 48.5152C18.5364 48.3659 18.642 48.2381 18.7779 48.1481C18.9137 48.0582 19.0736 48.0102 19.2372 48.0101C19.4524 48.0135 19.6581 48.0984 19.8116 48.2472C19.965 48.3961 20.0545 48.5974 20.0616 48.8096Z" fill="#999999"/>
<path d="M38.197 49.0292C38.1969 49.1911 38.1478 49.3494 38.0559 49.4836C37.964 49.6178 37.8336 49.7219 37.6814 49.7826C37.5292 49.8432 37.362 49.8577 37.2014 49.8241C37.0408 49.7904 36.894 49.7103 36.7799 49.5938C36.6658 49.4774 36.5895 49.33 36.5609 49.1705C36.5323 49.0111 36.5526 48.8468 36.6192 48.6988C36.6858 48.5508 36.7958 48.4258 36.9349 48.3398C37.074 48.2538 37.236 48.2108 37.4001 48.2162C37.6128 48.2265 37.8135 48.3162 37.9615 48.4672C38.1096 48.6183 38.1937 48.8192 38.197 49.0292Z" fill="#999999"/>
<path d="M22.8094 50.6118C22.6457 50.6118 22.4857 50.5636 22.3498 50.4736C22.2139 50.3835 22.1082 50.2555 22.0464 50.106C21.9845 49.9565 21.9692 49.7922 22.0023 49.6341C22.0355 49.4759 22.1156 49.3311 22.2326 49.2181C22.3495 49.105 22.4979 49.0289 22.6589 48.9994C22.8199 48.9699 22.9861 48.9883 23.1364 49.0524C23.2868 49.1164 23.4143 49.2231 23.5029 49.359C23.5915 49.4948 23.637 49.6536 23.6337 49.815C23.6294 50.0278 23.5407 50.2305 23.3865 50.3794C23.2324 50.5284 23.0252 50.6118 22.8094 50.6118Z" fill="#999999"/>
<path d="M34.0753 49.1158C34.239 49.1159 34.399 49.164 34.5349 49.2541C34.6708 49.3442 34.7765 49.4721 34.8383 49.6216C34.9002 49.7711 34.9155 49.9354 34.8824 50.0936C34.8492 50.2517 34.769 50.3965 34.6521 50.5096C34.5352 50.6226 34.3867 50.6987 34.2258 50.7282C34.0648 50.7577 33.8986 50.7393 33.7482 50.6753C33.5979 50.6112 33.4704 50.5045 33.3818 50.3687C33.2932 50.2328 33.2477 50.0741 33.251 49.9126C33.2553 49.6998 33.344 49.4972 33.4982 49.3482C33.6523 49.1992 33.8595 49.1158 34.0753 49.1158Z" fill="#999999"/>
<path d="M27.5246 50.3842C27.5245 50.5461 27.4754 50.7043 27.3835 50.8386C27.2917 50.9728 27.1613 51.0769 27.009 51.1376C26.8568 51.1982 26.6897 51.2127 26.5291 51.179C26.3684 51.1454 26.2217 51.0652 26.1076 50.9488C25.9934 50.8324 25.9172 50.685 25.8886 50.5255C25.8599 50.3661 25.8802 50.2018 25.9468 50.0538C26.0135 49.9058 26.1234 49.7808 26.2625 49.6948C26.4016 49.6088 26.5636 49.5657 26.7277 49.5711C26.9404 49.5814 27.1412 49.6712 27.2892 49.8222C27.4372 49.9732 27.5213 50.1742 27.5246 50.3842Z" fill="#999999"/>
<path d="M16.3796 27.1474C16.6076 22.5645 18.7647 18.7839 23.1391 16.3312C25.5234 14.9861 28.2986 14.4752 31.0143 14.8812C35.1359 15.4558 38.3316 17.5128 40.4721 21.0468C42.1573 23.7768 42.7012 27.0458 41.9889 30.1638C41.6533 31.7305 41.0253 33.222 40.1369 34.5623C40.0688 34.6982 39.9601 34.8102 39.8255 34.8833C39.6909 34.9565 39.5369 34.9873 39.384 34.9716C39.2507 34.9653 39.1217 34.9227 39.0114 34.8485C38.9011 34.7743 38.8138 34.6715 38.7592 34.5513C38.7045 34.4312 38.6847 34.2985 38.7019 34.1679C38.719 34.0374 38.7725 33.914 38.8564 33.8116C39.3168 33.1131 39.7078 32.3726 40.0243 31.6001C40.4715 30.4824 40.7269 29.2991 40.7799 28.0986C40.9312 25.5119 40.1528 22.9554 38.5817 20.8788C37.2295 19.0265 35.3318 17.6298 33.1465 16.8786C31.4584 16.2754 29.646 16.0893 27.8681 16.3366C24.0212 16.8786 21.1717 18.8354 19.273 22.1417C18.1348 24.0996 17.6674 26.3674 17.9403 28.6081C18.4294 32.882 20.7046 35.9255 24.5982 37.7955C26.5946 38.7379 28.8378 39.0475 31.0198 38.6817C31.344 38.633 31.6655 38.576 31.987 38.5083C32.0888 38.4742 32.1968 38.4624 32.3037 38.4736C32.4106 38.4848 32.5137 38.5188 32.6059 38.5732C32.6982 38.6276 32.7773 38.7011 32.838 38.7886C32.8986 38.8761 32.9392 38.9756 32.957 39.0801C32.9745 39.1792 32.9716 39.2806 32.9483 39.3785C32.9251 39.4764 32.882 39.5686 32.8216 39.6496C32.7613 39.7306 32.685 39.7988 32.5973 39.8499C32.5096 39.9011 32.4123 39.9343 32.3112 39.9474C31.1319 40.2107 29.9224 40.3182 28.7144 40.2672C26.2113 40.1475 23.7972 39.3137 21.7652 37.8671C19.7332 36.4205 18.1706 34.4233 17.2671 32.1178C16.6846 30.6001 16.4318 29.0689 16.3796 27.1474Z" fill="#1074B7"/>
<path d="M37.216 37.2698C37.209 37.4604 37.1282 37.6411 36.9901 37.7747C36.8521 37.9083 36.6674 37.9846 36.4741 37.988C36.3753 37.9895 36.2772 37.9713 36.1857 37.9346C36.0941 37.8979 36.011 37.8434 35.9413 37.7744C35.8716 37.7054 35.8166 37.6232 35.7798 37.5328C35.7429 37.4424 35.7248 37.3456 35.7267 37.2481C35.7337 37.0573 35.8144 36.8763 35.9523 36.7422C36.0903 36.6082 36.275 36.5313 36.4686 36.5272C36.5673 36.5269 36.6651 36.5459 36.7563 36.5831C36.8475 36.6204 36.9303 36.6751 36.9999 36.7442C37.0694 36.8133 37.1243 36.8954 37.1614 36.9856C37.1985 37.0758 37.2171 37.1724 37.216 37.2698Z" fill="#426FA8"/>
<path d="M6.82552 18.0711C7.51482 18.0755 8.18723 18.282 8.75727 18.6643C9.32732 19.0465 9.76925 19.5873 10.0269 20.2179C10.2846 20.8485 10.3463 21.5404 10.2043 22.2057C10.0623 22.871 9.72288 23.4796 9.22929 23.9542C8.73571 24.4288 8.1102 24.7479 7.43227 24.871C6.75434 24.9941 6.05461 24.9157 5.42202 24.6456C4.78943 24.3755 4.25255 23.926 3.87961 23.3542C3.50668 22.7824 3.31453 22.1142 3.32759 21.4344C3.34492 20.5327 3.72179 19.6741 4.37653 19.0445C5.03127 18.415 5.91115 18.0653 6.82552 18.0711ZM6.76507 23.4508C7.29153 23.4624 7.80114 23.2674 8.1819 22.9086C8.56266 22.5498 8.78343 22.0566 8.79568 21.5374C8.80016 21.0244 8.60485 20.5292 8.25003 20.154C7.89521 19.7788 7.40794 19.5523 6.88872 19.521C6.62288 19.512 6.35787 19.5551 6.10907 19.6479C5.86027 19.7408 5.63263 19.8814 5.43937 20.0616C5.24612 20.2419 5.09109 20.4582 4.98329 20.6981C4.87549 20.9379 4.81706 21.1965 4.81139 21.4588C4.80519 21.7166 4.851 21.973 4.94617 22.2132C5.04133 22.4534 5.18395 22.6725 5.36573 22.8579C5.54751 23.0432 5.76483 23.1911 6.00506 23.2929C6.24528 23.3946 6.50363 23.4483 6.76507 23.4508Z" fill="#1074B7"/>
</g>
<defs>
<clipPath id="clip0">
<rect width="57" height="53" fill="white"/>
</clipPath>
</defs>
</svg>
