<svg width="63" height="59" viewBox="0 0 63 59" fill="none" xmlns="http://www.w3.org/2000/svg">
<g clip-path="url(#clip0)">
<path d="M2.91833 57.0656C2.95285 56.9022 3.11748 56.831 3.23697 56.6913V57.0656H2.91833Z" fill="#989898"/>
<path d="M49.6279 44.1603C49.612 44.8641 49.6731 45.5732 49.3624 46.2427C48.5392 48.0192 47.1266 48.9602 45.1882 49.1579C45.0608 49.1579 44.9227 49.1579 44.8059 49.1579H9.95759C8.98926 49.1667 8.0464 48.8501 7.2823 48.2596C6.51821 47.6691 5.97779 46.8393 5.74892 45.9053C5.67151 45.5762 5.63495 45.2389 5.64006 44.901C5.64006 36.2782 5.64006 27.6563 5.64006 19.0353C5.64006 16.8818 6.89336 15.0815 8.79456 14.4568C9.12669 14.3515 9.47352 14.299 9.82217 14.3013H11.3835H12.9183C13.0537 14.3013 13.1838 14.3013 13.3298 14.3013H44.7156C45.0017 14.2995 45.2874 14.3189 45.5706 14.3592C47.7612 14.6676 49.6199 16.7842 49.6199 18.9773V42.1281C49.6199 42.2546 49.6199 42.3917 49.6199 42.505C49.6306 43.0585 49.6279 43.6015 49.6279 44.1603ZM27.4322 15.8063H11.2162C10.7807 15.8063 10.3453 15.7905 9.90979 15.8063C9.51077 15.8192 9.12 15.9226 8.76744 16.1085C8.41488 16.2945 8.10989 16.5581 7.87583 16.8791C7.38795 17.5404 7.13824 18.3453 7.16686 19.1644C7.16686 24.995 7.16686 30.8246 7.16686 36.6534C7.16686 36.7588 7.16686 36.8643 7.16686 36.9697C7.17549 37.0812 7.22422 37.186 7.30415 37.2649C7.38409 37.3437 7.48991 37.3915 7.60233 37.3993C7.70233 37.4097 7.80341 37.3986 7.89871 37.3668C7.99401 37.3349 8.08129 37.2831 8.15463 37.2148C10.8967 35.2327 13.6405 33.2514 16.3861 31.271C17.2292 30.6638 18.2393 30.3272 19.2807 30.3065C20.322 30.2858 21.3449 30.5819 22.2118 31.155C22.7508 31.5465 23.2618 31.9746 23.7413 32.436C25.6213 34.0782 27.5145 35.7071 29.3785 37.3677C30.8761 38.7041 32.5091 38.8992 34.2457 37.8949C38.6854 35.3258 43.1259 32.7593 47.5674 30.1955C47.7426 30.1129 47.8884 29.9795 47.9856 29.8129C48.0827 29.6463 48.1267 29.4544 48.1117 29.2624C48.0985 25.9623 48.1117 22.6728 48.1117 19.3621C48.1117 17.2534 46.6646 15.8063 44.5377 15.8063H27.4322ZM27.4083 47.6529H44.6067C44.9249 47.6591 45.2427 47.6308 45.5547 47.5685C47.1027 47.2258 48.1091 46.103 48.1117 44.6875C48.1117 40.7232 48.1117 36.7597 48.1117 32.7971C48.1117 32.0907 47.7453 31.893 47.1266 32.2489C43.0197 34.6106 38.912 36.9697 34.8033 39.3262C33.8333 39.8874 32.7096 40.1302 31.5924 40.0199C30.4752 39.9096 29.4216 39.4519 28.5819 38.712L21.9038 32.8604C20.3956 31.5425 18.6776 31.4449 17.0632 32.6205C13.8768 34.9427 10.6905 37.2781 7.50408 39.5977C7.38852 39.6795 7.29657 39.79 7.2374 39.9181C7.17824 40.0462 7.15391 40.1874 7.16686 40.3278C7.16686 41.7722 7.20934 43.2272 7.16686 44.6585C7.10844 46.356 8.37502 47.6766 10.1859 47.666C15.9294 47.6318 21.6622 47.6529 27.4083 47.6529Z" fill="#363636"/>
<path d="M12.9236 14.2907H11.3888C11.5127 13.3102 11.6384 12.3297 11.7658 11.3491C11.8455 10.7218 11.9039 10.0918 12.0075 9.46974C12.2173 8.34891 12.8495 7.34958 13.7755 6.67525C14.7014 6.00091 15.8515 5.70228 16.9915 5.84016C18.7918 6.07475 20.5948 6.25399 22.3977 6.45695C24.3679 6.68188 26.3382 6.90592 28.3084 7.12909L33.5898 7.72216L39.5324 8.39167L44.843 8.99001C46.8097 9.22021 48.7782 9.44338 50.7485 9.65952C51.3303 9.69054 51.9075 9.77883 52.4718 9.92311C53.5154 10.2633 54.4059 10.9561 54.9881 11.8808C55.5703 12.8055 55.8074 13.9036 55.6581 14.984C55.4191 16.7685 55.2412 18.5608 55.0368 20.348C54.8102 22.3196 54.5854 24.2798 54.3623 26.2286C54.1605 27.9858 53.9605 29.7431 53.7622 31.5003L53.1489 36.8353C53.0187 37.9872 52.8833 39.139 52.7506 40.2883C52.5195 42.1334 51.5875 43.4513 49.7766 44.105L49.6279 44.1604C49.6279 43.6095 49.6279 43.0586 49.6279 42.505C50.0557 42.3119 50.4226 42.0071 50.6896 41.6232C50.9566 41.2393 51.1137 40.7907 51.1441 40.3252C51.2928 39.0811 51.4229 37.8343 51.5663 36.5902C51.784 34.6871 52.0097 32.784 52.2301 30.8809L52.8382 25.6777C53.0612 23.764 53.2852 21.8504 53.51 19.9368C53.7091 18.2208 53.8817 16.5101 54.1127 14.7916C54.1772 14.3769 54.1553 13.9535 54.0482 13.5476C53.9412 13.1417 53.7514 12.762 53.4905 12.4319C53.2297 12.1017 52.9033 11.8283 52.5317 11.6284C52.16 11.4286 51.751 11.3066 51.33 11.27C49.9572 11.1303 48.5897 10.9669 47.2195 10.8088C44.9183 10.5434 42.6223 10.2798 40.3317 10.018C38.0348 9.75442 35.7353 9.49083 33.4279 9.22724L24.9309 8.24143C22.2543 7.93567 19.5804 7.61146 16.9012 7.33733C14.931 7.137 13.6538 8.32841 13.4175 10.0628C13.2316 11.4651 13.0882 12.8779 12.9236 14.2907Z" fill="#1074B7"/>
<path d="M58.8551 44.7929C58.6254 44.7891 58.4059 44.6982 58.2415 44.539C58.0771 44.3797 57.9803 44.1641 57.9709 43.9363C57.9718 43.8205 57.9963 43.706 58.0429 43.5999C58.0895 43.4937 58.1573 43.398 58.2421 43.3184C58.3269 43.2389 58.4271 43.1772 58.5365 43.1371C58.646 43.097 58.7624 43.0792 58.879 43.0849C59.1074 43.0876 59.3257 43.1791 59.4871 43.3398C59.6484 43.5004 59.7399 43.7174 59.742 43.9442C59.7299 44.1709 59.6316 44.3845 59.467 44.5421C59.3024 44.6996 59.0837 44.7893 58.8551 44.7929Z" fill="#989898"/>
<path d="M47.9736 55.6712C47.739 55.6713 47.5136 55.5804 47.3454 55.4179C47.1773 55.2555 47.0797 55.0342 47.0735 54.8014C47.086 54.5747 47.1804 54.3601 47.3394 54.197C47.4984 54.0338 47.7113 53.933 47.9391 53.9131C48.3693 53.8894 48.8818 54.3638 48.8393 54.7961C48.8393 55.0255 48.7486 55.2457 48.5867 55.4094C48.4248 55.573 48.2047 55.6671 47.9736 55.6712Z" fill="#989898"/>
<path d="M58.0877 16.149C58.077 16.036 58.0901 15.922 58.1262 15.8143C58.1622 15.7065 58.2204 15.6074 58.297 15.5232C58.3736 15.4389 58.467 15.3714 58.5713 15.3248C58.6756 15.2783 58.7885 15.2538 58.9029 15.2528C59.1381 15.2519 59.3646 15.3414 59.5349 15.5026C59.7052 15.6637 59.806 15.8841 59.8163 16.1174C59.8087 16.3463 59.7152 16.5641 59.554 16.728C59.3928 16.8919 59.1757 16.99 58.9454 17.003C58.8315 17.0067 58.7181 16.9871 58.6122 16.9455C58.5063 16.9038 58.4101 16.841 58.3297 16.7609C58.2493 16.6808 58.1863 16.5852 58.1447 16.4799C58.103 16.3747 58.0836 16.262 58.0877 16.149Z" fill="#989898"/>
<path d="M57.7027 20.1872C57.6939 20.074 57.7088 19.9602 57.7464 19.853C57.7841 19.7458 57.8437 19.6475 57.9216 19.5643C57.9994 19.4811 58.0937 19.4148 58.1986 19.3696C58.3035 19.3244 58.4167 19.3012 58.5311 19.3015C58.7667 19.3021 58.9928 19.3939 59.1614 19.5573C59.3299 19.7206 59.4277 19.9428 59.4339 20.1766C59.4236 20.4045 59.3282 20.6205 59.1662 20.7823C59.0041 20.9441 58.7872 21.0402 58.5577 21.0517C58.4432 21.0547 58.3293 21.0343 58.2232 20.9917C58.117 20.9491 58.0208 20.8853 57.9406 20.8042C57.8604 20.7231 57.7979 20.6264 57.7569 20.5203C57.716 20.4141 57.6975 20.3007 57.7027 20.1872Z" fill="#989898"/>
<path d="M53.7383 47.5132C53.6248 47.519 53.5112 47.5015 53.4048 47.4617C53.2984 47.422 53.2014 47.3609 53.1199 47.2822C53.0383 47.2035 52.9741 47.1089 52.9311 47.0045C52.8881 46.9 52.8673 46.7878 52.87 46.6749C52.874 46.4477 52.9658 46.2307 53.1264 46.0688C53.287 45.9069 53.5042 45.8125 53.733 45.8051C53.8517 45.8037 53.9695 45.8268 54.0788 45.8728C54.1881 45.9188 54.2867 45.9868 54.3682 46.0725C54.4498 46.1581 54.5126 46.2596 54.5527 46.3706C54.5928 46.4815 54.6094 46.5995 54.6013 46.7171C54.6039 47.1441 54.1817 47.6001 53.7383 47.5132Z" fill="#989898"/>
<path d="M26.8161 55.6712C26.6993 55.6711 26.5837 55.6471 26.4767 55.6007C26.3697 55.5542 26.2735 55.4862 26.1942 55.4011C26.1149 55.3159 26.0542 55.2154 26.0159 55.1058C25.9776 54.9963 25.9626 54.88 25.9717 54.7644C25.9766 54.5374 26.0718 54.3216 26.2365 54.164C26.4011 54.0065 26.6219 53.92 26.8506 53.9236C26.9696 53.9309 27.086 53.9617 27.193 54.014C27.2999 54.0664 27.3953 54.1393 27.4736 54.2286C27.5519 54.3178 27.6116 54.4217 27.6491 54.534C27.6867 54.6464 27.7014 54.765 27.6924 54.883C27.6701 55.0986 27.5682 55.2984 27.4065 55.4439C27.2447 55.5894 27.0344 55.6703 26.8161 55.6712Z" fill="#989898"/>
<path d="M62.1078 20.5588C62.2214 20.5501 62.3356 20.5648 62.4432 20.6019C62.5508 20.6389 62.6496 20.6977 62.7333 20.7744C62.8171 20.851 62.8839 20.944 62.9298 21.0476C62.9757 21.1511 62.9996 21.2629 63 21.376C62.9929 21.608 62.898 21.8289 62.7341 21.9945C62.5702 22.1601 62.3494 22.2583 62.1158 22.2695C61.8889 22.2503 61.6759 22.1527 61.5139 21.9938C61.3519 21.8349 61.251 21.6247 61.2289 21.3997C61.2306 21.2871 61.2548 21.1759 61.3 21.0726C61.3451 20.9693 61.4104 20.8759 61.4921 20.7977C61.5738 20.7196 61.6703 20.6582 61.7759 20.6172C61.8816 20.5762 61.9944 20.5564 62.1078 20.5588Z" fill="#989898"/>
<path d="M61.6511 24.4178C61.7645 24.4084 61.8786 24.4222 61.9865 24.4582C62.0943 24.4942 62.1936 24.5518 62.2781 24.6274C62.3627 24.7029 62.4308 24.7949 62.4782 24.8975C62.5257 25.0002 62.5514 25.1114 62.5539 25.2243C62.5491 25.4563 62.4565 25.678 62.2947 25.8455C62.1329 26.013 61.9136 26.114 61.6803 26.1284C61.4472 26.1124 61.2278 26.013 61.0628 25.8487C60.8978 25.6844 60.7983 25.4664 60.7828 25.2349C60.7931 25.0137 60.8893 24.8051 61.0512 24.6527C61.2131 24.5004 61.4281 24.4162 61.6511 24.4178Z" fill="#989898"/>
<path d="M40.3795 54.804C40.3754 55.0323 40.2824 55.2501 40.12 55.4118C39.9576 55.5735 39.7385 55.6664 39.5085 55.6712C39.2827 55.6589 39.0703 55.5612 38.9148 55.3982C38.7594 55.2352 38.6727 55.0192 38.6727 54.7948C38.6727 54.5703 38.7594 54.3544 38.9148 54.1913C39.0703 54.0283 39.2827 53.9306 39.5085 53.9183C39.7397 53.929 39.9582 54.0263 40.1199 54.1907C40.2815 54.3551 40.3743 54.5743 40.3795 54.804Z" fill="#989898"/>
<path d="M31.9037 54.7961C31.9087 54.909 31.8907 55.0218 31.8507 55.1276C31.8107 55.2334 31.7495 55.3301 31.6709 55.4119C31.5922 55.4936 31.4978 55.5587 31.3931 55.6033C31.2885 55.6479 31.1758 55.671 31.062 55.6712C30.8317 55.6646 30.6127 55.5708 30.4498 55.4091C30.2869 55.2474 30.1924 55.03 30.1857 54.8014C30.1969 54.5746 30.2914 54.3597 30.4514 54.1975C30.6114 54.0352 30.8258 53.9369 31.054 53.921C31.1678 53.9227 31.2801 53.9468 31.3845 53.9917C31.4889 54.0367 31.5833 54.1017 31.6623 54.1831C31.7413 54.2644 31.8033 54.3605 31.8447 54.4657C31.8861 54.5709 31.9062 54.6832 31.9037 54.7961Z" fill="#989898"/>
<path d="M22.5968 55.6712C22.3699 55.6532 22.1571 55.5546 21.9976 55.3933C21.838 55.232 21.7425 55.0191 21.7285 54.7935C21.722 54.6747 21.7398 54.5558 21.7811 54.4441C21.8224 54.3325 21.8862 54.2303 21.9685 54.1439C22.0509 54.0575 22.1502 53.9887 22.2603 53.9416C22.3703 53.8946 22.4889 53.8704 22.6088 53.8704C22.7286 53.8704 22.8472 53.8946 22.9573 53.9416C23.0674 53.9887 23.1666 54.0575 23.249 54.1439C23.3314 54.2303 23.3952 54.3325 23.4364 54.4441C23.4777 54.5558 23.4956 54.6747 23.489 54.7935C23.4822 55.0255 23.3858 55.2461 23.2197 55.4095C23.0536 55.5729 22.8306 55.6666 22.5968 55.6712Z" fill="#989898"/>
<path d="M18.4068 55.6712C18.1801 55.6557 17.9664 55.5604 17.8043 55.4023C17.6422 55.2443 17.5423 55.034 17.5225 54.8093C17.5199 54.6944 17.5401 54.5801 17.582 54.4729C17.6239 54.3657 17.6866 54.2678 17.7667 54.1847C17.8467 54.1016 17.9424 54.035 18.0483 53.9886C18.1543 53.9422 18.2684 53.917 18.3842 53.9144C18.4999 53.9118 18.6151 53.9319 18.7231 53.9735C18.831 54.015 18.9297 54.0773 19.0134 54.1567C19.0971 54.2362 19.1642 54.3312 19.2109 54.4364C19.2576 54.5415 19.283 54.6548 19.2857 54.7697C19.2845 55.0035 19.1924 55.2278 19.0286 55.3957C18.8648 55.5637 18.6421 55.6624 18.4068 55.6712Z" fill="#989898"/>
<path d="M14.1317 55.6712C13.9051 55.655 13.6917 55.559 13.5301 55.4005C13.3685 55.242 13.2692 55.0314 13.2502 54.8066C13.2668 54.5804 13.3628 54.3672 13.5214 54.2039C13.6801 54.0407 13.8913 53.9378 14.1184 53.9131C14.3454 53.9308 14.559 54.0266 14.7223 54.184C14.8857 54.3413 14.9886 54.5504 15.0133 54.775C15.0107 55.0083 14.9176 55.2316 14.7534 55.3985C14.5893 55.5654 14.3666 55.6631 14.1317 55.6712Z" fill="#989898"/>
<path d="M36.123 54.7961C36.1258 54.9089 36.1061 55.0212 36.0649 55.1264C36.0238 55.2316 35.9621 55.3276 35.8833 55.409C35.8045 55.4904 35.7103 55.5554 35.6061 55.6004C35.5018 55.6454 35.3896 55.6695 35.2759 55.6712C35.047 55.6586 34.8307 55.5626 34.6686 55.4016C34.5064 55.2407 34.4097 55.026 34.397 54.7987C34.4138 54.5716 34.5114 54.3577 34.6724 54.1955C34.8335 54.0332 35.0474 53.9331 35.2759 53.9131C35.3901 53.9155 35.5026 53.9403 35.6071 53.986C35.7115 54.0317 35.8058 54.0975 35.8846 54.1796C35.9633 54.2617 36.0249 54.3584 36.0658 54.4642C36.1067 54.57 36.1262 54.6828 36.123 54.7961Z" fill="#989898"/>
<path d="M47.9683 52.3842C47.8542 52.391 47.7398 52.3747 47.6322 52.3363C47.5245 52.2979 47.4259 52.2382 47.3422 52.1608C47.2585 52.0834 47.1916 51.9899 47.1454 51.886C47.0992 51.7822 47.0747 51.6701 47.0735 51.5566C47.0782 51.3275 47.1716 51.1091 47.3343 50.9466C47.4969 50.7842 47.7164 50.6901 47.9471 50.6841C48.1793 50.6965 48.3988 50.7929 48.5642 50.9551C48.7296 51.1174 48.8293 51.3342 48.8446 51.5645C48.8311 51.7861 48.7329 51.9944 48.5701 52.1467C48.4073 52.299 48.192 52.384 47.9683 52.3842Z" fill="#989898"/>
<path d="M44.5908 54.7961C44.5932 54.9086 44.5733 55.0205 44.5322 55.1253C44.4911 55.2302 44.4296 55.326 44.3511 55.4073C44.1928 55.5714 43.9752 55.6663 43.7464 55.6712C43.633 55.6736 43.5203 55.6539 43.4147 55.6131C43.3091 55.5722 43.2126 55.5112 43.1307 55.4333C42.9654 55.2761 42.8697 55.0602 42.8648 54.833C42.8609 54.7173 42.8801 54.602 42.9213 54.4936C42.9625 54.3853 43.0249 54.2862 43.1049 54.2019C43.1848 54.1176 43.2808 54.0499 43.3873 54.0026C43.4937 53.9553 43.6085 53.9293 43.7251 53.9263C43.8397 53.9263 43.9531 53.9488 44.0589 53.9927C44.1646 54.0365 44.2605 54.1008 44.341 54.1817C44.4215 54.2626 44.4851 54.3586 44.5279 54.464C44.5708 54.5695 44.5922 54.6824 44.5908 54.7961Z" fill="#989898"/>
<path d="M50.5121 49.5349C50.5013 49.4192 50.5157 49.3025 50.5543 49.1928C50.593 49.0831 50.6549 48.983 50.7361 48.8992C50.8172 48.8154 50.9156 48.75 51.0244 48.7073C51.1333 48.6646 51.2502 48.6457 51.3671 48.6519C51.4811 48.654 51.5934 48.6793 51.6972 48.7263C51.8009 48.7732 51.8938 48.8407 51.9702 48.9247C52.0466 49.0087 52.1049 49.1074 52.1413 49.2146C52.1778 49.3218 52.1917 49.4353 52.1823 49.5481C52.1874 49.6591 52.1688 49.77 52.1278 49.8734C52.0868 49.9769 52.0244 50.0706 51.9444 50.1484C51.8645 50.2263 51.7689 50.2865 51.664 50.3252C51.559 50.364 51.447 50.3803 51.3352 50.3731C51.2243 50.377 51.1137 50.3578 51.0107 50.3168C50.9076 50.2757 50.8143 50.2138 50.7368 50.1348C50.6593 50.0559 50.5993 49.9618 50.5606 49.8584C50.5219 49.7551 50.5054 49.6449 50.5121 49.5349Z" fill="#989898"/>
<path d="M14.1052 52.3842C13.9915 52.3874 13.8783 52.3678 13.7724 52.3267C13.6665 52.2855 13.5701 52.2236 13.4888 52.1446C13.4075 52.0657 13.3431 51.9713 13.2993 51.8671C13.2556 51.7629 13.2335 51.651 13.2342 51.5381C13.2418 51.3099 13.3381 51.0934 13.5029 50.9342C13.6678 50.775 13.8884 50.6853 14.1184 50.6841C14.339 50.6979 14.5477 50.788 14.7082 50.9388C14.8688 51.0895 14.9711 51.2913 14.9973 51.5091C14.9992 51.6254 14.9773 51.7409 14.933 51.8486C14.8886 51.9563 14.8228 52.054 14.7394 52.1357C14.6561 52.2175 14.5569 52.2817 14.4479 52.3244C14.3389 52.3671 14.2223 52.3874 14.1052 52.3842Z" fill="#989898"/>
<path d="M18.3722 52.3842C18.2587 52.3874 18.1456 52.3678 18.0399 52.3266C17.9341 52.2855 17.8378 52.2235 17.7568 52.1445C17.6757 52.0655 17.6115 51.9711 17.5681 51.8669C17.5246 51.7627 17.5028 51.6509 17.5039 51.5381C17.5115 51.3094 17.6082 51.0926 17.7736 50.9333C17.9391 50.774 18.1603 50.6846 18.3908 50.6841C18.6125 50.6989 18.8219 50.7908 18.9821 50.9436C19.1423 51.0964 19.2432 51.3004 19.2671 51.5196C19.2671 51.6352 19.2438 51.7496 19.1986 51.8561C19.1533 51.9625 19.087 52.0589 19.0036 52.1395C18.9202 52.2201 18.8213 52.2833 18.7129 52.3253C18.6044 52.3674 18.4886 52.3874 18.3722 52.3842Z" fill="#989898"/>
<path d="M9.83544 52.3842C9.72176 52.3874 9.6086 52.3678 9.5027 52.3267C9.39681 52.2855 9.30034 52.2236 9.21907 52.1446C9.13779 52.0657 9.07336 51.9713 9.02962 51.8671C8.98589 51.7629 8.96374 51.651 8.9645 51.5381C8.97205 51.3099 9.06836 51.0934 9.23323 50.9342C9.39809 50.775 9.61869 50.6853 9.84872 50.6841C10.0693 50.6979 10.2779 50.788 10.4385 50.9388C10.5991 51.0895 10.7014 51.2913 10.7276 51.5091C10.7295 51.6254 10.7076 51.7409 10.6632 51.8486C10.6189 51.9563 10.5531 52.054 10.4697 52.1357C10.3864 52.2175 10.2872 52.2817 10.1782 52.3244C10.0692 52.3671 9.95259 52.3874 9.83544 52.3842Z" fill="#989898"/>
<path d="M55.5466 39.3077C55.5438 39.1956 55.5633 39.084 55.6039 38.9793C55.6446 38.8746 55.7056 38.7789 55.7835 38.6977C55.8614 38.6164 55.9547 38.5512 56.058 38.5057C56.1613 38.4602 56.2727 38.4354 56.3856 38.4326C56.4986 38.4299 56.611 38.4492 56.7165 38.4896C56.8219 38.5299 56.9183 38.5905 57.0002 38.6679C57.0821 38.7452 57.1478 38.8378 57.1936 38.9404C57.2394 39.0429 57.2644 39.1534 57.2672 39.2656C57.2695 39.4998 57.1798 39.7256 57.0173 39.8954C56.8547 40.0651 56.632 40.1654 56.3963 40.1749C56.1683 40.1701 55.9514 40.0764 55.7924 39.9142C55.6334 39.7519 55.5451 39.5341 55.5466 39.3077Z" fill="#989898"/>
<path d="M26.832 52.3842C26.718 52.3928 26.6034 52.377 26.4961 52.3377C26.3888 52.2984 26.2913 52.2367 26.2102 52.1566C26.1291 52.0766 26.0662 51.9802 26.026 51.8739C25.9858 51.7676 25.9691 51.654 25.977 51.5408C25.9862 51.3146 26.081 51.1003 26.2425 50.9405C26.4039 50.7807 26.6201 50.6873 26.848 50.6788C27.0765 50.6965 27.2902 50.7981 27.4474 50.9638C27.6045 51.1296 27.6937 51.3475 27.6977 51.575C27.6964 51.6852 27.6727 51.794 27.6281 51.8949C27.5835 51.9958 27.5189 52.0867 27.4381 52.1622C27.3573 52.2378 27.262 52.2963 27.1578 52.3345C27.0537 52.3726 26.9429 52.3896 26.832 52.3842Z" fill="#989898"/>
<path d="M57.3893 23.6376C57.383 23.5244 57.4005 23.4112 57.4407 23.3051C57.4809 23.1991 57.543 23.1025 57.623 23.0216C57.703 22.9408 57.7991 22.8773 57.9052 22.8354C58.0112 22.7935 58.1249 22.7741 58.239 22.7783C58.4682 22.7842 58.6864 22.8766 58.8493 23.0368C59.0121 23.197 59.1072 23.4128 59.1153 23.6402C59.1014 23.8665 59.0027 24.0794 58.8385 24.237C58.6744 24.3946 58.4567 24.4854 58.2284 24.4916C58.0057 24.481 57.7953 24.387 57.6396 24.2285C57.4839 24.07 57.3945 23.8589 57.3893 23.6376Z" fill="#989898"/>
<path d="M56.0564 35.4489C56.0642 35.3332 56.0957 35.2203 56.1489 35.117C56.2021 35.0138 56.2759 34.9224 56.3658 34.8484C56.4558 34.7744 56.5599 34.7194 56.672 34.6867C56.7841 34.654 56.9017 34.6442 57.0176 34.6581C57.2361 34.6749 57.439 34.777 57.5818 34.942C57.7247 35.107 57.7958 35.3215 57.7797 35.5385C57.7645 35.7608 57.6663 35.9694 57.5042 36.1235C57.3421 36.2776 57.1278 36.366 56.9034 36.3714C56.6708 36.3527 56.454 36.2471 56.2967 36.0759C56.1395 35.9046 56.0536 35.6805 56.0564 35.4489Z" fill="#989898"/>
<path d="M62.1105 29.041C62.107 29.2622 62.0164 29.4733 61.8581 29.629C61.6998 29.7847 61.4863 29.8726 61.2635 29.874C61.0345 29.8648 60.8175 29.77 60.656 29.6087C60.4945 29.4474 60.4004 29.2314 60.3925 29.0041C60.401 28.7822 60.4935 28.5715 60.6514 28.4142C60.8094 28.2569 61.0213 28.1645 61.2449 28.1554C61.3616 28.1527 61.4776 28.1739 61.5856 28.2178C61.6936 28.2617 61.7913 28.3273 61.8726 28.4105C61.9539 28.4936 62.017 28.5926 62.0579 28.7011C62.0988 28.8096 62.1168 28.9253 62.1105 29.041Z" fill="#989898"/>
<path d="M39.5165 52.3842C38.9854 52.4027 38.6906 52.0706 38.6588 51.546C38.6628 51.3182 38.7554 51.1007 38.9173 50.9391C39.0791 50.7775 39.2976 50.6842 39.5271 50.6788C39.7505 50.6922 39.9611 50.7871 40.1185 50.9452C40.2758 51.1033 40.3687 51.3135 40.3794 51.5355C40.3832 51.6486 40.3634 51.7613 40.3212 51.8665C40.2791 51.9717 40.2155 52.0671 40.1345 52.1468C40.0535 52.2264 39.9568 52.2887 39.8504 52.3295C39.7441 52.3704 39.6304 52.389 39.5165 52.3842Z" fill="#989898"/>
<path d="M57.4531 46.6908C57.682 46.701 57.8988 46.7955 58.0613 46.9558C58.2238 47.1162 58.3203 47.3308 58.332 47.558C58.332 47.7901 58.2391 48.0127 58.0738 48.1768C57.9084 48.3409 57.6842 48.4331 57.4504 48.4331C57.2166 48.4331 56.9924 48.3409 56.827 48.1768C56.6617 48.0127 56.5688 47.7901 56.5688 47.558C56.5775 47.3289 56.6738 47.1118 56.8381 46.9507C57.0023 46.7896 57.2222 46.6967 57.4531 46.6908Z" fill="#989898"/>
<path d="M35.2759 52.3842C34.8113 52.4027 34.4581 52.1048 34.3997 51.5408C34.4098 51.3144 34.5068 51.1004 34.6706 50.9426C34.8345 50.7848 35.053 50.6952 35.2813 50.692C35.3932 50.6886 35.5045 50.7082 35.6085 50.7496C35.7124 50.791 35.8065 50.8532 35.8851 50.9324C35.9636 51.0116 36.0248 51.1061 36.0648 51.2098C36.1049 51.3136 36.1229 51.4245 36.1177 51.5355C36.1295 51.6487 36.1159 51.7631 36.078 51.8705C36.04 51.9779 35.9786 52.0756 35.8982 52.1567C35.8178 52.2378 35.7203 52.3002 35.6127 52.3396C35.5051 52.3789 35.3901 52.3942 35.2759 52.3842Z" fill="#989898"/>
<path d="M60.1774 37.4653C60.0665 37.4702 59.9557 37.4532 59.8514 37.4152C59.7472 37.3771 59.6516 37.3189 59.5703 37.2438C59.489 37.1687 59.4235 37.0783 59.3778 36.9779C59.332 36.8774 59.3069 36.7689 59.3038 36.6587C59.2965 36.5422 59.3135 36.4255 59.3537 36.3158C59.3939 36.2062 59.4564 36.1059 59.5374 36.0213C59.6184 35.9367 59.7161 35.8696 59.8244 35.8241C59.9327 35.7787 60.0493 35.7559 60.1668 35.7573C60.3957 35.7653 60.6128 35.8598 60.7737 36.0215C60.9346 36.1832 61.0272 36.3998 61.0324 36.6271C61.0225 36.848 60.9289 37.0571 60.7704 37.2125C60.6119 37.3679 60.4001 37.4582 60.1774 37.4653Z" fill="#989898"/>
<path d="M43.7145 52.3842C43.6002 52.3877 43.4863 52.3675 43.3803 52.325C43.2742 52.2825 43.1781 52.2186 43.0983 52.1373C43.0184 52.056 42.9564 51.9591 42.9162 51.8528C42.876 51.7465 42.8585 51.633 42.8648 51.5196C42.88 51.3002 42.9794 51.0948 43.1425 50.946C43.3057 50.7971 43.5201 50.716 43.7417 50.7193C43.9633 50.7227 44.1751 50.8103 44.3336 50.9641C44.492 51.1179 44.585 51.3262 44.5934 51.546C44.5947 51.6593 44.5725 51.7717 44.5283 51.8763C44.4841 51.9808 44.4189 52.0752 44.3365 52.1537C44.2542 52.2323 44.1565 52.2932 44.0495 52.3329C43.9426 52.3725 43.8285 52.39 43.7145 52.3842Z" fill="#989898"/>
<path d="M54.9624 51.6884C54.7389 51.6767 54.5272 51.5855 54.3658 51.4316C54.2044 51.2777 54.1042 51.0713 54.0835 50.8502C54.0922 50.6167 54.1861 50.3943 54.3479 50.2245C54.5096 50.0548 54.728 49.9492 54.9624 49.9276C55.1841 49.9484 55.3914 50.0459 55.5482 50.2029C55.7049 50.3599 55.8011 50.5666 55.8201 50.7869C55.8191 51.0172 55.73 51.2385 55.5707 51.4059C55.4114 51.5733 55.1939 51.6743 54.9624 51.6884Z" fill="#989898"/>
<path d="M31.9037 51.5249C31.9138 51.6383 31.8992 51.7525 31.8608 51.8597C31.8225 51.9669 31.7612 52.0646 31.6813 52.1462C31.6014 52.2278 31.5047 52.2913 31.3978 52.3324C31.2909 52.3734 31.1764 52.3911 31.062 52.3842C30.9476 52.3882 30.8337 52.369 30.727 52.328C30.6203 52.2871 30.523 52.225 30.4412 52.1457C30.3593 52.0664 30.2944 51.9714 30.2505 51.8666C30.2066 51.7617 30.1846 51.6491 30.1857 51.5355C30.2106 51.3155 30.3106 51.1105 30.469 50.9547C30.6274 50.7989 30.8348 50.7015 31.0567 50.6788C31.2811 50.6823 31.4954 50.7727 31.6536 50.9308C31.8119 51.0888 31.9016 51.3021 31.9037 51.5249Z" fill="#989898"/>
<path d="M55.6183 44.0339C55.1323 44.1156 54.7845 43.6411 54.7792 43.2115C54.785 42.9885 54.8736 42.7756 55.028 42.6136C55.1824 42.4515 55.3917 42.3519 55.6156 42.3337C55.8425 42.353 56.0555 42.4505 56.2175 42.6094C56.3795 42.7683 56.4803 42.9786 56.5025 43.2036C56.5046 43.3173 56.4829 43.4302 56.4386 43.5351C56.3942 43.6399 56.3284 43.7345 56.2451 43.8126C56.1619 43.8908 56.0632 43.9508 55.9552 43.9889C55.8473 44.027 55.7325 44.0423 55.6183 44.0339Z" fill="#989898"/>
<path d="M22.6075 52.3842C22.3779 52.3843 22.1573 52.2959 21.9923 52.1375C21.8273 51.9791 21.7308 51.7632 21.7232 51.5355C21.7464 51.3153 21.8459 51.11 22.0048 50.9547C22.1637 50.7993 22.3721 50.7037 22.5942 50.6841C23.0243 50.6841 23.5209 51.1322 23.4811 51.5407C23.4306 52.089 23.0987 52.4 22.6075 52.3842Z" fill="#989898"/>
<path d="M61.4732 32.8103C61.4815 32.9211 61.4662 33.0325 61.4282 33.1371C61.3902 33.2417 61.3304 33.3371 61.2527 33.4172C61.175 33.4973 61.0812 33.5602 60.9774 33.6019C60.8735 33.6436 60.762 33.663 60.6501 33.659C60.533 33.6608 60.4168 33.6393 60.3082 33.5957C60.1996 33.5521 60.101 33.4873 60.0181 33.4053C59.9351 33.3232 59.8696 33.2255 59.8254 33.1178C59.7812 33.0102 59.7591 32.8949 59.7606 32.7786C59.7824 32.5573 59.8848 32.3514 60.0485 32.1995C60.2122 32.0477 60.4261 31.9602 60.6501 31.9536C60.7616 31.9535 60.872 31.9759 60.9746 32.0194C61.0771 32.0629 61.1697 32.1266 61.2467 32.2068C61.3237 32.2869 61.3834 32.3817 61.4224 32.4854C61.4613 32.5892 61.4786 32.6997 61.4732 32.8103Z" fill="#989898"/>
<path d="M57.4053 30.6225C57.9709 30.5751 58.2178 31.0337 58.2709 31.437C58.324 31.8403 57.8328 32.3095 57.4053 32.3227C57.1787 32.2993 56.9667 32.2002 56.8042 32.0417C56.6416 31.8833 56.5381 31.6747 56.5104 31.4502C56.5187 31.2227 56.6176 31.0078 56.7854 30.8526C56.9532 30.6975 57.1761 30.6147 57.4053 30.6225Z" fill="#989898"/>
<path d="M57.8832 28.3452C57.3309 28.4348 57.015 27.8945 57.015 27.5175C57.0221 27.3009 57.1115 27.095 57.2651 26.9411C57.4187 26.7871 57.6253 26.6964 57.8434 26.6872C57.9574 26.683 58.071 26.7014 58.1777 26.7413C58.2845 26.7812 58.3821 26.8418 58.4649 26.9196C58.5477 26.9974 58.6141 27.0908 58.6601 27.1944C58.7062 27.298 58.7309 27.4096 58.7329 27.5228C58.7377 27.6339 58.7188 27.7447 58.6775 27.848C58.6361 27.9513 58.5733 28.0448 58.4932 28.1224C58.413 28.2 58.3172 28.26 58.2121 28.2984C58.107 28.3367 57.995 28.3527 57.8832 28.3452Z" fill="#989898"/>
<path d="M59.6596 41.187C59.5457 41.1971 59.4309 41.1826 59.3231 41.1447C59.2153 41.1067 59.117 41.0462 59.0349 40.9672C58.9527 40.8881 58.8887 40.7925 58.8471 40.6867C58.8056 40.5809 58.7875 40.4675 58.794 40.3541C58.7954 40.1257 58.8872 39.907 59.0497 39.7452C59.2122 39.5835 59.4322 39.4916 59.6623 39.4896C60.0739 39.4606 60.504 39.9324 60.5093 40.3567C60.5131 40.4679 60.4937 40.5787 60.4521 40.682C60.4106 40.7853 60.3479 40.879 60.2681 40.957C60.1882 41.0351 60.0929 41.0958 59.9882 41.1354C59.8834 41.175 59.7716 41.1926 59.6596 41.187Z" fill="#989898"/>
<path d="M52.2115 52.2578C52.434 52.2638 52.6457 52.3544 52.8028 52.5108C52.9599 52.6673 53.0505 52.8777 53.0559 53.0986C53.0313 53.3177 52.933 53.5223 52.7769 53.6791C52.6208 53.836 52.416 53.9361 52.1956 53.9632C51.9664 53.9514 51.75 53.8547 51.5892 53.6922C51.4284 53.5296 51.335 53.3131 51.3273 53.0854C51.3255 52.9719 51.3475 52.8593 51.392 52.7548C51.4365 52.6502 51.5024 52.556 51.5856 52.4781C51.6688 52.4002 51.7674 52.3404 51.8752 52.3025C51.9829 52.2646 52.0975 52.2493 52.2115 52.2578Z" fill="#989898"/>
<path d="M36.3752 25.5696C36.372 26.5168 36.0857 27.4418 35.5524 28.2272C35.0192 29.0127 34.263 29.6234 33.3798 29.9819C32.4966 30.3404 31.526 30.4305 30.5912 30.2409C29.6563 30.0513 28.7991 29.5905 28.1283 28.9168C27.4576 28.2432 27.0033 27.387 26.8232 26.4568C26.643 25.5267 26.7451 24.5643 27.1164 23.6918C27.4878 22.8193 28.1117 22.0758 28.9091 21.5556C29.7065 21.0354 30.6415 20.7619 31.5957 20.7697C32.8706 20.7774 34.0902 21.2873 34.9865 22.1874C35.8828 23.0875 36.3823 24.304 36.3752 25.5696ZM34.859 25.5696C34.8596 24.922 34.6666 24.2888 34.3045 23.7501C33.9425 23.2114 33.4276 22.7914 32.825 22.5432C32.2225 22.295 31.5593 22.2298 30.9194 22.3558C30.2795 22.4818 29.6916 22.7934 29.2301 23.2512C28.7686 23.7089 28.4543 24.2922 28.3268 24.9273C28.1994 25.5624 28.2645 26.2208 28.514 26.8192C28.7636 27.4175 29.1863 27.929 29.7287 28.2888C30.2711 28.6486 30.9088 28.8407 31.5612 28.8407C32.4364 28.8359 33.2744 28.4886 33.8934 27.8742C34.5123 27.2598 34.8621 26.4279 34.867 25.5591L34.859 25.5696Z" fill="#030303"/>
</g>
<defs>
<clipPath id="clip0">
<rect width="63" height="59" fill="white"/>
</clipPath>
</defs>
</svg>
