<svg width="55" height="58" viewBox="0 0 55 58" fill="none" xmlns="http://www.w3.org/2000/svg">
<g clip-path="url(#clip0)">
<path d="M43.9258 39.0459C43.9258 39.1729 43.9258 39.2999 43.9258 39.427V51.4831C43.9258 52.0547 43.7024 52.2657 43.0897 52.2657H10.3045C9.699 52.2657 9.48276 52.0661 9.48276 51.5013V8.98603C9.48276 8.42575 9.68218 8.24202 10.2805 8.24202H14.5165H16.0206H16.3666C22.3718 8.24202 28.3786 8.24202 34.387 8.24202C34.528 8.23692 34.6685 8.2604 34.799 8.31088C34.9296 8.36135 35.0472 8.43765 35.1439 8.53463C37.9519 11.1946 40.7646 13.8501 43.5822 16.501C43.6963 16.6034 43.786 16.7276 43.8452 16.8652C43.9045 17.0029 43.9319 17.1509 43.9258 17.2994C43.9258 21.1178 43.9258 24.9361 43.9258 28.7545C43.9258 29.4168 43.9258 30.0792 43.9258 30.7415C43.9258 32.8677 43.9258 34.9931 43.9258 37.1178C43.9162 37.7597 43.9234 38.4017 43.9258 39.0459ZM10.7682 30.2652V50.569C10.7682 51.0363 10.7682 51.0431 11.2656 51.0431H42.1118C42.5923 51.0431 42.626 51.0204 42.626 50.5486V18.1773C42.626 17.6987 42.5899 17.6646 42.0902 17.6646H34.8219C34.0747 17.6646 33.9017 17.5013 33.9017 16.8072V9.92965C33.9017 9.47598 33.868 9.44196 33.3731 9.44196H11.292C10.8115 9.44196 10.7682 9.47145 10.7682 9.93419V30.2652ZM35.1943 13.534C35.1943 14.3688 35.1943 15.2012 35.1943 16.0292C35.1943 16.3966 35.2568 16.4556 35.6484 16.4556H40.8936C41.057 16.4556 41.2372 16.476 41.3237 16.3059C41.4102 16.1358 41.254 16.0246 41.1411 15.9203L35.7806 10.8665C35.7157 10.8003 35.6441 10.7402 35.5667 10.6873C35.3962 10.5852 35.2712 10.6328 35.2184 10.8143C35.1982 10.9029 35.1902 10.9937 35.1943 11.0842C35.1919 11.9008 35.1943 12.7174 35.1943 13.534Z" fill="#363636"/>
<path d="M43.9258 39.0458C43.9258 38.4039 43.9258 37.762 43.9258 37.12C43.9258 34.9939 43.9258 32.8684 43.9258 30.7438C43.9787 30.7052 43.9763 30.6485 43.9859 30.5963C44.1076 29.9264 44.231 29.2573 44.3559 28.5889L45.8913 20.3503C46.3846 17.719 46.8756 15.0885 47.3641 12.4588C47.5243 11.6029 47.6845 10.747 47.8447 9.89105C47.9023 9.57575 47.8663 9.54626 47.5347 9.49182C46.8524 9.38294 46.17 9.26499 45.49 9.15157C44.4616 8.97691 43.4357 8.79544 42.4073 8.62759C41.1363 8.4189 39.8628 8.22383 38.5918 8.01287C37.2391 7.78604 35.8863 7.5456 34.5336 7.33237C33.1809 7.11915 31.7801 6.87871 30.4057 6.65188C29.0313 6.42504 27.6954 6.18233 26.3451 5.95777C24.8602 5.71279 23.3705 5.47462 21.8856 5.24778C20.247 4.97105 18.6131 4.70112 16.9817 4.41758C16.7774 4.38128 16.7414 4.42892 16.703 4.59677C16.4795 5.81033 16.2488 7.02388 16.0206 8.22609H14.5165L15.2013 4.63987C15.2805 4.21796 15.3694 3.79605 15.4415 3.36961C15.4894 3.20893 15.596 3.06947 15.7425 2.97603C15.889 2.88258 16.0659 2.8412 16.2416 2.85924C17.592 3.09363 18.9431 3.32046 20.295 3.53973C21.7775 3.78698 23.2648 4.02062 24.7473 4.2656C26.1096 4.49243 27.4696 4.7306 28.8319 4.9461C30.4297 5.21149 32.0275 5.46327 33.6254 5.7264C34.8724 5.93509 36.1194 6.15511 37.3688 6.3638C38.6182 6.57248 39.8484 6.76756 41.0882 6.97398L46.552 7.88131C47.3305 8.01287 48.109 8.14897 48.8923 8.26466C48.9936 8.27723 49.0911 8.30949 49.1786 8.3594C49.266 8.4093 49.3416 8.47578 49.4005 8.55463C49.4595 8.63348 49.5004 8.72299 49.5209 8.81753C49.5413 8.91207 49.5408 9.00959 49.5194 9.10394C49.4016 9.75495 49.2791 10.4037 49.1638 11.0547C48.8803 12.5745 48.5991 14.0943 48.3084 15.6163C47.8503 18.0646 47.3922 20.5121 46.9341 22.9589C46.5256 25.1561 46.1179 27.3541 45.7111 29.5529C45.2762 31.8915 44.8317 34.2302 44.3968 36.5711C44.2502 37.3627 44.1157 38.1589 43.9715 38.9506C43.9605 38.984 43.9451 39.016 43.9258 39.0458Z" fill="#1074B7"/>
<path d="M54.4234 20.0646C54.4214 20.2153 54.3722 20.3621 54.2819 20.4865C54.1917 20.6108 54.0644 20.707 53.9161 20.7631C53.7679 20.8191 53.6054 20.8323 53.4492 20.8012C53.293 20.77 53.15 20.6958 53.0385 20.588C52.9269 20.4801 52.8518 20.3435 52.8225 20.1953C52.7932 20.0471 52.8111 19.8941 52.874 19.7555C52.9368 19.6169 53.0418 19.4991 53.1756 19.4168C53.3094 19.3346 53.466 19.2916 53.6256 19.2934C53.8388 19.2987 54.0413 19.3822 54.1902 19.5262C54.3392 19.6702 54.4228 19.8634 54.4234 20.0646Z" fill="#9A9B9B"/>
<path d="M51.0211 20.55C51.0202 20.7008 50.9719 20.8479 50.8824 20.9727C50.7929 21.0975 50.6662 21.1945 50.5183 21.2514C50.3704 21.3082 50.208 21.3224 50.0516 21.2921C49.8952 21.2618 49.7518 21.1884 49.6396 21.0812C49.5273 20.974 49.4513 20.8377 49.4211 20.6897C49.3909 20.5417 49.4078 20.3886 49.4698 20.2496C49.5318 20.1107 49.636 19.9923 49.7693 19.9093C49.9026 19.8263 50.0589 19.7824 50.2186 19.7833C50.4317 19.7875 50.6348 19.8698 50.7846 20.013C50.9344 20.1561 51.0193 20.3488 51.0211 20.55Z" fill="#9A9B9B"/>
<path d="M52.924 22.5052C53.0837 22.5066 53.2394 22.5526 53.3713 22.6375C53.5033 22.7223 53.6056 22.8422 53.6654 22.982C53.7252 23.1218 53.7397 23.2752 53.7072 23.4227C53.6746 23.5703 53.5965 23.7055 53.4825 23.8111C53.3686 23.9167 53.2241 23.9881 53.0672 24.0162C52.9104 24.0443 52.7482 24.0278 52.6012 23.9689C52.4543 23.91 52.3291 23.8112 52.2416 23.6851C52.1541 23.5591 52.1081 23.4113 52.1095 23.2606C52.1145 23.0594 52.2024 22.868 52.3545 22.7269C52.5066 22.5859 52.7109 22.5064 52.924 22.5052Z" fill="#9A9B9B"/>
<path d="M50.2811 23.796C50.2728 23.9465 50.2175 24.0913 50.1221 24.212C50.0267 24.3328 49.8956 24.4242 49.7452 24.4747C49.5948 24.5251 49.432 24.5324 49.2773 24.4955C49.1225 24.4587 48.9828 24.3793 48.8759 24.2675C48.7689 24.1558 48.6993 24.0166 48.6761 23.8675C48.6529 23.7185 48.677 23.5662 48.7453 23.4301C48.8137 23.294 48.9232 23.18 49.0601 23.1026C49.1971 23.0252 49.3552 22.9879 49.5146 22.9953C49.7277 23.0082 49.927 23.0991 50.0702 23.2486C50.2133 23.3982 50.289 23.5946 50.2811 23.796Z" fill="#9A9B9B"/>
<path d="M52.1648 27.2506C52.0051 27.2488 51.8496 27.2023 51.7179 27.1171C51.5862 27.0318 51.4843 26.9117 51.4249 26.7717C51.3656 26.6318 51.3516 26.4784 51.3846 26.3309C51.4176 26.1834 51.4962 26.0485 51.6104 25.9432C51.7247 25.8379 51.8694 25.7669 52.0264 25.7392C52.1833 25.7116 52.3454 25.7285 52.4922 25.7878C52.639 25.8472 52.7638 25.9463 52.851 26.0726C52.9381 26.1989 52.9836 26.3468 52.9817 26.4975C52.9767 26.6989 52.8884 26.8904 52.7357 27.0311C52.5831 27.1719 52.3782 27.2506 52.1648 27.2506Z" fill="#9A9B9B"/>
<path d="M49.5218 26.9602C49.5237 27.111 49.4782 27.2588 49.3911 27.3852C49.3039 27.5115 49.1791 27.6106 49.0323 27.6699C48.8855 27.7292 48.7234 27.7461 48.5665 27.7185C48.4095 27.6908 48.2648 27.6199 48.1505 27.5146C48.0363 27.4093 47.9577 27.2743 47.9247 27.1268C47.8917 26.9794 47.9057 26.826 47.965 26.686C48.0244 26.5461 48.1263 26.4259 48.258 26.3407C48.3897 26.2554 48.5452 26.209 48.7049 26.2072C48.9182 26.2071 49.1232 26.2859 49.2758 26.4266C49.4285 26.5673 49.5168 26.7589 49.5218 26.9602Z" fill="#9A9B9B"/>
<path d="M52.232 29.6959C52.2311 29.8466 52.1828 29.9937 52.0933 30.1186C52.0038 30.2434 51.8771 30.3404 51.7292 30.3972C51.5814 30.4541 51.419 30.4683 51.2625 30.438C51.1061 30.4077 50.9627 30.3343 50.8505 30.2271C50.7383 30.1198 50.6622 29.9836 50.632 29.8356C50.6018 29.6876 50.6188 29.5344 50.6807 29.3955C50.7427 29.2566 50.8469 29.1381 50.9802 29.0551C51.1135 28.9721 51.2699 28.9283 51.4295 28.9292C51.6427 28.9333 51.8457 29.0157 51.9955 29.1589C52.1454 29.302 52.2302 29.4947 52.232 29.6959Z" fill="#9A9B9B"/>
<path d="M48.8394 30.17C48.8418 30.3207 48.7967 30.4687 48.71 30.5953C48.6233 30.7218 48.4987 30.8213 48.3521 30.881C48.2055 30.9407 48.0435 30.9581 47.8864 30.9309C47.7294 30.9037 47.5844 30.8331 47.4699 30.7282C47.3553 30.6232 47.2763 30.4885 47.2428 30.3411C47.2093 30.1937 47.2229 30.0403 47.2818 29.9001C47.3407 29.76 47.4422 29.6396 47.5737 29.554C47.7051 29.4683 47.8604 29.4214 48.0201 29.4192C48.2333 29.4191 48.4381 29.4975 48.5911 29.6377C48.7441 29.7779 48.8331 29.9688 48.8394 30.17Z" fill="#9A9B9B"/>
<path d="M51.5401 32.9215C51.5372 33.0722 51.487 33.2187 51.396 33.3425C51.3049 33.4663 51.177 33.5619 51.0284 33.617C50.8798 33.6722 50.7173 33.6846 50.5612 33.6525C50.4052 33.6205 50.2628 33.5455 50.1519 33.437C50.0411 33.3285 49.9668 33.1915 49.9384 33.0431C49.91 32.8948 49.9289 32.7419 49.9926 32.6036C50.0563 32.4654 50.162 32.3482 50.2963 32.2667C50.4306 32.1852 50.5875 32.1431 50.7472 32.1457C50.9603 32.1522 51.1623 32.2369 51.3103 32.3817C51.4584 32.5266 51.5408 32.7202 51.5401 32.9215Z" fill="#9A9B9B"/>
<path d="M48.1955 33.4001C48.194 33.5508 48.1453 33.6978 48.0554 33.8224C47.9655 33.9469 47.8385 34.0436 47.6904 34.1C47.5424 34.1564 47.3799 34.1701 47.2236 34.1394C47.0673 34.1087 46.9241 34.0349 46.8123 33.9274C46.7004 33.8198 46.6248 33.6834 46.595 33.5353C46.5653 33.3872 46.5827 33.2341 46.6451 33.0953C46.7075 32.9566 46.8121 32.8384 46.9457 32.7558C47.0792 32.6732 47.2357 32.6298 47.3954 32.6311C47.6085 32.6359 47.8113 32.7188 47.9607 32.8624C48.11 33.006 48.1943 33.1988 48.1955 33.4001Z" fill="#9A9B9B"/>
<path d="M50.9058 36.1084C50.9072 36.2591 50.8612 36.4069 50.7737 36.5329C50.6862 36.659 50.561 36.7577 50.4141 36.8167C50.2671 36.8756 50.1049 36.892 49.9481 36.864C49.7912 36.8359 49.6467 36.7645 49.5327 36.6589C49.4188 36.5532 49.3407 36.4181 49.3081 36.2705C49.2756 36.1229 49.2901 35.9696 49.3499 35.8298C49.4097 35.69 49.512 35.5701 49.644 35.4853C49.7759 35.4004 49.9316 35.3544 50.0912 35.353C50.3044 35.3542 50.5087 35.4337 50.6608 35.5747C50.8129 35.7157 50.9008 35.9072 50.9058 36.1084Z" fill="#9A9B9B"/>
<path d="M46.8211 35.843C46.9808 35.8448 47.1363 35.8913 47.268 35.9765C47.3997 36.0618 47.5016 36.1819 47.561 36.3219C47.6203 36.4618 47.6343 36.6152 47.6013 36.7627C47.5683 36.9102 47.4897 37.0451 47.3755 37.1504C47.2612 37.2557 47.1165 37.3267 46.9595 37.3543C46.8026 37.382 46.6405 37.3651 46.4937 37.3057C46.3469 37.2464 46.2221 37.1473 46.1349 37.021C46.0478 36.8947 46.0023 36.7468 46.0042 36.5961C46.0098 36.3949 46.0983 36.2037 46.2508 36.0631C46.4034 35.9225 46.6079 35.8435 46.8211 35.843Z" fill="#9A9B9B"/>
<path d="M49.5963 40.0893C49.4369 40.0815 49.2836 40.0293 49.1556 39.9393C49.0277 39.8492 48.9308 39.7254 48.8774 39.5834C48.824 39.4415 48.8163 39.2878 48.8553 39.1417C48.8944 38.9956 48.9784 38.8637 49.0968 38.7627C49.2152 38.6617 49.3627 38.5961 49.5206 38.5742C49.6784 38.5522 49.8397 38.575 49.9839 38.6395C50.1281 38.704 50.2488 38.8074 50.3308 38.9367C50.4127 39.066 50.4523 39.2153 50.4444 39.3657C50.4308 39.5669 50.3345 39.7551 50.1761 39.8903C50.0177 40.0254 49.8096 40.0968 49.5963 40.0893Z" fill="#9A9B9B"/>
<path d="M46.1363 40.5793C45.977 40.5715 45.8236 40.5193 45.6957 40.4293C45.5677 40.3392 45.4709 40.2154 45.4175 40.0734C45.364 39.9315 45.3563 39.7778 45.3954 39.6317C45.4344 39.4856 45.5185 39.3537 45.6369 39.2527C45.7553 39.1517 45.9027 39.0861 46.0606 39.0642C46.2185 39.0422 46.3797 39.0649 46.5239 39.1295C46.6681 39.194 46.7889 39.2974 46.8708 39.4267C46.9528 39.556 46.9924 39.7053 46.9845 39.8557C46.9709 40.0569 46.8746 40.2451 46.7162 40.3802C46.5578 40.5154 46.3497 40.5868 46.1363 40.5793Z" fill="#9A9B9B"/>
<path d="M51.4824 13.3594C51.6421 13.3589 51.7983 13.4032 51.9313 13.4866C52.0643 13.5699 52.1682 13.6887 52.2297 13.8278C52.2913 13.9669 52.3077 14.1201 52.2771 14.268C52.2464 14.4159 52.1699 14.5519 52.0574 14.6589C51.9448 14.7658 51.8012 14.8387 51.6447 14.8686C51.4881 14.8984 51.3258 14.8838 51.1781 14.8265C51.0304 14.7693 50.904 14.6719 50.8149 14.5468C50.7258 14.4218 50.678 14.2745 50.6775 14.1238C50.6793 13.9224 50.7646 13.7297 50.915 13.5868C51.0654 13.444 51.2691 13.3623 51.4824 13.3594Z" fill="#9A9B9B"/>
<path d="M50.2138 42.5981C50.2128 42.7489 50.1645 42.896 50.075 43.0208C49.9855 43.1456 49.8588 43.2426 49.711 43.2995C49.5631 43.3563 49.4007 43.3705 49.2443 43.3402C49.0878 43.3099 48.9445 43.2365 48.8322 43.1293C48.72 43.0221 48.644 42.8858 48.6137 42.7378C48.5835 42.5898 48.6005 42.4367 48.6625 42.2977C48.7244 42.1588 48.8287 42.0404 48.9619 41.9574C49.0952 41.8744 49.2516 41.8305 49.4113 41.8314C49.6244 41.8356 49.8274 41.9179 49.9773 42.0611C50.1271 42.2042 50.2119 42.3969 50.2138 42.5981Z" fill="#9A9B9B"/>
<path d="M46.182 43.7913C46.0223 43.7922 45.866 43.7483 45.7327 43.6653C45.5994 43.5823 45.4952 43.4639 45.4332 43.325C45.3712 43.186 45.3543 43.0329 45.3845 42.8849C45.4147 42.7369 45.4907 42.6006 45.603 42.4934C45.7152 42.3862 45.8586 42.3128 46.015 42.2825C46.1714 42.2522 46.3338 42.2664 46.4817 42.3233C46.6296 42.3801 46.7563 42.4771 46.8458 42.6019C46.9353 42.7268 46.9836 42.8738 46.9845 43.0246C46.9827 43.2258 46.8978 43.4185 46.748 43.5616C46.5982 43.7048 46.3951 43.7871 46.182 43.7913Z" fill="#9A9B9B"/>
<path d="M55 16.8503C54.9986 17.001 54.9498 17.148 54.8599 17.2725C54.77 17.3971 54.643 17.4937 54.495 17.5502C54.3469 17.6066 54.1845 17.6203 54.0282 17.5896C53.8718 17.5589 53.7287 17.4851 53.6168 17.3775C53.5049 17.27 53.4293 17.1336 53.3995 16.9855C53.3698 16.8374 53.3872 16.6843 53.4496 16.5455C53.5121 16.4068 53.6166 16.2886 53.7502 16.206C53.8837 16.1234 54.0402 16.08 54.1999 16.0813C54.413 16.086 54.6158 16.169 54.7652 16.3126C54.9146 16.4561 54.9988 16.649 55 16.8503Z" fill="#9A9B9B"/>
<path d="M50.9009 18.0956C50.7417 18.0929 50.5869 18.0458 50.4559 17.9603C50.325 17.8747 50.2237 17.7545 50.165 17.6147C50.1062 17.475 50.0926 17.322 50.1257 17.1749C50.1589 17.0279 50.2374 16.8934 50.3513 16.7883C50.4652 16.6833 50.6095 16.6124 50.766 16.5846C50.9225 16.5568 51.0843 16.5733 51.2309 16.632C51.3775 16.6908 51.5024 16.7892 51.5899 16.9148C51.6774 17.0404 51.7236 17.1876 51.7227 17.338C51.7182 17.5408 51.6297 17.7338 51.476 17.8755C51.3223 18.0172 51.1158 18.0962 50.9009 18.0956Z" fill="#9A9B9B"/>
<path d="M50.2138 45.8283C50.209 45.9789 50.1569 46.1248 50.0643 46.2475C49.9717 46.3703 49.8425 46.4643 49.6933 46.5178C49.544 46.5713 49.3813 46.5818 49.2258 46.548C49.0702 46.5142 48.9287 46.4376 48.8192 46.3279C48.7098 46.2182 48.6372 46.0803 48.6107 45.9317C48.5842 45.7831 48.605 45.6304 48.6704 45.4929C48.7358 45.3554 48.843 45.2394 48.9783 45.1594C49.1135 45.0793 49.2709 45.039 49.4305 45.0434C49.6434 45.0528 49.8441 45.1399 49.9902 45.2863C50.1363 45.4328 50.2165 45.6271 50.2138 45.8283Z" fill="#9A9B9B"/>
<path d="M46.218 45.4789C46.3774 45.4867 46.5308 45.539 46.6587 45.629C46.7867 45.719 46.8835 45.8429 46.9369 45.9848C46.9904 46.1268 46.998 46.2805 46.959 46.4266C46.9199 46.5727 46.8359 46.7045 46.7175 46.8055C46.5991 46.9066 46.4516 46.9722 46.2938 46.9941C46.1359 47.016 45.9746 46.9933 45.8304 46.9288C45.6862 46.8643 45.5655 46.7608 45.4835 46.6316C45.4016 46.5023 45.362 46.353 45.3699 46.2025C45.3835 46.0014 45.4798 45.8132 45.6382 45.678C45.7966 45.5429 46.0047 45.4714 46.218 45.4789Z" fill="#9A9B9B"/>
<path d="M49.4161 49.7796C49.2564 49.7814 49.0998 49.7385 48.966 49.6562C48.8322 49.574 48.7272 49.4561 48.6644 49.3175C48.6015 49.179 48.5836 49.0259 48.6129 48.8777C48.6422 48.7296 48.7174 48.5929 48.8289 48.4851C48.9405 48.3772 49.0834 48.303 49.2396 48.2718C49.3958 48.2407 49.5583 48.2539 49.7065 48.31C49.8548 48.366 49.9821 48.4622 50.0724 48.5866C50.1627 48.7109 50.2119 48.8577 50.2138 49.0084C50.2138 49.2098 50.1304 49.4033 49.9813 49.5474C49.8323 49.6916 49.6294 49.7749 49.4161 49.7796Z" fill="#9A9B9B"/>
<path d="M46.1748 48.6908C46.3345 48.6904 46.4907 48.7346 46.6237 48.818C46.7567 48.9014 46.8606 49.0201 46.9221 49.1592C46.9837 49.2983 47.0001 49.4515 46.9695 49.5994C46.9388 49.7474 46.8623 49.8834 46.7497 49.9903C46.6372 50.0972 46.4936 50.1702 46.337 50.2C46.1805 50.2299 46.0182 50.2152 45.8705 50.158C45.7228 50.1007 45.5964 50.0034 45.5073 49.8783C45.4182 49.7532 45.3703 49.606 45.3699 49.4552C45.3717 49.2538 45.457 49.0611 45.6074 48.9182C45.7578 48.7754 45.9615 48.6938 46.1748 48.6908Z" fill="#9A9B9B"/>
<path d="M49.4113 51.4673C49.5709 51.4682 49.7267 51.5138 49.859 51.5983C49.9912 51.6827 50.0939 51.8024 50.1541 51.942C50.2144 52.0816 50.2294 52.2349 50.1973 52.3826C50.1652 52.5302 50.0875 52.6656 49.9739 52.7716C49.8603 52.8775 49.716 52.9493 49.5592 52.9778C49.4024 53.0063 49.2402 52.9903 49.0931 52.9318C48.9459 52.8733 48.8204 52.7749 48.7325 52.6491C48.6446 52.5233 48.5982 52.3756 48.5991 52.2249C48.6035 52.0237 48.6908 51.832 48.8424 51.6906C48.994 51.5491 49.1981 51.469 49.4113 51.4673Z" fill="#9A9B9B"/>
<path d="M46.9845 52.6673C46.984 52.818 46.9362 52.9652 46.8471 53.0903C46.758 53.2154 46.6316 53.3127 46.4839 53.37C46.3362 53.4273 46.1739 53.4419 46.0173 53.4121C45.8608 53.3822 45.7172 53.3092 45.6046 53.2023C45.4921 53.0954 45.4156 52.9594 45.3849 52.8115C45.3542 52.6635 45.3707 52.5103 45.4322 52.3712C45.4938 52.2321 45.5976 52.1134 45.7307 52.03C45.8637 51.9467 46.0199 51.9024 46.1796 51.9028C46.3927 51.9064 46.596 51.9882 46.7463 52.1309C46.8966 52.2736 46.982 52.466 46.9845 52.6673Z" fill="#9A9B9B"/>
<path d="M12.3708 53.5905C12.5305 53.5878 12.6874 53.6299 12.8217 53.7114C12.956 53.7929 13.0617 53.9101 13.1254 54.0484C13.1891 54.1866 13.208 54.3395 13.1796 54.4878C13.1513 54.6362 13.077 54.7732 12.9661 54.8817C12.8552 54.9902 12.7128 55.0652 12.5568 55.0972C12.4008 55.1293 12.2382 55.1169 12.0896 55.0617C11.941 55.0066 11.8131 54.911 11.722 54.7872C11.631 54.6634 11.5808 54.5169 11.5779 54.3662C11.5772 54.1649 11.6596 53.9713 11.8077 53.8265C11.9557 53.6816 12.1577 53.5969 12.3708 53.5905Z" fill="#9A9B9B"/>
<path d="M16.2512 53.5905C16.4109 53.5909 16.5669 53.636 16.6994 53.7202C16.8319 53.8043 16.935 53.9236 16.9956 54.063C17.0563 54.2025 17.0718 54.3558 17.0402 54.5035C17.0086 54.6513 16.9312 54.7869 16.818 54.8931C16.7048 54.9994 16.5607 55.0716 16.404 55.1006C16.2473 55.1295 16.085 55.114 15.9377 55.0559C15.7903 54.9978 15.6646 54.8997 15.5763 54.7742C15.4879 54.6486 15.4411 54.5011 15.4415 54.3503C15.4453 54.1491 15.5319 53.9572 15.6831 53.8153C15.8343 53.6735 16.0381 53.5928 16.2512 53.5905Z" fill="#9A9B9B"/>
<path d="M20.9197 54.3616C20.9178 54.5123 20.8686 54.6592 20.7783 54.7835C20.688 54.9078 20.5607 55.0041 20.4125 55.0601C20.2642 55.1161 20.1017 55.1294 19.9455 55.0982C19.7893 55.067 19.6464 54.9928 19.5348 54.885C19.4233 54.7771 19.3481 54.6405 19.3188 54.4923C19.2896 54.3441 19.3075 54.1911 19.3703 54.0525C19.4332 53.9139 19.5381 53.7961 19.6719 53.7138C19.8057 53.6316 19.9624 53.5886 20.122 53.5904C20.3351 53.5957 20.5377 53.6792 20.6866 53.8232C20.8355 53.9672 20.9192 54.1604 20.9197 54.3616Z" fill="#9A9B9B"/>
<path d="M23.9351 55.1147C23.7758 55.1069 23.6224 55.0547 23.4945 54.9647C23.3665 54.8746 23.2697 54.7508 23.2163 54.6088C23.1628 54.4669 23.1551 54.3132 23.1942 54.1671C23.2332 54.021 23.3173 53.8891 23.4357 53.7881C23.5541 53.6871 23.7015 53.6215 23.8594 53.5996C24.0173 53.5776 24.1785 53.6003 24.3227 53.6649C24.4669 53.7294 24.5877 53.8328 24.6696 53.9621C24.7516 54.0914 24.7912 54.2406 24.7833 54.3911C24.7697 54.5923 24.6734 54.7805 24.515 54.9156C24.3566 55.0508 24.1485 55.1222 23.9351 55.1147Z" fill="#9A9B9B"/>
<path d="M28.6565 54.3549C28.656 54.5056 28.6082 54.6529 28.5191 54.7779C28.43 54.903 28.3036 55.0004 28.1559 55.0576C28.0082 55.1149 27.8458 55.1295 27.6893 55.0997C27.5328 55.0698 27.3892 54.9968 27.2766 54.8899C27.1641 54.783 27.0876 54.647 27.0569 54.4991C27.0262 54.3512 27.0427 54.198 27.1042 54.0589C27.1658 53.9198 27.2696 53.801 27.4027 53.7176C27.5357 53.6343 27.6919 53.59 27.8516 53.5905C28.0647 53.594 28.268 53.6758 28.4183 53.8185C28.5686 53.9613 28.654 54.1537 28.6565 54.3549Z" fill="#9A9B9B"/>
<path d="M32.5009 54.3593C32.4994 54.5101 32.4507 54.657 32.3608 54.7816C32.2709 54.9062 32.1439 55.0028 31.9958 55.0592C31.8478 55.1156 31.6853 55.1294 31.529 55.0986C31.3727 55.0679 31.2295 54.9941 31.1176 54.8866C31.0058 54.779 30.9302 54.6426 30.9004 54.4945C30.8706 54.3464 30.8881 54.1933 30.9505 54.0546C31.0129 53.9158 31.1175 53.7977 31.251 53.715C31.3846 53.6324 31.5411 53.589 31.7008 53.5904C31.9139 53.5951 32.1167 53.678 32.266 53.8216C32.4154 53.9652 32.4997 54.1581 32.5009 54.3593Z" fill="#9A9B9B"/>
<path d="M35.5764 53.5905C35.736 53.5923 35.8915 53.6387 36.0232 53.724C36.1549 53.8092 36.2569 53.9294 36.3162 54.0693C36.3755 54.2093 36.3896 54.3627 36.3566 54.5102C36.3236 54.6576 36.245 54.7926 36.1307 54.8979C36.0165 55.0032 35.8717 55.0741 35.7148 55.1018C35.5578 55.1294 35.3957 55.1125 35.2489 55.0532C35.1022 54.9939 34.9773 54.8948 34.8902 54.7685C34.8031 54.6421 34.7576 54.4943 34.7595 54.3435C34.7651 54.1423 34.8536 53.9511 35.0061 53.8105C35.1586 53.6699 35.3632 53.591 35.5764 53.5905Z" fill="#9A9B9B"/>
<path d="M39.4375 53.5905C39.5972 53.5918 39.7529 53.6378 39.8848 53.7227C40.0168 53.8076 40.1191 53.9275 40.1789 54.0672C40.2387 54.207 40.2532 54.3604 40.2207 54.5079C40.1881 54.6555 40.1099 54.7907 39.996 54.8963C39.8821 55.0019 39.7376 55.0733 39.5807 55.1014C39.4239 55.1295 39.2617 55.113 39.1147 55.0541C38.9678 54.9952 38.8426 54.8964 38.7551 54.7704C38.6676 54.6443 38.6216 54.4965 38.623 54.3458C38.628 54.1446 38.7159 53.9532 38.868 53.8121C39.02 53.6711 39.2244 53.5916 39.4375 53.5905Z" fill="#9A9B9B"/>
<path d="M44.1012 54.3662C44.0983 54.5169 44.0482 54.6634 43.9571 54.7872C43.8661 54.911 43.7381 55.0066 43.5896 55.0617C43.441 55.1169 43.2784 55.1293 43.1224 55.0972C42.9664 55.0652 42.8239 54.9902 42.7131 54.8817C42.6022 54.7732 42.5279 54.6362 42.4996 54.4878C42.4712 54.3395 42.4901 54.1866 42.5538 54.0484C42.6175 53.9101 42.7232 53.7929 42.8575 53.7114C42.9918 53.6299 43.1487 53.5878 43.3083 53.5905C43.5214 53.5969 43.7235 53.6816 43.8715 53.8265C44.0196 53.9713 44.102 54.1649 44.1012 54.3662Z" fill="#9A9B9B"/>
<path d="M48.2604 54.5159C48.42 54.5172 48.5757 54.5632 48.7076 54.6481C48.8396 54.733 48.9419 54.8529 49.0017 54.9926C49.0615 55.1324 49.076 55.2858 49.0435 55.4334C49.0109 55.5809 48.9328 55.7161 48.8189 55.8217C48.705 55.9273 48.5604 55.9987 48.4036 56.0268C48.2467 56.0549 48.0845 56.0384 47.9375 55.9795C47.7906 55.9206 47.6654 55.8218 47.5779 55.6958C47.4904 55.5697 47.4444 55.422 47.4458 55.2712C47.4508 55.07 47.5387 54.8786 47.6908 54.7375C47.8429 54.5965 48.0472 54.517 48.2604 54.5159Z" fill="#9A9B9B"/>
<path d="M45.4347 56.1492C45.5944 56.1505 45.75 56.1965 45.882 56.2814C46.014 56.3663 46.1163 56.4862 46.1761 56.626C46.2359 56.7657 46.2504 56.9191 46.2179 57.0667C46.1853 57.2142 46.1071 57.3494 45.9932 57.455C45.8793 57.5607 45.7348 57.632 45.5779 57.6601C45.421 57.6882 45.2589 57.6717 45.1119 57.6128C44.9649 57.5539 44.8398 57.4552 44.7523 57.3291C44.6647 57.203 44.6188 57.0553 44.6202 56.9045C44.6252 56.7033 44.7131 56.5119 44.8652 56.3708C45.0172 56.2298 45.2216 56.1503 45.4347 56.1492Z" fill="#9A9B9B"/>
<path d="M16.5948 57.0655C16.5967 57.2162 16.5512 57.364 16.4641 57.4904C16.377 57.6167 16.2521 57.7158 16.1053 57.7751C15.9586 57.8344 15.7965 57.8513 15.6395 57.8237C15.4825 57.796 15.3378 57.7251 15.2235 57.6198C15.1093 57.5145 15.0307 57.3795 14.9977 57.2321C14.9647 57.0846 14.9787 56.9312 15.0381 56.7912C15.0974 56.6513 15.1994 56.5311 15.3311 56.4459C15.4627 56.3606 15.6182 56.3142 15.7779 56.3124C15.9913 56.3123 16.1962 56.3911 16.3489 56.5318C16.5015 56.6725 16.5898 56.8641 16.5948 57.0655Z" fill="#9A9B9B"/>
<path d="M42.6596 57.0814C42.6582 57.2321 42.6094 57.3791 42.5195 57.5036C42.4296 57.6282 42.3026 57.7248 42.1546 57.7813C42.0065 57.8377 41.8441 57.8514 41.6878 57.8207C41.5314 57.79 41.3883 57.7162 41.2764 57.6086C41.1645 57.5011 41.0889 57.3647 41.0592 57.2166C41.0294 57.0685 41.0468 56.9154 41.1092 56.7766C41.1717 56.6379 41.2763 56.5197 41.4098 56.4371C41.5433 56.3545 41.6998 56.3111 41.8595 56.3124C42.0728 56.3166 42.276 56.3993 42.4255 56.543C42.575 56.6867 42.659 56.8799 42.6596 57.0814Z" fill="#9A9B9B"/>
<path d="M38.9113 57.1335C38.9104 57.2843 38.8621 57.4314 38.7726 57.5562C38.6831 57.681 38.5564 57.778 38.4085 57.8348C38.2607 57.8917 38.0982 57.9059 37.9418 57.8756C37.7854 57.8453 37.642 57.7719 37.5298 57.6647C37.4176 57.5575 37.3415 57.4212 37.3113 57.2732C37.2811 57.1252 37.298 56.9721 37.36 56.8331C37.422 56.6942 37.5262 56.5758 37.6595 56.4928C37.7928 56.4098 37.9492 56.3659 38.1088 56.3668C38.322 56.371 38.525 56.4533 38.6748 56.5965C38.8247 56.7396 38.9095 56.9323 38.9113 57.1335Z" fill="#9A9B9B"/>
<path d="M20.3431 57.1925C20.3421 57.3432 20.2938 57.4903 20.2043 57.6151C20.1148 57.74 19.9881 57.837 19.8403 57.8938C19.6924 57.9507 19.53 57.9649 19.3736 57.9346C19.2171 57.9043 19.0738 57.8309 18.9615 57.7237C18.8493 57.6164 18.7733 57.4802 18.743 57.3322C18.7128 57.1842 18.7298 57.031 18.7918 56.8921C18.8537 56.7532 18.958 56.6347 19.0912 56.5517C19.2245 56.4687 19.3809 56.4249 19.5406 56.4258C19.7537 56.4299 19.9567 56.5123 20.1066 56.6555C20.2564 56.7986 20.3412 56.9913 20.3431 57.1925Z" fill="#9A9B9B"/>
<path d="M24.149 57.1925C24.1485 57.3433 24.1007 57.4905 24.0116 57.6156C23.9225 57.7407 23.7961 57.838 23.6484 57.8953C23.5007 57.9525 23.3383 57.9672 23.1818 57.9373C23.0253 57.9075 22.8817 57.8345 22.7691 57.7276C22.6566 57.6207 22.5801 57.4847 22.5494 57.3367C22.5187 57.1888 22.5352 57.0356 22.5967 56.8965C22.6583 56.7574 22.7621 56.6387 22.8952 56.5553C23.0282 56.4719 23.1844 56.4277 23.3441 56.4281C23.5572 56.4316 23.7605 56.5134 23.9108 56.6562C24.0611 56.7989 24.1465 56.9913 24.149 57.1925Z" fill="#9A9B9B"/>
<path d="M34.4062 57.9455C34.2466 57.9442 34.0909 57.8982 33.9589 57.8133C33.827 57.7284 33.7246 57.6085 33.6649 57.4688C33.6051 57.329 33.5905 57.1756 33.6231 57.0281C33.6556 56.8805 33.7338 56.7453 33.8477 56.6397C33.9616 56.5341 34.1062 56.4627 34.263 56.4346C34.4199 56.4065 34.5821 56.423 34.729 56.4819C34.876 56.5408 35.0012 56.6396 35.0887 56.7656C35.1762 56.8917 35.2222 57.0395 35.2207 57.1902C35.2157 57.3914 35.1279 57.5828 34.9758 57.7239C34.8237 57.8649 34.6194 57.9444 34.4062 57.9455Z" fill="#9A9B9B"/>
<path d="M26.2826 57.2333C26.2836 57.0826 26.3319 56.9355 26.4214 56.8107C26.5109 56.6858 26.6376 56.5889 26.7854 56.532C26.9333 56.4751 27.0957 56.461 27.2521 56.4913C27.4086 56.5215 27.5519 56.5949 27.6642 56.7022C27.7764 56.8094 27.8524 56.9456 27.8827 57.0936C27.9129 57.2416 27.8959 57.3948 27.8339 57.5337C27.772 57.6726 27.6677 57.7911 27.5345 57.8741C27.4012 57.9571 27.2448 58.0009 27.0851 58C26.872 57.9959 26.669 57.9135 26.5191 57.7703C26.3693 57.6272 26.2845 57.4345 26.2826 57.2333Z" fill="#9A9B9B"/>
<path d="M30.8406 56.4757C31.0003 56.4762 31.1562 56.5213 31.2887 56.6054C31.4212 56.6895 31.5243 56.8089 31.585 56.9483C31.6456 57.0877 31.6611 57.241 31.6295 57.3888C31.5979 57.5365 31.5206 57.6721 31.4074 57.7784C31.2941 57.8847 31.15 57.9568 30.9933 57.9858C30.8366 58.0148 30.6744 57.9992 30.527 57.9411C30.3797 57.883 30.2539 57.785 30.1656 57.6594C30.0773 57.5338 30.0304 57.3863 30.0309 57.2356C30.034 57.0342 30.1205 56.8419 30.2718 56.6999C30.4231 56.5579 30.6273 56.4775 30.8406 56.4757Z" fill="#9A9B9B"/>
<path d="M26.7175 19.5384C29.9155 19.5384 33.1136 19.5384 36.314 19.5384C36.5092 19.5274 36.7021 19.5823 36.8584 19.6932C37.0146 19.8042 37.124 19.9639 37.167 20.144C37.2282 20.3457 37.208 20.5617 37.1104 20.7503C37.0128 20.9388 36.8446 21.0865 36.6384 21.1648C36.5495 21.1964 36.4544 21.2095 36.3596 21.2033H17.0249C16.9178 21.21 16.8104 21.195 16.7099 21.1593C16.6095 21.1236 16.5183 21.0679 16.4425 20.9962C16.3667 20.9244 16.308 20.8381 16.2705 20.7432C16.2329 20.6482 16.2174 20.5468 16.2248 20.4457C16.2248 19.7652 16.4459 19.5384 17.1859 19.5384H26.7175Z" fill="#1074B7"/>
<path d="M26.7151 39.2977H36.326C36.9027 39.2977 37.1525 39.5744 37.1958 40.1302C37.1902 40.3507 37.0947 40.5607 36.929 40.7162C36.7633 40.8718 36.5404 40.9609 36.3068 40.9649C29.8995 40.9483 23.4922 40.9483 17.085 40.9649C16.9203 40.9649 16.7586 40.9227 16.6173 40.8428C16.476 40.7629 16.3603 40.6483 16.2825 40.5112C16.2251 40.337 16.2124 40.1523 16.2454 39.9725C16.2784 39.7926 16.3561 39.6228 16.4723 39.4769C16.549 39.4108 16.6395 39.3605 16.7379 39.3292C16.8364 39.298 16.9407 39.2865 17.0441 39.2954L26.7151 39.2977Z" fill="#363636"/>
<path d="M26.6695 31.066H17.0417C16.4459 31.066 16.2296 30.8391 16.2296 30.2471C16.2296 29.7141 16.5251 29.4192 17.0586 29.4192H36.3116C36.496 29.4101 36.6784 29.459 36.8302 29.5584C36.982 29.6577 37.0945 29.8018 37.1501 29.9681C37.208 30.1446 37.2097 30.3333 37.1551 30.5107C37.1004 30.6881 36.9917 30.8465 36.8426 30.9662C36.6985 31.0487 36.5295 31.0838 36.3621 31.066H26.6695Z" fill="#363636"/>
<path d="M29.2836 45.8962H22.3157C21.7367 45.8962 21.4483 45.624 21.4483 45.0502C21.4357 44.9399 21.4495 44.8284 21.4887 44.7238C21.5279 44.6193 21.5915 44.5244 21.6747 44.4462C21.758 44.368 21.8589 44.3085 21.9698 44.2721C22.0808 44.2357 22.199 44.2233 22.3157 44.2358H36.2948C36.857 44.2358 37.1694 44.533 37.167 45.0728C37.1646 45.6127 36.8666 45.8962 36.2828 45.8962H29.2836Z" fill="#1074B7"/>
<path d="M23.1807 26.1324H17.0706C16.4963 26.1324 16.232 25.8874 16.2296 25.3544C16.2296 24.6988 16.4699 24.4742 17.1739 24.4742H29.3341C29.8867 24.4742 30.1654 24.7759 30.2039 25.3135C30.2058 25.4211 30.1851 25.5281 30.1431 25.6281C30.1011 25.7282 30.0385 25.8194 29.9591 25.8965C29.8796 25.9737 29.7847 26.0353 29.6799 26.0777C29.5751 26.1201 29.4625 26.1425 29.3485 26.1437C27.2918 26.1165 25.2374 26.1324 23.1807 26.1324Z" fill="#363636"/>
<path d="M30.6075 36.0086H24.841C24.2932 36.0086 24.0745 35.7999 24.0769 35.2737C24.0769 35.0083 24.0241 34.7338 24.2908 34.5274C24.4088 34.4244 24.5626 34.3655 24.7233 34.3618C28.6397 34.3618 32.5577 34.3618 36.4774 34.3618C36.5864 34.3629 36.6933 34.3894 36.7889 34.4389C36.8844 34.4883 36.9656 34.5592 37.0252 34.6454C37.2487 34.9221 37.2655 35.6389 36.8498 35.9111C36.7318 35.9845 36.5921 36.0203 36.451 36.0132L30.6075 36.0086Z" fill="#363636"/>
<path d="M19.6799 16.247H16.912C16.8214 16.2534 16.7303 16.2413 16.6451 16.2115C16.5599 16.1816 16.4826 16.1346 16.4184 16.0738C16.3543 16.0131 16.3048 15.9399 16.2735 15.8594C16.2421 15.7788 16.2296 15.6928 16.2368 15.6073C16.2368 15.3169 16.1551 15.0062 16.4459 14.7725C16.562 14.6662 16.7166 14.6054 16.8784 14.6024C18.7621 14.6024 20.6434 14.6024 22.5272 14.6024C22.637 14.604 22.7447 14.6309 22.841 14.6807C22.9373 14.7305 23.0192 14.8018 23.0798 14.8882C23.2864 15.1309 23.2888 15.8659 22.9693 16.0904C22.839 16.1945 22.6738 16.2516 22.5031 16.2515C21.5613 16.2447 20.6218 16.247 19.6799 16.247Z" fill="#1074B7"/>
<path d="M19.2859 36.0086H16.8831C16.7955 36.0128 16.7079 35.9997 16.6259 35.9701C16.544 35.9406 16.4694 35.8952 16.407 35.8369C16.3446 35.7787 16.2958 35.7088 16.2636 35.6317C16.2314 35.5547 16.2165 35.4721 16.22 35.3894C16.22 35.0922 16.1335 34.7747 16.4338 34.5342C16.5481 34.4277 16.701 34.3661 16.8615 34.3618C18.4569 34.3618 20.0523 34.3618 21.6453 34.3618C21.7549 34.3632 21.8625 34.3897 21.9588 34.4391C22.0551 34.4885 22.1371 34.5593 22.198 34.6454C22.4623 34.9675 22.3517 35.6706 22.0106 35.9179C21.9019 35.9896 21.7702 36.0233 21.6381 36.0132C20.8645 36.0064 20.0764 36.0086 19.2859 36.0086Z" fill="#363636"/>
<path d="M34.5168 26.1324H32.9334C32.1116 26.1324 31.929 25.9622 31.9314 25.1955C31.9147 25.0444 31.956 24.8927 32.0477 24.7678C32.1394 24.643 32.2754 24.5533 32.4312 24.515C32.508 24.4885 32.5898 24.477 32.6715 24.481C33.9001 24.481 35.1287 24.481 36.3572 24.481C36.8594 24.481 37.1357 24.8122 37.1718 25.343C37.1737 25.552 37.0888 25.7535 36.9351 25.9041C36.7815 26.0546 36.5714 26.1423 36.35 26.1482C35.747 26.1165 35.1439 26.1324 34.5168 26.1324Z" fill="#363636"/>
<path d="M17.9668 45.8963C17.6328 45.8963 17.2964 45.8963 16.96 45.8963C16.8621 45.8985 16.7648 45.8818 16.6739 45.8473C16.583 45.8128 16.5006 45.7612 16.4315 45.6956C16.3625 45.63 16.3084 45.5518 16.2724 45.4658C16.2364 45.3798 16.2194 45.2878 16.2224 45.1954C16.2032 44.8234 16.2464 44.4922 16.6525 44.3085C16.7533 44.2588 16.8655 44.2331 16.9792 44.2336H18.9663C19.066 44.2297 19.1656 44.2455 19.2585 44.2798C19.3515 44.3142 19.4359 44.3664 19.5063 44.4331C19.5768 44.4999 19.6318 44.5797 19.6679 44.6676C19.704 44.7554 19.7204 44.8494 19.716 44.9436C19.7063 45.0432 19.7063 45.1434 19.716 45.243C19.7784 45.5515 19.3555 45.9054 19.0312 45.9008C18.7068 45.8963 18.3248 45.8963 17.9668 45.8963Z" fill="#426EA7"/>
</g>
<defs>
<clipPath id="clip0">
<rect width="55" height="58" fill="white"/>
</clipPath>
</defs>
</svg>
