<svg width="58" height="61" viewBox="0 0 58 61" fill="none" xmlns="http://www.w3.org/2000/svg">
<path d="M46.6074 12.9899C46.6223 13.0725 46.6931 13.1131 46.7435 13.1686C47.439 13.9362 48.1781 14.6646 48.8109 15.4863C49.321 16.1201 49.6534 16.8767 49.7746 17.6795C49.8385 18.2108 49.8658 18.7459 49.8563 19.281C49.8563 25.2142 49.8585 31.1479 49.8631 37.0821C49.8631 41.62 49.8631 46.157 49.8631 50.6931C49.8631 51.9197 49.335 52.8402 48.2475 53.4251C47.8491 53.6367 47.4033 53.7443 46.9517 53.7378H15.7301C15.0769 53.7245 14.4468 53.4949 13.9395 53.0855C13.4322 52.676 13.0766 52.11 12.929 51.477C12.924 51.3803 12.9014 51.2854 12.8623 51.1967C12.8623 50.7094 12.8623 50.222 12.8623 49.7333C12.8623 49.6683 12.8623 49.5979 12.8623 49.5397V40.5721C12.8623 40.5017 12.8623 40.4368 12.8623 40.361C12.8671 40.2119 12.9188 40.068 13.0101 39.9498C13.1014 39.8315 13.2278 39.7447 13.3714 39.7017C13.5173 39.6573 13.6735 39.6596 13.818 39.7082C13.9626 39.7567 14.0881 39.8492 14.1771 39.9724C14.2846 40.1422 14.3325 40.3426 14.3132 40.5424V50.7121C14.3098 50.8527 14.3207 50.9933 14.3459 51.1317C14.4252 51.4699 14.6202 51.7701 14.8976 51.981C15.1749 52.1919 15.5173 52.3004 15.8662 52.2879C26.1886 52.2816 36.5105 52.2816 46.832 52.2879C46.9568 52.293 47.0819 52.2844 47.2049 52.2622C47.963 52.0889 48.3972 51.5122 48.3972 50.6877C48.3972 40.4268 48.3972 30.1655 48.3972 19.9038C48.4092 19.8425 48.4016 19.7791 48.3754 19.7224H42.9311C42.6651 19.7211 42.4006 19.6819 42.1458 19.6059C41.528 19.4297 40.9852 19.0572 40.6004 18.5453C40.2155 18.0334 40.0097 17.4103 40.0143 16.7711C40.0143 14.7539 40.0143 12.7345 40.0143 10.7129V10.5233H15.9234C15.7867 10.5216 15.6501 10.5316 15.5151 10.5531C15.2074 10.6132 14.9272 10.7699 14.7158 11.0002C14.5043 11.2305 14.3728 11.5222 14.3405 11.8324C14.3037 12.4227 14.3309 13.013 14.3268 13.6032C14.3312 13.626 14.338 13.6482 14.3473 13.6695H25.7803C26.0249 13.6593 26.27 13.6757 26.5112 13.7183C27.1764 13.8531 27.7733 14.2149 28.1986 14.7413C28.6239 15.2676 28.8507 15.9253 28.8399 16.6005C28.8399 19.4651 28.8399 22.3298 28.8399 25.1944C28.8418 25.362 28.8299 25.5296 28.8046 25.6953C28.6956 26.3759 28.3458 26.9954 27.8183 27.4421C27.2907 27.8889 26.6201 28.1336 25.9273 28.1321C24.4301 28.1321 22.9329 28.1321 21.4357 28.1321C21.3327 28.1329 21.2304 28.1155 21.1336 28.0807C20.9708 28.0231 20.8338 27.91 20.7471 27.7614C20.6603 27.6129 20.6294 27.4385 20.6598 27.2693C20.6901 27.1002 20.7799 26.9473 20.913 26.8378C21.0461 26.7283 21.214 26.6693 21.3867 26.6714C22.9111 26.6714 24.4355 26.6714 25.9599 26.6714C26.3327 26.6672 26.6892 26.5184 26.9533 26.2567C27.2174 25.995 27.3684 25.641 27.3741 25.2702V16.5301C27.3759 16.4763 27.3736 16.4225 27.3673 16.369C27.3168 16.0135 27.136 15.6892 26.8596 15.4583C26.5832 15.2274 26.2308 15.1062 25.8701 15.1181C19.5729 15.1235 13.2743 15.1235 6.97434 15.1181C6.84408 15.1143 6.71384 15.1261 6.58643 15.1533C6.26218 15.2229 5.97275 15.4034 5.76856 15.6634C5.56436 15.9234 5.45835 16.2464 5.46899 16.5761C5.46355 19.457 5.46355 22.3379 5.46899 25.2188C5.46856 25.4129 5.50725 25.6051 5.58277 25.7841C5.65829 25.963 5.76911 26.1252 5.90867 26.2608C6.04824 26.3965 6.21373 26.503 6.39536 26.5739C6.57699 26.6449 6.77108 26.679 6.96617 26.6741C9.97005 26.6606 12.9753 26.6741 15.9805 26.6741H18.0548C18.1799 26.6721 18.3033 26.702 18.4134 26.761C18.5235 26.8201 18.6165 26.9062 18.6836 27.0112C18.7506 27.1162 18.7895 27.2366 18.7964 27.3608C18.8033 27.485 18.7781 27.6088 18.7231 27.7206C18.6632 27.8479 18.5664 27.9546 18.4452 28.027C18.3239 28.0993 18.1838 28.134 18.0426 28.1267C16.8666 28.1267 15.6906 28.1267 14.5147 28.1267C14.4518 28.1163 14.3873 28.1234 14.3282 28.147V36.9115C14.3282 37.0019 14.3237 37.0923 14.3146 37.1822C14.302 37.2881 14.266 37.3899 14.209 37.4802C14.152 37.5706 14.0755 37.6471 13.9851 37.7044C13.8947 37.7617 13.7926 37.7982 13.6862 37.8114C13.5798 37.8246 13.4718 37.8141 13.37 37.7806C13.0284 37.6669 12.8691 37.4151 12.8691 36.9859V28.1321H12.4785L9.66926 28.1403H8.1993H6.97434C6.29499 28.1562 5.63155 27.9346 5.09956 27.514C4.56758 27.0935 4.20076 26.5007 4.063 25.8388C4.01613 25.6058 3.99694 25.3682 4.00584 25.1308C4.00584 22.3054 4.01945 19.48 4.00584 16.656C3.98829 16.0214 4.17878 15.3983 4.54854 14.8808C4.91831 14.3633 5.44728 13.9795 6.05561 13.7873C6.42813 13.691 6.81306 13.6509 7.19755 13.6682C7.52965 13.6682 7.86175 13.6682 8.19386 13.6682H12.8637C12.8637 13.1348 12.8637 12.6217 12.8637 12.1073C12.8546 11.7838 12.896 11.461 12.9862 11.1501C13.3863 9.87621 14.5147 9.06664 15.8975 9.06664H39.9163C40.5471 9.05218 41.1782 9.07161 41.8069 9.12485C42.4539 9.17552 43.0705 9.41896 43.5763 9.82341C44.1466 10.2986 44.6134 10.8726 45.1143 11.4141C45.1985 11.4704 45.273 11.5399 45.3348 11.6199L46.6074 12.9899ZM41.4925 10.5531C41.4925 10.5883 41.4843 10.6046 41.4843 10.6208V16.8916C41.4847 16.937 41.4888 16.9822 41.4966 17.027C41.5605 17.3821 41.7503 17.7027 42.0314 17.9307C42.3126 18.1587 42.6665 18.2789 43.0291 18.2697C44.7495 18.2521 46.4685 18.2697 48.1889 18.2697H48.3659C48.3478 17.8936 48.2673 17.5231 48.1277 17.1732C47.8827 16.6005 47.4825 16.1375 47.0688 15.684C46.1133 14.6407 45.1524 13.6028 44.186 12.5703C43.726 12.0788 43.2959 11.5617 42.8086 11.096C42.4568 10.753 41.9851 10.559 41.4925 10.5545V10.5531Z" fill="#363636"/>
<path d="M9.67469 13.6668H8.19385C8.19385 13.5964 8.2061 13.5315 8.2061 13.457C8.2061 11.6538 8.2061 9.8505 8.2061 8.04183C8.1974 7.6241 8.27782 7.20929 8.44204 6.82473C8.60627 6.44016 8.85057 6.09459 9.15885 5.81078C9.70282 5.28447 10.4334 4.99262 11.1923 4.9985H43.647C44.3707 5.01114 45.0657 5.28235 45.605 5.76257C46.1443 6.24279 46.4919 6.89996 46.5842 7.61403C46.6028 7.78081 46.6119 7.94849 46.6114 8.11629C46.6114 9.74084 46.6114 11.3654 46.6114 12.9899L45.3375 11.6186C45.2757 11.5385 45.2012 11.469 45.117 11.4128C45.1714 11.3722 45.1483 11.3126 45.1483 11.2625C45.1483 10.1632 45.1483 9.06394 45.1483 7.96466C45.1499 7.5817 44.9998 7.21354 44.7304 6.93984C44.3888 6.57702 43.9614 6.44706 43.4674 6.44706C32.7657 6.44706 22.0636 6.44706 11.3611 6.44706H11.2467C11.0358 6.44386 10.8265 6.4832 10.6313 6.56271C10.4361 6.64222 10.2591 6.76025 10.111 6.90967C9.96296 7.0591 9.84688 7.23681 9.76978 7.4321C9.69268 7.62738 9.65617 7.83618 9.66244 8.04589V12.9331C9.66244 13.1795 9.67197 13.4232 9.67469 13.6668Z" fill="#1074B7"/>
<path d="M12.861 49.7334C12.861 50.2221 12.861 50.7095 12.861 51.1968C12.3384 51.1968 11.8171 51.1968 11.2944 51.19C10.8776 51.1982 10.4637 51.1202 10.0788 50.961C9.69389 50.8018 9.34636 50.565 9.05818 50.2654C8.78088 49.9839 8.56281 49.6502 8.41674 49.2839C8.27068 48.9175 8.19955 48.5259 8.20751 48.1318C8.20751 44.186 8.20751 40.2406 8.20751 36.2956C8.20751 33.6485 8.20751 31.0018 8.20751 28.3556C8.20751 28.2852 8.20751 28.2202 8.20751 28.1444H9.67747C9.67747 28.2189 9.67747 28.2947 9.67747 28.3705C9.67747 34.9283 9.67747 41.4856 9.67747 48.0425C9.67746 48.1884 9.68838 48.3341 9.71013 48.4784C9.77146 48.7905 9.92773 49.0763 10.1578 49.2972C10.3879 49.518 10.6806 49.6632 10.9963 49.7131C11.6088 49.7767 12.2349 49.7307 12.861 49.7334Z" fill="#1074B7"/>
<path d="M52.6233 22.0686C52.6211 22.2231 52.5728 22.3735 52.4844 22.5007C52.3961 22.6278 52.2718 22.726 52.1273 22.7828C51.9827 22.8396 51.8245 22.8523 51.6727 22.8194C51.5208 22.7866 51.3823 22.7096 51.2745 22.5982C51.1668 22.4868 51.0947 22.3461 51.0675 22.194C51.0403 22.0418 51.0592 21.885 51.1218 21.7435C51.1843 21.602 51.2878 21.4823 51.4189 21.3994C51.5501 21.3165 51.703 21.2742 51.8584 21.2779C52.0643 21.2846 52.2595 21.371 52.4023 21.5187C52.5452 21.6663 52.6245 21.8636 52.6233 22.0686Z" fill="#9A9B9B"/>
<path d="M54.5234 24.3646C54.6788 24.3657 54.8303 24.4127 54.9588 24.4997C55.0873 24.5866 55.1869 24.7096 55.245 24.853C55.3031 24.9963 55.317 25.1536 55.285 25.3049C55.253 25.4561 55.1766 25.5945 55.0654 25.7025C54.9541 25.8104 54.8132 25.8831 54.6604 25.9112C54.5076 25.9393 54.3498 25.9216 54.2071 25.8603C54.0644 25.7991 53.9433 25.697 53.859 25.5672C53.7748 25.4373 53.7312 25.2854 53.7339 25.1309C53.7393 24.926 53.8247 24.7314 53.9722 24.5882C54.1196 24.4451 54.3174 24.3649 54.5234 24.3646Z" fill="#9A9B9B"/>
<path d="M51.8366 25.9567C51.6812 25.9561 51.5295 25.9096 51.4007 25.8231C51.2719 25.7366 51.1719 25.614 51.1133 25.4709C51.0547 25.3277 51.0402 25.1704 51.0716 25.0191C51.1031 24.8677 51.1791 24.729 51.2899 24.6207C51.4007 24.5124 51.5414 24.4392 51.6942 24.4106C51.8469 24.382 52.0047 24.3991 52.1476 24.4599C52.2905 24.5206 52.412 24.6223 52.4967 24.7519C52.5814 24.8814 52.6255 25.0332 52.6233 25.1877C52.6187 25.3925 52.5339 25.5875 52.387 25.7311C52.2401 25.8747 52.0426 25.9557 51.8366 25.9567Z" fill="#9A9B9B"/>
<path d="M55.3019 28.258C55.303 28.4126 55.2578 28.564 55.1722 28.693C55.0866 28.822 54.9644 28.9228 54.8211 28.9826C54.6778 29.0423 54.5198 29.0584 54.3673 29.0287C54.2148 28.999 54.0746 28.9249 53.9645 28.8158C53.8545 28.7067 53.7795 28.5675 53.7491 28.4159C53.7187 28.2643 53.7343 28.1072 53.7939 27.9644C53.8535 27.8216 53.9544 27.6997 54.0838 27.6141C54.2132 27.5285 54.3652 27.4831 54.5206 27.4836C54.7266 27.4861 54.9235 27.5684 55.0694 27.713C55.2153 27.8576 55.2987 28.0532 55.3019 28.258Z" fill="#9A9B9B"/>
<path d="M52.6233 28.2987C52.6228 28.4532 52.576 28.6042 52.4891 28.7323C52.4021 28.8604 52.2788 28.9599 52.1349 29.0181C51.991 29.0764 51.8329 29.0908 51.6807 29.0595C51.5285 29.0283 51.3891 28.9527 51.2802 28.8425C51.1712 28.7322 51.0977 28.5923 51.0689 28.4404C51.0401 28.2885 51.0574 28.1315 51.1185 27.9894C51.1796 27.8472 51.2817 27.7264 51.412 27.6421C51.5423 27.5579 51.6948 27.514 51.8502 27.5162C52.0563 27.5204 52.2525 27.6047 52.397 27.7509C52.5414 27.8971 52.6227 28.0937 52.6233 28.2987Z" fill="#9A9B9B"/>
<path d="M55.3019 31.3866C55.3011 31.5412 55.2541 31.692 55.1669 31.8199C55.0797 31.9479 54.9562 32.0472 54.8122 32.1052C54.6682 32.1632 54.5101 32.1774 54.3579 32.1458C54.2058 32.1143 54.0665 32.0385 53.9578 31.928C53.8491 31.8176 53.7758 31.6775 53.7473 31.5256C53.7187 31.3736 53.7363 31.2167 53.7976 31.0747C53.8589 30.9326 53.9613 30.812 54.0918 30.7279C54.2222 30.6439 54.3748 30.6003 54.5302 30.6028C54.7361 30.6077 54.932 30.6924 55.0761 30.8388C55.2202 30.9851 55.3012 31.1817 55.3019 31.3866Z" fill="#9A9B9B"/>
<path d="M51.8366 32.1949C51.6812 32.1944 51.5295 32.1479 51.4007 32.0614C51.2719 31.9749 51.1719 31.8523 51.1133 31.7091C51.0547 31.566 51.0402 31.4087 51.0716 31.2573C51.1031 31.106 51.1791 30.9673 51.2899 30.859C51.4007 30.7506 51.5414 30.6775 51.6942 30.6489C51.8469 30.6202 52.0047 30.6374 52.1476 30.6982C52.2905 30.7589 52.412 30.8605 52.4967 30.9901C52.5814 31.1197 52.6255 31.2714 52.6233 31.426C52.6187 31.6308 52.5339 31.8258 52.387 31.9694C52.2401 32.113 52.0426 32.1939 51.8366 32.1949Z" fill="#9A9B9B"/>
<path d="M55.3019 34.5085C55.3005 34.6631 55.253 34.8137 55.1653 34.9414C55.0777 35.069 54.9539 35.1679 54.8097 35.2254C54.6654 35.2829 54.5072 35.2965 54.3552 35.2644C54.2032 35.2323 54.0642 35.156 53.9559 35.0452C53.8475 34.9344 53.7748 34.7941 53.7468 34.642C53.7188 34.49 53.7368 34.3331 53.7987 34.1913C53.8605 34.0495 53.9633 33.9292 54.094 33.8456C54.2248 33.762 54.3775 33.719 54.5329 33.7219C54.7388 33.7276 54.9344 33.8129 55.078 33.9598C55.2216 34.1067 55.3019 34.3036 55.3019 34.5085Z" fill="#9A9B9B"/>
<path d="M51.8462 35.3141C51.6908 35.3154 51.5385 35.2708 51.4087 35.1858C51.2788 35.1009 51.1773 34.9795 51.1169 34.8371C51.0566 34.6946 51.0402 34.5376 51.0698 34.3858C51.0993 34.2341 51.1736 34.0945 51.2831 33.9848C51.3926 33.8752 51.5324 33.8003 51.6848 33.7698C51.8371 33.7393 51.9951 33.7546 52.1388 33.8136C52.2824 33.8726 52.4051 33.9728 52.4914 34.1013C52.5777 34.2299 52.6236 34.3811 52.6234 34.5356C52.6213 34.7405 52.5389 34.9365 52.3938 35.0819C52.2486 35.2272 52.0522 35.3105 51.8462 35.3141Z" fill="#9A9B9B"/>
<path d="M54.5234 38.4006C54.368 38.4017 54.2158 38.3568 54.0861 38.2717C53.9564 38.1865 53.855 38.0649 53.7949 37.9224C53.7348 37.7798 53.7187 37.6227 53.7486 37.4711C53.7784 37.3194 53.8529 37.1799 53.9626 37.0704C54.0723 36.9609 54.2122 36.8863 54.3646 36.8561C54.517 36.8259 54.675 36.8414 54.8186 36.9007C54.9621 36.96 55.0847 37.0603 55.1707 37.189C55.2568 37.3177 55.3024 37.469 55.3019 37.6235C55.3001 37.8286 55.2176 38.0249 55.0721 38.1701C54.9265 38.3154 54.7295 38.3982 54.5234 38.4006Z" fill="#9A9B9B"/>
<path d="M52.6233 37.6547C52.623 37.8093 52.5766 37.9603 52.4898 38.0886C52.4031 38.2168 52.28 38.3165 52.1362 38.3751C51.9923 38.4336 51.8343 38.4483 51.682 38.4172C51.5298 38.3862 51.3902 38.3109 51.2811 38.2009C51.172 38.0908 51.0982 37.951 51.0692 37.7991C51.0401 37.6473 51.0571 37.4903 51.1179 37.348C51.1788 37.2058 51.2807 37.0848 51.4109 37.0003C51.541 36.9158 51.6935 36.8717 51.8489 36.8736C52.0548 36.8778 52.251 36.9618 52.3956 37.1077C52.5402 37.2536 52.6219 37.4498 52.6233 37.6547Z" fill="#9A9B9B"/>
<path d="M55.3019 40.7414C55.3016 40.896 55.2552 41.047 55.1684 41.1752C55.0817 41.3035 54.9586 41.4032 54.8148 41.4617C54.6709 41.5202 54.5128 41.5349 54.3606 41.5039C54.2084 41.4729 54.0688 41.3976 53.9597 41.2875C53.8506 41.1775 53.7768 41.0376 53.7478 40.8858C53.7187 40.7339 53.7357 40.5769 53.7965 40.4347C53.8574 40.2925 53.9593 40.1714 54.0895 40.087C54.2196 40.0025 54.3721 39.9584 54.5275 39.9603C54.7334 39.9645 54.9296 40.0485 55.0742 40.1944C55.2188 40.3403 55.3005 40.5365 55.3019 40.7414Z" fill="#9A9B9B"/>
<path d="M52.6233 40.7766C52.6225 40.9312 52.5755 41.082 52.4883 41.21C52.4011 41.3379 52.2777 41.4372 52.1336 41.4952C51.9896 41.5533 51.8315 41.5674 51.6793 41.5358C51.5272 41.5043 51.3879 41.4285 51.2792 41.3181C51.1705 41.2076 51.0972 41.0675 51.0687 40.9156C51.0402 40.7636 51.0577 40.6067 51.119 40.4647C51.1803 40.3227 51.2827 40.202 51.4132 40.118C51.5436 40.0339 51.6962 39.9904 51.8516 39.9928C52.0575 39.9977 52.2534 40.0824 52.3975 40.2288C52.5417 40.3752 52.6227 40.5717 52.6233 40.7766Z" fill="#9A9B9B"/>
<path d="M55.3019 43.8659C55.3005 44.0205 55.253 44.1711 55.1653 44.2988C55.0777 44.4264 54.9539 44.5253 54.8097 44.5828C54.6654 44.6403 54.5072 44.6539 54.3552 44.6218C54.2032 44.5898 54.0642 44.5135 53.9559 44.4027C53.8475 44.2918 53.7748 44.1515 53.7468 43.9995C53.7188 43.8474 53.7368 43.6906 53.7987 43.5487C53.8605 43.4069 53.9633 43.2866 54.094 43.203C54.2248 43.1195 54.3775 43.0764 54.5329 43.0794C54.7388 43.085 54.9344 43.1704 55.078 43.3173C55.2216 43.4642 55.3019 43.661 55.3019 43.8659Z" fill="#9A9B9B"/>
<path d="M51.8435 44.6714C51.6881 44.6722 51.5359 44.627 51.4064 44.5417C51.2768 44.4563 51.1757 44.3345 51.1159 44.1919C51.056 44.0492 51.0402 43.8921 51.0703 43.7405C51.1004 43.5888 51.1752 43.4495 51.285 43.3402C51.3949 43.2309 51.535 43.1566 51.6875 43.1266C51.8399 43.0966 51.9979 43.1124 52.1413 43.172C52.2847 43.2315 52.4071 43.3321 52.4929 43.4609C52.5788 43.5898 52.6242 43.7411 52.6234 43.8957C52.6209 44.1006 52.5379 44.2965 52.3922 44.4415C52.2465 44.5864 52.0495 44.6689 51.8435 44.6714Z" fill="#9A9B9B"/>
<path d="M54.5125 46.1985C54.6679 46.1974 54.8201 46.2423 54.9498 46.3275C55.0795 46.4126 55.1808 46.5342 55.2409 46.6767C55.301 46.8193 55.3172 46.9764 55.2873 47.1281C55.2575 47.2798 55.183 47.4192 55.0733 47.5287C54.9636 47.6382 54.8236 47.7128 54.6712 47.743C54.5188 47.7732 54.3608 47.7577 54.2173 47.6984C54.0738 47.6392 53.9512 47.5388 53.8651 47.4101C53.7791 47.2814 53.7334 47.1302 53.734 46.9756C53.7364 46.7707 53.8191 46.5749 53.9645 46.4298C54.1099 46.2846 54.3065 46.2017 54.5125 46.1985Z" fill="#9A9B9B"/>
<path d="M51.8435 47.7905C51.6881 47.7913 51.5359 47.7462 51.4064 47.6608C51.2768 47.5754 51.1757 47.4537 51.1159 47.311C51.056 47.1684 51.0402 47.0112 51.0703 46.8596C51.1004 46.708 51.1752 46.5687 51.285 46.4594C51.3949 46.3501 51.535 46.2757 51.6875 46.2457C51.8399 46.2158 51.9979 46.2316 52.1413 46.2911C52.2847 46.3506 52.4071 46.4512 52.4929 46.58C52.5788 46.7089 52.6242 46.8602 52.6234 47.0148C52.6209 47.2198 52.5379 47.4156 52.3922 47.5606C52.2465 47.7055 52.0495 47.7881 51.8435 47.7905Z" fill="#9A9B9B"/>
<path d="M54.5165 50.8773C54.3611 50.877 54.2093 50.8308 54.0804 50.7446C53.9514 50.6583 53.8512 50.5358 53.7923 50.3928C53.7335 50.2497 53.7187 50.0925 53.7499 49.9411C53.7811 49.7896 53.8568 49.6508 53.9675 49.5423C54.0781 49.4338 54.2187 49.3604 54.3714 49.3315C54.524 49.3026 54.6819 49.3195 54.8249 49.38C54.9679 49.4405 55.0896 49.5419 55.1745 49.6714C55.2594 49.8008 55.3037 49.9525 55.3019 50.107C55.2976 50.3119 55.2132 50.507 55.0665 50.6508C54.9198 50.7947 54.7225 50.876 54.5165 50.8773Z" fill="#9A9B9B"/>
<path d="M52.6233 50.1367C52.622 50.2913 52.5744 50.442 52.4867 50.5697C52.399 50.6974 52.2751 50.7962 52.1308 50.8537C51.9865 50.9111 51.8282 50.9246 51.6762 50.8925C51.5241 50.8603 51.3852 50.7839 51.2769 50.6729C51.1686 50.562 51.0959 50.4215 51.0681 50.2694C51.0403 50.1173 51.0585 49.9603 51.1206 49.8186C51.1826 49.6768 51.2856 49.5566 51.4165 49.4731C51.5474 49.3897 51.7003 49.3469 51.8557 49.3501C52.0614 49.3561 52.2566 49.4416 52.4 49.5885C52.5433 49.7354 52.6234 49.932 52.6233 50.1367Z" fill="#9A9B9B"/>
<path d="M51.216 52.464C51.3714 52.4635 51.5234 52.5089 51.6528 52.5945C51.7822 52.6801 51.8831 52.802 51.9427 52.9447C52.0023 53.0875 52.0179 53.2446 51.9875 53.3962C51.9571 53.5478 51.8821 53.687 51.7721 53.7961C51.662 53.9052 51.5218 53.9793 51.3693 54.009C51.2168 54.0387 51.0588 54.0227 50.9155 53.9629C50.7722 53.9031 50.65 53.8023 50.5644 53.6733C50.4788 53.5443 50.4336 53.3929 50.4347 53.2384C50.4379 53.0335 50.5213 52.838 50.6672 52.6933C50.8131 52.5487 51.01 52.4664 51.216 52.464Z" fill="#9A9B9B"/>
<path d="M54.9752 53.6039C54.9758 53.7585 54.9301 53.9097 54.8441 54.0384C54.758 54.1671 54.6354 54.2675 54.4919 54.3267C54.3484 54.386 54.1904 54.4015 54.038 54.3713C53.8856 54.3411 53.7456 54.2665 53.6359 54.157C53.5262 54.0475 53.4517 53.9081 53.4219 53.7564C53.392 53.6047 53.4082 53.4476 53.4683 53.305C53.5284 53.1625 53.6297 53.0409 53.7594 52.9558C53.8891 52.8706 54.0413 52.8257 54.1967 52.8268C54.4029 52.8293 54.5999 52.912 54.7454 53.0573C54.891 53.2026 54.9735 53.3988 54.9752 53.6039Z" fill="#9A9B9B"/>
<path d="M49.7814 55.2014C49.7808 55.356 49.7341 55.5069 49.6471 55.635C49.5602 55.7631 49.4369 55.8626 49.293 55.9209C49.149 55.9791 48.9909 55.9935 48.8388 55.9623C48.6866 55.931 48.5472 55.8554 48.4382 55.7452C48.3293 55.6349 48.2558 55.495 48.227 55.3431C48.1982 55.1912 48.2155 55.0342 48.2766 54.8921C48.3376 54.7499 48.4398 54.6291 48.5701 54.5448C48.7004 54.4606 48.8529 54.4168 49.0083 54.4189C49.2143 54.4231 49.4106 54.5074 49.555 54.6536C49.6995 54.7998 49.7807 54.9964 49.7814 55.2014Z" fill="#9A9B9B"/>
<path d="M16.4882 54.7437C16.6436 54.7423 16.7959 54.787 16.9257 54.8719C17.0556 54.9568 17.1571 55.0782 17.2174 55.2207C17.2778 55.3631 17.2942 55.5202 17.2646 55.6719C17.235 55.8237 17.1608 55.9632 17.0513 56.0729C16.9418 56.1826 16.802 56.2574 16.6496 56.2879C16.4973 56.3184 16.3392 56.3032 16.1956 56.2441C16.052 56.1851 15.9292 56.085 15.8429 55.9564C15.7567 55.8279 15.7107 55.6767 15.711 55.5221C15.7131 55.3172 15.7955 55.1213 15.9406 54.9759C16.0858 54.8305 16.2822 54.7472 16.4882 54.7437Z" fill="#9A9B9B"/>
<path d="M20.2189 55.5209C20.2194 55.6754 20.1738 55.8267 20.0877 55.9554C20.0016 56.0841 19.8791 56.1845 19.7355 56.2437C19.592 56.303 19.434 56.3185 19.2816 56.2883C19.1292 56.2581 18.9893 56.1835 18.8796 56.074C18.7699 55.9645 18.6954 55.8251 18.6655 55.6734C18.6357 55.5217 18.6518 55.3646 18.7119 55.222C18.772 55.0795 18.8733 54.9579 19.003 54.8728C19.1327 54.7876 19.285 54.7427 19.4404 54.7438C19.6463 54.747 19.8429 54.8299 19.9883 54.975C20.1337 55.1202 20.2164 55.316 20.2189 55.5209Z" fill="#9A9B9B"/>
<path d="M23.1589 55.5302C23.1575 55.6848 23.11 55.8355 23.0223 55.9631C22.9347 56.0907 22.8109 56.1896 22.6666 56.2471C22.5224 56.3046 22.3642 56.3182 22.2122 56.2861C22.0602 56.2541 21.9212 56.1778 21.8129 56.067C21.7045 55.9561 21.6318 55.8158 21.6038 55.6638C21.5758 55.5117 21.5938 55.3549 21.6557 55.213C21.7175 55.0712 21.8203 54.9509 21.951 54.8673C22.0817 54.7838 22.2345 54.7407 22.3899 54.7437C22.5958 54.7493 22.7914 54.8347 22.935 54.9816C23.0786 55.1285 23.1589 55.3253 23.1589 55.5302Z" fill="#9A9B9B"/>
<path d="M26.0988 55.5275C26.0979 55.682 26.0509 55.8329 25.9638 55.9608C25.8766 56.0888 25.7531 56.1881 25.6091 56.2461C25.465 56.3041 25.3069 56.3182 25.1548 56.2867C25.0027 56.2552 24.8634 56.1793 24.7547 56.0689C24.6459 55.9585 24.5727 55.8184 24.5441 55.6664C24.5156 55.5145 24.5331 55.3576 24.5945 55.2155C24.6558 55.0735 24.7582 54.9528 24.8886 54.8688C25.0191 54.7848 25.1717 54.7412 25.327 54.7436C25.533 54.7486 25.7288 54.8332 25.873 54.9796C26.0171 55.126 26.0981 55.3226 26.0988 55.5275Z" fill="#9A9B9B"/>
<path d="M28.252 54.7437C28.4074 54.7431 28.5594 54.7885 28.6888 54.8741C28.8182 54.9597 28.9191 55.0817 28.9787 55.2244C29.0383 55.3672 29.0539 55.5243 29.0235 55.6759C28.9931 55.8275 28.9181 55.9667 28.8081 56.0758C28.698 56.1849 28.5578 56.259 28.4053 56.2887C28.2528 56.3184 28.0948 56.3023 27.9515 56.2426C27.8082 56.1828 27.686 56.082 27.6004 55.953C27.5148 55.824 27.4696 55.6726 27.4707 55.518C27.4739 55.3132 27.5573 55.1176 27.7032 54.973C27.8491 54.8284 28.046 54.7461 28.252 54.7437Z" fill="#9A9B9B"/>
<path d="M31.984 55.529C31.9829 55.6835 31.9357 55.8343 31.8482 55.9621C31.7608 56.0899 31.6372 56.1889 31.4931 56.2467C31.3489 56.3045 31.1908 56.3183 31.0387 56.2865C30.8866 56.2547 30.7475 56.1787 30.639 56.068C30.5304 55.9574 30.4574 55.8172 30.4291 55.6652C30.4009 55.5132 30.4187 55.3563 30.4803 55.2144C30.5418 55.0725 30.6444 54.952 30.775 54.8682C30.9056 54.7844 31.0583 54.7411 31.2136 54.7438C31.4197 54.7487 31.6156 54.8336 31.7596 54.9803C31.9035 55.1271 31.9841 55.324 31.984 55.529Z" fill="#9A9B9B"/>
<path d="M34.9185 55.518C34.9195 55.6726 34.8744 55.824 34.7888 55.953C34.7032 56.082 34.581 56.1828 34.4377 56.2426C34.2943 56.3023 34.1364 56.3184 33.9839 56.2887C33.8314 56.259 33.6912 56.1849 33.5811 56.0758C33.471 55.9667 33.396 55.8275 33.3657 55.6759C33.3353 55.5243 33.3509 55.3672 33.4105 55.2244C33.47 55.0817 33.571 54.9597 33.7004 54.8741C33.8297 54.7885 33.9818 54.7431 34.1372 54.7437C34.3432 54.7461 34.5401 54.8284 34.686 54.973C34.8319 55.1176 34.9153 55.3132 34.9185 55.518Z" fill="#9A9B9B"/>
<path d="M37.0663 56.3033C36.9109 56.3017 36.7595 56.2541 36.6313 56.1667C36.5032 56.0793 36.404 55.956 36.3464 55.8125C36.2889 55.6689 36.2755 55.5115 36.308 55.3604C36.3405 55.2093 36.4175 55.0711 36.529 54.9636C36.6406 54.856 36.7819 54.7839 36.9348 54.7563C37.0877 54.7287 37.2453 54.747 37.3878 54.8087C37.5303 54.8704 37.6511 54.9729 37.7349 55.1031C37.8186 55.2332 37.8617 55.3852 37.8584 55.5398C37.8524 55.7446 37.7663 55.939 37.6183 56.0816C37.4704 56.2242 37.2723 56.3037 37.0663 56.3033Z" fill="#9A9B9B"/>
<path d="M40.0144 54.7438C40.1698 54.7443 40.3215 54.7908 40.4503 54.8773C40.5791 54.9638 40.6791 55.0864 40.7377 55.2296C40.7963 55.3727 40.8108 55.53 40.7793 55.6814C40.7479 55.8327 40.6719 55.9714 40.5611 56.0797C40.4502 56.1881 40.3095 56.2612 40.1568 56.2898C40.0041 56.3185 39.8463 56.3013 39.7034 56.2406C39.5605 56.1798 39.439 56.0782 39.3543 55.9486C39.2696 55.819 39.2255 55.6673 39.2277 55.5127C39.2319 55.3078 39.3166 55.1126 39.4636 54.9689C39.6106 54.8252 39.8083 54.7444 40.0144 54.7438Z" fill="#9A9B9B"/>
<path d="M42.9475 54.7437C43.1029 54.7423 43.2552 54.787 43.385 54.8719C43.5148 54.9568 43.6164 55.0782 43.6767 55.2207C43.7371 55.3631 43.7535 55.5202 43.7239 55.6719C43.6943 55.8237 43.6201 55.9632 43.5106 56.0729C43.401 56.1826 43.2612 56.2574 43.1089 56.2879C42.9565 56.3184 42.7985 56.3032 42.6549 56.2441C42.5113 56.1851 42.3885 56.085 42.3022 55.9564C42.216 55.8279 42.17 55.6767 42.1703 55.5221C42.1724 55.3172 42.2548 55.1213 42.3999 54.9759C42.5451 54.8305 42.7415 54.7472 42.9475 54.7437Z" fill="#9A9B9B"/>
<path d="M46.6836 55.5316C46.682 55.6862 46.6342 55.8367 46.5463 55.9642C46.4585 56.0917 46.3345 56.1903 46.1901 56.2476C46.0458 56.3049 45.8876 56.3182 45.7357 56.2858C45.5837 56.2535 45.4448 56.177 45.3367 56.066C45.2286 55.955 45.156 55.8145 45.1283 55.6624C45.1006 55.5104 45.1189 55.3535 45.181 55.2118C45.2431 55.0701 45.3461 54.95 45.4769 54.8666C45.6078 54.7833 45.7606 54.7405 45.916 54.7437C46.122 54.7494 46.3177 54.8349 46.4611 54.9822C46.6046 55.1294 46.6844 55.3266 46.6836 55.5316Z" fill="#9A9B9B"/>
<path d="M53.5706 56.3425C53.5692 56.497 53.5217 56.6477 53.4341 56.7753C53.3464 56.903 53.2226 57.0018 53.0784 57.0594C52.9342 57.1169 52.776 57.1305 52.624 57.0984C52.472 57.0663 52.333 56.99 52.2246 56.8792C52.1163 56.7684 52.0435 56.6281 52.0155 56.476C51.9875 56.324 52.0056 56.1671 52.0674 56.0253C52.1292 55.8835 52.232 55.7632 52.3628 55.6796C52.4935 55.596 52.6462 55.553 52.8016 55.5559C53.0075 55.5616 53.2031 55.6469 53.3467 55.7938C53.4904 55.9407 53.5707 56.1376 53.5706 56.3425Z" fill="#9A9B9B"/>
<path d="M51.1207 57.8994C51.1198 58.054 51.0729 58.2048 50.9857 58.3328C50.8985 58.4607 50.775 58.56 50.631 58.618C50.487 58.676 50.3288 58.6902 50.1767 58.6586C50.0246 58.6271 49.8853 58.5513 49.7766 58.4409C49.6679 58.3304 49.5946 58.1903 49.5661 58.0384C49.5375 57.8865 49.555 57.7295 49.6164 57.5875C49.6777 57.4455 49.7801 57.3248 49.9105 57.2408C50.041 57.1567 50.1936 57.1132 50.3489 57.1156C50.5549 57.1205 50.7508 57.2052 50.8949 57.3516C51.039 57.498 51.12 57.6945 51.1207 57.8994Z" fill="#9A9B9B"/>
<path d="M47.326 58.935C47.1706 58.9339 47.0191 58.8869 46.8906 58.8C46.7621 58.713 46.6625 58.5901 46.6044 58.4467C46.5463 58.3034 46.5324 58.1461 46.5644 57.9948C46.5964 57.8435 46.6728 57.7051 46.784 57.5972C46.8953 57.4892 47.0362 57.4166 47.189 57.3885C47.3418 57.3604 47.4996 57.3781 47.6423 57.4393C47.7849 57.5006 47.9061 57.6026 47.9903 57.7325C48.0746 57.8624 48.1181 58.0143 48.1154 58.1688C48.1101 58.3736 48.0247 58.5683 47.8772 58.7114C47.7298 58.8545 47.532 58.9348 47.326 58.935Z" fill="#9A9B9B"/>
<path d="M20.8654 57.4403C21.0208 57.439 21.1731 57.4836 21.303 57.5685C21.4328 57.6535 21.5343 57.7749 21.5947 57.9173C21.655 58.0597 21.6715 58.2168 21.6419 58.3686C21.6123 58.5203 21.538 58.6599 21.4285 58.7696C21.319 58.8792 21.1792 58.9541 21.0269 58.9846C20.8745 59.015 20.7165 58.9998 20.5729 58.9408C20.4292 58.8818 20.3065 58.7816 20.2202 58.6531C20.1339 58.5245 20.088 58.3733 20.0883 58.2188C20.0904 58.0139 20.1727 57.8179 20.3179 57.6725C20.463 57.5272 20.6595 57.4439 20.8654 57.4403Z" fill="#9A9B9B"/>
<path d="M25.0535 58.2162C25.0543 58.3707 25.0089 58.5221 24.9231 58.6509C24.8372 58.7798 24.7148 58.8803 24.5714 58.9399C24.428 58.9994 24.27 59.0152 24.1176 58.9852C23.9651 58.9553 23.825 58.8809 23.7152 58.7716C23.6053 58.6623 23.5305 58.523 23.5004 58.3714C23.4703 58.2197 23.4862 58.0626 23.546 57.9199C23.6058 57.7773 23.707 57.6555 23.8365 57.5702C23.966 57.4848 24.1182 57.4396 24.2736 57.4404C24.4797 57.4429 24.6766 57.5254 24.8223 57.6704C24.968 57.8153 25.051 58.0112 25.0535 58.2162Z" fill="#9A9B9B"/>
<path d="M27.6585 59C27.5031 58.9983 27.3517 58.9508 27.2236 58.8634C27.0954 58.776 26.9962 58.6527 26.9387 58.5091C26.8811 58.3656 26.8677 58.2082 26.9002 58.0571C26.9327 57.9059 27.0097 57.7678 27.1213 57.6602C27.2329 57.5527 27.3741 57.4805 27.527 57.4529C27.6799 57.4254 27.8376 57.4436 27.98 57.5053C28.1225 57.5671 28.2433 57.6696 28.3271 57.7997C28.4109 57.9299 28.4539 58.0819 28.4507 58.2364C28.4446 58.4412 28.3585 58.6356 28.2105 58.7782C28.0626 58.9209 27.8645 59.0004 27.6585 59Z" fill="#9A9B9B"/>
<path d="M30.6747 59C30.5193 59.0005 30.3672 58.9551 30.2378 58.8695C30.1084 58.7839 30.0075 58.662 29.9479 58.5193C29.8883 58.3765 29.8727 58.2193 29.9031 58.0678C29.9335 57.9162 30.0085 57.777 30.1186 57.6679C30.2287 57.5588 30.3689 57.4846 30.5214 57.455C30.6739 57.4253 30.8318 57.4413 30.9751 57.5011C31.1184 57.5609 31.2407 57.6617 31.3263 57.7907C31.4119 57.9197 31.457 58.0711 31.4559 58.2256C31.4535 58.4307 31.3703 58.6267 31.2242 58.7714C31.0781 58.9162 30.8809 58.9983 30.6747 59Z" fill="#9A9B9B"/>
<path d="M34.0732 57.4404C34.2286 57.4413 34.3803 57.488 34.5089 57.5747C34.6376 57.6614 34.7374 57.7842 34.7957 57.9275C34.854 58.0708 34.8683 58.228 34.8365 58.3794C34.8048 58.5307 34.7286 58.6692 34.6176 58.7774C34.5066 58.8855 34.3657 58.9584 34.213 58.9868C34.0602 59.0151 33.9024 58.9977 33.7596 58.9367C33.6169 58.8757 33.4955 58.7738 33.411 58.6441C33.3266 58.5144 33.2828 58.3626 33.2852 58.208C33.2902 58.0032 33.3753 57.8084 33.5225 57.665C33.6696 57.5216 33.8673 57.4411 34.0732 57.4404Z" fill="#9A9B9B"/>
<path d="M37.4923 57.4403C37.6477 57.439 37.8 57.4836 37.9298 57.5685C38.0596 57.6535 38.1612 57.7749 38.2215 57.9173C38.2819 58.0597 38.2983 58.2168 38.2687 58.3686C38.2391 58.5203 38.1649 58.6599 38.0554 58.7696C37.9459 58.8792 37.806 58.9541 37.6537 58.9846C37.5013 59.015 37.3433 58.9998 37.1997 58.9408C37.0561 58.8818 36.9333 58.7816 36.847 58.6531C36.7608 58.5245 36.7148 58.3733 36.7151 58.2188C36.7172 58.0139 36.7996 57.8179 36.9447 57.6725C37.0899 57.5272 37.2863 57.4439 37.4923 57.4403Z" fill="#9A9B9B"/>
<path d="M41.2883 58.2135C41.2897 58.368 41.2448 58.5195 41.1594 58.6486C41.074 58.7778 40.952 58.8788 40.8088 58.9388C40.6656 58.9988 40.5077 59.0152 40.3551 58.9857C40.2026 58.9563 40.0622 58.8825 39.952 58.7735C39.8417 58.6646 39.7665 58.5256 39.7358 58.374C39.7051 58.2225 39.7205 58.0653 39.7798 57.9225C39.8391 57.7796 39.9398 57.6575 40.0691 57.5717C40.1983 57.4858 40.3503 57.4402 40.5057 57.4404C40.7117 57.4425 40.9087 57.5245 41.0549 57.6688C41.201 57.8132 41.2848 58.0086 41.2883 58.2135Z" fill="#9A9B9B"/>
<path d="M43.8961 57.4404C44.0515 57.4394 44.2037 57.4843 44.3334 57.5694C44.4631 57.6546 44.5644 57.7761 44.6245 57.9187C44.6846 58.0612 44.7008 58.2183 44.6709 58.37C44.6411 58.5217 44.5665 58.6612 44.4569 58.7706C44.3472 58.8801 44.2072 58.9547 44.0548 58.985C43.9024 59.0152 43.7444 58.9997 43.6009 58.9404C43.4574 58.8811 43.3348 58.7808 43.2487 58.6521C43.1627 58.5233 43.117 58.3721 43.1176 58.2175C43.12 58.0127 43.2027 57.8168 43.3481 57.6717C43.4935 57.5266 43.6901 57.4436 43.8961 57.4404Z" fill="#9A9B9B"/>
<path d="M30.2146 38.9261C26.8827 38.9261 23.5454 38.9261 20.2189 38.9261C20.0202 38.9316 19.8272 38.8594 19.6814 38.725C19.5356 38.5906 19.4486 38.4047 19.439 38.2072C19.4387 38.1096 19.4578 38.013 19.4952 37.9228C19.5327 37.8326 19.5878 37.7507 19.6572 37.6818C19.7267 37.613 19.8093 37.5585 19.9001 37.5216C19.9909 37.4846 20.0882 37.466 20.1863 37.4667H40.16C40.5179 37.4667 40.8024 37.5845 40.9494 37.9229C40.9962 38.0329 41.0147 38.1527 41.0033 38.2715C40.9919 38.3903 40.9509 38.5045 40.8841 38.6036C40.8172 38.7028 40.7266 38.7838 40.6204 38.8394C40.5142 38.895 40.3957 38.9234 40.2757 38.922L30.2146 38.9261Z" fill="#363636"/>
<path d="M30.2309 42.5271C33.552 42.5271 36.873 42.5271 40.194 42.5204C40.2949 42.5147 40.396 42.529 40.4913 42.5624C40.5866 42.5959 40.6744 42.6477 40.7494 42.7151C40.8245 42.7824 40.8853 42.8639 40.9285 42.9548C40.9718 43.0457 40.9964 43.1442 41.0011 43.2447C40.9916 43.6833 40.6758 43.9838 40.1926 43.9838H20.2175C20.0275 43.9897 19.8426 43.9219 19.7018 43.7949C19.561 43.6678 19.4753 43.4913 19.4628 43.3026C19.4502 43.1139 19.5119 42.9277 19.6346 42.7833C19.7574 42.6389 19.9317 42.5475 20.1209 42.5285C20.2734 42.5285 20.4258 42.5285 20.5782 42.5285L30.2309 42.5271Z" fill="#363636"/>
<path d="M26.5711 32.4277C28.6835 32.4277 30.7904 32.4277 32.9082 32.4209C33.0081 32.4164 33.108 32.4317 33.2019 32.4659C33.2958 32.5001 33.382 32.5526 33.4553 32.6203C33.5287 32.6879 33.5877 32.7694 33.6291 32.86C33.6705 32.9506 33.6933 33.0485 33.6963 33.1479C33.7058 33.5541 33.3696 33.8682 32.9259 33.8817C32.8987 33.8817 32.8715 33.8817 32.8442 33.8817H20.2856C19.8338 33.8817 19.5547 33.6827 19.4622 33.3009C19.4382 33.197 19.4379 33.089 19.4614 32.985C19.4848 32.8809 19.5314 32.7835 19.5978 32.6997C19.6641 32.6159 19.7485 32.548 19.8446 32.5009C19.9408 32.4539 20.0464 32.4289 20.1536 32.4277C21.4167 32.4277 22.6798 32.4277 23.9428 32.4277H26.5711Z" fill="#363636"/>
<path d="M7.8277 20.8962V18.6705C7.8277 18.2292 8.02097 18.0329 8.46332 18.037C9.13296 18.037 9.80125 18.018 10.4709 18.0559C12.0048 18.1453 13.042 19.2148 13.0692 20.7432C13.0933 21.2145 13.0225 21.6858 12.8609 22.1295C12.5084 23.0122 11.8265 23.4914 10.9146 23.6836C10.6317 23.7383 10.3439 23.7642 10.0558 23.7608C9.51134 23.7608 8.9778 23.7743 8.43882 23.7608C7.98558 23.7486 7.82906 23.5713 7.8277 23.1232V20.8962ZM9.1003 22.7414C9.55898 22.7265 10.0054 22.7698 10.4491 22.7048C11.1297 22.6047 11.5734 22.2134 11.7353 21.5433C11.8459 21.0947 11.8398 20.6256 11.7176 20.18C11.6646 19.952 11.5537 19.7412 11.3955 19.568C11.2373 19.3947 11.037 19.2647 10.8139 19.1904C10.2558 18.99 9.67875 19.0889 9.1003 19.0631V22.7414Z" fill="#1074B7"/>
<path d="M19.5003 20.9097C19.525 21.3544 19.4525 21.7992 19.288 22.2134C18.8619 23.2463 18.063 23.7608 16.9605 23.8379C16.5691 23.872 16.1748 23.8349 15.7968 23.7283C15.4128 23.6279 15.0595 23.4353 14.7679 23.1674C14.4762 22.8995 14.2551 22.5644 14.124 22.1917C13.8002 21.3533 13.8055 20.4244 14.139 19.5897C14.5324 18.5933 15.3136 18.0924 16.3644 17.9936C16.8639 17.9328 17.3708 17.9922 17.8425 18.1669C18.8102 18.55 19.3056 19.2946 19.4758 20.2896C19.4912 20.3696 19.5012 20.4506 19.5057 20.532C19.5044 20.6606 19.5003 20.7851 19.5003 20.9097ZM15.1748 20.9097C15.1695 21.1748 15.1978 21.4395 15.2592 21.6976C15.4388 22.4178 15.952 22.8564 16.6311 22.87C17.4029 22.8862 17.9282 22.5112 18.1392 21.7693C18.3091 21.1884 18.3029 20.5706 18.1215 19.9931C17.9146 19.3163 17.411 18.9683 16.7074 18.9683C16.0037 18.9683 15.5137 19.3244 15.2959 19.9972C15.2076 20.2927 15.1667 20.6002 15.1748 20.9083V20.9097Z" fill="#1074B7"/>
<path d="M20.3129 20.9043C20.2827 20.2852 20.4422 19.6715 20.7702 19.1444C20.973 18.8281 21.2458 18.5622 21.5678 18.3669C21.8898 18.1717 22.2525 18.0524 22.6281 18.018C23.4447 17.9151 24.2205 18.041 24.9092 18.5325C25.0086 18.5907 25.0868 18.6789 25.1326 18.7843C25.1783 18.8896 25.1892 19.0067 25.1637 19.1187C25.093 19.4774 24.8058 19.6196 24.4832 19.4503C24.3471 19.3799 24.2219 19.2947 24.0898 19.2202C23.7097 19.0115 23.269 18.9394 22.8417 19.0158C22.5793 19.0453 22.3322 19.1541 22.1337 19.3273C21.9352 19.5006 21.7947 19.7301 21.7311 19.9851C21.544 20.5953 21.544 21.2472 21.7311 21.8574C21.9189 22.4788 22.3831 22.805 23.0364 22.8443C23.4741 22.8594 23.9062 22.7429 24.2763 22.5099C24.3762 22.4443 24.483 22.3898 24.5948 22.3475C24.6453 22.3264 24.6996 22.3158 24.7543 22.3165C24.8091 22.3172 24.8631 22.3291 24.913 22.3514C24.9629 22.3738 25.0077 22.4061 25.0445 22.4464C25.0813 22.4867 25.1094 22.5342 25.127 22.5857C25.1847 22.7068 25.1969 22.8445 25.1611 22.9737C25.1254 23.1029 25.0442 23.215 24.9323 23.2897C24.2613 23.7811 23.5005 23.9206 22.6893 23.8312C21.2139 23.6647 20.3877 22.583 20.3156 21.1846C20.3088 21.0884 20.3129 20.9964 20.3129 20.9043Z" fill="#1074B7"/>
</svg>
