<svg width="57" height="61" viewBox="0 0 57 61" fill="none" xmlns="http://www.w3.org/2000/svg">
<path d="M8.04442 28.7102H6.86466C6.21038 28.7258 5.57142 28.5083 5.05906 28.0956C4.54671 27.6828 4.19343 27.1009 4.06075 26.4513C4.01561 26.2227 3.99713 25.9894 4.0057 25.7564C4.0057 22.9833 4.01881 20.2103 4.0057 17.4385C3.98909 16.8159 4.17268 16.2046 4.52878 15.697C4.88488 15.1894 5.39417 14.8129 5.97984 14.6243C6.33861 14.5298 6.70933 14.4904 7.07964 14.5074C7.39949 14.5074 7.71933 14.5074 8.03918 14.5074H12.5367C12.5367 13.9838 12.5367 13.4802 12.5367 12.9753C12.528 12.6579 12.5678 12.341 12.6547 12.0359C13.0401 10.7856 14.1268 9.99099 15.4586 9.99099H38.5911C39.1986 9.9768 39.8064 9.99587 40.4119 10.0481C41.035 10.0979 41.6289 10.3368 42.116 10.7338C42.6653 11.2001 43.1149 11.7635 43.5973 12.295C43.6784 12.3502 43.7501 12.4184 43.8096 12.497L45.0366 13.843C45.051 13.924 45.1192 13.9639 45.1677 14.0184C45.8375 14.7718 46.5493 15.4866 47.1588 16.2932C47.6498 16.9148 47.97 17.6569 48.0869 18.4444C48.1485 18.9664 48.1748 19.492 48.1656 20.0176C48.1656 25.8304 48.1678 31.6436 48.1721 37.4572C48.1721 41.9217 48.1721 46.3854 48.1721 50.8482C48.1721 52.052 47.6635 52.9555 46.6162 53.5295C46.2325 53.7373 45.8031 53.8429 45.3682 53.8365H15.2974C14.6681 53.8234 14.0611 53.5979 13.5725 53.1957C13.0839 52.7936 12.7415 52.2377 12.5996 51.6162C12.5948 51.5213 12.573 51.4281 12.5354 51.3411C12.5354 50.8628 12.5354 50.3844 12.5354 49.9048C12.5354 49.841 12.5354 49.7719 12.5354 49.7148V40.9132C12.5354 40.8441 12.5354 40.7804 12.5354 40.706C12.54 40.5596 12.5897 40.4185 12.6777 40.3024C12.7657 40.1863 12.8874 40.1011 13.0257 40.0589C13.1662 40.0154 13.3166 40.0176 13.4558 40.0653C13.595 40.1129 13.716 40.2036 13.8017 40.3246C13.9052 40.4913 13.9513 40.688 13.9328 40.884V50.8654C13.9294 51.0035 13.94 51.1415 13.9642 51.2774C14.0406 51.6093 14.2284 51.9039 14.4955 52.1109C14.7626 52.3179 15.0924 52.4244 15.4284 52.4121C25.3699 52.4059 35.311 52.4059 45.2516 52.4121C45.3718 52.4171 45.4923 52.4086 45.6107 52.3868C46.3409 52.2168 46.759 51.6507 46.759 50.8415C46.759 40.7706 46.759 30.6993 46.759 20.6275C46.7706 20.5674 46.7633 20.5051 46.7381 20.4494H41.4947C41.2385 20.4482 40.9837 20.4097 40.7383 20.3352C40.1433 20.1622 39.6206 19.7966 39.2499 19.2942C38.8792 18.7918 38.681 18.1802 38.6855 17.5528C38.6855 15.573 38.6855 13.591 38.6855 11.6067V11.4207H15.4835C15.3518 11.4191 15.2203 11.4288 15.0902 11.4499C14.7939 11.5089 14.5241 11.6627 14.3204 11.8888C14.1168 12.1148 13.9901 12.4011 13.959 12.7056C13.9236 13.2849 13.9498 13.8642 13.9459 14.4436C13.95 14.4659 13.9566 14.4878 13.9655 14.5087H24.9767C25.2123 14.4987 25.4484 14.5147 25.6806 14.5565C26.3213 14.6888 26.8962 15.044 27.3058 15.5606C27.7153 16.0772 27.9339 16.7227 27.9234 17.3854C27.9234 20.197 27.9234 23.0086 27.9234 25.8202C27.9252 25.9847 27.9138 26.1491 27.8894 26.3118C27.7844 26.9798 27.4475 27.5878 26.9395 28.0263C26.4314 28.4648 25.7855 28.705 25.1182 28.7035C23.6763 28.7035 22.2344 28.7035 20.7924 28.7035C20.6932 28.7043 20.5947 28.6872 20.5014 28.653C20.3447 28.5965 20.2128 28.4855 20.1292 28.3397C20.0456 28.1939 20.0158 28.0227 20.0451 27.8567C20.0744 27.6907 20.1608 27.5406 20.289 27.4331C20.4172 27.3257 20.5789 27.2678 20.7452 27.2698C22.2134 27.2698 23.6815 27.2698 25.1497 27.2698C25.5087 27.2657 25.852 27.1197 26.1064 26.8628C26.3608 26.6059 26.5062 26.2585 26.5117 25.8946V17.3163C26.5134 17.2635 26.5112 17.2106 26.5051 17.1582C26.4565 16.8093 26.2823 16.4909 26.0162 16.2643C25.75 16.0377 25.4106 15.9188 25.0632 15.9304C18.9983 15.9357 12.9321 15.9357 6.86466 15.9304C6.73921 15.9267 6.61378 15.9383 6.49107 15.965C6.17879 16.0332 5.90003 16.2104 5.70337 16.4656C5.50671 16.7208 5.40461 17.0378 5.41486 17.3615C5.40962 20.189 5.40962 23.0166 5.41486 25.8441C5.41445 26.0346 5.45171 26.2233 5.52445 26.3989C5.59718 26.5746 5.7039 26.7337 5.83832 26.8669C5.97274 27 6.13212 27.1045 6.30705 27.1742C6.48198 27.2439 6.66891 27.2773 6.8568 27.2725C9.74984 27.2592 12.6442 27.2725 15.5385 27.2725H17.5363C17.6567 27.2705 17.7756 27.2999 17.8817 27.3578C17.9877 27.4158 18.0773 27.5003 18.1418 27.6033C18.2064 27.7064 18.2438 27.8245 18.2505 27.9464C18.2572 28.0683 18.2329 28.1899 18.1799 28.2996C18.1222 28.4246 18.029 28.5293 17.9122 28.6003C17.7955 28.6713 17.6605 28.7054 17.5245 28.6982C16.3919 28.6982 15.2593 28.6982 14.1268 28.6982C14.0662 28.688 14.0041 28.6949 13.9472 28.7181V37.3204C13.9472 37.4091 13.9428 37.4978 13.9341 37.5861C13.922 37.69 13.8872 37.7899 13.8323 37.8786C13.7775 37.9672 13.7038 38.0424 13.6167 38.0986C13.5296 38.1548 13.4313 38.1907 13.3288 38.2036C13.2264 38.2166 13.1224 38.2062 13.0243 38.1734C12.6953 38.0618 12.5419 37.8146 12.5419 37.3934V28.7035H12.1657L9.46014 28.7115L8.04442 28.7102ZM40.1065 11.4499C40.1065 11.4898 40.1065 11.515 40.1065 11.5403V17.6618C40.106 17.7062 40.1091 17.7507 40.1157 17.7946C40.1752 18.1439 40.3564 18.4598 40.6263 18.6851C40.8962 18.9104 41.2369 19.0301 41.5864 19.0224C43.2473 19.0051 44.9094 19.0224 46.5676 19.0157C46.6214 19.0157 46.6804 19.0343 46.7289 18.9998C46.7117 18.6388 46.6355 18.2832 46.5034 17.9474C46.2701 17.3854 45.8847 16.931 45.4875 16.4858C44.5621 15.4565 43.6327 14.4316 42.6993 13.4112C42.2602 12.9328 41.8486 12.4292 41.3885 11.9748C41.0442 11.6384 40.5847 11.4503 40.1065 11.4499Z" fill="#363636"/>
<path d="M45.0353 13.8417L43.8083 12.4957C43.7488 12.4172 43.6771 12.349 43.596 12.2938C43.6484 12.2539 43.6261 12.1954 43.6261 12.1463C43.6261 11.0673 43.6261 9.98841 43.6261 8.90948C43.6276 8.53361 43.483 8.17225 43.2237 7.90363C42.8947 7.54753 42.483 7.41997 42.0072 7.41997C31.7004 7.41997 21.3932 7.41997 11.0856 7.41997H10.9755C10.7727 7.41737 10.5715 7.45638 10.3839 7.53466C10.1964 7.61294 10.0264 7.72887 9.88426 7.87547C9.74208 8.02208 9.63064 8.19632 9.55662 8.38772C9.48261 8.57912 9.44756 8.78371 9.45359 8.9892V13.7859C9.45359 14.0251 9.45359 14.2643 9.46014 14.5034H8.03918C8.03918 14.4343 8.05098 14.3706 8.05098 14.2975C8.05098 12.5276 8.05098 10.7577 8.05098 8.98256C8.04261 8.57256 8.12006 8.16543 8.27822 7.78799C8.43639 7.41054 8.67167 7.07136 8.96858 6.79281C9.49248 6.27624 10.1961 5.9898 10.927 5.99557H42.1842C42.8811 6.00825 43.5503 6.27453 44.0696 6.74581C44.5889 7.21709 44.9238 7.86194 45.013 8.56268C45.0308 8.72593 45.0396 8.89006 45.0392 9.05431C45.0392 10.6514 45.0379 12.2473 45.0353 13.8417Z" fill="#1074B7"/>
<path d="M8.04443 28.7101H9.46015C9.46015 28.7832 9.46015 28.8576 9.46015 28.932C9.46015 35.3684 9.46015 41.8043 9.46015 48.2398C9.46014 48.383 9.47066 48.526 9.49161 48.6676C9.55068 48.974 9.70118 49.2545 9.92275 49.4712C10.1443 49.688 10.4262 49.8305 10.7304 49.8794C11.3307 49.9459 11.9337 49.9007 12.5367 49.9034C12.5367 50.383 12.5367 50.8614 12.5367 51.3397C12.0333 51.3397 11.5313 51.3397 11.0279 51.3331C10.6266 51.3409 10.2279 51.2642 9.85726 51.108C9.48657 50.9518 9.15184 50.7195 8.8742 50.4255C8.60682 50.1496 8.39641 49.8224 8.25528 49.4631C8.11415 49.1038 8.04515 48.7195 8.0523 48.3328C8.0523 44.4963 8.0523 40.6611 8.0523 36.8273C8.0523 34.192 8.0523 31.5571 8.0523 28.9227C8.05099 28.8483 8.04706 28.7792 8.04443 28.7101Z" fill="#1074B7"/>
<path d="M50.8292 22.7469C50.8281 22.8986 50.7826 23.0465 50.6984 23.1719C50.6142 23.2974 50.4952 23.3946 50.3563 23.4513C50.2175 23.508 50.0652 23.5216 49.9188 23.4904C49.7723 23.4592 49.6383 23.3845 49.5338 23.276C49.4292 23.1674 49.3589 23.0298 49.3317 22.8806C49.3045 22.7314 49.3216 22.5774 49.3809 22.4381C49.4402 22.2988 49.539 22.1806 49.6648 22.0983C49.7906 22.0161 49.9376 21.9736 50.0872 21.9762C50.2856 21.9814 50.4741 22.0648 50.6126 22.2088C50.7512 22.3527 50.8289 22.5457 50.8292 22.7469Z" fill="#9A9B9B"/>
<path d="M53.409 25.7643C53.4103 25.916 53.3671 26.0647 53.2849 26.1915C53.2026 26.3182 53.0851 26.4174 52.9472 26.4763C52.8092 26.5352 52.6571 26.5512 52.5102 26.5223C52.3633 26.4934 52.2281 26.4209 52.1219 26.314C52.0157 26.2071 51.9433 26.0707 51.9138 25.9219C51.8842 25.7732 51.899 25.6189 51.9561 25.4787C52.0133 25.3385 52.1103 25.2187 52.2347 25.1344C52.3592 25.0502 52.5056 25.0054 52.6553 25.0056C52.8536 25.0077 53.0434 25.0881 53.1842 25.2298C53.3249 25.3715 53.4056 25.5633 53.409 25.7643Z" fill="#9A9B9B"/>
<path d="M50.8292 25.8069C50.8284 25.9586 50.7831 26.1067 50.6992 26.2322C50.6152 26.3578 50.4963 26.4553 50.3576 26.5122C50.2189 26.5692 50.0666 26.583 49.92 26.5521C49.7735 26.5211 49.6394 26.4467 49.5347 26.3383C49.43 26.2299 49.3594 26.0924 49.3319 25.9433C49.3044 25.7942 49.3213 25.6401 49.3804 25.5007C49.4395 25.3614 49.5381 25.2429 49.6637 25.1604C49.7893 25.078 49.9363 25.0352 50.0859 25.0376C50.2843 25.0424 50.4729 25.1255 50.6117 25.2692C50.7505 25.4129 50.8286 25.6058 50.8292 25.8069Z" fill="#9A9B9B"/>
<path d="M52.6461 29.5978C52.4964 29.5962 52.3506 29.5495 52.2272 29.4637C52.1037 29.378 52.0082 29.2569 51.9528 29.116C51.8973 28.9751 51.8844 28.8207 51.9158 28.6724C51.9471 28.524 52.0212 28.3884 52.1286 28.2829C52.2361 28.1773 52.3721 28.1065 52.5194 28.0794C52.6666 28.0524 52.8185 28.0703 52.9557 28.1309C53.0929 28.1915 53.2092 28.292 53.29 28.4198C53.3707 28.5475 53.4121 28.6967 53.409 28.8484C53.4032 29.0494 53.3202 29.2402 53.1777 29.3802C53.0352 29.5202 52.8445 29.5982 52.6461 29.5978Z" fill="#9A9B9B"/>
<path d="M50.8292 28.859C50.8303 29.0107 50.7868 29.1593 50.7044 29.286C50.6219 29.4126 50.5042 29.5115 50.3662 29.5702C50.2281 29.6288 50.076 29.6446 49.9292 29.6154C49.7823 29.5863 49.6473 29.5136 49.5412 29.4065C49.4352 29.2994 49.363 29.1628 49.3337 29.014C49.3045 28.8652 49.3195 28.711 49.3769 28.5709C49.4343 28.4307 49.5314 28.3111 49.6561 28.2271C49.7807 28.1431 49.9271 28.0985 50.0768 28.099C50.2754 28.1007 50.4654 28.1813 50.606 28.3234C50.7467 28.4654 50.8268 28.6578 50.8292 28.859Z" fill="#9A9B9B"/>
<path d="M52.6461 32.6539C52.4964 32.6523 52.3506 32.6057 52.2272 32.5199C52.1037 32.4341 52.0082 32.3131 51.9528 32.1722C51.8973 32.0313 51.8844 31.8769 51.9158 31.7285C51.9471 31.5802 52.0212 31.4446 52.1286 31.339C52.2361 31.2335 52.3721 31.1626 52.5194 31.1356C52.6666 31.1085 52.8185 31.1264 52.9557 31.187C53.0929 31.2476 53.2092 31.3482 53.29 31.4759C53.3707 31.6037 53.4121 31.7529 53.409 31.9045C53.4032 32.1056 53.3202 32.2964 53.1777 32.4363C53.0352 32.5763 52.8445 32.6544 52.6461 32.6539Z" fill="#9A9B9B"/>
<path d="M50.8292 31.919C50.8305 32.0707 50.7873 32.2194 50.7051 32.3461C50.6228 32.4729 50.5053 32.572 50.3674 32.6309C50.2295 32.6898 50.0774 32.7059 49.9304 32.677C49.7835 32.6481 49.6484 32.5756 49.5422 32.4687C49.436 32.3618 49.3635 32.2253 49.334 32.0766C49.3045 31.9279 49.3192 31.7736 49.3764 31.6334C49.4335 31.4932 49.5305 31.3733 49.655 31.2891C49.7795 31.2049 49.9258 31.16 50.0755 31.1603C50.2739 31.1623 50.4636 31.2428 50.6044 31.3845C50.7451 31.5261 50.8258 31.7179 50.8292 31.919Z" fill="#9A9B9B"/>
<path d="M52.65 35.7206C52.5003 35.7198 52.3543 35.6739 52.2304 35.5888C52.1065 35.5037 52.0104 35.3832 51.9542 35.2426C51.898 35.102 51.8843 34.9476 51.9149 34.7991C51.9454 34.6506 52.0188 34.5146 52.1258 34.4085C52.2327 34.3023 52.3683 34.2308 52.5155 34.2029C52.6626 34.1751 52.8145 34.1922 52.9521 34.2521C53.0896 34.312 53.2064 34.4119 53.2878 34.5392C53.3691 34.6666 53.4113 34.8155 53.409 34.9672C53.4042 35.1683 53.3222 35.3595 53.1805 35.5002C53.0387 35.6409 52.8484 35.72 52.65 35.7206Z" fill="#9A9B9B"/>
<path d="M50.8292 34.9925C50.8281 35.1442 50.7826 35.2921 50.6984 35.4176C50.6142 35.543 50.4952 35.6402 50.3563 35.6969C50.2175 35.7536 50.0652 35.7672 49.9188 35.736C49.7723 35.7048 49.6383 35.6301 49.5338 35.5216C49.4292 35.413 49.3589 35.2754 49.3317 35.1262C49.3045 34.977 49.3216 34.823 49.3809 34.6837C49.4402 34.5444 49.539 34.4262 49.6648 34.3439C49.7906 34.2617 49.9376 34.2192 50.0872 34.2218C50.2856 34.227 50.4741 34.3104 50.6126 34.4544C50.7512 34.5983 50.8289 34.7914 50.8292 34.9925Z" fill="#9A9B9B"/>
<path d="M52.6605 38.782C52.5108 38.7833 52.3641 38.7395 52.2391 38.6562C52.114 38.5728 52.0162 38.4537 51.9581 38.3139C51.9 38.1741 51.8842 38.0199 51.9127 37.871C51.9412 37.722 52.0127 37.585 52.1181 37.4774C52.2236 37.3698 52.3583 37.2963 52.505 37.2664C52.6517 37.2365 52.8039 37.2514 52.9422 37.3093C53.0805 37.3673 53.1988 37.4656 53.2819 37.5917C53.365 37.7179 53.4092 37.8663 53.4089 38.018C53.4069 38.2191 53.3276 38.4114 53.1878 38.5541C53.048 38.6968 52.8588 38.7786 52.6605 38.782Z" fill="#9A9B9B"/>
<path d="M50.8292 38.0697C50.825 38.2214 50.7764 38.3683 50.6896 38.4918C50.6028 38.6154 50.4818 38.71 50.3418 38.7637C50.2019 38.8174 50.0493 38.8278 49.9036 38.7934C49.7578 38.7591 49.6254 38.6816 49.5232 38.5709C49.421 38.4602 49.3535 38.3211 49.3293 38.1714C49.3052 38.0217 49.3255 37.8681 49.3876 37.7302C49.4497 37.5922 49.5509 37.476 49.6783 37.3964C49.8057 37.3168 49.9535 37.2774 50.103 37.2831C50.3013 37.2925 50.4882 37.3799 50.6239 37.5268C50.7595 37.6737 50.8332 37.8686 50.8292 38.0697Z" fill="#9A9B9B"/>
<path d="M53.409 41.0846C53.4077 41.2363 53.3619 41.3842 53.2775 41.5095C53.1931 41.6348 53.0739 41.7318 52.9349 41.7882C52.796 41.8447 52.6437 41.858 52.4973 41.8265C52.3509 41.795 52.217 41.7202 52.1127 41.6114C52.0083 41.5027 51.9382 41.3649 51.9113 41.2157C51.8843 41.0665 51.9017 40.9125 51.9613 40.7733C52.0208 40.6341 52.1198 40.516 52.2457 40.434C52.3716 40.352 52.5187 40.3097 52.6684 40.3126C52.8667 40.3182 53.0551 40.4019 53.1934 40.5461C53.3317 40.6903 53.4091 40.8835 53.409 41.0846Z" fill="#9A9B9B"/>
<path d="M50.0715 40.3445C50.2212 40.344 50.3676 40.3885 50.4923 40.4726C50.6169 40.5566 50.7141 40.6762 50.7715 40.8163C50.8289 40.9565 50.8439 41.1107 50.8146 41.2595C50.7853 41.4083 50.7131 41.5449 50.6071 41.652C50.5011 41.759 50.3661 41.8318 50.2192 41.8609C50.0723 41.8901 49.9202 41.8743 49.7822 41.8156C49.6441 41.757 49.5264 41.6581 49.444 41.5314C49.3615 41.4048 49.3181 41.2562 49.3191 41.1045C49.3222 40.9035 49.4025 40.7115 49.543 40.5696C49.6835 40.4276 49.8732 40.3469 50.0715 40.3445Z" fill="#9A9B9B"/>
<path d="M52.6605 44.9048C52.5108 44.9061 52.3641 44.8623 52.2391 44.779C52.114 44.6956 52.0162 44.5765 51.9581 44.4367C51.9 44.2969 51.8842 44.1427 51.9127 43.9938C51.9412 43.8448 52.0127 43.7079 52.1181 43.6002C52.2236 43.4926 52.3583 43.4191 52.505 43.3892C52.6517 43.3593 52.8039 43.3742 52.9422 43.4321C53.0805 43.4901 53.1988 43.5884 53.2819 43.7145C53.365 43.8407 53.4092 43.9891 53.4089 44.1408C53.4069 44.3419 53.3276 44.5342 53.1878 44.6769C53.048 44.8196 52.8588 44.9014 52.6605 44.9048Z" fill="#9A9B9B"/>
<path d="M50.8292 44.1727C50.8289 44.3245 50.7842 44.4727 50.7006 44.5985C50.6171 44.7244 50.4985 44.8223 50.36 44.8797C50.2215 44.9372 50.0693 44.9516 49.9226 44.9211C49.776 44.8907 49.6416 44.8168 49.5365 44.7088C49.4314 44.6007 49.3604 44.4635 49.3324 44.3145C49.3044 44.1654 49.3208 44.0113 49.3794 43.8717C49.438 43.7321 49.5362 43.6133 49.6615 43.5304C49.7868 43.4475 49.9337 43.4042 50.0833 43.4061C50.2817 43.4102 50.4706 43.4926 50.6099 43.6358C50.7492 43.779 50.8279 43.9717 50.8292 44.1727Z" fill="#9A9B9B"/>
<path d="M53.409 47.2047C53.4082 47.3564 53.3629 47.5045 53.279 47.6301C53.195 47.7556 53.0761 47.8531 52.9374 47.91C52.7987 47.967 52.6464 47.9809 52.4999 47.9499C52.3534 47.9189 52.2192 47.8445 52.1145 47.7361C52.0098 47.6278 51.9392 47.4903 51.9118 47.3411C51.8843 47.192 51.9012 47.038 51.9602 46.8986C52.0193 46.7592 52.1179 46.6407 52.2435 46.5583C52.3691 46.4758 52.5161 46.433 52.6658 46.4354C52.8641 46.4402 53.0527 46.5233 53.1916 46.667C53.3304 46.8107 53.4084 47.0036 53.409 47.2047Z" fill="#9A9B9B"/>
<path d="M50.082 46.4727C50.2317 46.4743 50.3775 46.5209 50.5009 46.6067C50.6244 46.6925 50.7199 46.8135 50.7753 46.9544C50.8308 47.0953 50.8437 47.2498 50.8124 47.3981C50.781 47.5464 50.7069 47.682 50.5995 47.7876C50.492 47.8932 50.356 47.964 50.2087 47.991C50.0615 48.0181 49.9096 48.0002 49.7724 47.9396C49.6352 47.879 49.5189 47.7784 49.4382 47.6507C49.3575 47.5229 49.316 47.3737 49.3191 47.2221C49.3249 47.021 49.4079 46.8302 49.5504 46.6903C49.6929 46.5503 49.8836 46.4722 50.082 46.4727Z" fill="#9A9B9B"/>
<path d="M52.6579 51.0275C52.5082 51.0283 52.3617 50.984 52.2369 50.9002C52.1122 50.8164 52.0148 50.6969 51.9572 50.5569C51.8995 50.4169 51.8842 50.2627 51.9132 50.1138C51.9423 49.965 52.0142 49.8283 52.1201 49.721C52.2259 49.6137 52.3608 49.5407 52.5076 49.5113C52.6545 49.4819 52.8066 49.4974 52.9447 49.5559C53.0829 49.6143 53.2007 49.713 53.2834 49.8395C53.3661 49.9659 53.4098 50.1144 53.409 50.2662C53.4066 50.4673 53.3267 50.6596 53.1864 50.8019C53.046 50.9441 52.8564 51.0251 52.6579 51.0275Z" fill="#9A9B9B"/>
<path d="M50.0794 51.0594C49.9297 51.0604 49.7831 51.0164 49.6582 50.9328C49.5333 50.8492 49.4357 50.7299 49.3778 50.59C49.32 50.4501 49.3044 50.2959 49.3332 50.147C49.3619 49.9981 49.4337 49.8613 49.5393 49.7538C49.645 49.6463 49.7797 49.5731 49.9265 49.5435C50.0733 49.5138 50.2254 49.529 50.3637 49.5872C50.5019 49.6454 50.62 49.7439 50.7028 49.8702C50.7857 49.9965 50.8297 50.145 50.8292 50.2967C50.8272 50.4979 50.7476 50.6903 50.6075 50.8328C50.4674 50.9753 50.2778 51.0566 50.0794 51.0594Z" fill="#9A9B9B"/>
<path d="M49.4778 54.1209C49.3281 54.1212 49.1817 54.0763 49.0573 53.9921C48.9328 53.9079 48.8358 53.788 48.7787 53.6478C48.7215 53.5076 48.7067 53.3533 48.7363 53.2046C48.7658 53.0559 48.8383 52.9194 48.9445 52.8125C49.0507 52.7056 49.1858 52.6331 49.3327 52.6042C49.4797 52.5753 49.6317 52.5914 49.7697 52.6503C49.9076 52.7092 50.0251 52.8083 50.1074 52.9351C50.1896 53.0618 50.2328 53.2105 50.2315 53.3622C50.2281 53.5633 50.1474 53.755 50.0067 53.8967C49.8659 54.0384 49.6761 54.1189 49.4778 54.1209Z" fill="#9A9B9B"/>
<path d="M53.0944 53.7103C53.0936 53.8621 53.0483 54.0101 52.9643 54.1357C52.8804 54.2613 52.7615 54.3587 52.6228 54.4157C52.484 54.4726 52.3318 54.4865 52.1852 54.4555C52.0387 54.4245 51.9046 54.3501 51.7999 54.2418C51.6952 54.1334 51.6246 53.9959 51.5971 53.8467C51.5696 53.6976 51.5865 53.5436 51.6456 53.4042C51.7047 53.2648 51.8033 53.1463 51.9289 53.0639C52.0545 52.9814 52.2015 52.9386 52.3511 52.941C52.5495 52.9459 52.7381 53.029 52.8769 53.1726C53.0157 53.3163 53.0937 53.5092 53.0944 53.7103Z" fill="#9A9B9B"/>
<path d="M48.0921 55.2663C48.0926 55.418 48.0487 55.5664 47.9658 55.6927C47.8829 55.8191 47.7648 55.9176 47.6266 55.9757C47.4884 56.0339 47.3362 56.0491 47.1894 56.0195C47.0427 55.9898 46.9079 55.9166 46.8022 55.8091C46.6966 55.7017 46.6248 55.5648 46.5961 55.4159C46.5673 55.267 46.5829 55.1128 46.6408 54.9729C46.6986 54.833 46.7962 54.7137 46.9211 54.6301C47.0461 54.5466 47.1927 54.5025 47.3423 54.5036C47.5407 54.5067 47.73 54.5881 47.87 54.7305C48.0101 54.873 48.0898 55.0652 48.0921 55.2663Z" fill="#9A9B9B"/>
<path d="M16.0393 56.3532C15.8896 56.3542 15.743 56.3102 15.6181 56.2266C15.4932 56.143 15.3956 56.0237 15.3377 55.8838C15.2799 55.7439 15.2643 55.5897 15.2931 55.4408C15.3218 55.2919 15.3936 55.1551 15.4992 55.0476C15.6049 54.9402 15.7396 54.8669 15.8864 54.8373C16.0332 54.8076 16.1854 54.8228 16.3236 54.881C16.4618 54.9392 16.5799 55.0377 16.6627 55.164C16.7456 55.2903 16.7896 55.4388 16.7891 55.5905C16.787 55.7917 16.7075 55.9841 16.5674 56.1266C16.4273 56.2691 16.2377 56.3504 16.0393 56.3532Z" fill="#9A9B9B"/>
<path d="M19.6206 55.5931C19.6195 55.7448 19.574 55.8927 19.4898 56.0181C19.4056 56.1436 19.2865 56.2408 19.1477 56.2975C19.0089 56.3542 18.8566 56.3678 18.7101 56.3366C18.5637 56.3054 18.4297 56.2307 18.3251 56.1222C18.2206 56.0136 18.1503 55.876 18.1231 55.7268C18.0958 55.5776 18.113 55.4236 18.1723 55.2843C18.2316 55.145 18.3304 55.0268 18.4562 54.9445C18.5819 54.8623 18.729 54.8198 18.8786 54.8224C19.077 54.8276 19.2655 54.911 19.404 55.0549C19.5426 55.1989 19.6203 55.3919 19.6206 55.5931Z" fill="#9A9B9B"/>
<path d="M21.7022 56.3532C21.5525 56.3542 21.4059 56.3102 21.281 56.2266C21.1561 56.143 21.0585 56.0237 21.0006 55.8838C20.9428 55.7439 20.9272 55.5897 20.956 55.4408C20.9847 55.2919 21.0565 55.1551 21.1621 55.0476C21.2678 54.9402 21.4025 54.8669 21.5493 54.8373C21.6961 54.8076 21.8483 54.8228 21.9865 54.881C22.1247 54.9392 22.2428 55.0377 22.3256 55.164C22.4085 55.2903 22.4525 55.4388 22.452 55.5905C22.4496 55.7916 22.3699 55.9838 22.2299 56.1262C22.0899 56.2687 21.9005 56.3501 21.7022 56.3532Z" fill="#9A9B9B"/>
<path d="M24.5362 54.8225C24.6859 54.8241 24.8317 54.8708 24.9551 54.9566C25.0785 55.0423 25.1741 55.1634 25.2295 55.3043C25.2849 55.4452 25.2978 55.5996 25.2665 55.748C25.2352 55.8963 25.1611 56.0319 25.0536 56.1374C24.9462 56.243 24.8102 56.3138 24.6629 56.3409C24.5156 56.368 24.3638 56.3501 24.2266 56.2895C24.0894 56.2288 23.973 56.1283 23.8923 56.0005C23.8116 55.8728 23.7702 55.7236 23.7733 55.5719C23.7791 55.3709 23.8621 55.1801 24.0046 55.0401C24.147 54.9002 24.3378 54.8221 24.5362 54.8225Z" fill="#9A9B9B"/>
<path d="M27.3584 56.3531C27.2088 56.3528 27.0625 56.3074 26.9384 56.2228C26.8142 56.1381 26.7176 56.0179 26.6609 55.8775C26.6043 55.7371 26.5901 55.5828 26.6201 55.4342C26.6501 55.2855 26.7231 55.1493 26.8296 55.0428C26.9362 54.9363 27.0716 54.8642 27.2186 54.8359C27.3656 54.8075 27.5177 54.8241 27.6554 54.8835C27.7931 54.9429 27.9103 55.0424 27.9921 55.1695C28.0739 55.2965 28.1166 55.4453 28.1148 55.597C28.111 55.7982 28.0298 55.9899 27.8885 56.1312C27.7471 56.2724 27.5569 56.3521 27.3584 56.3531Z" fill="#9A9B9B"/>
<path d="M30.1964 54.8225C30.3461 54.8236 30.4921 54.8697 30.6158 54.9551C30.7395 55.0404 30.8355 55.1611 30.8914 55.3018C30.9473 55.4425 30.9608 55.5969 30.93 55.7454C30.8992 55.8938 30.8255 56.0296 30.7184 56.1356C30.6113 56.2415 30.4755 56.3128 30.3284 56.3404C30.1812 56.368 30.0293 56.3506 29.8919 56.2905C29.7545 56.2304 29.6378 56.1302 29.5566 56.0028C29.4755 55.8753 29.4336 55.7263 29.4361 55.5746C29.4413 55.3735 29.5236 55.1825 29.6656 55.042C29.8076 54.9015 29.998 54.8228 30.1964 54.8225Z" fill="#9A9B9B"/>
<path d="M33.0371 54.8224C33.1867 54.8254 33.3321 54.8734 33.4547 54.9602C33.5774 55.0471 33.6719 55.169 33.7261 55.3104C33.7803 55.4517 33.7918 55.6063 33.7593 55.7543C33.7267 55.9024 33.6514 56.0373 33.543 56.1419C33.4347 56.2465 33.2981 56.3161 33.1506 56.3419C33.0031 56.3676 32.8514 56.3484 32.7147 56.2866C32.5781 56.2248 32.4626 56.1232 32.383 55.9948C32.3034 55.8663 32.2632 55.7168 32.2676 55.5652C32.2751 55.3642 32.3597 55.1741 32.5034 55.0353C32.6472 54.8966 32.8386 54.8202 33.0371 54.8224Z" fill="#9A9B9B"/>
<path d="M36.6091 55.5838C36.6099 55.7355 36.5661 55.884 36.4835 56.0105C36.4008 56.1369 36.2829 56.2357 36.1448 56.2941C36.0067 56.3525 35.8545 56.368 35.7077 56.3386C35.5609 56.3092 35.426 56.2362 35.3201 56.1289C35.2143 56.0217 35.1423 55.8849 35.1133 55.7361C35.0843 55.5872 35.0996 55.433 35.1572 55.293C35.2149 55.153 35.3122 55.0335 35.437 54.9497C35.5618 54.8659 35.7083 54.8216 35.858 54.8224C36.0564 54.8248 36.2461 54.9058 36.3865 55.0481C36.5268 55.1903 36.6067 55.3826 36.6091 55.5838Z" fill="#9A9B9B"/>
<path d="M38.6855 54.8225C38.8352 54.8223 38.9816 54.8671 39.106 54.9513C39.2305 55.0356 39.3275 55.1554 39.3846 55.2956C39.4418 55.4358 39.4566 55.5901 39.427 55.7388C39.3975 55.8876 39.325 56.024 39.2188 56.1309C39.1126 56.2378 38.9775 56.3103 38.8306 56.3392C38.6836 56.3681 38.5316 56.3521 38.3936 56.2932C38.2557 56.2343 38.1382 56.1351 38.0559 56.0084C37.9737 55.8816 37.9305 55.7329 37.9318 55.5812C37.9352 55.3802 38.0159 55.1884 38.1566 55.0467C38.2974 54.905 38.4872 54.8246 38.6855 54.8225Z" fill="#9A9B9B"/>
<path d="M41.5117 54.8225C41.6614 54.8215 41.808 54.8655 41.9329 54.9491C42.0578 55.0327 42.1554 55.152 42.2133 55.2919C42.2711 55.4318 42.2867 55.586 42.2579 55.7349C42.2292 55.8838 42.1574 56.0206 42.0518 56.1281C41.9461 56.2356 41.8114 56.3088 41.6646 56.3384C41.5178 56.3681 41.3656 56.3529 41.2274 56.2947C41.0892 56.2365 40.9711 56.138 40.8883 56.0117C40.8054 55.8854 40.7614 55.7369 40.7619 55.5852C40.7643 55.3841 40.8439 55.1919 40.984 55.0495C41.124 54.9071 41.3134 54.8256 41.5117 54.8225Z" fill="#9A9B9B"/>
<path d="M45.1087 55.5917C45.1079 55.7434 45.0626 55.8914 44.9786 56.017C44.8947 56.1426 44.7758 56.2401 44.637 56.297C44.4983 56.354 44.346 56.3678 44.1995 56.3369C44.053 56.3059 43.9189 56.2315 43.8142 56.1231C43.7094 56.0147 43.6389 55.8772 43.6114 55.7281C43.5839 55.579 43.6008 55.4249 43.6599 55.2855C43.7189 55.1461 43.8176 55.0277 43.9432 54.9452C44.0688 54.8628 44.2158 54.82 44.3654 54.8224C44.5637 54.8272 44.7524 54.9103 44.8912 55.054C45.03 55.1977 45.108 55.3906 45.1087 55.5917Z" fill="#9A9B9B"/>
<path d="M51.7415 56.3864C51.7413 56.5381 51.6965 56.6863 51.613 56.8122C51.5295 56.938 51.4109 57.0359 51.2724 57.0934C51.1338 57.1508 50.9816 57.1652 50.835 57.1348C50.6884 57.1043 50.554 57.0304 50.4489 56.9224C50.3438 56.8144 50.2727 56.6771 50.2448 56.5281C50.2168 56.379 50.2331 56.2249 50.2917 56.0853C50.3503 55.9457 50.4485 55.8269 50.5739 55.744C50.6992 55.6611 50.846 55.6178 50.9957 55.6197C51.194 55.6238 51.3829 55.7063 51.5222 55.8495C51.6615 55.9926 51.7402 56.1853 51.7415 56.3864Z" fill="#9A9B9B"/>
<path d="M49.382 57.9131C49.3826 58.0648 49.3386 58.2133 49.2557 58.3396C49.1728 58.4659 49.0548 58.5644 48.9165 58.6226C48.7783 58.6808 48.6261 58.696 48.4794 58.6663C48.3326 58.6367 48.1978 58.5635 48.0922 58.456C47.9865 58.3485 47.9148 58.2117 47.886 58.0628C47.8573 57.9139 47.8728 57.7597 47.9307 57.6198C47.9886 57.4799 48.0862 57.3606 48.2111 57.277C48.336 57.1934 48.4826 57.1494 48.6322 57.1504C48.8306 57.1535 49.0199 57.2349 49.16 57.3774C49.3 57.5198 49.3797 57.712 49.382 57.9131Z" fill="#9A9B9B"/>
<path d="M46.4877 58.1735C46.4872 58.3252 46.4422 58.4733 46.3584 58.599C46.2747 58.7248 46.1559 58.8224 46.0173 58.8796C45.8787 58.9368 45.7264 58.951 45.5798 58.9203C45.4333 58.8895 45.299 58.8154 45.1941 58.7072C45.0892 58.599 45.0184 58.4616 44.9907 58.3125C44.9629 58.1634 44.9796 58.0094 45.0384 57.8699C45.0972 57.7304 45.1956 57.6118 45.3211 57.5291C45.4466 57.4464 45.5935 57.4034 45.7431 57.4055C45.9415 57.41 46.1303 57.4927 46.2693 57.6362C46.4084 57.7796 46.4867 57.9724 46.4877 58.1735Z" fill="#9A9B9B"/>
<path d="M21.0048 58.2279C21.0061 58.3796 20.9629 58.5283 20.8806 58.6551C20.7984 58.7818 20.6808 58.881 20.5429 58.9399C20.405 58.9988 20.2529 59.0148 20.106 58.9859C19.9591 58.9571 19.8239 58.8846 19.7177 58.7777C19.6115 58.6708 19.539 58.5343 19.5095 58.3855C19.48 58.2368 19.4948 58.0825 19.5519 57.9423C19.6091 57.8021 19.706 57.6823 19.8305 57.598C19.955 57.5138 20.1014 57.469 20.251 57.4692C20.4494 57.4713 20.6392 57.5517 20.7799 57.6934C20.9207 57.8351 21.0014 58.0269 21.0048 58.2279Z" fill="#9A9B9B"/>
<path d="M23.5243 57.4692C23.6739 57.4698 23.8201 57.5154 23.9441 57.6003C24.0682 57.6852 24.1645 57.8055 24.2209 57.946C24.2773 58.0866 24.2913 58.2409 24.261 58.3895C24.2307 58.538 24.1576 58.6741 24.0508 58.7805C23.9441 58.8868 23.8085 58.9586 23.6615 58.9867C23.5144 59.0148 23.3624 58.9979 23.2248 58.9383C23.0872 58.8787 22.9701 58.7789 22.8886 58.6517C22.807 58.5245 22.7645 58.3756 22.7666 58.2239C22.771 58.0229 22.8527 57.8315 22.9942 57.6906C23.1357 57.5496 23.3259 57.4702 23.5243 57.4692Z" fill="#9A9B9B"/>
<path d="M27.5433 58.2412C27.5419 58.3929 27.4962 58.5408 27.4118 58.6661C27.3274 58.7914 27.2081 58.8884 27.0692 58.9449C26.9303 59.0013 26.778 59.0146 26.6316 58.9832C26.4852 58.9517 26.3513 58.8768 26.247 58.768C26.1426 58.6593 26.0725 58.5215 26.0456 58.3723C26.0186 58.2231 26.036 58.0691 26.0955 57.9299C26.1551 57.7908 26.2541 57.6727 26.38 57.5906C26.5059 57.5086 26.653 57.4664 26.8026 57.4693C27.001 57.4748 27.1893 57.5586 27.3277 57.7027C27.466 57.8469 27.5433 58.0401 27.5433 58.2412Z" fill="#9A9B9B"/>
<path d="M29.6813 57.4693C29.831 57.468 29.9776 57.5117 30.1027 57.5951C30.2277 57.6785 30.3255 57.7976 30.3836 57.9374C30.4418 58.0772 30.4576 58.2314 30.4291 58.3803C30.4006 58.5292 30.3291 58.6662 30.2236 58.7739C30.1181 58.8815 29.9835 58.955 29.8368 58.9849C29.69 59.0148 29.5379 58.9999 29.3995 58.9419C29.2612 58.884 29.143 58.7857 29.0599 58.6595C28.9768 58.5334 28.9325 58.385 28.9328 58.2333C28.9348 58.0322 29.0142 57.8399 29.154 57.6972C29.2937 57.5545 29.4829 57.4727 29.6813 57.4693Z" fill="#9A9B9B"/>
<path d="M33.7147 58.2333C33.715 58.385 33.6708 58.5334 33.5877 58.6595C33.5046 58.7857 33.3863 58.884 33.248 58.9419C33.1097 58.9999 32.9575 59.0148 32.8108 58.9849C32.664 58.955 32.5294 58.8815 32.4239 58.7739C32.3185 58.6662 32.247 58.5292 32.2185 58.3803C32.19 58.2314 32.2058 58.0772 32.2639 57.9374C32.322 57.7976 32.4198 57.6785 32.5449 57.5951C32.6699 57.5117 32.8166 57.468 32.9663 57.4693C33.1646 57.4727 33.3538 57.5545 33.4936 57.6972C33.6334 57.8399 33.7127 58.0322 33.7147 58.2333Z" fill="#9A9B9B"/>
<path d="M37.0181 58.2412C37.0168 58.3929 36.971 58.5408 36.8866 58.6661C36.8022 58.7914 36.683 58.8884 36.5441 58.9449C36.4052 59.0013 36.2528 59.0146 36.1064 58.9832C35.96 58.9517 35.8261 58.8768 35.7218 58.768C35.6175 58.6593 35.5474 58.5215 35.5204 58.3723C35.4934 58.2231 35.5108 58.0691 35.5704 57.9299C35.6299 57.7908 35.729 57.6727 35.8549 57.5906C35.9808 57.5086 36.1279 57.4664 36.2775 57.4693C36.4758 57.4748 36.6642 57.5586 36.8025 57.7027C36.9408 57.8469 37.0182 58.0401 37.0181 58.2412Z" fill="#9A9B9B"/>
<path d="M39.9125 58.2306C39.9133 58.3823 39.8695 58.5308 39.7869 58.6573C39.7042 58.7838 39.5863 58.8825 39.4482 58.9409C39.3101 58.9993 39.1579 59.0148 39.0111 58.9854C38.8643 58.956 38.7294 58.883 38.6236 58.7758C38.5177 58.6685 38.4457 58.5318 38.4167 58.3829C38.3877 58.2341 38.403 58.0799 38.4606 57.9399C38.5183 57.7999 38.6157 57.6804 38.7404 57.5966C38.8652 57.5128 39.0117 57.4685 39.1614 57.4692C39.3598 57.4717 39.5495 57.5527 39.6899 57.6949C39.8302 57.8372 39.9101 58.0294 39.9125 58.2306Z" fill="#9A9B9B"/>
<path d="M42.4306 57.4692C42.5803 57.4695 42.7265 57.5149 42.8507 57.5995C42.9749 57.6842 43.0714 57.8044 43.1281 57.9448C43.1847 58.0852 43.199 58.2395 43.1689 58.3882C43.1389 58.5368 43.066 58.673 42.9594 58.7795C42.8528 58.886 42.7174 58.9581 42.5704 58.9864C42.4234 59.0148 42.2714 58.9982 42.1336 58.9388C41.9959 58.8794 41.8787 58.7799 41.7969 58.6528C41.7151 58.5258 41.6724 58.377 41.6743 58.2253C41.6783 58.0242 41.7597 57.8327 41.9009 57.6915C42.0422 57.5503 42.2322 57.4706 42.4306 57.4692Z" fill="#9A9B9B"/>
<path d="M29.2631 39.2975C26.0489 39.2975 22.84 39.2975 19.6218 39.2975C19.4302 39.3033 19.244 39.2326 19.1033 39.1006C18.9626 38.9687 18.8786 38.786 18.8694 38.5919C18.8576 38.1933 19.1696 37.8877 19.5891 37.8651H38.8258C39.1692 37.8651 39.4432 37.9807 39.5861 38.3129C39.6311 38.4208 39.649 38.5384 39.638 38.655C39.627 38.7717 39.5875 38.8837 39.5232 38.981C39.4588 39.0783 39.3715 39.1578 39.2692 39.2124C39.1669 39.267 39.0528 39.2948 38.9372 39.2935L29.2631 39.2975Z" fill="#363636"/>
<path d="M29.2631 42.832C32.455 42.832 35.6483 42.832 38.8415 42.8253C39.3252 42.8253 39.6477 43.1774 39.6359 43.5508C39.6228 43.976 39.3147 44.2617 38.8428 44.2617H19.6205C19.4335 44.2744 19.2491 44.2112 19.108 44.0861C18.9669 43.961 18.8806 43.7842 18.8681 43.5947C18.8556 43.4051 18.9179 43.2182 19.0413 43.0752C19.1647 42.9321 19.3391 42.8446 19.5261 42.832C19.5943 42.832 19.6572 42.832 19.7306 42.832H29.2631Z" fill="#363636"/>
<path d="M25.7396 32.9196C27.7727 32.9196 29.8032 32.9196 31.8416 32.913C31.9378 32.9085 32.034 32.9236 32.1244 32.9571C32.2149 32.9907 32.2979 33.0422 32.3685 33.1086C32.4391 33.175 32.496 33.255 32.5359 33.3439C32.5757 33.4329 32.5977 33.5289 32.6005 33.6265C32.6084 34.0252 32.2859 34.3334 31.8573 34.3467C31.8311 34.3467 31.8049 34.3467 31.7786 34.3467H19.6782C19.2443 34.3467 18.9743 34.1514 18.8917 33.7767C18.8686 33.6747 18.8683 33.5687 18.8909 33.4666C18.9135 33.3645 18.9584 33.2688 19.0223 33.1866C19.0861 33.1044 19.1674 33.0377 19.26 32.9915C19.3527 32.9453 19.4544 32.9208 19.5576 32.9196C20.795 32.9196 22.0325 32.9196 23.2699 32.9196H25.7396Z" fill="#363636"/>
<path d="M13.8213 21.6094V19.4276C13.8213 18.9812 14.0049 18.7898 14.4387 18.7951C15.0784 18.7951 15.7181 18.7632 16.3552 18.8164C16.9188 18.8443 17.4616 19.0408 17.9151 19.3811C18.1818 19.5916 18.402 19.8564 18.5614 20.1585C18.7208 20.4607 18.8159 20.7933 18.8406 21.135C18.902 21.6183 18.8686 22.1092 18.7423 22.5794C18.4539 23.5772 17.7683 24.1273 16.7865 24.3373C16.3211 24.4369 15.8492 24.4077 15.3799 24.4117C15.0496 24.4117 14.7245 24.405 14.3902 24.4117C13.997 24.421 13.8135 24.1725 13.8187 23.8231C13.8292 23.1587 13.8187 22.5063 13.8187 21.8472L13.8213 21.6094ZM15.0509 23.4138C15.4979 23.3965 15.9384 23.447 16.3749 23.3713C16.6773 23.3356 16.9601 23.2015 17.1809 22.9889C17.4017 22.7764 17.5485 22.497 17.5992 22.1927C17.6561 21.8731 17.6667 21.5468 17.6307 21.2241C17.5704 20.5291 17.1955 20.0654 16.582 19.8874C16.0839 19.7438 15.5752 19.8236 15.0575 19.801L15.0509 23.4138Z" fill="#1074B7"/>
<path d="M9.79177 22.3004C9.79177 22.7322 9.79177 23.1401 9.79177 23.548C9.79334 23.6913 9.78765 23.8346 9.77472 23.9772C9.74064 24.2788 9.49158 24.4702 9.15731 24.4635C9.01422 24.4718 8.87354 24.4235 8.76478 24.3289C8.65603 24.2342 8.58765 24.1006 8.57399 23.956C8.57072 23.8922 8.57072 23.8284 8.57399 23.7646V19.4476C8.57399 18.9706 8.74964 18.7938 9.21892 18.7938C9.85862 18.7938 10.497 18.7938 11.1367 18.7938C11.4305 18.7886 11.7228 18.8377 11.9992 18.9387C12.6337 19.1845 12.9588 19.6655 13.0191 20.3392C13.0416 20.572 13.0279 20.8069 12.9784 21.0354C12.8238 21.7064 12.3073 22.1648 11.5942 22.2632C11.1092 22.3309 10.6215 22.2857 10.1352 22.299C10.0251 22.303 9.92154 22.3004 9.79177 22.3004ZM9.79177 19.7412V21.3689C10.2768 21.3503 10.7526 21.4035 11.2258 21.337C11.6401 21.2799 11.8616 21.0141 11.8721 20.589C11.8826 20.1305 11.6768 19.8435 11.2468 19.7758C10.7736 19.6987 10.2899 19.7651 9.7957 19.7412H9.79177Z" fill="#1074B7"/>
<path d="M21.0454 19.7772V21.0541C21.1018 21.0757 21.1628 21.0821 21.2224 21.0727H22.9042C22.9883 21.0698 23.0725 21.0743 23.1559 21.086C23.2593 21.0945 23.3554 21.1433 23.424 21.222C23.4927 21.3008 23.5286 21.4035 23.5242 21.5085C23.5373 21.7995 23.443 21.9444 23.2018 22.0161C23.1048 22.0394 23.005 22.0484 22.9055 22.0427H21.0598C21.0359 22.1015 21.0282 22.1658 21.0375 22.2287C21.0375 22.7762 21.0375 23.3236 21.0375 23.871C21.0452 24.0165 20.9964 24.1592 20.9016 24.2687C20.8068 24.3782 20.6735 24.4458 20.5302 24.457C20.3898 24.4832 20.2447 24.4574 20.1215 24.3842C19.9983 24.311 19.9052 24.1954 19.8591 24.0584C19.8374 23.9761 19.8285 23.8909 19.8329 23.8059V19.4078C19.8329 18.9853 20.0216 18.7953 20.4385 18.7939H23.0798C23.1426 18.7946 23.2053 18.7999 23.2673 18.8099C23.5583 18.8551 23.6815 18.9906 23.6855 19.2696C23.6894 19.5487 23.574 19.7108 23.2843 19.7613C23.2067 19.7734 23.1282 19.7783 23.0497 19.7759H21.0454V19.7772Z" fill="#1074B7"/>
</svg>
