<?xml version="1.0" encoding="utf-8"?>
<!-- Generator: Adobe Illustrator 16.0.0, SVG Export Plug-In . SVG Version: 6.00 Build 0)  -->
<!DOCTYPE svg PUBLIC "-//W3C//DTD SVG 1.1//EN" "http://www.w3.org/Graphics/SVG/1.1/DTD/svg11.dtd">
<svg version="1.1" id="Capa_1" xmlns="http://www.w3.org/2000/svg" xmlns:xlink="http://www.w3.org/1999/xlink" x="0px" y="0px"
	 width="43.52px" height="43.52px" viewBox="38.24 52.24 43.52 43.52" enable-background="new 38.24 52.24 43.52 43.52"
	 xml:space="preserve">
<title>Menu - Salir</title>
<path d="M69.279,64.72c-0.777-0.785-2.043-0.79-2.828-0.012c-0.004,0.004-0.008,0.008-0.012,0.012L60,71.18l-6.44-6.46
	c-0.784-0.785-2.056-0.785-2.84,0c-0.785,0.784-0.785,2.056,0,2.84L57.18,74l-6.46,6.439c-0.785,0.778-0.79,2.045-0.012,2.829
	c0.004,0.004,0.008,0.008,0.012,0.011c0.377,0.375,0.888,0.584,1.42,0.58c0.531,0.004,1.042-0.205,1.42-0.58L60,76.82l6.439,6.459
	c0.378,0.375,0.889,0.584,1.42,0.58c0.532,0.004,1.043-0.205,1.42-0.58c0.785-0.777,0.79-2.043,0.012-2.828
	c-0.004-0.004-0.008-0.008-0.012-0.012L62.82,74l6.459-6.44c0.785-0.778,0.79-2.044,0.012-2.829
	C69.287,64.728,69.283,64.724,69.279,64.72z"/>
<path d="M60,52.24c-12.018,0-21.76,9.742-21.76,21.76S47.982,95.76,60,95.76S81.76,86.018,81.76,74l0,0
	C81.749,61.987,72.014,52.251,60,52.24z M60,91.76c-9.809,0-17.76-7.951-17.76-17.76S50.191,56.24,60,56.24S77.76,64.191,77.76,74
	C77.749,83.805,69.805,91.749,60,91.76z"/>
</svg>
