<?xml version="1.0" encoding="utf-8"?>
<!-- Generator: Adobe Illustrator 16.0.0, SVG Export Plug-In . SVG Version: 6.00 Build 0)  -->
<!DOCTYPE svg PUBLIC "-//W3C//DTD SVG 1.1//EN" "http://www.w3.org/Graphics/SVG/1.1/DTD/svg11.dtd">
<svg version="1.1" id="Capa_1" xmlns="http://www.w3.org/2000/svg" xmlns:xlink="http://www.w3.org/1999/xlink" x="0px" y="0px"
	 width="43.5px" height="42.26px" viewBox="38.24 52.86 43.5 42.26" enable-background="new 38.24 52.86 43.5 42.26"
	 xml:space="preserve">
<title>Menu - Cerrar</title>
<path d="M58.1,81.42c-0.784,0.777-0.79,2.045-0.012,2.828c0.004,0.004,0.008,0.008,0.012,0.012c0.778,0.785,2.044,0.789,2.828,0.012
	c0.004-0.004,0.008-0.008,0.012-0.012l7.74-7.76c0.659-0.666,1.032-1.563,1.041-2.5l0,0l0,0c-0.021-0.928-0.394-1.814-1.041-2.48
	l-7.74-7.74c-0.784-0.784-2.055-0.784-2.839,0c-0.784,0.785-0.784,2.056,0,2.84L63.54,72h-23.3c-1.105,0-2,0.896-2,2s0.895,2,2,2
	h23.3L58.1,81.42z"/>
<path d="M73.74,52.86H52.9c-1.104,0-2,0.896-2,2s0.896,2,2,2h20.84c2.209,0,4,1.791,4,4v26.26c0,2.209-1.791,4-4,4H52.9
	c-1.104,0-2,0.896-2,2s0.896,2,2,2h20.84c4.418,0,8-3.582,8-8V60.88c0.011-4.418-3.563-8.009-7.98-8.02
	C73.754,52.86,73.746,52.86,73.74,52.86z"/>
</svg>
