<?xml version="1.0" encoding="utf-8"?>
<!-- Generator: Adobe Illustrator 16.0.0, SVG Export Plug-In . SVG Version: 6.00 Build 0)  -->
<!DOCTYPE svg PUBLIC "-//W3C//DTD SVG 1.1//EN" "http://www.w3.org/Graphics/SVG/1.1/DTD/svg11.dtd">
<svg version="1.1" id="Capa_1" xmlns="http://www.w3.org/2000/svg" xmlns:xlink="http://www.w3.org/1999/xlink" x="0px" y="0px"
	 width="55px" height="35.428px" viewBox="32.5 56.252 55 35.428" enable-background="new 32.5 56.252 55 35.428"
	 xml:space="preserve">
<title>Menu - Pagos</title>
<path d="M80.12,63.8h-3.5l-0.38-5.06c-0.106-1.477-1.389-2.587-2.865-2.481c-0.005,0-0.01,0.001-0.016,0.001L39.7,58.74
	c-1.485,0.106-2.604,1.395-2.5,2.88l1.7,23.08c0.104,1.405,1.271,2.493,2.68,2.5h0.2L44.5,87v2c0,1.48,1.2,2.68,2.68,2.68l0,0h32.94
	c1.479,0,2.68-1.199,2.68-2.68l0,0V66.48C82.8,65,81.6,63.8,80.12,63.8L80.12,63.8z M78.8,67.8v3.84H48.5V67.8H78.8z M42.8,83.1
	L41.28,62.64l31.08-2.3l0.261,3.46H47.18c-1.48,0-2.68,1.2-2.68,2.68l0,0v16.5L42.8,83.1z M48.5,87.74v-12h30.3v12H48.5z"/>
<rect x="51.94" y="79.7" width="15.701" height="4"/>
<rect x="71.04" y="79.7" width="4.319" height="4"/>
</svg>
