<?xml version="1.0" encoding="utf-8"?>
<!-- Generator: Adobe Illustrator 16.0.0, SVG Export Plug-In . SVG Version: 6.00 Build 0)  -->
<!DOCTYPE svg PUBLIC "-//W3C//DTD SVG 1.1//EN" "http://www.w3.org/Graphics/SVG/1.1/DTD/svg11.dtd">
<svg version="1.1" id="Capa_1" xmlns="http://www.w3.org/2000/svg" xmlns:xlink="http://www.w3.org/1999/xlink" x="0px" y="0px"
	 width="43.52px" height="41.64px" viewBox="38.24 53.86 43.52 41.64" enable-background="new 38.24 53.86 43.52 41.64"
	 xml:space="preserve">
<title>Menu - Vencimientos</title>
<path d="M79.18,60h-5.34v-6.14h-4V60H50.16v-6.14h-4V60h-5.34c-1.425,0-2.58,1.155-2.58,2.58l0,0v29c0,1.414,1.146,2.561,2.56,2.561
	c0.007,0,0.014,0,0.02,0h38.36c1.414,0.01,2.569-1.127,2.58-2.541c0-0.006,0-0.013,0-0.02V62.54C81.738,61.131,80.59,60,79.18,60z
	 M77.76,64v4H42.24v-4H77.76z M42.24,90.141V72h35.52v18.18L42.24,90.141z"/>
<path d="M49.68,74.98c-1.204,0-2.18,0.976-2.18,2.18c0,1.203,0.976,2.18,2.18,2.18c1.204,0,2.18-0.977,2.18-2.18
	C51.86,75.956,50.884,74.98,49.68,74.98L49.68,74.98z"/>
<circle cx="60" cy="77.16" r="2.18"/>
<path d="M70.32,74.98c-1.204,0.011-2.172,0.996-2.16,2.199c0.011,1.204,0.996,2.172,2.199,2.16c1.197-0.011,2.16-0.984,2.16-2.18
	c0-1.204-0.976-2.18-2.18-2.18C70.334,74.98,70.326,74.98,70.32,74.98z"/>
<path d="M49.68,82.76c-1.215-0.011-2.209,0.965-2.22,2.18c-0.011,1.215,0.965,2.209,2.18,2.221c1.215,0.011,2.209-0.965,2.22-2.18
	c0-0.014,0-0.027,0-0.041C51.86,83.736,50.884,82.76,49.68,82.76L49.68,82.76z"/>
<path d="M60,82.76c-1.215-0.011-2.209,0.965-2.22,2.18c-0.011,1.215,0.965,2.209,2.18,2.221c1.216,0.011,2.209-0.965,2.22-2.18
	c0-0.014,0-0.027,0-0.041C62.18,83.736,61.204,82.76,60,82.76L60,82.76z"/>
<path d="M70.32,82.76c-1.215,0-2.2,0.985-2.2,2.2c0,1.216,0.985,2.2,2.2,2.2s2.199-0.985,2.199-2.2c0-0.007,0-0.013,0-0.021
	c0-1.203-0.976-2.18-2.18-2.18C70.334,82.76,70.326,82.76,70.32,82.76z"/>
</svg>
