<?xml version="1.0" encoding="utf-8"?>
<!-- Generator: Adobe Illustrator 16.0.0, SVG Export Plug-In . SVG Version: 6.00 Build 0)  -->
<!DOCTYPE svg PUBLIC "-//W3C//DTD SVG 1.1//EN" "http://www.w3.org/Graphics/SVG/1.1/DTD/svg11.dtd">
<svg version="1.1" id="Capa_1" xmlns="http://www.w3.org/2000/svg" xmlns:xlink="http://www.w3.org/1999/xlink" x="0px" y="0px"
	 width="49.16px" height="42.231px" viewBox="35.412 52.889 49.16 42.231" enable-background="new 35.412 52.889 49.16 42.231"
	 xml:space="preserve">
<title>Menu - Home</title>
<path d="M75.88,77.4c-1.104,0-2,0.895-2,2v9.859c0,1.027-0.833,1.86-1.86,1.86l0,0h-4.799v-16.3c0-2.077-1.684-3.76-3.761-3.76
	h-6.92c-2.077,0-3.76,1.683-3.76,3.76v16.3H48c-1.027,0-1.86-0.833-1.86-1.86l0,0V79.4c0-1.105-0.896-2-2-2s-2,0.895-2,2v9.859
	c0.011,3.232,2.628,5.85,5.86,5.86h24c3.232-0.011,5.85-2.628,5.859-5.86V79.4C77.859,78.303,76.977,77.411,75.88,77.4z
	 M56.78,75.061h6.441v16H56.78V75.061z"/>
<path d="M84,74.66L63.62,54.34c-2.025-1.935-5.215-1.935-7.24,0L36,74.66c-0.784,0.784-0.784,2.056,0,2.84s2.056,0.784,2.84,0l0,0
	L59.2,57.16c0.452-0.417,1.148-0.417,1.6,0L81.12,77.5c0.378,0.375,0.888,0.583,1.42,0.58c0.532,0.003,1.042-0.205,1.42-0.58
	c0.796-0.767,0.818-2.033,0.052-2.828C84.008,74.668,84.004,74.664,84,74.66z"/>
</svg>
