<?xml version="1.0" encoding="utf-8"?>
<!-- Generator: Adobe Illustrator 16.0.0, SVG Export Plug-In . SVG Version: 6.00 Build 0)  -->
<!DOCTYPE svg PUBLIC "-//W3C//DTD SVG 1.1//EN" "http://www.w3.org/Graphics/SVG/1.1/DTD/svg11.dtd">
<svg version="1.1" id="Capa_1" xmlns="http://www.w3.org/2000/svg" xmlns:xlink="http://www.w3.org/1999/xlink" x="0px" y="0px"
	 width="54px" height="36.494px" viewBox="32.5 55.759 54 36.494" enable-background="new 32.5 55.759 54 36.494"
	 xml:space="preserve">
<title>Menu - EC</title>
<path d="M80.2,68.16H80v-5.6c-0.045-1.225-1.075-2.182-2.301-2.136c-0.066,0.002-0.133,0.008-0.199,0.016H60.96
	c-0.14-0.9-0.34-2-0.46-2.68c-0.22-1.154-1.225-1.992-2.4-2H42.96c-1.612-0.022-2.938,1.267-2.96,2.879c0,0.034,0,0.067,0,0.101
	v9.42h-0.2c-1.379-0.056-2.542,1.018-2.598,2.398C37.2,70.599,37.2,70.639,37.2,70.68L38.28,90c0.048,1.291,1.135,2.299,2.426,2.251
	c0.051-0.002,0.103-0.006,0.154-0.011h38.281c1.273,0.133,2.414-0.793,2.548-2.066c0.006-0.059,0.01-0.115,0.012-0.174l1.1-19.5
	C82.725,69.138,81.563,68.092,80.2,68.16z M44,59.86h12.8c0.18,0.92,0.34,2,0.38,2.3c0.133,1.304,1.229,2.296,2.54,2.3H76v3.72H44
	V59.86z M77.8,88.18H42.2l-0.92-16H78.7L77.8,88.18z"/>
</svg>
