<?xml version="1.0" encoding="utf-8"?>
<!-- Generator: Adobe Illustrator 16.0.0, SVG Export Plug-In . SVG Version: 6.00 Build 0)  -->
<!DOCTYPE svg PUBLIC "-//W3C//DTD SVG 1.1//EN" "http://www.w3.org/Graphics/SVG/1.1/DTD/svg11.dtd">
<svg version="1.1" id="Capa_1" xmlns="http://www.w3.org/2000/svg" xmlns:xlink="http://www.w3.org/1999/xlink" x="0px" y="0px"
	 width="49.16px" height="42.23px" viewBox="0 0 49.16 42.23" enable-background="new 0 0 49.16 42.23" xml:space="preserve">
<g>
	<path fill="#1074B7" d="M44.917,36.53l-5.794-5.606c2.573-3.796,3.739-8.371,3.3-12.936c-0.442-4.564-2.461-8.833-5.711-12.068
		c-2.65-2.613-5.991-4.417-9.633-5.198c-3.64-0.781-7.427-0.507-10.917,0.79s-6.538,3.562-8.786,6.53s-3.602,6.516-3.903,10.227
		c-0.302,3.711,0.462,7.43,2.201,10.723c1.738,3.292,4.381,6.021,7.616,7.862c3.235,1.843,6.929,2.725,10.647,2.542
		c3.719-0.183,7.307-1.424,10.346-3.575l5.813,5.606c0.527,0.52,1.241,0.809,1.979,0.805c0.38,0,0.754-0.073,1.104-0.217
		c0.349-0.145,0.666-0.356,0.935-0.625l0.84-0.859c0.518-0.54,0.805-1.259,0.797-2.007C45.744,37.774,45.444,37.061,44.917,36.53z
		 M11.708,8.685c2.125-2.171,4.832-3.682,7.794-4.352c2.964-0.67,6.058-0.47,8.909,0.577c2.853,1.046,5.342,2.894,7.168,5.32
		c1.827,2.428,2.915,5.33,3.132,8.359c-1.513-3.737-8.316-9.344-15.771-9.344c-7.457,0-14.128,5.606-15.735,9.344
		C7.469,14.855,9.067,11.339,11.708,8.685z M22.921,25.205c-1.042,0.036-2.071-0.237-2.955-0.79
		c-0.886-0.552-1.585-1.354-2.01-2.308c-0.425-0.952-0.556-2.009-0.375-3.036c0.18-1.026,0.663-1.977,1.387-2.728
		c0.724-0.75,1.655-1.268,2.675-1.485c1.021-0.218,2.082-0.125,3.049,0.265c0.968,0.39,1.795,1.06,2.379,1.924
		s0.896,1.883,0.896,2.926c0.005,1.349-0.519,2.646-1.459,3.613c-0.938,0.968-2.219,1.529-3.567,1.563L22.921,25.205z
		 M15.446,24.756c-2.036-1.126-3.738-2.769-4.934-4.765c1.188-2.006,2.892-3.658,4.934-4.784c-0.904,1.429-1.383,3.085-1.383,4.774
		C14.063,21.672,14.542,23.327,15.446,24.756z M30.246,15.207c2.042,1.126,3.745,2.778,4.935,4.784
		c-1.195,1.996-2.898,3.639-4.935,4.765c0.905-1.429,1.383-3.084,1.383-4.774C31.629,18.292,31.151,16.636,30.246,15.207z
		 M33.124,31.877c-3.027,2.531-6.89,3.851-10.833,3.701c-3.946-0.147-7.696-1.754-10.526-4.506c-2.593-2.54-4.225-5.902-4.616-9.512
		c1.664,3.737,8.354,9.176,15.698,9.176c7.345,0,14.128-5.606,15.734-9.344c-0.296,3.075-1.506,5.991-3.476,8.373
		c-0.374,0.615-1.345,1.645-1.887,2.111H33.124z"/>
</g>
</svg>
