<?xml version="1.0" encoding="utf-8"?>
<!-- Generator: Adobe Illustrator 16.0.0, SVG Export Plug-In . SVG Version: 6.00 Build 0)  -->
<!DOCTYPE svg PUBLIC "-//W3C//DTD SVG 1.1//EN" "http://www.w3.org/Graphics/SVG/1.1/DTD/svg11.dtd">
<svg version="1.1" id="Capa_1" xmlns="http://www.w3.org/2000/svg" xmlns:xlink="http://www.w3.org/1999/xlink" x="0px" y="0px"
	 width="43.52px" height="40px" viewBox="38.24 54 43.52 40" enable-background="new 38.24 54 43.52 40" xml:space="preserve">
<title>Menu - Servicios</title>
<path d="M79.34,60.44h-4v-4c0.012-1.336-1.063-2.429-2.399-2.44c-0.021,0-0.04,0-0.061,0H40.66c-1.337,0-2.42,1.083-2.42,2.42
	v28.721c0,1.336,1.083,2.42,2.42,2.42h4v4c-0.011,1.336,1.063,2.429,2.399,2.439c0.02,0,0.04,0,0.061,0h32.22
	c1.337,0,2.42-1.084,2.42-2.42V62.86C81.76,61.523,80.677,60.44,79.34,60.44z M44.7,62.86v20.701h-2.46V58H71.3v2.46H47.12
	C45.791,60.46,44.711,61.531,44.7,62.86z M77.76,90H48.7V64.44h29.06V90z"/>
<rect x="64.68" y="71.94" width="8.24" height="3.041"/>
<rect x="64.68" y="79.48" width="9.961" height="3.039"/>
<path d="M58,80.561c-0.478,0.235-1.009,0.339-1.54,0.299c-0.35,0.004-0.7-0.037-1.04-0.119c-0.303-0.061-0.598-0.154-0.88-0.28
	c-0.234-0.091-0.461-0.198-0.68-0.319l-0.48-0.301L52.3,82.1c0.396,0.239,0.811,0.447,1.24,0.621c0.647,0.229,1.318,0.383,2,0.459
	v2.7h2.66v-2.8c0.887-0.143,1.707-0.563,2.34-1.2c0.581-0.66,0.883-1.521,0.84-2.399c0.013-0.447-0.076-0.893-0.26-1.301
	c-0.189-0.354-0.44-0.672-0.74-0.939c-0.317-0.289-0.674-0.532-1.06-0.721L58,76l-0.96-0.34c-0.3-0.12-0.58-0.221-0.82-0.34
	c-0.213-0.103-0.409-0.237-0.58-0.4c-0.15-0.123-0.237-0.307-0.24-0.5c0-0.7,0.58-1.04,1.74-1.04c0.552-0.005,1.101,0.09,1.62,0.28
	c0.363,0.131,0.711,0.298,1.04,0.5l1.14-2.16c-0.307-0.196-0.636-0.357-0.979-0.48c-0.576-0.228-1.183-0.37-1.8-0.42v-2.52H55.5
	v2.56c-0.842,0.141-1.61,0.564-2.18,1.2c-0.526,0.61-0.804,1.395-0.78,2.2c-0.042,0.784,0.24,1.55,0.78,2.12
	c0.593,0.543,1.268,0.988,2,1.32c0.38,0.16,0.76,0.319,1.14,0.439s0.72,0.26,1.02,0.4c0.266,0.103,0.516,0.244,0.74,0.42
	c0.171,0.135,0.268,0.342,0.26,0.56C58.485,80.127,58.297,80.425,58,80.561z"/>
</svg>
