<?xml version="1.0" encoding="utf-8"?>
<!-- Generator: Adobe Illustrator 16.0.0, SVG Export Plug-In . SVG Version: 6.00 Build 0)  -->
<!DOCTYPE svg PUBLIC "-//W3C//DTD SVG 1.1//EN" "http://www.w3.org/Graphics/SVG/1.1/DTD/svg11.dtd">
<svg version="1.1" id="Capa_1" xmlns="http://www.w3.org/2000/svg" xmlns:xlink="http://www.w3.org/1999/xlink" x="0px" y="0px"
	 width="43.419px" height="43.439px" viewBox="38.34 52.321 43.419 43.439" enable-background="new 38.34 52.321 43.419 43.439"
	 xml:space="preserve">
<title>Menu - Ayuda</title>
<path d="M80.859,67.84c-0.146-0.523-0.5-0.963-0.979-1.22c-0.485-0.237-1.044-0.28-1.56-0.12l-1.1,0.36
	c-1.907-4.506-5.494-8.093-10-10l0.379-1.1c0.162-0.516,0.119-1.075-0.119-1.56c-0.258-0.479-0.697-0.833-1.221-0.98
	c-4.02-1.2-8.301-1.2-12.32,0c-0.523,0.147-0.963,0.501-1.22,0.98c-0.24,0.485-0.283,1.044-0.12,1.56l0.38,1.1
	c-4.544,1.885-8.17,5.475-10.1,10l-1.1-0.36c-0.508-0.168-1.063-0.125-1.54,0.12c-0.487,0.252-0.848,0.693-1,1.22
	c-1.2,4.019-1.2,8.301,0,12.32c0.157,0.52,0.518,0.952,1,1.199c0.28,0.159,0.598,0.242,0.92,0.24c0.206,0.029,0.414,0.029,0.62,0
	l1.1-0.379c1.927,4.527,5.553,8.117,10.1,10l-0.38,1.1c-0.161,0.516-0.118,1.074,0.12,1.56c0.256,0.479,0.697,0.833,1.22,0.979
	c4.019,1.2,8.3,1.2,12.32,0c0.523-0.146,0.963-0.5,1.221-0.979c0.236-0.485,0.279-1.044,0.119-1.56l-0.379-1.1
	c4.508-1.904,8.096-5.492,10-10l1.1,0.379c0.205,0.029,0.414,0.029,0.619,0c0.328-0.002,0.652-0.084,0.94-0.24
	c0.475-0.252,0.828-0.684,0.979-1.199C82.06,76.141,82.06,71.859,80.859,67.84L80.859,67.84z M70.46,74c0-0.22,0-0.44,0-0.66
	L77.52,71c0.348,1.985,0.348,4.016,0,6l-7.06-2.34C70.46,74.44,70.46,74.22,70.46,74z M73.42,68.14l-4,1.34
	c-1.035-2.126-2.754-3.844-4.88-4.88l1.34-4C69.248,62.083,71.938,64.772,73.42,68.14z M61.42,80.279
	c-0.426,0.104-0.861,0.156-1.3,0.16h-0.26c-0.444-0.004-0.887-0.058-1.32-0.16c-2.408-0.551-4.289-2.432-4.84-4.84
	c-0.104-0.418-0.157-0.848-0.16-1.279c0,0,0,0,0-0.16s0-0.12,0-0.18c0.004-0.425,0.058-0.848,0.16-1.26
	c0.553-2.411,2.431-4.297,4.84-4.86c0.421-0.087,0.85-0.134,1.28-0.14h0.32c0.43,0.014,0.859,0.067,1.28,0.16
	c2.408,0.563,4.287,2.449,4.84,4.86c0.103,0.412,0.156,0.835,0.16,1.26c0,0,0,0.12,0,0.18s0,0.12,0,0.18
	c-0.006,0.417-0.053,0.832-0.141,1.239c-0.555,2.406-2.434,4.285-4.84,4.84H61.42z M62.98,56.5l-2.34,7.06
	c-0.161-0.01-0.321-0.01-0.48,0H59.8c-0.16-0.01-0.32-0.01-0.48,0L57,56.5c1.985-0.34,4.015-0.34,6,0H62.98z M54.12,60.5l1.34,4
	c-2.126,1.036-3.845,2.753-4.88,4.88l-4-1.34c1.5-3.343,4.197-6.004,7.56-7.46L54.12,60.5z M42.5,77c-0.347-1.984-0.347-4.015,0-6
	l7.06,2.34c0,0.22,0,0.44,0,0.66s0,0.44,0,0.66L42.5,77z M46.62,79.859l4-1.34c1.042,2.123,2.758,3.839,4.88,4.881l-1.34,4
	C50.791,85.92,48.1,83.229,46.62,79.859z M57,91.5l2.34-7.061h1.32L63,91.5C61.015,91.84,58.985,91.84,57,91.5z M65.859,87.38
	l-1.34-4c2.127-1.035,3.845-2.753,4.881-4.88l4,1.34C71.92,83.209,69.229,85.9,65.859,87.38z"/>
</svg>
