<?xml version="1.0" encoding="utf-8"?>
<!-- Generator: Adobe Illustrator 16.0.0, SVG Export Plug-In . SVG Version: 6.00 Build 0)  -->
<!DOCTYPE svg PUBLIC "-//W3C//DTD SVG 1.1//EN" "http://www.w3.org/Graphics/SVG/1.1/DTD/svg11.dtd">
<svg version="1.1" id="Capa_1" xmlns="http://www.w3.org/2000/svg" xmlns:xlink="http://www.w3.org/1999/xlink" x="0px" y="0px"
	 width="51px" height="43.95px" viewBox="34.5 50.25 51 43.95" enable-background="new 34.5 50.25 51 43.95" xml:space="preserve">
<title>Menu - Novedades</title>
<path d="M79.561,71.44c-0.039-3.638-2.629-6.747-6.201-7.44v-4.82c0.008-1.901-0.988-3.665-2.619-4.64
	c-0.832-0.488-1.776-0.75-2.74-0.76c-0.939-0.014-1.867,0.206-2.7,0.64l-1.56,0.84l-0.221,0.12l-11.1,6l-0.18,0.12h-5.28
	c-3.593,0-6.509,2.907-6.52,6.5v7.4c-0.044,3.6,2.839,6.555,6.439,6.6c0.027,0,0.054,0,0.081,0h1.44l-4.54,7.8
	c-0.763,1.413-0.278,3.177,1.1,4c0.459,0.255,0.975,0.393,1.5,0.4c1.072,0.001,2.064-0.571,2.6-1.5l5.6-9.64l9,4.5l0.199,0.119
	L65.5,88.5c0.752,0.377,1.58,0.576,2.42,0.58l0,0c2.986-0.012,5.4-2.435,5.4-5.42v-4.721C76.93,78.26,79.547,75.113,79.561,71.44z
	 M44.44,75.439V68c0-1.392,1.128-2.52,2.52-2.52l0,0h4V78h-4c-1.403-0.011-2.531-1.156-2.521-2.559c0-0.014,0-0.027,0-0.041V75.439z
	 M69.359,83.721c0.009,0.488-0.242,0.944-0.659,1.199c-0.216,0.121-0.454,0.196-0.7,0.221h-0.12c-0.202-0.014-0.399-0.068-0.58-0.16
	l-1.44-0.721l-0.199-0.119L55.52,79.08V64.34l10.259-5.5l0.201-0.12l1.359-0.74c0.226-0.105,0.471-0.159,0.721-0.16
	c0.246,0.007,0.486,0.076,0.699,0.2c0.428,0.247,0.688,0.706,0.68,1.2L69.359,83.721z M73.359,74.82V68.1
	c1.846,0.799,2.693,2.942,1.894,4.787c-0.368,0.848-1.044,1.525-1.894,1.892V74.82z"/>
</svg>
