<?xml version="1.0" encoding="utf-8"?>
<!-- Generator: Adobe Illustrator 16.0.0, SVG Export Plug-In . SVG Version: 6.00 Build 0)  -->
<!DOCTYPE svg PUBLIC "-//W3C//DTD SVG 1.1//EN" "http://www.w3.org/Graphics/SVG/1.1/DTD/svg11.dtd">
<svg version="1.1" id="Capa_1" xmlns="http://www.w3.org/2000/svg" xmlns:xlink="http://www.w3.org/1999/xlink" x="0px" y="0px"
	 width="43.52px" height="40.1px" viewBox="38.24 54 43.52 40.1" enable-background="new 38.24 54 43.52 40.1" xml:space="preserve"
	>
<title>Menu - Portal</title>
<path d="M79.18,54H40.82c-1.425,0-2.58,1.155-2.58,2.58l0,0V91.52c0,1.426,1.155,2.58,2.58,2.58l0,0h38.36
	c1.426,0,2.58-1.154,2.58-2.58l0,0V56.48C81.706,55.094,80.566,53.999,79.18,54z M77.76,58v4H42.24v-4H77.76z M42.24,90.1V66h35.52
	v24.1H42.24z"/>
<rect x="60.44" y="71.68" width="11.14" height="3.62"/>
<rect x="60.44" y="80.7" width="13.201" height="3.62"/>
<rect x="46.34" y="71.68" width="10.64" height="12.64"/>
</svg>
